<?xml version="1.0" standalone="no"?>
<!DOCTYPE svg PUBLIC "-//W3C//DTD SVG 1.1//EN" "http://www.w3.org/Graphics/SVG/1.1/DTD/svg11.dtd" >
<svg>
<metadata>
Created by FontForge 20120731 at Thu Oct 16 19:18:44 2014
 By World Wide Web Server
Copyright (c) 1994 ImageLine Incorporated. All Rights Reserved.
</metadata>
<defs>
<font id="AdVentura33-Condensed" horiz-adv-x="336" >
  <font-face 
    font-family="AdVentura33"
    font-weight="5"
    font-stretch="normal"
    units-per-em="1000"
    panose-1="0 0 0 0 0 0 0 0 0 0"
    ascent="800"
    descent="-200"
    x-height="369"
    cap-height="793"
    bbox="-297.071 -652 1750 1140"
    underline-thickness="20"
    underline-position="-123"
    unicode-range="U+0020-2122"
  />
<missing-glyph horiz-adv-x="800" 
d="M50 0v800h700v-800h-700zM700 50v700h-600v-700h600z" />
    <glyph glyph-name=".notdef" horiz-adv-x="800" 
d="M50 0v800h700v-800h-700zM700 50v700h-600v-700h600z" />
    <glyph glyph-name=".null" horiz-adv-x="0" 
 />
    <glyph glyph-name="nonmarkingreturn" horiz-adv-x="266" 
 />
    <glyph glyph-name="space" unicode=" " horiz-adv-x="266" 
 />
    <glyph glyph-name="exclam" unicode="!" horiz-adv-x="134" 
d="M57 158q-8 -3 -13 -3q-11 0 -17 11.5t-9 26.5q0 149 14.5 293t42.5 299q11 15 25 15q27 0 27 -33q-23 -152 -45 -304q-25 -182 -25 -305zM54 0q-21 3 -34.5 6t-13.5 19q3 12 7 26t15 19q10 2 13 2q15 0 26 -10q8 -7 16 -23q-7 -15 -10 -22q-7 -13 -19 -17z" />
    <glyph glyph-name="quotedbl" unicode="&#x22;" horiz-adv-x="176" 
d="M99 565q-19 0 -19 19q0 7 3 20t3 17l32 142q5 9 16 9q13 0 16 -13q-5 -17 -13 -75q-12 -84 -38 -119zM47 576q-4 -4 -9 -8.5t-11 -2.5l-12 14q17 101 35 203q9 3 17 -3.5t12 -10.5z" />
    <glyph glyph-name="numbersign" unicode="#" horiz-adv-x="420" 
d="M274 702l11 -6q-15 -37 -15 -86q15 -2 29.5 -3t32.5 -1q24 0 38 2.5t28 9.5l4 -13q-24 -12 -72 -12q-24 0 -39 2t-22 2l-4 -123q12 3 56.5 6t55.5 5l1 -14q-57 -6 -114 -11l-2 -10v-84h-11v85l2 7l-116 -1q0 -28 1 -38t10 -62l-11 -2q-7 41 -9 61t-2 41h-84v14h84
q0 40 1 69.5t5 60.5q-36 0 -66 -4.5t-53 -15.5l-4 12q23 13 53.5 17.5t71.5 4.5q6 50 7 54t8 28l9 -4q-3 -11 -7 -34.5t-6 -42.5l22 2q18 0 46.5 -3t45.5 -4q0 53 15 91zM258 597q-24 2 -51.5 4.5t-38.5 2.5l-25 -2q-6 -63 -6 -131h117q0 19 2 69.5t2 56.5z" />
    <glyph glyph-name="dollar" unicode="$" horiz-adv-x="439" 
d="M322 588q-64 -16 -127 -31q-70 -23 -107 -71q-1 -5 -1 -13q0 -32 38 -49q50 -16 72 -24q74 -17 110 -28q65 -20 85 -71q0 -38 -17 -69.5t-49 -43.5q-25 -8 -49 -15q-30 -14 -30 -39q0 -7 1 -11l-2 -123q-22 6 -30 22t-8 41v20.5t1 21.5q0 15 -2 28.5t-8 23.5
q-47 7 -93 15q-53 11 -86 35q13 14 31 14q15 0 48.5 -11.5t49.5 -11.5q8 0 12 1h21q45 0 75 5t56 23q14 9 23.5 25.5t9.5 31.5q0 21 -20 32q-36 30 -144.5 51.5t-142.5 74.5q-4 12 -4 25q0 29 24 55q17 19 48 37q61 0 83 35q16 26 16 83q0 13 -0.5 26.5t-0.5 27.5
q0 21 2 38.5t8 30.5l31 -5l2 -168q10 -1 31 -1h28t29 1q29 0 46 -2.5t37 -12.5q-3 -12 -13 -16.5t-27 -4.5q-22 1 -33 1q-15 0 -24 -4z" />
    <glyph glyph-name="percent" unicode="%" horiz-adv-x="504" 
d="M173 557q-22 -19 -47 -19q-42 0 -67 44q-15 27 -15 58q0 53 35 83q21 18 46 18q44 0 67 -43q15 -27 15 -59q0 -53 -34 -82zM243 421q-28 -98 -56 -195q-35 -115 -73 -177l-12 12q41 68 85 222l42 146q15 52 51 118q90 168 98 188q-20 -7 -34.5 -11t-35.5 -4
q-29 0 -49.5 3.5t-48.5 11.5l4 20q28 -8 47 -11.5t47 -3.5t52.5 8.5t45.5 16.5q-19 -57 -51.5 -117t-62.5 -115q-35 -66 -49 -112zM429 92q-22 -19 -47 -19q-42 0 -67 44q-15 27 -15 58q0 53 35 83q21 18 46 18q44 0 67 -43q15 -27 15 -59q0 -53 -34 -82zM89 707
q-14 -11 -21 -29.5t-7 -38.5q0 -25 11 -45q20 -36 54 -36q20 0 37 15q14 11 21 29.5t7 37.5q0 25 -12 46q-20 35 -55 35q-18 0 -35 -14zM345 242q-14 -11 -21 -29.5t-7 -38.5q0 -25 11 -45q20 -36 54 -36q20 0 37 15q14 11 21 29.5t7 37.5q0 25 -12 46q-20 35 -55 35
q-18 0 -35 -14z" />
    <glyph glyph-name="ampersand" unicode="&#x26;" horiz-adv-x="918" 
d="M856 41q-26 9 -46 19q-38 21 -75 42q-93 -46 -187 -72q-109 -30 -209 -30q-77 0 -143 19t-121 61q-15 22 -24.5 48t-9.5 53q0 8 0.5 18.5t7.5 25.5q31 81 135 151q73 45 107 67q-35 60 -35 127q0 59 27 106q45 55 93 86q60 38 126 38q84 0 127 -21q37 -18 56 -54
q5 -18 8.5 -33.5t3.5 -24.5q0 -24 -12 -40q-47 -62 -139 -114q-38 -21 -167 -80v-22q47 -47 87 -81q49 -42 96 -70q40 6 84 13t78 7q32 0 62 -6t56 -21q8 -8 8 -25q0 -12 -4 -24l-68 -67q36 -31 43 -36q27 -20 53 -25q2 -4 2 -11q0 -10 -4.5 -17t-15.5 -7zM412 739
q-48 -25 -78 -61q-36 -43 -36 -91q0 -7 2 -21q8 -53 16.5 -69t29.5 -29q93 42 138 63q81 38 127 79q16 15 26.5 34.5t10.5 40.5q0 14 -4 23q-17 30 -48 44t-70 14q-32 0 -60 -6.5t-54 -20.5zM797 239q-52 0 -90 -2t-77 -10q14 -20 47 -38q11 -6 62 -29q21 11 39 27.5
t35 37.5zM558 209q-15 3 -29 3q-39 0 -79 -16q-9 -4 -44 -22l-12 8q0 34 32 45.5t63 21.5l-157 149l-22 4q-61 -39 -122 -77q-68 -50 -94 -108q-8 -26 -8 -54t7.5 -47t28.5 -30q46 -26 100.5 -38.5t114.5 -12.5q90 0 177.5 25t161.5 69q-18 17 -57 41q-46 28 -61 39z" />
    <glyph glyph-name="quotesingle" unicode="'" horiz-adv-x="72" 
d="M23 605q-19 0 -19 19q0 7 3 20t3 17l32 142q5 9 16 9q13 0 16 -13q-5 -17 -13 -75q-12 -84 -38 -119z" />
    <glyph glyph-name="parenleft" unicode="(" horiz-adv-x="158" 
d="M125 15v-12q-6 -3 -12 -3q-16 0 -27.5 11.5t-19.5 29.5q-59 142 -59 315q0 111 25 219.5t71 200.5q0 24 24 24q9 0 16.5 -5.5t7.5 -12.5q0 -6 -6 -14q-45 -94 -69.5 -200.5t-24.5 -217.5q0 -94 17.5 -176t56.5 -159z" />
    <glyph glyph-name="parenright" unicode=")" horiz-adv-x="119" 
d="M25 5q-3 -5 -19 -5v12q0 19 6 40q17 61 18 69q44 159 44 328q0 98 -14.5 181.5t-46.5 162.5q7 7 15 7q12 0 21 -11.5t14 -27.5q26 -75 38 -153.5t12 -165.5q0 -235 -88 -437z" />
    <glyph glyph-name="asterisk" unicode="*" horiz-adv-x="173" 
d="M125 617q8 0 15.5 -0.5t14.5 -0.5q8 0 13 1l1 -10q-6 -1 -16 -1q-16 1 -28 1l-31 -1l28 -28q18 -17 29 -27l-5 -8q-8 7 -27 25q-14 13 -28 27l7 -75l-8 -1l-6 73l-40 -63l-6 6q10 18 20 34.5t24 34.5q-17 -3 -36 -8.5t-32 -8.5l-2 10l61 16l-39 32l4 9q15 -10 23 -17
q14 -14 21 -20l-5 50v13h8v-12l5 -53q12 13 22.5 22.5t22.5 16.5l3 -9q-7 -5 -13 -9q-11 -8 -21 -19h21z" />
    <glyph glyph-name="plus" unicode="+" horiz-adv-x="448" 
d="M270 419q-10 -14 -16 -48t-13 -74q-7 -3 -12.5 -4.5t-9.5 2.5l-1 112q-77 11 -154 23q-23 9 -39.5 24.5t-21 32.5t-4.5 27q0 23 13.5 41.5t36 28.5t47.5 10q23 0 45 -6.5t42 -19t35.5 -37t22.5 -52.5q12 16 26 63.5t35 62.5q15 -12 15 -28q0 -13 -10 -33q-23 -46 -23 -58
q1 -5 -2.5 -13.5t-3.5 -10.5q0 -9 13 -9q20 2 48 5.5t35 3.5q26 0 49 -9q2 -4 4.5 -8.5t-2.5 -8.5q-56 0 -87.5 -3t-67.5 -14zM202 503q-19 33 -48 50.5t-68 17.5q-13 2 -26 -7q-8 -6 -17 -16.5t-9 -24.5q0 -7 2.5 -16.5t5.5 -17.5q18 -26 48.5 -37t69.5 -11q25 0 51 3z" />
    <glyph glyph-name="comma" unicode="," horiz-adv-x="168" 
d="M-1 -142q-11 -3 -20.5 5.5t-15.5 12.5l5 37l146 182q6 3 11 3q10 0 14.5 -16t10.5 -19q-29 -55 -90 -130q-25 -32 -61 -75z" />
    <glyph glyph-name="hyphen" unicode="-" horiz-adv-x="324" 
d="M50 355l-4 20q56 20 141 36q52 10 95 19l4 -20q-87 -17 -123 -24q-62 -13 -113 -31z" />
    <glyph glyph-name="period" unicode="." horiz-adv-x="84" 
d="M54 24q-8 -4 -15 -4q-3 0 -8.5 2.5t-5.5 12.5v11q7 8 15 9q18 -2 21 -12q-1 -7 -1.5 -11.5t-5.5 -7.5z" />
    <glyph glyph-name="slash" unicode="/" horiz-adv-x="312" 
d="M203 581q-27 -66 -70 -165q-54 -122 -71 -163q-42 -100 -67 -172l-14 8q25 74 66 171q22 52 70.5 161.5t71.5 167.5q17 43 61 115q33 53 40 67l12 -12q-50 -89 -99 -178z" />
    <glyph glyph-name="zero" unicode="0" horiz-adv-x="776" 
d="M582 81q-50 -38 -109 -59.5t-122 -21.5q-35 0 -75 8q-70 15 -125.5 62t-84.5 114q-16 36 -24 77t-8 82q0 93 38.5 183t104.5 155q74 58 113 80q70 39 136 39l12 -15q-9 -14 -42.5 -20.5t-43.5 -14.5q-115 -50 -187 -145q-75 -100 -75 -219q0 -102 30 -176
q34 -85 108 -132q27 -17 60.5 -25.5t71.5 -8.5q37 0 73.5 8t65.5 22q100 48 148 155q36 81 49 213q0 87 -32 156q-35 77 -104 119q-32 21 -74 21q-38 0 -78 -16q-34 -13 -67 -38q-7 -5 -23 -20q-27 -26 -46 -20q3 28 27 51q12 11 50 35q58 37 129 37q15 0 31.5 -1.5
t37.5 -9.5q80 -28 131 -106q45 -69 58 -159q5 -40 5 -71q0 -102 -41.5 -191t-117.5 -148z" />
    <glyph glyph-name="one" unicode="1" horiz-adv-x="113" 
d="M54 4q-4 -4 -14.5 -4t-13.5 -1l-15 19q-7 70 -7 149q0 67 12 281q6 107 6 166q-17 20 -17 44t21 68q25 51 28 70q10 5 23 5q27 0 31 -19q-23 -93 -35 -198t-15.5 -208.5t-3.5 -233.5v-138z" />
    <glyph glyph-name="two" unicode="2" horiz-adv-x="665" 
d="M452 54q-49 10 -103.5 20.5t-98.5 10.5q-42 0 -76 -8.5t-64 -29.5q-8 0 -25 -3.5t-22 -3.5q-13 0 -24 7q-8 8 -8 18q0 8 4 15.5t8 13.5q31 19 89 22t82 8q147 109 234 214q107 129 141 274q0 7 0.5 15.5t0.5 11.5q0 33 -8 55.5t-30.5 38t-52 23t-60.5 7.5q-51 0 -97 -16
q-70 -22 -123.5 -75.5t-77.5 -125.5q-1 -4 -1 -12q0 -13 4.5 -25t13.5 -27q19 -11 46 -11q24 0 46 11q36 27 52 41q23 20 45 48q4 -11 4 -22q0 -26 -25.5 -50.5t-48.5 -46.5q-19 -9 -39 -14.5t-41 -5.5q-14 0 -29 3q-35 21 -45 31q-21 20 -21 46q0 48 24 95t102 125
q43 30 103 49.5t116 19.5q52 0 97 -18q26 -11 48 -33q19 -19 36 -48q6 -33 6 -65q0 -84 -38 -166q-34 -73 -97 -145q-51 -58 -126 -120l-100 -82l4 -6q72 0 166 -28q79 -24 158 -47l21 -12q13 -8 13 -20q0 -5 -3 -11q-34 0 -89 22q-68 27 -91 32z" />
    <glyph glyph-name="three" unicode="3" horiz-adv-x="704" 
d="M512 32q-93 -32 -194 -32q-76 0 -146 19.5t-128 60.5q-9 4 -10.5 10.5t-1.5 20.5l14 13q52 -39 127 -62.5t155 -23.5q48 0 92 10t82 32q54 31 85 70q35 44 41 99q0 56 -34.5 98.5t-91.5 60.5q-58 -23 -89 -34q-58 -21 -96 -21q-26 0 -46.5 7.5t-40.5 26.5q-3 8 -3 15
q0 19 17 35q11 10 33 23q14 9 31.5 13t35.5 4q20 0 84 -12q32 -6 49 -6q27 0 47 10t36 35q24 27 37 60.5t13 71.5q0 30 -10 56q-17 40 -69 55q-36 10 -101 10q-82 0 -155 -42q-69 -39 -117 -109q-6 -50 -32 -87q-21 7 -21 29q0 9 3.5 21.5t7.5 24.5q34 86 117 141
q77 51 176 63q29 3 56 3q56 0 97 -16.5t67 -59t26 -96.5q0 -40 -17 -73q-10 -31 -41 -64q-26 -27 -51 -53q74 -56 100 -96.5t26 -82.5q0 -74 -45 -135q-41 -56 -115 -93zM359 439q-28 -6 -48 -10.5t-24 -24.5q15 -1 26.5 -1.5t20.5 -0.5q33 0 59.5 6.5t40.5 24.5z" />
    <glyph glyph-name="four" unicode="4" horiz-adv-x="714" 
d="M655 196q-39 7 -96.5 9.5t-72.5 2.5q-11 -44 -11 -98q0 -31 1.5 -47.5t7.5 -56.5q-6 -6 -14 -6t-26 10q-10 23 -13.5 46.5t-3.5 56.5q0 24 1 47.5t2 47.5q-43 8 -177 10t-197 30q-24 20 -24 48q0 25 18 54q50 84 123 167q58 65 148 145q60 53 163 137q5 1 15 1
q26 0 48 -12.5t29 -34.5q-7 -64 -30 -161q-37 -156 -38 -162q-18 -92 -18 -167q22 -10 91.5 -15.5t100.5 -30.5q-7 -9 -11 -13q-8 -8 -16 -8zM90 317q-6 -8 -6 -21q0 -11 7 -15q36 -9 88.5 -13.5t104.5 -4.5q27 0 77 1t71 1q0 71 18.5 155.5t38 171.5t19.5 155
q-89 -49 -168 -121q-65 -59 -132 -145q-47 -60 -118 -164z" />
    <glyph glyph-name="five" unicode="5" horiz-adv-x="628" 
d="M388 23q-77 -24 -157 -24q-100 0 -184 37q-11 2 -15 9.5t-4 18.5v6q2 4 2 5l4 6q47 -18 100.5 -28.5t106.5 -10.5q59 0 108.5 14t88.5 46q54 43 86.5 99t32.5 118q0 14 -1.5 29.5t-9.5 37.5q-11 34 -39.5 63.5t-60.5 43.5q-41 12 -81 12q-62 0 -124 -23q-54 -20 -108 -58
q-18 5 -25 8q-13 7 -19 19q0 80 15 158.5t43 161.5q67 17 152.5 23t183.5 6h48l11 -13q0 -13 -9 -19l-34 -14q-50 0 -115 -4q-147 -9 -183 -9l-24 -31l-40 -228q7 -8 13 -8t19.5 12.5t20.5 12.5q31 20 74.5 31t87.5 11q95 0 162 -46q39 -36 61.5 -84.5t22.5 -101.5
q0 -19 -3 -39q-15 -85 -71 -153.5t-136 -93.5z" />
    <glyph glyph-name="six" unicode="6" horiz-adv-x="683" 
d="M473 46q-39 -20 -87 -32.5t-92 -12.5q-34 0 -62.5 6.5t-56.5 21.5q-74 40 -108.5 110.5t-34.5 159.5v26q2 13 2 18q12 147 125 270q107 117 255 162q37 11 72 18t65 7q23 0 41.5 -3t39.5 -12q4 -7 4 -16q0 -19 -18 -28q-8 -8 -19 -8q-7 0 -20.5 5t-19.5 6
q-140 0 -253.5 -67t-180.5 -185q-4 -12 -19 -45q-23 -50 -23 -79q0 -10 1 -15q47 72 113 121q70 52 153 71q28 7 63 7q88 0 146 -46q33 -16 58 -52.5t33 -75.5q1 -8 1.5 -15.5t0.5 -17.5q0 -96 -49 -177t-130 -122zM499 496q-42 8 -80 8q-106 0 -185 -50q-65 -42 -102 -92
q-46 -62 -46 -133q0 -8 1 -16.5t1 -13.5q16 -57 60.5 -100.5t102.5 -56.5q27 -7 56 -7q54 0 105 23q42 19 89 58q46 46 73 97q32 60 32 120q0 20 -3 38t-11 38q-16 33 -38 54.5t-55 32.5z" />
    <glyph glyph-name="seven" unicode="7" horiz-adv-x="686" 
d="M581 682q-126 -183 -143 -209q-85 -129 -132 -223q-62 -125 -92 -246q-5 -4 -10 -4q-7 0 -15 8t-15 18q53 190 155 375q88 160 228 339l-15 10q-34 0 -76 2q-104 5 -132 5q-73 0 -126 -10t-96 -39q-12 -13 -20.5 -28t-25.5 -57h-28q-7 17 -7 36q0 30 16 71q13 33 27 67
q12 -4 17 -25t7 -24q50 30 112 41.5t142 11.5q46 0 118 -2.5t82 -2.5h12q15 0 29 0.5t52 4.5l10 -11q-3 -22 -20 -43q-27 -33 -54 -65z" />
    <glyph glyph-name="eight" unicode="8" horiz-adv-x="820" 
d="M670 668q1 -6 5.5 -16.5t4.5 -14.5q0 -8 -10 -14q-5 -6 -15.5 -6.5t-15.5 -0.5q-3 5 -3 9q4 11 4 17q0 5 -4 10q-72 -17 -170 -79q-49 -31 -97 -62q17 -18 46 -33q43 -22 87 -44q51 -36 82 -78q39 -53 39 -109q0 -68 -45 -126q-39 -50 -105 -83q-74 -38 -170 -38
q-59 0 -110 15.5t-91 49.5q-31 33 -46 61q-20 36 -20 72q0 25 10 49q28 69 86 133q48 53 124 108q-4 3 -62 46q-68 50 -68 109q0 46 45 86q35 30 90.5 51.5t119.5 21.5q70 0 136.5 -25t114.5 -68q23 0 48 10q62 25 77 25q11 0 23 -3q2 -4 2 -14v-15q-39 -12 -58 -18
q-35 -11 -54 -26zM380 761q-96 -22 -122 -33q-66 -27 -85 -80q5 -37 31 -61q10 -9 106 -57q56 37 135 80q50 27 137 70l8 11q-36 37 -91.5 53.5t-118.5 16.5zM306 463q-66 -46 -113 -93q-58 -58 -83 -116q-14 -33 -14 -66q0 -57 34 -91q36 -27 84.5 -41t99.5 -14
q75 0 134.5 28t92.5 68q39 47 39 106v15q-17 61 -71 107q-65 55 -203 97z" />
    <glyph glyph-name="nine" unicode="9" horiz-adv-x="670" 
d="M534 4q-7 -4 -13 -4q-14 3 -23 4l-17 24q0 26 -1 78t-1 77q0 40 2 74t9 69q-26 -3 -69 -23q-35 -16 -43 -19q-48 -15 -105 -15q-54 0 -98 13.5t-77 43.5t-50 72.5t-17 89.5q0 42 15 83q18 73 77.5 131.5t130.5 80.5q34 10 67 14t69 4q47 0 87 -5t102 -17q9 20 30 20
q10 0 17 -7l14 -13q-56 -174 -81 -366t-25 -409zM229 724q-67 -32 -104.5 -97t-37.5 -143v-10q0 -49 24.5 -90.5t67.5 -64.5q45 -15 91 -15q61 0 117.5 22t102.5 61l69 320q-35 24 -81.5 36.5t-95.5 12.5q-84 0 -153 -32z" />
    <glyph glyph-name="colon" unicode=":" horiz-adv-x="264" 
d="M133 508q-8 -3 -16 -3q-19 0 -34 12t-15 31q-2 20 15 35q12 10 35 20q23 -5 29 -8q18 -8 23 -23q1 -3 1 -11q0 -21 -9 -36t-29 -17zM121 203q-18 12 -26 18q-16 12 -16 26q-3 8 -3 14q0 15 13.5 26.5t28 16t21.5 4.5q11 0 19 -7t21 -30q0 -32 -12.5 -47.5t-45.5 -20.5z
" />
    <glyph glyph-name="semicolon" unicode=";" horiz-adv-x="152" 
d="M110 531q-18 0 -29 9t-11 23q0 6 6 18t25 12q29 0 35 -25q4 -12 -5 -23.5t-21 -13.5zM28 192q-8 3 -16.5 7.5t-8.5 12.5q11 39 45 81q51 63 58 75q9 1 16.5 -7.5t11.5 -12.5q-19 -40 -46.5 -81t-59.5 -75z" />
    <glyph glyph-name="less" unicode="&#x3c;" horiz-adv-x="388" 
d="M253 557q-42 -42 -95 -90l-98 -88l148 -176q78 -105 108 -225l-16 -6q-21 86 -65 160q-33 55 -93 126l-106 124q103 95 207 191l42 38q22 23 32 53l14 -8q-11 -37 -43 -67q-18 -16 -35 -32z" />
    <glyph glyph-name="equal" unicode="=" horiz-adv-x="420" 
d="M386 425q-10 2 -17 2q-12 0 -36 -4t-63 -8.5t-85 -4.5q-42 0 -75.5 3t-67.5 12l4 20q59 -15 140 -15q29 0 45 1t48 4l94 12q7 0 17 -2zM394 260q-14 4 -23.5 5t-22.5 1q-20 0 -32 -1q-61 -5 -89 -5q-45 0 -93 5t-88 15l4 20q38 -10 84 -15t95 -5q38 0 76 3t46 3
q12 0 22.5 -1t24.5 -5z" />
    <glyph glyph-name="greater" unicode="&#x3e;" horiz-adv-x="388" 
d="M104 27l-16 6q22 88 64 160q29 50 92 124q50 58 100 117q-97 89 -193 178q-23 21 -45.5 43.5t-32.5 55.5l14 8q9 -29 32 -52q28 -25 42 -39q35 -35 99 -93q79 -71 108 -98q-77 -93 -154 -185q-81 -108 -110 -225z" />
    <glyph glyph-name="question" unicode="?" horiz-adv-x="695" 
d="M234 249q-3 -6 -3 -12q0 -9 7.5 -22t7.5 -18q0 -7 -8 -12q-18 6 -29 15q-15 13 -12 31q0 79 49 124q36 25 150 79q102 48 146 86q69 59 80 142q-7 28 -21 48q-18 26 -44 34q-45 9 -90 9q-124 0 -234 -59t-182 -158q-12 -4 -17 4.5t-2 19.5l9 32q93 93 181 144
q112 65 221 65q34 0 70 -7t71 -22l52 -50q8 -21 17.5 -45t9.5 -46v-16q-3 -8 -4 -11q-27 -90 -121 -144q-87 -40 -173 -80q-98 -51 -131 -131zM242 0q-15 2 -25.5 8t-15.5 18q-2 12 7.5 25.5t10.5 16.5q10 2 14 2q11 0 21 -7q6 -4 18 -15q3 -6 3 -14q0 -13 -9.5 -23.5
t-23.5 -10.5z" />
    <glyph glyph-name="at" unicode="@" horiz-adv-x="304" 
d="M198 368q-45 0 -45 35v6q-14 -19 -29.5 -30.5t-37.5 -11.5q-13 0 -13 20q0 18 32.5 39.5t52.5 21.5q11 0 23 -8l-4 -9q-9 7 -19 7q-18 0 -47.5 -17t-29.5 -34q0 -10 5 -10q17 0 33.5 11t41.5 50v-35q0 -14 9.5 -19.5t27.5 -5.5q30 0 56.5 26.5t26.5 62.5q0 32 -33 48.5
t-71 16.5t-71 -22q-28 -19 -48 -51q-10 -13 -20 -28t-10 -33q0 -39 26.5 -60t62.5 -21q22 0 44 7t53 30l4 -9q-23 -16 -48.5 -27t-52.5 -11q-39 0 -66 22q-31 25 -31 69q0 24 15 45l16 22q21 32 51 53q35 24 75 24t76 -19.5t36 -55.5q0 -40 -28.5 -69.5t-62.5 -29.5z" />
    <glyph glyph-name="A" unicode="A" horiz-adv-x="740" 
d="M749 -34q-3 -1 -6.5 -1h-4.5q-27 0 -46 35l-18 34q-14 31 -52 145q-18 53 -33 87q-71 0 -158.5 -6t-185.5 -17q-46 -60 -74 -92q-47 -52 -89 -80q-52 -34 -112 -42q-48 0 -89 24t-59 64q-9 12 -11.5 28.5t-2.5 41.5q5 3 11 3q9 -1 13 -1q10 -44 21 -64q19 -36 52 -49
q24 -10 51 -10q40 0 80 22q33 18 65 50.5t45 46.5q24 25 30 49q-33 0 -59.5 -4t-68.5 -15q-6 5 -6 16q0 9 3 15q16 10 124 23q77 9 89 69q65 96 121 203q49 94 100 215q9 3 23.5 6t26.5 3q27 0 40 -14q0 -106 22 -225q17 -95 52 -213l80 -10q0 -12 -5.5 -20t-17.5 -16
q-17 2 -25 2q-14 0 -17 -10q27 -91 46 -142q28 -74 65 -133q-2 -8 -7 -13.5t-13 -4.5zM510 676h-7q-18 -32 -72 -130q-46 -84 -72 -129q-41 -71 -76 -123q86 0 185 9q30 3 110 12q-20 85 -37.5 177.5t-30.5 183.5z" />
    <glyph glyph-name="B" unicode="B" horiz-adv-x="912" 
d="M763 122q-127 -49 -264 -78t-270 -29q-73 0 -147 9q-11 1 -20 13t-9 25q0 8 4 15q4 4 9 4t15 -8t13 -9h55q0 70 2 129q7 205 7 215l-30 18q2 9 12 19q25 24 27 29l28 258l-7 5q-121 -20 -148 -26q-81 -19 -134 -55q-7 4 -9 5q-10 7 -8 15q-4 25 19 34.5t44 17.5
q95 22 177 39q114 24 187 34q103 14 189 14q93 0 171 -14.5t155 -50.5q45 -33 45 -86v-16l-4 -12q-32 -52 -107 -93q-30 -16 -136 -61q139 -31 182 -50q98 -43 124 -129q-10 -71 -88 -128q-27 -20 -84 -53zM806 696q-60 38 -132.5 53t-160.5 15q-55 0 -96.5 -3t-123.5 -11
l-21 -9q-22 -60 -32.5 -125t-10.5 -134h9q28 3 151 10.5t189 21.5q90 19 152 58q31 19 63 39q34 26 30 61zM848 368q-67 38 -153.5 56t-179.5 18q-71 0 -142 -8t-151 -24q-8 -53 -10.5 -106.5t-2.5 -129.5v-81l9 -25l138 5q181 29 193 32q109 22 183 58q92 44 146 117
q4 12 4 27q0 41 -34 61z" />
    <glyph glyph-name="C" unicode="C" horiz-adv-x="868" 
d="M668 76q-72 -35 -156.5 -56t-168.5 -21q-67 0 -126 14.5t-108 46.5q-56 37 -83 98.5t-27 135.5v24t4 33q37 163 179 283q134 114 312 149q34 7 76.5 12.5t77.5 5.5q69 0 114 -18q56 -22 82 -73q2 -18 2 -25q0 -64 -71 -123q-52 -40 -77 -60q-29 -14 -43 -20
q-27 -12 -45 -12q-21 0 -38 13q16 12 49 27q42 19 51 24q63 46 83 66q44 44 50 94q-5 22 -19 37.5t-35 19.5q-54 11 -116 11q-162 0 -308 -80t-228 -212q-23 -46 -37 -95.5t-14 -98.5q0 -40 9.5 -72.5t32.5 -63.5q41 -54 110 -80q61 -23 138 -23q43 0 84.5 6t83.5 17
q98 26 186 67t165 100l7 -4q-16 -53 -81 -89q-58 -29 -115 -58z" />
    <glyph glyph-name="D" unicode="D" horiz-adv-x="896" 
d="M747 285q-120 -137 -303.5 -213t-391.5 -76q-13 8 -13 22q0 6 3 11q14 -3 27 -3q17 0 30.5 2.5t33.5 8.5q-11 30 -16.5 67t-5.5 73q0 34 10 150q5 58 5 92l42 269q-8 3 -15 3q-12 0 -28.5 -7t-20.5 -9q-41 -8 -110 -45q-54 -29 -64 -33q-11 10 -11 18q0 6 5 13
q9 13 10 15q119 68 264 110t285 42q80 0 151 -13.5t140 -43.5l71 -78q23 -47 23 -103q0 -70 -37 -147q-31 -64 -84 -125zM226 710l-13 -33q-21 -226 -42 -451q0 -52 4.5 -96t14.5 -88q111 22 200 55q103 39 183 96q109 78 168 157q75 100 75 204q0 41 -10 80q-46 64 -127 93
q-69 25 -168 25q-68 0 -148 -13q-62 -10 -137 -29z" />
    <glyph glyph-name="E" unicode="E" horiz-adv-x="852" 
d="M538 3q-43 -5 -90.5 -9t-90.5 -4q-113 0 -195 26q-97 31 -154 101q-13 23 -13 51q0 24 6 44t18 48q38 55 92.5 96.5t120.5 70.5l-14 12q-62 10 -93 16q-58 12 -74 50q-2 12 -2 18q0 41 34 80q26 30 68 52q113 61 238 97q137 39 263 39q93 0 178 -22l33 -24q11 -14 11 -32
q0 -21 -16 -41q-29 -22 -63.5 -37t-76.5 -25q-3 4 -11 7t-11 9q6 11 29 18q35 11 39 13q39 19 45 23q25 17 20 39q-23 18 -52.5 24t-72.5 6q-20 0 -40 -0.5t-39 -0.5q-163 -21 -273 -54q-141 -43 -243 -117q-8 -12 -15.5 -23.5t-7.5 -26.5q0 -8 1 -12q32 -31 94 -42
q44 -8 113 -8h36q74 18 154 36.5t145 18.5q29 0 42.5 -1t40.5 -7q1 -11 -8 -19q-13 -9 -18 -12q-64 -27 -199 -38.5t-176 -20.5q-102 -23 -160 -85q-48 -39 -69 -65q-37 -45 -37 -89q0 -11 3 -23q44 -72 131 -104q73 -27 178 -27q52 0 107.5 6t120.5 16.5t145 36.5
q65 21 140 54q-48 -62 -151 -93q-91 -23 -181 -46z" />
    <glyph glyph-name="F" unicode="F" horiz-adv-x="796" 
d="M411 711q-9 -80 -15 -163t-6 -160q29 -4 68 -4q14 0 44 1t45 1q45 0 74 -4t60 -17q0 -19 -23 -19q-7 0 -11 1l-257 -11q-12 -114 -14 -137t-2 -61q0 -41 3.5 -71t12.5 -64q-5 -1 -14 -7t-13 -6q-7 0 -17 11q-17 28 -23.5 67.5t-6.5 86.5q0 35 1 69.5t2 68.5q-1 17 -1 25
v14q-40 0 -90 -4q-125 -10 -144 -10q-6 30 30 36t70 11q62 4 106.5 7t44.5 43q0 12 -4 25q2 22 9 113.5t18 153.5l-16 6q-42 0 -122 -8t-120 -8q-51 0 -100 10q-3 3 -3 10q1 9 1 13q178 14 356 29q10 2 17 13.5t11 17.5q11 2 18.5 -11.5t17.5 -13.5q56 7 135.5 11t139.5 4
q131 0 253 -12q7 -1 13.5 -6t10.5 -11v-9q-154 0 -292.5 -6.5t-266.5 -24.5z" />
    <glyph glyph-name="G" unicode="G" horiz-adv-x="892" 
d="M847 313q-24 -84 -97 -159q-67 -69 -157 -112q-104 -49 -224 -49q-90 0 -170 28t-141 86q-26 30 -39.5 71t-13.5 86q0 60 23 111q80 174 261 286q164 101 381 134h25t26 1q48 0 79 -6t58 -27q12 -19 19.5 -34.5t7.5 -31.5q0 -11 -4 -22q-19 -66 -92 -110
q-64 -38 -146 -49q-7 5 -14 11q-2 11 9 16q16 4 22 6q64 17 107 44q53 33 75 82q5 25 -11.5 46t-43.5 33q-183 0 -339.5 -65.5t-285.5 -191.5q-50 -49 -79.5 -116t-29.5 -136q0 -47 16 -88q40 -65 125 -96q72 -26 170 -26q143 0 264 70q130 75 172 198q3 15 -9 23
q-163 -18 -277 -27q-162 -13 -281 -13l-26 20q45 7 97.5 10t105.5 3q66 0 154 12.5t176.5 25t157.5 12.5q34 0 70 -3v-20q-11 -3 -60.5 -3t-60.5 -30z" />
    <glyph glyph-name="H" unicode="H" horiz-adv-x="664" 
d="M601 375q-10 -38 -15 -180t-88 -195q-133 0 -243.5 63.5t-183.5 177.5l-9 -11q3 -17 3 -31q0 -20 -5.5 -65.5t-5.5 -59.5q0 -21 1.5 -30.5t7.5 -27.5q-4 -7 -13 -7q-12 0 -23 11l-15 24q0 183 17 364.5t49 355.5q7 8 20 13q19 -5 26.5 -13.5t7.5 -21.5q0 -14 -14 -46
t-14 -48q0 -8 1 -12l-34 -296q12 -4 34 5q29 12 38 13q75 19 182.5 30.5t206.5 22.5l10 11q0 123 8 187q13 104 51 177q7 14 23 14q9 0 15 -4t6 -11q0 -3 -3 -8q-28 -75 -38.5 -160.5t-10.5 -194.5q8 -11 20 -14.5t30 -3.5q18 1 27 1q12 0 22 -2.5t18 -7.5
q-5 -13 -15.5 -17.5t-28.5 -4.5q-12 0 -25 1t-25 2q-10 0 -15 -1zM149 323q-18 -10 -26 -15q-16 -10 -14 -25q46 -109 152.5 -177.5t227.5 -68.5q17 8 21 11q9 7 15 21q11 51 11 109q0 31 -4 94t-4 97q-193 0 -379 -46z" />
    <glyph glyph-name="I" unicode="I" horiz-adv-x="808" 
d="M325 -10q-111 0 -181 25q-95 34 -127 112q-3 14 -3 27q0 24 11 44.5t31 29.5q14 0 14 -16q0 -6 -3 -11q-15 -8 -15 -32q0 -11 1 -20t3 -18q36 -53 102 -79q57 -22 134 -22q25 0 51 3q161 15 286 136q117 113 161 274q4 13 6 30t2 33q0 49 -17 93t-50 85
q-28 34 -70.5 47.5t-97.5 13.5q-19 0 -29.5 -0.5t-47.5 -3.5q-122 -26 -220 -90.5t-161 -165.5q-7 -15 -7 -35q0 -29 12 -55q46 -39 104 -57t123 -18q64 0 129 13.5t134 37.5l11 -7q-11 -26 -48 -39q-32 -10 -64 -19q-37 -7 -79 -12t-78 -5q-88 0 -153 24q-75 27 -118 87
q-6 24 -6 47q0 84 76 160q51 51 152 109q58 34 125 54q75 23 142 23q60 0 109.5 -17t89.5 -55t60 -91t20 -113q0 -74 -29 -153q-55 -151 -185 -253q-135 -106 -300 -121z" />
    <glyph glyph-name="J" unicode="J" horiz-adv-x="604" 
d="M542 184q-18 -125 -55 -204q-50 -107 -140 -152q-36 -9 -70 -9q-61 0 -117 26.5t-98 71.5q-26 29 -41 60q-18 38 -18 74q0 31 16 59q46 77 138 113q79 31 189 31q36 0 75 -3.5t80 -10.5l10 10q0 72 6.5 161.5t28.5 238.5q-8 0 -15.5 -13.5t-15.5 -10.5q-3 12 -3 23
q0 28 18 63t35 68l38 -6q11 -4 15 -17q-37 -116 -54 -248t-17 -275q32 -14 47 -20q28 -12 34 -32q-11 -4 -34 5t-31 9q-13 0 -21 -12zM60 97q-10 -14 -14 -29.5t-4 -33.5q0 -45 28 -85q45 -42 93 -65q56 -27 113 -27q18 0 27 1t27 6q89 49 133 148q38 85 38 194
q-39 7 -74.5 11t-72.5 4q-97 0 -168 -27q-81 -31 -126 -97z" />
    <glyph glyph-name="K" unicode="K" horiz-adv-x="744" 
d="M692 650q-66 -58 -156 -120q-72 -50 -166 -108q-88 -54 -176 -107q132 -59 182 -83q102 -49 174 -97q89 -58 152 -126q-6 -6 -14 -6t-16 4l-12 6q-105 80 -244 149q-118 58 -264 111q-6 -28 -9 -65.5t-3 -70.5q0 -69 8 -133q-7 -4 -15 -4q-11 0 -21 8t-18 19
q-3 19 -4 39.5t-1 45.5q0 39 2.5 99.5t2.5 72.5q-7 2 -41 3t-39 24q-6 15 6 22.5t29 12.5q12 -3 21 -3q24 0 32 15t8 45q0 10 -0.5 21t-0.5 22q0 17 2 30t9 22q10 73 22.5 149.5t37.5 134.5q25 0 32 -21q-27 -104 -41.5 -205t-14.5 -206q106 48 225 126q106 69 219 158
q48 38 203 166q7 1 11.5 -4t8.5 -10q-17 -29 -42 -56q-17 -19 -89 -80z" />
    <glyph glyph-name="L" unicode="L" horiz-adv-x="820" 
d="M742 22q-77 18 -193 58q-58 20 -116 41q-13 -6 -44 -37q-17 -17 -29 -23q-39 -28 -88 -44.5t-101 -16.5q-32 0 -60.5 7.5t-53.5 23.5q-22 18 -34 38.5t-12 44.5q0 14 4 26q19 41 66 60q38 15 94 15q54 0 111.5 -14.5t111.5 -27.5q38 69 40 243t22 235q39 120 173 149
q53 0 91.5 -14t61.5 -50q26 -46 26 -100q0 -47 -18 -94.5t-48 -88.5q-44 -47 -58 -56q-21 -13 -48 -16q-6 6 -6 10q0 5 12.5 12.5t14.5 11.5q56 33 86.5 90t30.5 122q0 38 -14 67.5t-41 53.5q-11 8 -28.5 12t-34.5 4t-34 -3q-57 -13 -95 -66q-33 -47 -41 -100t-10 -204.5
t-31 -235.5q90 -37 137 -55q71 -27 145 -46.5t146 -26.5q-15 -20 -43 -20q-16 0 -48.5 7.5t-43.5 7.5zM85 167q-37 -20 -37 -61q0 -5 2 -15q6 -18 22.5 -30.5t56.5 -21.5q12 -1 21 -1.5t15 -0.5q65 0 121 25t88 74q-46 20 -97 31.5t-101 11.5q-47 0 -91 -12z" />
    <glyph glyph-name="M" unicode="M" horiz-adv-x="1128" 
d="M1040 -3q-24 28 -35 69t-11 88q0 29 1 43q3 17 3 25q11 112 23 234t12 224q-12 27 -18 35q-14 20 -34 24q-36 3 -70 -23q-27 -21 -48 -57q-76 -131 -112 -282t-36 -321q0 -4 -6 -9.5t-11 -10.5q-23 2 -31.5 13t-8.5 30q0 11 5 36t5 35q0 5 -2 13q0 53 4 159t4 159
q0 70 -3.5 116.5t-14.5 104.5q-6 19 -21.5 31.5t-34.5 12.5q-61 -21 -109 -105q-30 -57 -43 -82q-50 -128 -73 -271.5t-23 -298.5q-11 -3 -23 -3q-27 0 -40 13q13 142 15 163q8 98 8 165q0 110 -16 195q-19 100 -63 183q-21 23 -41.5 35t-47.5 12h-16l-12 -4
q-95 -23 -172 -96q-69 -64 -118 -163l-21 7q35 109 116 187q86 83 199 102q58 0 108 -28t72 -76q34 -52 45 -150.5t13 -111.5h8q37 101 74 203q53 115 143 157q7 1 19 1q50 0 79 -34q36 -49 44 -140q4 -77 9 -154l8 4q29 114 65 178q52 93 135 131q12 3 23 3q22 0 48 -12
q12 -5 45 -25q21 -30 30.5 -67t9.5 -78q0 -36 -8 -95q-11 -79 -12 -95q0 -41 -9 -103q-20 -138 -20 -174q0 -41 2 -54.5t11 -41.5l22 -26q-3 -12 -14 -12q-7 0 -15 3.5t-15 8.5z" />
    <glyph glyph-name="N" unicode="N" horiz-adv-x="904" 
d="M782 -7q-31 23 -40.5 59.5t-9.5 86.5q-3 29 -3 56q0 64 13 153q29 199 29 255v26q-2 18 -3 35t-17 39.5t-40 33.5q-14 7 -28 7q-19 0 -43 -14q-27 -18 -39 -25q-62 -65 -107 -152q-37 -73 -67 -175q-22 -76 -44 -185l-17 -146q-10 -19 -29 -19q-10 0 -18 7q-11 25 -11 55
q0 24 14 98q7 37 7 60q4 48 4 103q0 74 -10.5 145.5t-32.5 152.5q-17 41 -50.5 67.5t-78.5 33.5q-100 -10 -187 -87q-65 -58 -128 -159h-8q0 36 25 75q10 16 30 38q94 103 147 133.5t109 30.5q23 0 51 -6.5t59 -25.5t47 -44q34 -52 50 -118q13 -51 15.5 -113t2.5 -157l12 12
q35 129 48 166q33 98 74 157q53 76 134 121q18 7 39 7q28 0 54.5 -13t50.5 -34q19 -25 27.5 -57t8.5 -68q0 -23 -3 -57q-7 -79 -7 -100q-16 -90 -23 -137q-14 -86 -14 -143q0 -39 6 -75t21 -70l44 -36q-9 -10 -20 -10q-6 0 -15 4q-21 9 -29 9z" />
    <glyph glyph-name="O" unicode="O" horiz-adv-x="1070" 
d="M618 8q-50 -9 -99 -9q-85 0 -162 25.5t-131 75.5q-44 40 -64 97t-20 123q0 38 6 76q50 143 182 257t288 147h15t17 1q15 0 24.5 -1.5t18.5 -7.5q5 -9 -5.5 -17t-22.5 -4q-158 -19 -287 -124q-121 -99 -183 -245q-12 -39 -12 -79q0 -63 25.5 -119t74.5 -100
q48 -32 109.5 -47.5t128.5 -15.5q126 0 232 46.5t178 123.5q76 82 99 182q7 27 10.5 54t3.5 55q0 44 -9.5 78.5t-33.5 61.5q-86 99 -222 99q-23 0 -49 -3q-136 -20 -244 -92q-3 18 16 38q15 15 39 27q57 27 120.5 43t124.5 16q55 0 102 -12.5t88 -42.5q55 -39 85 -98.5
t30 -128.5v-30q-3 -14 -4 -20q-26 -164 -163 -285q-130 -115 -306 -145z" />
    <glyph glyph-name="P" unicode="P" horiz-adv-x="848" 
d="M239 225l-12 -11q0 -38 4 -110t4 -104q-8 -5 -16 -5q-4 0 -16 5q-3 1 -13 4q-11 20 -15 42.5t-4 47.5q0 24 2.5 62t2.5 46v18q-2 13 -2 19q-11 11 -21 23t-10 28q7 -7 15 -7q9 0 16 7t8 17q0 57 10 137q22 176 22 226q-54 -7 -122 -42l-114 -62q-22 -21 -27 -28
q-12 -16 -9 -34q-13 5 -17.5 16.5t-4.5 29.5q0 12 1 18q39 39 100 72q22 12 197 85q8 27 16 43q14 27 30 27q14 0 28 -22q-2 -8 -2 -10q0 -8 8 -13q64 17 134 29t135 12q80 0 147.5 -20t115 -66t47.5 -116q0 -21 -4 -40q-72 -166 -259 -251q-161 -73 -375 -73zM650 742
q-15 2 -36 3t-41 1q-158 0 -299 -58q-10 -35 -15 -84q-13 -135 -16 -148q0 -22 -4 -63t-4 -61q0 -24 1.5 -34t6.5 -29q104 0 196 17t168 55q69 47 96 69q58 46 86 88q37 55 37 116q0 18 -3 38q-21 43 -75 64q-19 7 -98 26z" />
    <glyph glyph-name="Q" unicode="Q" horiz-adv-x="948" 
d="M894 -5q-60 9 -119.5 25.5t-117.5 38.5q3 12 12.5 16.5t24.5 4.5q11 0 19 -1.5t23 -5.5q28 -12 69.5 -25.5t117.5 -32.5q0 -10 -10 -13.5t-19 -6.5zM394 6q-126 0 -213 35q-97 39 -153 125q-19 30 -28 64t-9 69q0 62 23 127q19 54 56 112q97 114 199 178q125 79 251 79
l13 -7q-11 -18 -62 -25q-32 -4 -44 -11q-150 -51 -256 -155q-122 -119 -137 -262q-1 -6 -1 -13v-11q0 -61 30.5 -118t82.5 -95q49 -26 105.5 -39t111.5 -13q97 0 187.5 32.5t164.5 91.5t118.5 143t44.5 177q0 44 -12.5 91.5t-51 87t-87.5 55.5q-26 8 -54 12.5t-58 4.5
q-74 0 -146.5 -26t-135.5 -71l-9 3q29 60 121 90q63 18 92 26q36 7 80 7q75 0 139 -25t106 -77q28 -35 42.5 -83t14.5 -99q0 -69 -24 -128q-50 -149 -194.5 -250.5t-306.5 -101.5zM407 122q-9 2 -21 3t-23 1q-33 0 -75 -8q-62 -12 -75 -13q29 27 69.5 38t91.5 11
q30 0 46.5 -1.5t53 -5.5t64.5 -11.5t48 -21.5q-20 -12 -46 -12q-18 0 -44 6q-60 14 -77 14h-12z" />
    <glyph glyph-name="R" unicode="R" horiz-adv-x="804" 
d="M762 -30q-73 24 -144 62q-59 32 -128.5 79.5t-135.5 93.5q-57 39 -84 59q-49 36 -78 64v16q32 -3 63 -3q146 0 270 61q129 64 196 177q0 10 4.5 31.5t4.5 28.5q0 18 -13 30q-38 33 -84.5 46t-106.5 13q-50 0 -111.5 -7.5t-117.5 -14.5l-63 -15q-26 -127 -36 -183
q-19 -104 -29 -195.5t-10 -181.5v-46.5t4 -63.5q-5 -6 -17 -6q-10 0 -16 3q-16 10 -20 26.5t-4 29.5q0 135 24.5 293.5t48.5 307.5q-73 -13 -139 -36.5t-125 -59.5v46q56 32 133 58q22 8 141 43l20 44q13 -3 21.5 -10t15.5 -22q101 16 124 19q75 10 134 10q91 0 152 -22
q74 -26 114 -88q6 -21 6 -40q0 -60 -49 -116q-34 -38 -102 -86q-73 -38 -149 -65t-152 -41l-10 -9q110 -92 222 -165q104 -68 247 -140q3 -11 -2.5 -16t-18.5 -9z" />
    <glyph glyph-name="S" unicode="S" horiz-adv-x="880" 
d="M824 552q-25 -11 -49 -17.5t-47 -6.5h-20q-10 3 -14 4q-4 8 -4 15q0 9 7.5 11.5t22.5 2.5h18q19 0 26 7q38 20 56 30q33 20 45 44q1 4 1 12q0 23 -17 42q-12 14 -38 30q-56 17 -115 25t-117 8q-132 0 -266 -41q-126 -38 -240 -110q-16 -20 -21 -32t-5 -23q0 -7 1 -10
q14 -44 67 -77q20 -13 96.5 -48t206.5 -76q106 -34 213 -67q119 -41 203 -87q21 -21 21 -46q0 -11 -5 -19q-31 -57 -109 -88q-60 -24 -148 -32q-32 -3 -63 -3q-118 0 -228 38t-204 106v11q27 0 67 -21q51 -27 64 -31q63 -29 142.5 -46.5t155.5 -17.5q79 0 144.5 18t118.5 59
q11 15 11 29q0 6 -3 12q-58 40 -140 72q-43 17 -147 47.5t-153 49.5q-99 34 -197 69q-111 46 -155 118q-1 9 -2.5 21.5t-1.5 25.5q0 21 7 41q79 82 200 129q104 40 245 56q108 12 262 12q61 0 116 -29.5t83 -78.5v-12q0 -41 -24.5 -74.5t-66.5 -51.5z" />
    <glyph glyph-name="T" unicode="T" horiz-adv-x="424" 
d="M626 739q-56 0 -142 -4q-193 -9 -237 -9q-28 -83 -37.5 -190t-9.5 -233q0 -39 -1.5 -101.5t-1.5 -63.5q0 -43 2 -79t9 -71q-9 -3 -20 -3q-16 0 -28.5 7.5t-14.5 21.5q0 108 9 231.5t18.5 253t9.5 219.5q-54 0 -133 -10q-174 -22 -223 -22q-60 0 -111 11q-13 15 -12 25
q87 7 227 23.5t250 26.5q146 13 238 13q118 0 223 -16q3 -5 3 -11q0 -19 -18 -19z" />
    <glyph glyph-name="U" unicode="U" horiz-adv-x="595" 
d="M402 87q-32 -42 -75 -64.5t-97 -22.5q-14 0 -21 1q-55 11 -96 52q-35 35 -58 87q-28 109 -28 233q0 95 16.5 192t46.5 184q6 7 18 7q13 0 22 -7q2 -16 2 -24q0 -33 -12 -76q-29 -103 -29 -131q0 -31 -4 -100t-4 -105q0 -91 20 -148q26 -73 89 -111q25 -14 54 -14
q16 0 33.5 5t32.5 13q83 70 133 181q44 97 62 222q15 103 15 235l-4 104q24 -9 35.5 -28.5t14.5 -46.5q0 -200 -33 -343q-40 -173 -133 -295z" />
    <glyph glyph-name="V" unicode="V" horiz-adv-x="576" 
d="M665 752q-134 -152 -229 -349q-84 -173 -143 -392q-4 -7 -9.5 -9t-15.5 -2q-7 0 -14 1t-13 2q-45 54 -78 143q-9 24 -74 274q-19 73 -34 175q-10 68 -22 180q29 0 45 -3.5t19 -22.5q15 -117 32.5 -246t39.5 -216q29 -118 80 -213q21 14 30.5 58.5t21.5 58.5l86 210
q54 123 104 204q63 102 143 173q5 1 21.5 11.5t24.5 10.5q12 0 15 -18q4 -13 -12 -17.5t-18 -12.5z" />
    <glyph glyph-name="W" unicode="W" horiz-adv-x="888" 
d="M688 54q-33 -20 -63.5 -31.5t-61.5 -11.5q-16 0 -24 1t-24 7q-30 19 -58 52q-23 27 -44 62q-41 -60 -73 -87q-48 -41 -105 -41q-14 0 -21 1q-73 10 -123 77q-39 52 -62 135q-17 97 -17 201q0 92 12.5 172.5t40.5 155.5q6 7 13 7q4 0 19 -5q6 -2 11 -2l14 -13
q-26 -76 -40.5 -162.5t-14.5 -169.5q0 -80 14.5 -155t44.5 -139q22 -31 41 -46q30 -25 62 -25h9q53 5 96 50q28 29 63 90q-5 31 -8 68.5t-3 73.5q0 103 21.5 197.5t67.5 175.5q6 7 15 7q8 0 13.5 -2t14.5 -5q9 -17 13.5 -41.5t4.5 -48.5t-1 -49t-2 -49q-23 -107 -39 -162
q-23 -82 -54 -158q12 -46 32 -75q24 -34 65 -52q74 0 132 49q45 38 87 112q32 62 64 125q34 107 46 148q25 85 38.5 160t13.5 153q6 1 16 1q18 0 24.5 -8.5t6.5 -24.5q0 -10 -4 -36.5t-4 -33.5q0 -10 1 -14q-38 -174 -53 -227q-34 -123 -81 -217q-56 -111 -136 -190z
M458 518q-12 -47 -20.5 -100t-8.5 -98q0 -27 3 -54q27 80 42.5 167t15.5 170z" />
    <glyph glyph-name="X" unicode="X" horiz-adv-x="592" 
d="M477 612l-163 -189q49 -91 81 -144q45 -74 95 -140q58 -75 112 -124q-2 -10 -11 -15t-20 -5q-12 0 -23 7q-51 45 -101 114q-34 46 -83 124q-56 88 -83 123q-66 -70 -133 -169q-59 -87 -114 -190q-30 -4 -34 24q44 97 111 197q52 77 139 187q0 21 -13 43t-24 42
q-56 122 -111 245q1 5 8 9.5t21 4.5q12 -1 18 -1q45 -111 61 -145q37 -79 80 -138q43 39 105 109q91 103 101 114q60 63 116 100q22 3 28 -17q-26 -31 -103 -104q-37 -35 -60 -62z" />
    <glyph glyph-name="Y" unicode="Y" horiz-adv-x="496" 
d="M442 301v-64q0 -145 -18 -219q-28 -113 -108 -167q-53 -34 -125 -34q-50 0 -91 18q-26 11 -48 27.5t-35 35.5q4 9 14.5 15t18.5 2q19 -33 56.5 -53t81.5 -20q10 0 16 1q58 5 102.5 35t61.5 81q21 50 29 106t8 123q0 24 -1 72t-1 73l-6 -4q-43 -78 -74 -114
q-51 -60 -114 -74h-30q-27 0 -44 3.5t-32 17.5q-43 38 -60.5 90.5t-17.5 119.5q0 31 3.5 68t10.5 83.5t26 109.5q13 44 38 110q7 12 16 24.5t24 9.5q4 -6 11 -13t10 -11q-45 -95 -68 -175q-28 -97 -28 -187q0 -44 4 -75.5t17 -72.5q18 -37 26 -48q18 -24 46 -29q89 0 153 81
q30 37 85 152q16 40 29 167t55 181q11 2 16 0t13 -17q0 -61 -47 -263q-23 -99 -23 -166z" />
    <glyph glyph-name="Z" unicode="Z" horiz-adv-x="760" 
d="M94 122q-4 -12 -7.5 -25t-3.5 -23q0 -16 11 -26q100 14 211 28.5t197 14.5q119 0 216 -25q12 -3 12 -16q0 -5 -4 -13l-8 -6q-83 9 -162 9q-77 0 -139 -5t-169 -17l-154 -18q-5 13 -32 46q-23 28 -23 52q0 14 4 26q68 122 183 235q97 95 235 192q73 51 251 164
q3 5 20.5 14t11.5 21l-14 7q-325 0 -618 -94q-9 5 -9 15q2 8 2.5 14.5t-1.5 12.5l36 21q141 37 298 55.5t316 18.5l30 -17q13 -17 17 -25q8 -15 8 -28q0 -11 -7 -21q-180 -112 -260 -166q-149 -101 -250 -192q-126 -113 -198 -229z" />
    <glyph glyph-name="bracketleft" unicode="[" horiz-adv-x="208" 
d="M38 732v-700h118v-25h-138v750h158v-25h-138z" />
    <glyph glyph-name="backslash" unicode="\" horiz-adv-x="296" 
d="M274 0l-248 755l20 10l248 -755z" />
    <glyph glyph-name="bracketright" unicode="]" horiz-adv-x="208" 
d="M38 7v25h117v700h-137v25h157v-750h-137z" />
    <glyph glyph-name="asciicircum" unicode="^" horiz-adv-x="268" 
d="M214 410l-74 230l-66 -219l-20 8l86 282l94 -291z" />
    <glyph glyph-name="underscore" unicode="_" horiz-adv-x="600" 
d="M32 -53v25h544v-25h-544z" />
    <glyph glyph-name="grave" unicode="`" horiz-adv-x="220" 
d="M28 690l4 50l32 5l116 -190l-12 -20z" />
    <glyph glyph-name="a" unicode="a" 
d="M302 27q7 7 13 13.5t6 16.5q0 8 -4 19q-15 13 -20.5 30.5t-5.5 40.5q0 12 2 42t2 32q0 27 -6 41q-6 9 -13 9q-2 0 -11.5 -3t-16.5 -1q-29 -83 -42 -111q-28 -62 -65 -96q-11 -11 -28 -11q-16 0 -20 13q-24 41 -24 94q0 39 11.5 75t34.5 68q19 26 32 38q25 22 51 22
q11 0 25 -5t19.5 -17.5t5.5 -31.5v-21h14q14 0 18 15t4 33q0 36 -23 55q-25 14 -55 14q-16 0 -26.5 -2t-45.5 -12q-58 -41 -88.5 -107.5t-30.5 -142.5q0 -35 8 -75q13 -28 37 -45t55 -17q8 0 13 1q25 10 46 31q6 6 56 72q20 -32 28 -43q16 -22 35 -35z" />
    <glyph glyph-name="b" unicode="b" horiz-adv-x="334" 
d="M180 8q-13 -8 -28 -8q-14 0 -39 13t-37 13q-14 0 -26 -11q-20 10 -27 34q-5 30 -8 44l1 130l5 13l70 548q11 17 28 17q16 0 29 -15t10 -33q-30 -142 -61 -295.5t-31 -276.5q35 74 59 114q44 74 104 74h12.5t20.5 -4q30 -8 42 -31.5t12 -57.5q0 -23 -4.5 -62.5t-4.5 -47.5
q-39 -91 -59 -115q-26 -30 -68 -43zM221 326q-53 -34 -87 -105q-26 -54 -43 -134q7 -22 29 -29q13 -4 44 -4q57 31 84 97q23 56 23 133q-2 18 -15.5 31.5t-34.5 10.5z" />
    <glyph glyph-name="c" unicode="c" horiz-adv-x="309" 
d="M278 263q-17 -17 -26 -25q-18 -16 -34 -12q-7 10 -7 21q0 13 14.5 39t14.5 38q0 20 -27 34q-59 0 -96 -56q-20 -31 -45 -107v-30q0 -30 4 -49t18 -35q20 -20 48.5 -30.5t63.5 -10.5q23 0 35 2.5t15 3.5q7 4 10 5q5 -4 5 -9q0 -9 -17 -24q-5 -4 -17 -13q-15 -3 -21.5 -4
t-22.5 -1q-31 0 -66.5 11t-58 30t-44.5 50q-10 33 -10 67q0 50 22 102q18 42 53 91q35 24 51 33q31 16 58 16q25 -7 51 -13q28 -11 36 -33q9 -12 9 -27q0 -11 -8 -32t-8 -32z" />
    <glyph glyph-name="d" unicode="d" horiz-adv-x="490" 
d="M293 159q-2 -10 -2 -14q0 -17 17 -45q12 -20 15 -27q9 -10 23 -17q6 -14 6 -20t-7 -11q-15 -10 -16 -11q-17 9 -29.5 21.5t-44.5 55.5q-12 -7 -44 -39q-52 -51 -94 -51h-12q-25 0 -44.5 14t-32.5 37q-6 20 -6 41q0 36 14 82q4 15 14 39q3 6 7 16.5t13 38.5
q26 34 64.5 55.5t83.5 30.5l12 16q14 72 29 144q19 87 42 142q29 71 76 127q7 8 16 12t19 4q19 0 34 -11t20 -28q0 -103 -26 -213q-22 -93 -64 -199q-18 -45 -83 -190zM276 233q64 127 97 238q39 132 39 261q-69 -101 -102.5 -230t-33.5 -269zM218 285q1 9 -4 12.5t-14 3.5
h-20q-52 -33 -76.5 -87.5t-24.5 -122.5q-2 -8 -2 -10q0 -12 11.5 -22.5t23.5 -12.5q28 5 51 23q7 5 67 74z" />
    <glyph glyph-name="e" unicode="e" horiz-adv-x="283" 
d="M249 18l-35 -12q-21 -6 -42 -6q-25 0 -48.5 6.5t-53.5 19.5q-17 16 -32 41q-5 8 -12 22q-13 40 -13 85q0 57 21.5 111t61.5 96q7 10 19 14.5t27 4.5q7 0 17 -2t19 -5q18 -10 28 -21q15 -16 15 -34v-8q0 -61 -44 -134l-76 -116q7 -13 23 -18.5t35 -5.5q15 0 29 1l28 2
q3 1 15 9.5t19 7.5q21 -4 21 -17q0 -9 -7.5 -20t-14.5 -21zM139 342q-30 -37 -49 -80t-19 -88q0 -18 3 -36l34 37q6 14 28 52q32 56 32 91q0 7 -2 21z" />
    <glyph glyph-name="f" unicode="f" horiz-adv-x="320" 
d="M221 -334q-15 -9 -35 -16.5t-37 -7.5q-5 0 -15 2q-48 12 -78 58q-26 40 -33.5 91.5t-7.5 103.5q0 74 14 169.5t28 183.5q4 67 8 117.5t14 91.5q14 62 34 123q63 198 65 205q6 7 18 7q14 0 25 -7q14 -14 9 -37q-44 -113 -62 -167q-32 -95 -48 -173q-19 -93 -19 -179
q5 1 15 1q19 0 45 -11q13 -6 26 -11q26 -10 47 -34q13 -16 27 -31q22 -48 33 -101t11 -110q0 -78 -20.5 -146t-63.5 -122zM100 181l-9 -13q-11 -84 -16 -129q-10 -82 -10 -137q0 -65 13 -119t45 -98q18 -6 33 -6q12 0 21 3.5t15 12.5q36 45 53 107.5t17 135.5q0 36 -4 71
t-11 71q0 59 -73 83q-52 12 -74 18z" />
    <glyph glyph-name="g" unicode="g" horiz-adv-x="282" 
d="M251 -30q7 -64 7 -142q0 -91 -10.5 -166t-36.5 -152q-34 -49 -52 -66q-36 -35 -79 -35l-23 2q-18 7 -29 24.5t-20 33.5q-6 38 -6 74q0 80 28 159q24 67 74 145q38 60 98 132q1 7 1 16v13q0 22 -4 63t-4 53q-28 -34 -41 -48q-23 -25 -52 -33q-4 -1 -12 -1q-24 0 -44 15
t-32 39q0 34 1.5 65.5t3.5 56.5q37 94 47 109q33 51 93 51h21q11 -3 15 -4l40 -40q10 2 13 19t18 13q13 -7 18 -10q11 -7 11 -15q0 -4 -5 -12q-27 -90 -36 -140.5t-9 -88.5q0 -34 6 -72q15 9 23 13q17 9 27 9q3 0 9 -2q4 -17 -12 -32q-46 -43 -47 -46zM195 324q-6 7 -11 11
q-11 10 -22 10q-3 0 -9 -2q-52 -38 -75 -103q-19 -54 -19 -130q0 -1 12.5 -17t26.5 -14q37 24 66 75q23 44 47 89q3 8 3 13q0 4 -15 39q-6 15 -4 29zM48 -461q3 -27 6 -55q6 -32 29 -41q4 3 21.5 7.5t23.5 15.5q38 70 58.5 157.5t20.5 175.5q0 56 -9 109q-64 -85 -102 -176
t-48 -193z" />
    <glyph glyph-name="h" unicode="h" horiz-adv-x="278" 
d="M255 12q-27 14 -39 26t-18 28t-8.5 33.5t-2.5 44.5q0 22 1 44.5t2 45.5q-41 -36 -75 -107q-2 -5 -53 -127q-28 0 -49 24q0 164 16.5 326.5t48.5 336.5q27 68 33 78q15 23 39 34q5 1 15 1q25 0 41 -10.5t23 -33.5q0 -96 -42 -210t-82 -219q-43 -123 -43 -221h7
q14 21 41 79q41 88 89 112q16 3 34 -5.5t18 -25.5q-8 -32 -14 -62t-6 -56q0 -24 6 -46t21 -39q7 -17 7 -27q0 -6 -3.5 -12.5t-6.5 -11.5zM159 745q-32 -68 -49 -164q-8 -46 -21 -167q11 36 43 115q51 125 51 201q2 9 -6 13t-18 2z" />
    <glyph glyph-name="i" unicode="i" horiz-adv-x="188" 
d="M66 464q-29 26 -29 57q0 13 6.5 26.5t28 19.5t29.5 8q23 -3 34.5 -16.5t11.5 -34.5q0 -16 -8 -32q-15 -30 -55 -30q-6 0 -18 2zM126 15q-15 11 -35 31.5t-31 31.5q0 13 -3.5 23.5t-13.5 31.5q-4 31 -6.5 58t-2.5 48q0 28 1.5 36.5t7.5 21.5q5 16 9 34.5t8 37.5q7 1 14 1
h10q26 0 36 -9t10 -26q0 -16 -15 -59t-15 -64q0 -13 4 -21q8 -30 18.5 -57t24.5 -48q7 -18 7 -34q0 -37 -28 -37z" />
    <glyph glyph-name="j" unicode="j" horiz-adv-x="468" 
d="M423 389q-21 -3 -31.5 4t-24.5 27q-1 5 -1 15q0 46 43 66q21 3 39 -8t18 -31q2 -25 -10.5 -45.5t-32.5 -27.5zM397 -147q0 -109 -11 -183q-15 -103 -53 -172q-46 -84 -128 -129q-36 -21 -89 -21q-40 0 -75.5 11t-67.5 32q-24 33 -37 63t-13 64q0 19 6 40q35 77 98 138
q55 53 137 100q59 33 160 77q0 17 2 59t2 46q0 31 -4 52q0 49 2 98.5t5 59.5q23 65 47 131q3 1 6.5 1h4.5q17 0 25.5 -11.5t8.5 -28.5q0 -14 -5 -27q-34 -117 -34 -241q0 -49 6 -99q12 -14 53 -15t45 -33q-5 -1 -18 -1q-19 1 -29 1q-14 0 -24.5 -2.5t-19.5 -9.5zM-22 -502
q9 -59 60 -89q30 -18 65 -18q34 0 63 18q84 51 125 148q36 86 36 199q0 32 -3 65q-79 -33 -148 -76q-84 -52 -132 -108q-59 -68 -66 -139z" />
    <glyph glyph-name="k" unicode="k" horiz-adv-x="376" 
d="M202 136q0 -24 20 -38.5t39 -26.5l33 -6q14 -7 14 -22q0 -14 -10 -24q-48 0 -96 32q-21 19 -34 41q-16 26 -16 50q0 10 3 19q82 32 108 51q54 38 59 98q-7 17 -15 24q-11 10 -28 10q-43 -15 -81 -59q-14 -16 -59 -81q-27 -39 -49 -96q-15 -39 -35 -107q-14 -5 -27 6
t-10 24q0 124 15 255q10 91 37 253q40 246 42.5 253.5t10.5 7.5q6 0 17.5 -5.5t13.5 -5.5l11 -18q-28 -115 -45 -198q-23 -110 -36 -211.5t-13 -198.5q17 18 66 99q74 121 157 121q13 0 28 -3q20 -9 28.5 -27t8.5 -44q0 -18 -5 -40q-22 -41 -64 -76q-35 -29 -88 -57z" />
    <glyph glyph-name="l" unicode="l" horiz-adv-x="427" 
d="M196 118q0 -21 22 -41q10 -9 41 -29q18 -4 32.5 -7t26.5 -4q14 -8 14 -16q0 -5 -4 -9t-14 -12l-27 1q-36 0 -71 23q-10 7 -60 49q-31 -18 -57.5 -30.5t-59.5 -24.5q-19 3 -19 13q3 12 4 19q67 14 111 54q-17 50 -25 105t-8 109q0 119 34 231.5t98 209.5q12 19 34.5 29.5
t48.5 10.5t46.5 -11.5t29.5 -35.5q15 -63 15 -125q0 -90 -30 -183q-26 -81 -78 -171q-38 -67 -104 -155zM259 702q-48 -89 -76 -181q-31 -104 -31 -199q0 -85 26 -157q82 105 127 210q53 124 53 244q0 42 -8 92q0 19 -8 28t-22 9q-18 0 -37 -14.5t-24 -31.5z" />
    <glyph glyph-name="m" unicode="m" horiz-adv-x="626" 
d="M52 43q-27 -4 -27 23q0 6 4 18.5t8.5 15t8.5 1.5q70 44 115 121q33 57 64 156q4 11 14 17t25 6q20 0 32 -12q22 -21 30.5 -49t8.5 -61q0 -27 -3 -55q-9 -83 -9 -90q0 -19 3 -36h18q8 11 96 193q32 67 72 104q26 4 47 -14q16 -13 27 -38l6 -212q6 -15 6 -32q0 -52 -32 -71
q-12 5 -25 21l-14 18l-6 224q-29 -10 -52 -56q-18 -40 -35 -79q-31 -96 -111 -156q-30 4 -53 32q-5 15 -7 32.5t-2 33.5q0 22 4 54q9 73 9 90q0 24 -3.5 42t-12.5 39q-48 -96 -54 -107q-33 -60 -65 -99q-39 -48 -87 -74z" />
    <glyph glyph-name="n" unicode="n" horiz-adv-x="478" 
d="M415 246q-37 -92 -58 -137q-38 -81 -92 -109q-37 10 -52.5 32.5t-15.5 55.5q0 18 12 88q6 35 6 54q0 36 -15 61q-40 -102 -63 -152q-41 -89 -91 -131q-10 0 -17 10t-7 25q0 16 12 27q31 28 49 61q65 119 83 249q12 13 35 13t33 -13q18 -20 25.5 -45t7.5 -55q0 -23 -6 -71
t-6 -73q0 -31 7 -56h15q44 51 89.5 163.5t83.5 156.5q7 -11 7 -33q0 -38 -20 -88q-11 -17 -22 -33z" />
    <glyph glyph-name="o" unicode="o" horiz-adv-x="364" 
d="M340 136q-6 -1 -14 -1h-12h-21.5t-21.5 1q-30 -54 -46 -78q-29 -43 -71 -53q-13 -5 -26 -5q-36 0 -71 26q-21 21 -30.5 48t-9.5 57q0 40 14 84q8 27 31 76q3 1 75 81q26 29 51 29q22 0 49 -20l34 -43q6 -30 10.5 -54t4.5 -41q0 -29 -10 -53q16 -8 32 -12.5t34 -2.5
q6 -22 6 -24q0 -7 -8 -15zM220 322q-4 23 -26 23q-15 0 -25.5 -11.5t-6.5 -28.5q3 -34 17.5 -57t45.5 -37q3 11 6 29t3 32q0 32 -14 50zM115 258l-14 -37q-11 -15 -15.5 -34t-4.5 -40q0 -9 1 -30t1 -33q4 -16 19 -25t33 -9q5 0 15 2q26 11 43 42.5t17 62.5
q-26 14 -52.5 42.5t-42.5 58.5z" />
    <glyph glyph-name="p" unicode="p" horiz-adv-x="400" 
d="M277 3q-20 -2 -33 -2q-26 0 -44 5.5t-30 22.5l-11 12q0 -29 1 -90.5t1 -93.5q0 -139 -13 -227q-18 -121 -65 -207q-8 -18 -22.5 -25t-35.5 -7q-13 0 -36 3t-31 3q-27 21 -38.5 52t-11.5 68q0 31 10.5 89.5t11.5 71.5q18 80 43 155q19 58 57 152q27 66 63 149v15
q0 30 -2.5 49t-12.5 36q-2 12 -2 20q0 15 5.5 27t14.5 14l6 -5q7 -17 12.5 -32t11.5 -30q15 12 57 61q62 71 115 71q13 0 36 -6t45 -30.5t28 -52.5q0 -86 -30 -155q-34 -79 -100 -113zM198 239q-21 -39 -31 -59q-19 -38 -19 -60q0 -20 11 -32l11 9l44 -46q7 -1 19 -1
q39 0 65 21q25 35 41.5 78.5t16.5 86.5q0 18 -1 27t-6 27q-22 25 -48 25q-27 0 -57 -27q-11 -10 -46 -49zM-25 -360q-5 -38 -7 -64.5t-2 -44.5q0 -31 5.5 -56t18.5 -44q11 -1 22 2t22 10q43 64 60 157q14 74 14 178q0 42 -3 124t-3 119q-38 -93 -75 -186q-40 -108 -52 -195z
" />
    <glyph glyph-name="q" unicode="q" 
d="M282 -460q-17 -5 -29 -5q-23 0 -41.5 13t-35.5 36q-10 33 -14.5 64t-4.5 69q0 61 11 127q2 11 25 126q16 82 21 125l-7 6q-20 -22 -39 -43q-26 -25 -54 -25q-5 -1 -15 -1q-23 0 -42 11t-30 30q-6 26 -6 51q0 42 14.5 79t41.5 64q32 34 55 48q33 20 71 20h15
q28 -3 54.5 -17.5t46.5 -36.5q-23 -65 -46.5 -134.5t-23.5 -131.5q10 -11 24 -11q8 0 22 4.5t20 6.5l10 4l6 -3q13 -9 9 -28l-33 -13q28 -73 40 -112q20 -67 20 -118q0 -8 -0.5 -18t-3.5 -27q0 -49 -20.5 -91t-60.5 -69zM176 285q-50 -28 -79 -72t-29 -101q0 -14 1.5 -22.5
t12 -14.5t23.5 -6q5 0 11 1.5t9 2.5q54 36 85 92.5t31 119.5q-8 7 -21 7q-3 0 -26 -5q-9 -2 -18 -2zM241 -47q-19 -89 -26 -128q-13 -76 -13 -132q0 -17 1 -34.5t4 -34.5q9 -16 19 -32q13 -16 33 -16q32 22 48 61t16 125v33q-14 64 -22 94q-16 54 -60 64z" />
    <glyph glyph-name="r" unicode="r" horiz-adv-x="362" 
d="M299 1q-19 17 -36 47q-5 15 -7 32.5t-2 33.5q0 26 2 48q7 77 7 83q-5 2 -14 2q-10 0 -30 -6t-32 -6q-9 0 -20 3q-19 -68 -48 -122q-32 -60 -77 -106q-12 -2 -15 -2q-10 0 -10 14q0 7 3 22q60 60 95 149q31 79 39 176q11 2 17 17t14 15q4 0 10 -3q13 -8 18 -19.5t5 -25.5
q0 -16 -5 -38q-6 -4 -3 -9q8 -7 19 -7q10 0 35 11t41 11q6 0 9 -1q28 -19 28 -48q0 -16 -19 -71q-10 -29 -10 -46q0 -10 1 -15q-2 -14 -2 -20q0 -20 7 -41q4 -13 17 -38l10 -6q-8 -16 -11 -20q-12 -15 -27 -15q-6 0 -9 1z" />
    <glyph glyph-name="s" unicode="s" horiz-adv-x="310" 
d="M277 0q-7 0 -15 0.5t-23 3.5q-37 0 -75 23l-64 44q-21 -25 -34.5 -38.5t-35.5 -30.5q-15 0 -15 13q0 4 1 9.5t6 18.5q17 16 54 89q18 35 34 50q29 102 81 218q51 0 64 -57q9 -49 19 -98q7 -24 14.5 -50t7.5 -47q0 -17 -6 -35l-28 -58q10 -3 15 -4t15 -1q3 -9 3 -19
q0 -12 -3.5 -19.5t-14.5 -11.5zM170 249q0 -19 -19.5 -60t-19.5 -60q0 -25 22 -42q14 -13 30 -13q22 0 42 22q7 11 11 28.5t4 32.5q0 19 -2 31t-8 29q-13 29 -22 44t-17 15q-5 0 -10.5 -6.5t-10.5 -20.5z" />
    <glyph glyph-name="t" unicode="t" horiz-adv-x="428" 
d="M622 644l-320 -6l-18 -20q0 -64 -28.5 -193t-28.5 -189q0 -41 8.5 -78.5t28.5 -71.5v-29q0 -15 -3.5 -25.5t-15.5 -16.5l-8 5q-35 31 -47.5 89.5t-22.5 113.5q0 18 -0.5 35t-0.5 33q0 32 1.5 48t7.5 43q11 42 20 127.5t15 117.5q-27 6 -55 8.5t-65 2.5q-23 0 -45.5 -0.5
t-44.5 -0.5q-54 0 -88.5 5t-69.5 22v14q34 7 77 9.5t99 2.5h94h15q18 0 35.5 0.5t59.5 4.5q10 9 14.5 64.5t24.5 55.5q15 0 41 -22q-2 -14 -2 -21q0 -12 4 -35t4 -36q43 -5 82.5 -6t106.5 -1h21h18h16h15h12h42.5t42.5 1q3 -9 3 -15q0 -15 -15 -24q-6 -4 -30 -12z" />
    <glyph glyph-name="u" unicode="u" horiz-adv-x="384" 
d="M381 193q2 -8 2 -12q0 -21 -12.5 -41t-34.5 -39l-11 34q-40 -56 -66.5 -89.5t-56.5 -43.5q-14 -3 -25 -3q-62 0 -94 56q-3 25 -14 49.5t-26 24.5l-7 -12q-16 8 -16 27q0 17 14 45q65 96 83 211q13 0 31.5 -1t23.5 -25q-16 -57 -25.5 -109t-9.5 -105q0 -45 7 -84
q14 -21 37 -21q12 0 21 6q57 51 89 142q31 106 49 159q5 1 18.5 7.5t21.5 4.5q21 -12 21 -39q0 -14 -8 -46t-8 -48q0 -8 1 -12q-5 -20 -5 -36z" />
    <glyph glyph-name="v" unicode="v" horiz-adv-x="291" 
d="M266 138l-17 13q-16 -15 -45 -67q-47 -84 -99 -84q-6 0 -20 2q-23 11 -36 34q-5 8 -26 77q-5 15 -7 46t-2 62v18q1 5 2 19.5t1 37.5v19q3 1 18 5.5t26 2.5l12 -12q-4 -37 -4.5 -53t-0.5 -25q0 -56 11 -100.5t38 -80.5q36 12 58 55q9 16 30 77q0 20 -1.5 54t-1.5 35
q0 44 7 73.5t30 53.5q22 -10 30.5 -28.5t8.5 -45.5q0 -19 -5.5 -54t-6.5 -41q-5 -10 -5 -23t10 -20v-13q1 -18 1 -24q0 -8 -6 -13z" />
    <glyph glyph-name="w" unicode="w" horiz-adv-x="504" 
d="M510 217q-8 -28 -16 -46.5t-20 -34.5q-20 -38 -39 -76q-26 -43 -65 -52q-12 -3 -22 -3q-23 0 -42 12q-3 2 -55 52q-26 -29 -46 -44q-34 -25 -65 -25h-16q-8 3 -11 4q-36 11 -57 51q-17 31 -26 79q-5 13 -5 26v27v12q10 49 20 99q11 30 41 39q25 -5 25 -24
q0 -10 -9.5 -34.5t-9.5 -36.5q0 -6 1 -11.5t1 -13.5v-16q0 -12 -0.5 -24.5t-0.5 -25.5q0 -40 8.5 -66t34.5 -43q51 -5 77 58q21 50 25 56q3 8 4 18t1 22q0 11 -0.5 22t-0.5 23q0 29 5 41t19 26q8 3 13 3q12 0 19 -13.5t13 -25.5q0 -19 -10 -84q-5 -33 -5 -51q0 -30 9 -51.5
t34 -38.5q51 15 85 73q29 50 36 113q-13 29 -13 65q0 64 35 102q20 0 30 -26.5t10 -57.5q0 -12 -6 -42t-6 -45v-12z" />
    <glyph glyph-name="x" unicode="x" horiz-adv-x="300" 
d="M172 159q26 -63 28 -66q19 -37 48 -54q8 -13 8 -24q0 -7 -5 -13q-1 -2 -13 -11q-28 12 -58 43q-12 12 -46 54q-26 -38 -59 -109q-40 -85 -52 -107q-12 3 -17 12.5t-5 23.5q0 13 5 23l104 206q0 40 -11 68q-14 36 -42 50l-11 -2q-16 7 -16 25q0 30 32 54l26 1
q16 -18 33 -47q11 -20 28 -53q34 26 60 76q65 125 79 139q28 -8 23 -37q-40 -55 -77 -123q-32 -59 -62 -129z" />
    <glyph glyph-name="y" unicode="y" horiz-adv-x="332" 
d="M290 10q13 -2 25.5 -9.5t14.5 -17.5q-15 -4 -29.5 -19.5t-22.5 -19.5q0 -125 -2 -165q-5 -93 -20 -162q-18 -81 -56 -147q-26 -26 -41 -37q-25 -18 -54 -23q-5 -1 -15 -1q-20 0 -39.5 7.5t-36.5 20.5q-21 26 -30.5 55t-9.5 63q0 55 25 120q19 50 54.5 106.5t77.5 103.5
q47 52 104 93q0 22 9 78q5 31 5 46q0 18 -4 33q-18 -34 -44.5 -66t-55.5 -51q-43 0 -61 5q-33 9 -46 38l-12 27q-4 9 -5.5 18t-1.5 25t1.5 44.5t1.5 30.5q11 39 16 58q9 32 21 56q8 4 16 4q10 0 17.5 -5t17.5 -16q-17 -46 -26 -87q-12 -52 -12 -93q0 -23 5 -53
q6 -1 16.5 -10.5t16.5 -10.5q72 34 119 134q46 121 70 175q5 11 19 11q11 -1 22 -1l17 -26l-30 -108q-18 -65 -26 -110q-11 -61 -11 -114zM25 -486q4 -21 18 -36.5t35 -15.5q6 0 9 1q82 45 111 157q19 73 19 213v68q-90 -78 -136 -153q-58 -94 -58 -196v-23q2 -11 2 -15z
" />
    <glyph glyph-name="z" unicode="z" horiz-adv-x="228" 
d="M187 -48q11 -63 11 -122q0 -99 -27.5 -192t-81.5 -165q-13 -11 -31.5 -19.5t-38.5 -8.5q-12 0 -21 4q-40 15 -60 49.5t-20 78.5q0 116 64 224q57 96 152 166q0 26 -9 45.5t-28 43.5q-3 0 -35 -7q-14 -3 -23 -3q-10 14 -19 29q0 2 2 10q14 23 49 23q6 0 18 -2
q27 41 42.5 82t15.5 83q0 40 -17 73q-11 12 -27 12t-31 -10q-8 -3 -21.5 -21.5t-23.5 -18.5q-6 0 -13 4q-5 6 -5 15q0 10 10 24q7 10 15 21q29 35 81 35q19 0 35 -6.5t26 -19.5q21 -41 21 -88q0 -57 -34 -141q-17 -39 -33 -78q14 -8 31 -41q9 -17 19 -27q28 8 57 16
q12 0 21 -8q6 -11 6 -17q0 -11 -35.5 -16.5t-41.5 -26.5zM39 -188q-42 -74 -56.5 -123t-14.5 -90q0 -27 4.5 -47t16.5 -46q14 -9 32 -9q28 0 41 15q41 71 64 155.5t23 169.5v37q-3 26 -4 38q-35 -12 -70 -55q-18 -22 -36 -45z" />
    <glyph glyph-name="braceleft" unicode="{" horiz-adv-x="316" 
d="M132 7q-12 20 -21.5 51t-16.5 69q-1 6 -4.5 101t-23.5 111q-8 5 -28 5q-11 0 -37.5 -1t-30.5 -1q6 6 39 34q27 24 33 43q10 33 13 111t11 109q17 65 55 100q34 31 97 48l4 -24q-56 -15 -89 -44.5t-47 -87.5l-24 -220q-5 -16 -10 -23.5t-18 -19.5q16 0 26.5 -1.5
t17.5 -5.5q21 -17 26 -91t10 -137q6 -38 13 -63.5t21 -46.5q29 -46 61 -61t99 -15v-25q-73 0 -108 17t-68 68z" />
    <glyph glyph-name="bar" unicode="|" horiz-adv-x="152" 
d="M86 30v725h20v-725h-20z" />
    <glyph glyph-name="braceright" unicode="}" horiz-adv-x="316" 
d="M213 334q-20 -16 -23.5 -111t-4.5 -101q-9 -47 -14 -64q-9 -33 -24 -56q-32 -50 -68 -67.5t-108 -17.5v25q67 0 99 15t61 61q11 16 20 46.5t15 63.5q5 79 9.5 145t26.5 83q7 4 17 5.5t27 1.5q-12 11 -18 19.5t-10 23.5q-10 34 -13 112.5t-11 107.5q-15 58 -47 87.5
t-90 44.5l5 24q62 -16 98 -49.5t53 -98.5l24 -220q4 -14 15 -26q31 -26 57 -51q-15 0 -39 1t-31 1q-20 0 -26 -5z" />
    <glyph glyph-name="asciitilde" unicode="~" horiz-adv-x="376" 
d="M264 345q-26 0 -76 23q-26 12 -48 12q-35 0 -57 -19q-17 -15 -33 -49l-20 16q19 40 40 58q28 24 70 24q21 0 73 -23q27 -12 51 -12q17 0 35 16q13 11 23 28l20 -18q-12 -20 -32 -36q-24 -20 -46 -20z" />
    <glyph glyph-name="Adieresis" unicode="&#xc4;" horiz-adv-x="740" 
d="M749 -34q-3 -1 -6.5 -1h-4.5q-27 0 -46 35l-18 34q-14 31 -52 145q-18 53 -33 87q-71 0 -158.5 -6t-185.5 -17q-46 -60 -74 -92q-47 -52 -89 -80q-52 -34 -112 -42q-48 0 -89 24t-59 64q-9 12 -11.5 28.5t-2.5 41.5q5 3 11 3q9 -1 13 -1q10 -44 21 -64q19 -36 52 -49
q24 -10 51 -10q40 0 80 22q33 18 65 50.5t45 46.5q24 25 30 49q-33 0 -59.5 -4t-68.5 -15q-6 5 -6 16q0 9 3 15q16 10 124 23q77 9 89 69q65 96 121 203q49 94 100 215q9 3 23.5 6t26.5 3q27 0 40 -14q0 -106 22 -225q17 -95 52 -213l80 -10q0 -12 -5.5 -20t-17.5 -16
q-17 2 -25 2q-14 0 -17 -10q27 -91 46 -142q28 -74 65 -133q-2 -8 -7 -13.5t-13 -4.5zM438 943q14 -12 14 -34q0 -10 -6 -21q-9 -17 -27 -17q-9 0 -17 6q-14 12 -14 34q0 11 7.5 25t25.5 14q10 0 17 -7zM592 940q14 -12 14 -34q0 -10 -6 -21q-9 -17 -28 -17q-9 0 -17 6
q-14 12 -14 34q0 11 6 22q11 17 28 17q10 0 17 -7zM510 676h-7q-18 -32 -72 -130q-46 -84 -72 -129q-41 -71 -76 -123q86 0 185 9q30 3 110 12q-20 85 -37.5 177.5t-30.5 183.5z" />
    <glyph glyph-name="Aring" unicode="&#xc5;" horiz-adv-x="740" 
d="M749 -34q-3 -1 -6.5 -1h-4.5q-27 0 -46 35l-18 34q-14 31 -52 145q-18 53 -33 87q-71 0 -158.5 -6t-185.5 -17q-46 -60 -74 -92q-47 -52 -89 -80q-52 -34 -112 -42q-48 0 -89 24t-59 64q-9 12 -11.5 28.5t-2.5 41.5q5 3 11 3q9 -1 13 -1q10 -44 21 -64q19 -36 52 -49
q24 -10 51 -10q40 0 80 22q33 18 65 50.5t45 46.5q24 25 30 49q-33 0 -59.5 -4t-68.5 -15q-6 5 -6 16q0 9 3 15q16 10 124 23q77 9 89 69q65 96 121 203q49 94 100 215q9 3 23.5 6t26.5 3q27 0 40 -14q0 -106 22 -225q17 -95 52 -213l80 -10q0 -12 -5.5 -20t-17.5 -16
q-17 2 -25 2q-14 0 -17 -10q27 -91 46 -142q28 -74 65 -133q-2 -8 -7 -13.5t-13 -4.5zM575 929q0 -26 -13.5 -43.5t-35.5 -17.5q-21 0 -35 17t-14 44q0 25 14 43t35 18t35 -17t14 -44zM510 676h-7q-18 -32 -72 -130q-46 -84 -72 -129q-41 -71 -76 -123q86 0 185 9
q30 3 110 12q-20 85 -37.5 177.5t-30.5 183.5zM497 929q0 -16 8.5 -26.5t20.5 -10.5t20.5 10.5t8.5 26.5t-8.5 26.5t-20.5 10.5q-13 0 -21 -10t-8 -27z" />
    <glyph glyph-name="Ccedilla" unicode="&#xc7;" horiz-adv-x="868" 
d="M109 60q-56 38 -83 99t-27 135v24t4 33q37 163 179 283q134 114 312 149q34 7 76.5 12.5t77.5 5.5q69 0 114 -18q56 -22 82 -73q2 -18 2 -25q0 -64 -71 -123q-52 -40 -77 -60q-29 -14 -43 -20q-27 -12 -45 -12q-21 0 -38 13q16 12 49 27q42 19 51 24q63 46 83 66
q44 44 50 94q-5 22 -19 37.5t-35 19.5q-54 11 -116 11q-162 0 -308 -80t-228 -212q-23 -46 -37 -95.5t-14 -98.5q0 -40 9.5 -72.5t32.5 -63.5q41 -54 110 -80q61 -23 138 -23q43 0 84.5 6t83.5 17q98 26 186 67t165 100l7 -4q-16 -53 -81 -89q-58 -29 -115 -58
q-71 -34 -147 -54.5t-152 -20.5l-10 -24q6 3 18 3q16 0 24.5 -7.5t8.5 -31.5q0 -26 -16.5 -40.5t-34.5 -14.5q-27 0 -47 10l7 21l16 -4t17 -2q12 0 19.5 5t7.5 18q0 8 -4 13q-7 9 -18 9q-9 0 -17 -3l-6 5l15 42q-74 0 -132 13t-108 47z" />
    <glyph glyph-name="Eacute" unicode="&#xc9;" horiz-adv-x="852" 
d="M538 3q-43 -5 -90.5 -9t-90.5 -4q-113 0 -195 26q-97 31 -154 101q-13 23 -13 51q0 24 6 44t18 48q38 55 92.5 96.5t120.5 70.5l-14 12q-62 10 -93 16q-58 12 -74 50q-2 12 -2 18q0 41 34 80q26 30 68 52q113 61 238 97q137 39 263 39q93 0 178 -22l33 -24q11 -14 11 -32
q0 -21 -16 -41q-29 -22 -63.5 -37t-76.5 -25q-3 4 -11 7t-11 9q6 11 29 18q35 11 39 13q39 19 45 23q25 17 20 39q-23 18 -52.5 24t-72.5 6q-20 0 -40 -0.5t-39 -0.5q-163 -21 -273 -54q-141 -43 -243 -117q-8 -12 -15.5 -23.5t-7.5 -26.5q0 -8 1 -12q32 -31 94 -42
q44 -8 113 -8h36q74 18 154 36.5t145 18.5q29 0 42.5 -1t40.5 -7q1 -11 -8 -19q-13 -9 -18 -12q-64 -27 -199 -38.5t-176 -20.5q-102 -23 -160 -85q-48 -39 -69 -65q-37 -45 -37 -89q0 -11 3 -23q44 -72 131 -104q73 -27 178 -27q52 0 107.5 6t120.5 16.5t145 36.5
q65 21 140 54q-48 -62 -151 -93q-91 -23 -181 -46zM437 855l-12 20l116 190l32 -5l4 -50z" />
    <glyph glyph-name="Ntilde" unicode="&#xd1;" horiz-adv-x="904" 
d="M782 -7q-31 23 -40.5 59.5t-9.5 86.5q-3 29 -3 56q0 64 13 153q29 199 29 255v26q-2 18 -3 35t-17 39.5t-40 33.5q-14 7 -28 7q-19 0 -43 -14q-27 -18 -39 -25q-62 -65 -107 -152q-37 -73 -67 -175q-22 -76 -44 -185l-17 -146q-10 -19 -29 -19q-10 0 -18 7q-11 25 -11 55
q0 24 14 98q7 37 7 60q4 48 4 103q0 74 -10.5 145.5t-32.5 152.5q-17 41 -50.5 67.5t-78.5 33.5q-100 -10 -187 -87q-65 -58 -128 -159h-8q0 36 25 75q10 16 30 38q94 103 147 133.5t109 30.5q23 0 51 -6.5t59 -25.5t47 -44q34 -52 50 -118q13 -51 15.5 -113t2.5 -157l12 12
q35 129 48 166q33 98 74 157q53 76 134 121q18 7 39 7q28 0 54.5 -13t50.5 -34q19 -25 27.5 -57t8.5 -68q0 -23 -3 -57q-7 -79 -7 -100q-16 -90 -23 -137q-14 -86 -14 -143q0 -39 6 -75t21 -70l44 -36q-9 -10 -20 -10q-6 0 -15 4q-21 9 -29 9zM450 933h60l58 12q25 8 40 33
v-15q-14 -35 -28 -47.5t-49 -21.5h-74q-21 -5 -37 -23q-12 -14 -23 -40q11 59 14 66q11 29 39 36z" />
    <glyph glyph-name="Odieresis" unicode="&#xd6;" horiz-adv-x="936" 
d="M484 8q-50 -9 -99 -9q-85 0 -161.5 25.5t-131.5 75.5q-42 39 -63 97.5t-21 122.5q0 38 6 76q50 143 182 257t288 147h15t17 1q15 0 24.5 -1.5t18.5 -7.5q5 -9 -5.5 -17t-22.5 -4q-159 -19 -287 -124q-120 -98 -182 -245q-12 -39 -12 -79q0 -63 26 -119.5t74 -99.5
q48 -32 109.5 -47.5t128.5 -15.5q125 0 235 48q101 44 174 122q77 83 100 182q12 55 12 108q0 43 -9.5 79t-32.5 62q-86 99 -221 99q-23 0 -49 -3q-136 -19 -244 -92q-3 19 15 38q13 14 39 27q57 27 120.5 43t124.5 16q55 0 102 -12.5t88 -42.5q56 -39 86 -98.5t30 -128.5
v-30q-3 -14 -4 -20q-27 -165 -163 -285q-130 -115 -307 -145zM434 963q14 -12 14 -34q0 -10 -6 -21q-9 -17 -27 -17q-9 0 -17 6q-14 12 -14 34q0 11 7.5 25t25.5 14q10 0 17 -7zM588 960q14 -12 14 -34q0 -10 -6 -21q-9 -17 -28 -17q-9 0 -17 6q-14 12 -14 34q0 11 6 22
q11 17 28 17q10 0 17 -7z" />
    <glyph glyph-name="Udieresis" unicode="&#xdc;" horiz-adv-x="595" 
d="M402 87q-32 -42 -75 -64.5t-97 -22.5q-14 0 -21 1q-55 11 -96 52q-35 35 -58 87q-28 109 -28 233q0 95 16.5 192t46.5 184q6 7 18 7q13 0 22 -7q2 -16 2 -24q0 -33 -12 -76q-29 -103 -29 -131q0 -31 -4 -100t-4 -105q0 -91 20 -148q26 -73 89 -111q25 -14 54 -14
q16 0 33.5 5t32.5 13q83 70 133 181q44 97 62 222q15 103 15 235l-4 104q24 -9 35.5 -28.5t14.5 -46.5q0 -200 -33 -343q-40 -173 -133 -295zM250 928q14 -12 14 -34q0 -10 -6 -21q-9 -17 -27 -17q-9 0 -17 6q-14 12 -14 34q0 11 7.5 25t25.5 14q10 0 17 -7zM404 925
q14 -12 14 -34q0 -10 -6 -21q-9 -17 -28 -17q-9 0 -17 6q-14 12 -14 34q0 11 6 22q11 17 28 17q10 0 17 -7z" />
    <glyph glyph-name="aacute" unicode="&#xe1;" 
d="M317 76q3 -12 3 -19q0 -13 -27 -31q-18 13 -35 35q-7 10 -28 43q-22 -29 -43 -58q-27 -32 -59 -45q-4 -1 -8 -1h-6q-30 0 -54 17t-37 45q-8 40 -8 76q0 77 30 142.5t89 106.5q19 5 38 9t35 4q28 0 54 -13q12 -10 17.5 -24t5.5 -31q0 -11 -1 -18t-4 -18.5t-17 -11.5h-14
v21q0 20 -5 32t-19.5 17t-25.5 5q-26 0 -51 -22q-13 -12 -32 -38q-46 -67 -46 -144q0 -52 24 -93q4 -13 21 -13q16 0 27 11q37 35 65 95q11 25 42 112q6 -2 15.5 1t12.5 3q7 0 13 -9q7 -18 7 -43q0 -12 -2 -42t-2 -32q0 -22 5.5 -39t19.5 -30zM93 440l-12 20l116 190l32 -5
l4 -50z" />
    <glyph glyph-name="agrave" unicode="&#xe0;" 
d="M317 76q3 -12 3 -19q0 -13 -27 -31q-18 13 -35 35q-7 10 -28 43q-22 -29 -43 -58q-27 -32 -59 -45q-4 -1 -8 -1h-6q-30 0 -54 17t-37 45q-8 40 -8 76q0 77 30 142.5t89 106.5q19 5 38 9t35 4q28 0 54 -13q12 -10 17.5 -24t5.5 -31q0 -11 -1 -18t-4 -18.5t-17 -11.5h-14
v21q0 20 -5 32t-19.5 17t-25.5 5q-26 0 -51 -22q-13 -12 -32 -38q-46 -67 -46 -144q0 -52 24 -93q4 -13 21 -13q16 0 27 11q37 35 65 95q11 25 42 112q6 -2 15.5 1t12.5 3q7 0 13 -9q7 -18 7 -43q0 -12 -2 -42t-2 -32q0 -22 5.5 -39t19.5 -30zM92 615l4 50l32 5l116 -190
l-12 -20z" />
    <glyph glyph-name="acircumflex" unicode="&#xe2;" 
d="M317 76q3 -12 3 -19q0 -13 -27 -31q-18 13 -35 35q-7 10 -28 43q-22 -29 -43 -58q-27 -32 -59 -45q-4 -1 -8 -1h-6q-30 0 -54 17t-37 45q-8 40 -8 76q0 77 30 142.5t89 106.5q19 5 38 9t35 4q28 0 54 -13q12 -10 17.5 -24t5.5 -31q0 -11 -1 -18t-4 -18.5t-17 -11.5h-14
v21q0 20 -5 32t-19.5 17t-25.5 5q-26 0 -51 -22q-13 -12 -32 -38q-46 -67 -46 -144q0 -52 24 -93q4 -13 21 -13q16 0 27 11q37 35 65 95q11 25 42 112q6 -2 15.5 1t12.5 3q7 0 13 -9q7 -18 7 -43q0 -12 -2 -42t-2 -32q0 -22 5.5 -39t19.5 -30zM225 482q-11 39 -14 48
q-11 31 -22 49q-6 -30 -21 -58q-10 -19 -31 -46l-11 14q21 27 33.5 55t18.5 73q21 -19 39 -63q12 -29 22 -66z" />
    <glyph glyph-name="adieresis" unicode="&#xe4;" 
d="M317 76q3 -12 3 -19q0 -13 -27 -31q-18 13 -35 35q-7 10 -28 43q-22 -29 -43 -58q-27 -32 -59 -45q-4 -1 -8 -1h-6q-30 0 -54 17t-37 45q-8 40 -8 76q0 77 30 142.5t89 106.5q19 5 38 9t35 4q28 0 54 -13q12 -10 17.5 -24t5.5 -31q0 -11 -1 -18t-4 -18.5t-17 -11.5h-14
v21q0 20 -5 32t-19.5 17t-25.5 5q-26 0 -51 -22q-13 -12 -32 -38q-46 -67 -46 -144q0 -52 24 -93q4 -13 21 -13q16 0 27 11q37 35 65 95q11 25 42 112q6 -2 15.5 1t12.5 3q7 0 13 -9q7 -18 7 -43q0 -12 -2 -42t-2 -32q0 -22 5.5 -39t19.5 -30zM106 558q14 -12 14 -34
q0 -10 -6 -21q-9 -17 -27 -17q-9 0 -17 6q-14 12 -14 34q0 11 7.5 25t25.5 14q10 0 17 -7zM260 555q14 -12 14 -34q0 -10 -6 -21q-9 -17 -28 -17q-9 0 -17 6q-14 12 -14 34q0 11 6 22q11 17 28 17q10 0 17 -7z" />
    <glyph glyph-name="atilde" unicode="&#xe3;" 
d="M317 76q3 -12 3 -19q0 -13 -27 -31q-18 13 -35 35q-7 10 -28 43q-22 -29 -43 -58q-27 -32 -59 -45q-4 -1 -8 -1h-6q-30 0 -54 17t-37 45q-8 40 -8 76q0 77 30 142.5t89 106.5q19 5 38 9t35 4q28 0 54 -13q12 -10 17.5 -24t5.5 -31q0 -11 -1 -18t-4 -18.5t-17 -11.5h-14
v21q0 20 -5 32t-19.5 17t-25.5 5q-26 0 -51 -22q-13 -12 -32 -38q-46 -67 -46 -144q0 -52 24 -93q4 -13 21 -13q16 0 27 11q37 35 65 95q11 25 42 112q6 -2 15.5 1t12.5 3q7 0 13 -9q7 -18 7 -43q0 -12 -2 -42t-2 -32q0 -22 5.5 -39t19.5 -30zM134 568h60l58 12q25 8 40 33
v-15q-14 -35 -28 -47.5t-49 -21.5h-74q-21 -5 -37 -23q-12 -14 -23 -40q11 59 14 66q11 29 39 36z" />
    <glyph glyph-name="aring" unicode="&#xe5;" 
d="M317 76q3 -12 3 -19q0 -13 -27 -31q-18 13 -35 35q-7 10 -28 43q-22 -29 -43 -58q-27 -32 -59 -45q-4 -1 -8 -1h-6q-30 0 -54 17t-37 45q-8 40 -8 76q0 77 30 142.5t89 106.5q19 5 38 9t35 4q28 0 54 -13q12 -10 17.5 -24t5.5 -31q0 -11 -1 -18t-4 -18.5t-17 -11.5h-14
v21q0 20 -5 32t-19.5 17t-25.5 5q-26 0 -51 -22q-13 -12 -32 -38q-46 -67 -46 -144q0 -52 24 -93q4 -13 21 -13q16 0 27 11q37 35 65 95q11 25 42 112q6 -2 15.5 1t12.5 3q7 0 13 -9q7 -18 7 -43q0 -12 -2 -42t-2 -32q0 -22 5.5 -39t19.5 -30zM231 519q0 -26 -13.5 -43.5
t-35.5 -17.5q-21 0 -35 17t-14 44q0 25 14 43t35 18t35 -17t14 -44zM153 519q0 -16 8.5 -26.5t20.5 -10.5t20.5 10.5t8.5 26.5t-8.5 26.5t-20.5 10.5q-13 0 -21 -10t-8 -27z" />
    <glyph glyph-name="ccedilla" unicode="&#xe7;" horiz-adv-x="309" 
d="M24 91q-10 33 -10 67q0 50 22 102q18 42 53 91q35 24 51 33q31 16 58 16q25 -7 51 -13q28 -11 36 -33q9 -12 9 -27q0 -11 -8 -32t-8 -32q-17 -17 -26 -25q-18 -16 -34 -12q-7 10 -7 21q0 13 14.5 39t14.5 38q0 20 -27 34q-59 0 -96 -56q-20 -31 -45 -107v-30q0 -30 4 -49
t18 -35q20 -20 48.5 -30.5t63.5 -10.5q23 0 35 2.5t15 3.5q7 4 10 5q5 -4 5 -9q0 -9 -17 -24q-5 -4 -17 -13q-10 -3 -21.5 -4t-25.5 -1q-23 0 -47 6l-12 -30q6 3 18 3q15 0 26 -10t11 -34q0 -26 -17.5 -38t-37.5 -12q-27 0 -47 10l7 21l16 -4t17 -2q12 0 19.5 5t7.5 18
q0 8 -4 13q-7 9 -18 9q-9 0 -17 -3l-6 5l20 54q-34 10 -57.5 29.5t-44.5 50.5z" />
    <glyph glyph-name="eacute" unicode="&#xe9;" horiz-adv-x="283" 
d="M249 18l-35 -12q-21 -6 -42 -6q-25 0 -48.5 6.5t-53.5 19.5q-17 16 -32 41q-5 8 -12 22q-13 40 -13 85q0 57 21.5 111t61.5 96q7 10 19 14.5t27 4.5q7 0 17 -2t19 -5q18 -10 28 -21q15 -16 15 -34v-8q0 -61 -44 -134l-76 -116q7 -13 23 -18.5t35 -5.5q15 0 29 1l28 2
q3 1 15 9.5t19 7.5q21 -4 21 -17q0 -9 -7.5 -20t-14.5 -21zM89 465l-12 20l116 190l32 -5l4 -50zM139 342q-30 -37 -49 -80t-19 -88q0 -18 3 -36l34 37q6 14 28 52q32 56 32 91q0 7 -2 21z" />
    <glyph glyph-name="egrave" unicode="&#xe8;" horiz-adv-x="283" 
d="M249 18l-35 -12q-21 -6 -42 -6q-25 0 -48.5 6.5t-53.5 19.5q-17 16 -32 41q-5 8 -12 22q-13 40 -13 85q0 57 21.5 111t61.5 96q7 10 19 14.5t27 4.5q7 0 17 -2t19 -5q18 -10 28 -21q15 -16 15 -34v-8q0 -61 -44 -134l-76 -116q7 -13 23 -18.5t35 -5.5q15 0 29 1l28 2
q3 1 15 9.5t19 7.5q21 -4 21 -17q0 -9 -7.5 -20t-14.5 -21zM80 615l4 50l32 5l116 -190l-12 -20zM139 342q-30 -37 -49 -80t-19 -88q0 -18 3 -36l34 37q6 14 28 52q32 56 32 91q0 7 -2 21z" />
    <glyph glyph-name="ecircumflex" unicode="&#xea;" horiz-adv-x="283" 
d="M249 18l-35 -12q-21 -6 -42 -6q-25 0 -48.5 6.5t-53.5 19.5q-17 16 -32 41q-5 8 -12 22q-13 40 -13 85q0 57 21.5 111t61.5 96q7 10 19 14.5t27 4.5q7 0 17 -2t19 -5q18 -10 28 -21q15 -16 15 -34v-8q0 -61 -44 -134l-76 -116q7 -13 23 -18.5t35 -5.5q15 0 29 1l28 2
q3 1 15 9.5t19 7.5q21 -4 21 -17q0 -9 -7.5 -20t-14.5 -21zM213 477q-11 39 -14 48q-11 31 -22 49q-6 -30 -21 -58q-10 -19 -31 -46l-11 14q21 27 33.5 55t18.5 73q21 -19 39 -63q12 -29 22 -66zM139 342q-30 -37 -49 -80t-19 -88q0 -18 3 -36l34 37q6 14 28 52q32 56 32 91
q0 7 -2 21z" />
    <glyph glyph-name="edieresis" unicode="&#xeb;" horiz-adv-x="283" 
d="M249 18l-35 -12q-21 -6 -42 -6q-25 0 -48.5 6.5t-53.5 19.5q-17 16 -32 41q-5 8 -12 22q-13 40 -13 85q0 57 21.5 111t61.5 96q7 10 19 14.5t27 4.5q7 0 17 -2t19 -5q18 -10 28 -21q15 -16 15 -34v-8q0 -61 -44 -134l-76 -116q7 -13 23 -18.5t35 -5.5q15 0 29 1l28 2
q3 1 15 9.5t19 7.5q21 -4 21 -17q0 -9 -7.5 -20t-14.5 -21zM90 553q14 -12 14 -34q0 -10 -6 -21q-9 -17 -27 -17q-9 0 -17 6q-14 12 -14 34q0 11 7.5 25t25.5 14q10 0 17 -7zM244 550q14 -12 14 -34q0 -10 -6 -21q-9 -17 -28 -17q-9 0 -17 6q-14 12 -14 34q0 11 6 22
q11 17 28 17q10 0 17 -7zM139 342q-30 -37 -49 -80t-19 -88q0 -18 3 -36l34 37q6 14 28 52q32 56 32 91q0 7 -2 21z" />
    <glyph glyph-name="iacute" unicode="&#xed;" horiz-adv-x="188" 
d="M126 15q-15 11 -35 31.5t-31 31.5q0 13 -3.5 23.5t-13.5 31.5q-4 31 -6.5 58t-2.5 48q0 28 1.5 36.5t7.5 21.5q5 16 9 34.5t8 37.5q7 1 14 1h10q26 0 36 -9t10 -26q0 -16 -15 -59t-15 -64q0 -13 4 -21q8 -30 18.5 -57t24.5 -48q7 -18 7 -34q0 -37 -28 -37zM25 410l-12 20
l116 190l32 -5l4 -50z" />
    <glyph glyph-name="igrave" unicode="&#xec;" horiz-adv-x="188" 
d="M126 15q-15 11 -35 31.5t-31 31.5q0 13 -3.5 23.5t-13.5 31.5q-4 31 -6.5 58t-2.5 48q0 28 1.5 36.5t7.5 21.5q5 16 9 34.5t8 37.5q7 1 14 1h10q26 0 36 -9t10 -26q0 -16 -15 -59t-15 -64q0 -13 4 -21q8 -30 18.5 -57t24.5 -48q7 -18 7 -34q0 -37 -28 -37zM20 565l4 50
l32 5l116 -190l-12 -20z" />
    <glyph glyph-name="icircumflex" unicode="&#xee;" horiz-adv-x="188" 
d="M126 15q-15 11 -35 31.5t-31 31.5q0 13 -3.5 23.5t-13.5 31.5q-4 31 -6.5 58t-2.5 48q0 28 1.5 36.5t7.5 21.5q5 16 9 34.5t8 37.5q7 1 14 1h10q26 0 36 -9t10 -26q0 -16 -15 -59t-15 -64q0 -13 4 -21q8 -30 18.5 -57t24.5 -48q7 -18 7 -34q0 -37 -28 -37zM141 452
q-11 39 -14 48q-11 31 -22 49q-6 -30 -21 -58q-10 -19 -31 -46l-11 14q21 27 33.5 55t18.5 73q21 -19 39 -63q12 -29 22 -66z" />
    <glyph glyph-name="idieresis" unicode="&#xef;" horiz-adv-x="188" 
d="M126 15q-15 11 -35 31.5t-31 31.5q0 13 -3.5 23.5t-13.5 31.5q-4 31 -6.5 58t-2.5 48q0 28 1.5 36.5t7.5 21.5q5 16 9 34.5t8 37.5q7 1 14 1h10q26 0 36 -9t10 -26q0 -16 -15 -59t-15 -64q0 -13 4 -21q8 -30 18.5 -57t24.5 -48q7 -18 7 -34q0 -37 -28 -37zM38 508
q14 -12 14 -34q0 -10 -6 -21q-9 -17 -27 -17q-9 0 -17 6q-14 12 -14 34q0 11 7.5 25t25.5 14q10 0 17 -7zM192 505q14 -12 14 -34q0 -10 -6 -21q-9 -17 -28 -17q-9 0 -17 6q-14 12 -14 34q0 11 6 22q11 17 28 17q10 0 17 -7z" />
    <glyph glyph-name="ntilde" unicode="&#xf1;" horiz-adv-x="478" 
d="M415 246q-37 -92 -58 -137q-38 -81 -92 -109q-37 10 -52.5 32.5t-15.5 55.5q0 18 12 88q6 35 6 54q0 36 -15 61q-40 -102 -63 -152q-41 -89 -91 -131q-10 0 -17 10t-7 25q0 16 12 27q31 28 49 61q65 119 83 249q12 13 35 13t33 -13q18 -20 25.5 -45t7.5 -55q0 -23 -6 -71
t-6 -73q0 -31 7 -56h15q44 51 89.5 163.5t83.5 156.5q7 -11 7 -33q0 -38 -20 -88q-11 -17 -22 -33zM238 543h60l58 12q25 8 40 33v-15q-14 -35 -28 -47.5t-49 -21.5h-74q-21 -5 -37 -23q-12 -14 -23 -40q11 59 14 66q11 29 39 36z" />
    <glyph glyph-name="oacute" unicode="&#xf3;" horiz-adv-x="364" 
d="M340 136q-6 -1 -14 -1h-12h-21.5t-21.5 1q-30 -54 -46 -78q-29 -43 -71 -53q-13 -5 -26 -5q-36 0 -71 26q-21 21 -30.5 48t-9.5 57q0 40 14 84q8 27 31 76q3 1 75 81q26 29 51 29q22 0 49 -20l34 -43q6 -30 10.5 -54t4.5 -41q0 -29 -10 -53q16 -8 32 -12.5t34 -2.5
q6 -22 6 -24q0 -7 -8 -15zM121 440l-12 20l116 190l32 -5l4 -50zM115 258l-14 -37q-11 -15 -15.5 -34t-4.5 -40q0 -9 1 -30t1 -33q4 -16 19 -25t33 -9q5 0 15 2q26 11 43 42.5t17 62.5q-26 14 -52.5 42.5t-42.5 58.5zM220 322q-4 23 -26 23q-15 0 -25.5 -11.5t-6.5 -28.5
q3 -34 17.5 -57t45.5 -37q3 11 6 29t3 32q0 32 -14 50z" />
    <glyph glyph-name="ograve" unicode="&#xf2;" horiz-adv-x="364" 
d="M340 136q-6 -1 -14 -1h-12h-21.5t-21.5 1q-30 -54 -46 -78q-29 -43 -71 -53q-13 -5 -26 -5q-36 0 -71 26q-21 21 -30.5 48t-9.5 57q0 40 14 84q8 27 31 76q3 1 75 81q26 29 51 29q22 0 49 -20l34 -43q6 -30 10.5 -54t4.5 -41q0 -29 -10 -53q16 -8 32 -12.5t34 -2.5
q6 -22 6 -24q0 -7 -8 -15zM140 585l4 50l32 5l116 -190l-12 -20zM115 258l-14 -37q-11 -15 -15.5 -34t-4.5 -40q0 -9 1 -30t1 -33q4 -16 19 -25t33 -9q5 0 15 2q26 11 43 42.5t17 62.5q-26 14 -52.5 42.5t-42.5 58.5zM220 322q-4 23 -26 23q-15 0 -25.5 -11.5t-6.5 -28.5
q3 -34 17.5 -57t45.5 -37q3 11 6 29t3 32q0 32 -14 50z" />
    <glyph glyph-name="ocircumflex" unicode="&#xf4;" horiz-adv-x="364" 
d="M340 136q-6 -1 -14 -1h-12h-21.5t-21.5 1q-30 -54 -46 -78q-29 -43 -71 -53q-13 -5 -26 -5q-36 0 -71 26q-21 21 -30.5 48t-9.5 57q0 40 14 84q8 27 31 76q3 1 75 81q26 29 51 29q22 0 49 -20l34 -43q6 -30 10.5 -54t4.5 -41q0 -29 -10 -53q16 -8 32 -12.5t34 -2.5
q6 -22 6 -24q0 -7 -8 -15zM229 472q-11 39 -14 48q-11 31 -22 49q-6 -30 -21 -58q-10 -19 -31 -46l-11 14q21 27 33.5 55t18.5 73q21 -19 39 -63q12 -29 22 -66zM115 258l-14 -37q-11 -15 -15.5 -34t-4.5 -40q0 -9 1 -30t1 -33q4 -16 19 -25t33 -9q5 0 15 2q26 11 43 42.5
t17 62.5q-26 14 -52.5 42.5t-42.5 58.5zM220 322q-4 23 -26 23q-15 0 -25.5 -11.5t-6.5 -28.5q3 -34 17.5 -57t45.5 -37q3 11 6 29t3 32q0 32 -14 50z" />
    <glyph glyph-name="odieresis" unicode="&#xf6;" horiz-adv-x="364" 
d="M340 136q-6 -1 -14 -1h-12h-21.5t-21.5 1q-30 -54 -46 -78q-29 -43 -71 -53q-13 -5 -26 -5q-36 0 -71 26q-21 21 -30.5 48t-9.5 57q0 40 14 84q8 27 31 76q3 1 75 81q26 29 51 29q22 0 49 -20l34 -43q6 -30 10.5 -54t4.5 -41q0 -29 -10 -53q16 -8 32 -12.5t34 -2.5
q6 -22 6 -24q0 -7 -8 -15zM126 548q14 -12 14 -34q0 -10 -6 -21q-9 -17 -27 -17q-9 0 -17 6q-14 12 -14 34q0 11 7.5 25t25.5 14q10 0 17 -7zM280 545q14 -12 14 -34q0 -10 -6 -21q-9 -17 -28 -17q-9 0 -17 6q-14 12 -14 34q0 11 6 22q11 17 28 17q10 0 17 -7zM220 322
q-4 23 -26 23q-15 0 -25.5 -11.5t-6.5 -28.5q3 -34 17.5 -57t45.5 -37q3 11 6 29t3 32q0 32 -14 50zM115 258l-14 -37q-11 -15 -15.5 -34t-4.5 -40q0 -9 1 -30t1 -33q4 -16 19 -25t33 -9q5 0 15 2q26 11 43 42.5t17 62.5q-26 14 -52.5 42.5t-42.5 58.5z" />
    <glyph glyph-name="otilde" unicode="&#xf5;" horiz-adv-x="364" 
d="M340 136q-6 -1 -14 -1h-12h-21.5t-21.5 1q-30 -54 -46 -78q-29 -43 -71 -53q-13 -5 -26 -5q-36 0 -71 26q-21 21 -30.5 48t-9.5 57q0 40 14 84q8 27 31 76q3 1 75 81q26 29 51 29q22 0 49 -20l34 -43q6 -30 10.5 -54t4.5 -41q0 -29 -10 -53q16 -8 32 -12.5t34 -2.5
q6 -22 6 -24q0 -7 -8 -15zM138 548h60l58 12q25 8 40 33v-15q-14 -35 -28 -47.5t-49 -21.5h-74q-21 -5 -37 -23q-12 -14 -23 -40q11 59 14 66q11 29 39 36zM115 258l-14 -37q-11 -15 -15.5 -34t-4.5 -40q0 -9 1 -30t1 -33q4 -16 19 -25t33 -9q5 0 15 2q26 11 43 42.5
t17 62.5q-26 14 -52.5 42.5t-42.5 58.5zM220 322q-4 23 -26 23q-15 0 -25.5 -11.5t-6.5 -28.5q3 -34 17.5 -57t45.5 -37q3 11 6 29t3 32q0 32 -14 50z" />
    <glyph glyph-name="uacute" unicode="&#xfa;" horiz-adv-x="384" 
d="M381 193q2 -8 2 -12q0 -21 -12.5 -41t-34.5 -39l-11 34q-40 -56 -66.5 -89.5t-56.5 -43.5q-14 -3 -25 -3q-62 0 -94 56q-3 25 -14 49.5t-26 24.5l-7 -12q-16 8 -16 27q0 17 14 45q65 96 83 211q13 0 31.5 -1t23.5 -25q-16 -57 -25.5 -109t-9.5 -105q0 -45 7 -84
q14 -21 37 -21q12 0 21 6q57 51 89 142q31 106 49 159q5 1 18.5 7.5t21.5 4.5q21 -12 21 -39q0 -14 -8 -46t-8 -48q0 -8 1 -12q-5 -20 -5 -36zM149 510l-12 20l116 190l32 -5l4 -50z" />
    <glyph glyph-name="ugrave" unicode="&#xf9;" horiz-adv-x="384" 
d="M381 193q2 -8 2 -12q0 -21 -12.5 -41t-34.5 -39l-11 34q-40 -56 -66.5 -89.5t-56.5 -43.5q-14 -3 -25 -3q-62 0 -94 56q-3 25 -14 49.5t-26 24.5l-7 -12q-16 8 -16 27q0 17 14 45q65 96 83 211q13 0 31.5 -1t23.5 -25q-16 -57 -25.5 -109t-9.5 -105q0 -45 7 -84
q14 -21 37 -21q12 0 21 6q57 51 89 142q31 106 49 159q5 1 18.5 7.5t21.5 4.5q21 -12 21 -39q0 -14 -8 -46t-8 -48q0 -8 1 -12q-5 -20 -5 -36zM124 595l4 50l32 5l116 -190l-12 -20z" />
    <glyph glyph-name="ucircumflex" unicode="&#xfb;" horiz-adv-x="384" 
d="M381 193q2 -8 2 -12q0 -21 -12.5 -41t-34.5 -39l-11 34q-40 -56 -66.5 -89.5t-56.5 -43.5q-14 -3 -25 -3q-62 0 -94 56q-3 25 -14 49.5t-26 24.5l-7 -12q-16 8 -16 27q0 17 14 45q65 96 83 211q13 0 31.5 -1t23.5 -25q-16 -57 -25.5 -109t-9.5 -105q0 -45 7 -84
q14 -21 37 -21q12 0 21 6q57 51 89 142q31 106 49 159q5 1 18.5 7.5t21.5 4.5q21 -12 21 -39q0 -14 -8 -46t-8 -48q0 -8 1 -12q-5 -20 -5 -36zM273 492q-11 39 -14 48q-11 31 -22 49q-6 -30 -21 -58q-10 -19 -31 -46l-11 14q21 27 33.5 55t18.5 73q21 -19 39 -63
q12 -29 22 -66z" />
    <glyph glyph-name="udieresis" unicode="&#xfc;" horiz-adv-x="384" 
d="M381 193q2 -8 2 -12q0 -21 -12.5 -41t-34.5 -39l-11 34q-40 -56 -66.5 -89.5t-56.5 -43.5q-14 -3 -25 -3q-62 0 -94 56q-3 25 -14 49.5t-26 24.5l-7 -12q-16 8 -16 27q0 17 14 45q65 96 83 211q13 0 31.5 -1t23.5 -25q-16 -57 -25.5 -109t-9.5 -105q0 -45 7 -84
q14 -21 37 -21q12 0 21 6q57 51 89 142q31 106 49 159q5 1 18.5 7.5t21.5 4.5q21 -12 21 -39q0 -14 -8 -46t-8 -48q0 -8 1 -12q-5 -20 -5 -36zM146 563q14 -12 14 -34q0 -10 -6 -21q-9 -17 -27 -17q-9 0 -17 6q-14 12 -14 34q0 11 7.5 25t25.5 14q10 0 17 -7zM300 560
q14 -12 14 -34q0 -10 -6 -21q-9 -17 -28 -17q-9 0 -17 6q-14 12 -14 34q0 11 6 22q11 17 28 17q10 0 17 -7z" />
    <glyph glyph-name="dagger" unicode="&#x2020;" horiz-adv-x="360" 
d="M336 467v-25h-134l3 -252h-19l-3 252h-143v25h142v103h19l1 -103h134z" />
    <glyph glyph-name="degree" unicode="&#xb0;" horiz-adv-x="268" 
d="M82 516q-29 34 -29 80q0 40 25 74t62 34q32 0 59.5 -32t27.5 -78q0 -40 -25 -74t-62 -34q-32 0 -58 30zM186 656q-19 22 -46 22q-29 0 -48 -25t-19 -57q0 -38 20 -61t47 -23q29 0 48 25t19 57q0 38 -21 62z" />
    <glyph glyph-name="cent" unicode="&#xa2;" horiz-adv-x="256" 
d="M229 577q-1 0 -5 -4t-9 -2q0 4 3 16t3 20q0 13 -9 22t-22 14t-27 5q-8 0 -18.5 -2t-18.5 -4q-40 -11 -68.5 -37.5t-35.5 -63.5q-1 -18 -1 -27q0 -27 5.5 -37.5t18.5 -18.5q15 -13 37 -19t46 -6q21 0 38 3t36 9q5 2 15 7t17 10q4 -5 4 -10q0 -7 -7 -13q-1 -1 -14 -9
l-83 -23l-11 -91q-3 -3 -10 -3q-6 0 -6 4l-3 90q-43 17 -51 21q-29 15 -42 37.5t-13 53.5q0 47 31 86q37 35 59.5 47.5t45.5 15.5q6 41 10.5 61.5t12.5 34.5q5 2 7.5 -2t5.5 -7q2 -12 -3.5 -33.5t-5.5 -28.5q0 -15 9 -25q25 0 43 -8t24 -28q3 -9 3 -18q0 -24 -11 -37z" />
    <glyph glyph-name="sterling" unicode="&#xa3;" horiz-adv-x="440" 
d="M144 258q-4 -30 -14 -55q20 11 37.5 16.5t36.5 5.5q14 0 46 -35t66 -35q32 0 56 25q10 10 34 49l20 -18q-29 -44 -43 -58q-29 -28 -67 -28q-34 0 -76 47q-21 23 -36 23q-39 0 -87 -33q-23 -15 -70 -59l-14 24q21 19 42 39q37 39 45 96q12 94 12 178h-84v30h86
q0 133 26 202q33 88 112 88q21 0 21 6q0 2 -4 6q10 -7 21 -14l-12 -26q-8 4 -15 9q3 -4 3 -7.5t-14 -3.5q-70 0 -97 -78q-21 -60 -21 -182h114v-30h-115q0 -71 -1.5 -101.5t-7.5 -80.5z" />
    <glyph glyph-name="section" unicode="&#xa7;" horiz-adv-x="356" 
d="M54 15l12 20q14 -14 40 -21t56 -7q48 0 80 18q40 22 40 65q0 97 -57 174q-53 63 -105 126q-58 81 -58 180l2 36l-2 29q0 70 39 106t103 36q55 0 95 -20q51 -26 51 -77q0 -32 -9 -55q-3 -7 -21 -37l-16 14q15 26 17 31q9 21 9 47q0 43 -44 60q-30 12 -82 12q-63 0 -96 -37
l9 -6q-12 -27 -19 -48q-10 -29 -13 -55q8 -52 46 -94q13 -14 71 -62q89 -76 126 -157q30 -67 30 -148q0 -78 -59 -123q-52 -40 -127 -40h-10h-10q-62 2 -98 33zM338 145q0 94 -49 174q-36 58 -99 111q-21 17 -42 35q-45 40 -65 78q0 -90 56 -163q53 -61 106 -121
q57 -76 57 -169q0 -26 -12 -46q23 18 35.5 43t12.5 58z" />
    <glyph glyph-name="bullet" unicode="&#x2022;" horiz-adv-x="196" 
d="M154 492q22 -28 22 -67q0 -41 -23.5 -69t-53.5 -28q-33 0 -56 29t-23 68q0 40 23.5 68.5t53.5 28.5q33 0 57 -30z" />
    <glyph glyph-name="germandbls" unicode="&#xdf;" horiz-adv-x="492" 
d="M304 122q-37 0 -59.5 8.5t-36.5 31.5l16 16q11 -18 30 -24.5t50 -6.5q70 0 107 24q47 31 47 99t-18.5 109t-56.5 70q-45 20 -81 37q-72 34 -72 49q0 13 19 34q14 14 28 29q26 37 33 52q16 33 16 75q0 20 -6 26t-24 6q-104 0 -148 -86q-38 -74 -38 -226v-390h-20v390
q0 164 43 244q50 93 163 93q29 0 39.5 -11.5t10.5 -45.5q0 -56 -25 -100q-5 -9 -30 -43q-1 -1 -23 -21q-18 -16 -18 -26t46 -28t97 -36q43 -32 64 -77.5t21 -123.5t-52 -116q-44 -32 -122 -32z" />
    <glyph glyph-name="registered" unicode="&#xae;" horiz-adv-x="236" 
d="M176 330q-29 -27 -63 -27q-49 0 -80 52q-19 32 -19 74q0 66 42 104q27 24 60 24q52 0 82 -53q19 -32 19 -72q0 -64 -41 -102zM67 513q-34 -31 -34 -84q0 -34 16 -60q24 -41 65 -41q28 0 50 22q33 31 33 84q0 30 -13.5 53.5t-30.5 34.5t-37 11q-26 0 -49 -20zM152 345
q-15 10 -32 38t-17 53q0 11 14 19t14 26q0 10 -1.5 16.5t-14.5 6.5q-29 0 -44 -25l-16 14q10 17 25 26.5t35 9.5q21 0 28.5 -11.5t7.5 -36.5q0 -18 -14 -26t-14 -19q0 -20 13 -40t26 -29zM91 367v115h20v-115h-20z" />
    <glyph glyph-name="copyright" unicode="&#xa9;" horiz-adv-x="236" 
d="M176 330q-29 -27 -63 -27q-49 0 -80 52q-19 32 -19 74q0 66 42 104q27 24 60 24q52 0 82 -53q19 -32 19 -72q0 -64 -41 -102zM67 513q-34 -31 -34 -84q0 -34 16 -60q24 -41 65 -41q28 0 50 22q33 31 33 84q0 30 -13.5 53.5t-30.5 34.5t-37 11q-26 0 -49 -20zM115 347
q-29 0 -39 10t-10 43q0 36 16 68t40 32q10 0 19 -3.5t19 -9.5l-10 -22q-9 6 -14 8t-14 2q-17 0 -26.5 -23.5t-9.5 -51.5q0 -19 5.5 -23.5t23.5 -4.5q15 0 23.5 8t17.5 17l11 -22q-14 -14 -21 -19q-12 -9 -31 -9z" />
    <glyph glyph-name="trademark" unicode="&#x2122;" horiz-adv-x="226" 
d="M96 583q-4 -17 -4 -41q0 -11 1 -34t1 -34q0 -18 -1 -29t-6 -22q-9 -23 -23 -22q-8 3 -10.5 14t-2.5 17q0 11 3 20q12 23 24 17q-9 0 -15.5 -8.5t-8 -15t-1.5 -14.5q0 -7 2 -14.5t7.5 -10.5t11.5 1q19 17 19 62q0 18 -1 37t-2 39q0 26 5 42q-13 4 -19 6q-12 5 -20 5
q-12 0 -21 -14q-14 -23 -11 -55q0 -21 13 -28q13 -6 26 15q4 6 11 24q-5 -22 -18 -37q-7 -5 -13 -5q-4 0 -9 3q-5 7 -8 13t-3 14v12q0 31 13 49q8 12 19 12q5 0 21 -5.5t23 -2.5q-3 -5 -3 -10zM205 401l-1 83l-2 97v3q-2 0 -3 1q-4 -22 -13 -98q-4 -33 -6.5 -47.5t-4 -16
t-2.5 0.5l-3 8q0 27 -2 82t-2 81q-2 1 -3 2l-1 -7q-8 -62 -12 -92q-8 -53 -23 -80q-7 -15 -17 -7q-6 8 -6 27v11q1 12 2.5 18t5.5 10q-4 -10 -5 -21t-1 -27q2 -13 5 -16q8 -5 16 8q3 5 7 17q9 29 14.5 69.5t11.5 79.5l3 14q4 -2 4 -4l6 -168q5 19 15 98q5 39 10 59q0 2 4 2
q2 -4 2.5 -11.5t1.5 -14.5v-158z" />
    <glyph glyph-name="acute" unicode="&#xb4;" horiz-adv-x="180" 
d="M21 535l-12 20l116 190l32 -5l4 -50z" />
    <glyph glyph-name="dieresis" unicode="&#xa8;" horiz-adv-x="247" 
d="M66 628q14 -12 14 -34q0 -10 -6 -21q-9 -17 -27 -17q-9 0 -17 6q-14 12 -14 34q0 11 7.5 25t25.5 14q8 0 17 -7zM220 625q14 -12 14 -34q0 -10 -6 -21q-9 -17 -28 -17q-9 0 -17 6q-14 12 -14 34q0 11 6 22q11 17 28 17q10 0 17 -7z" />
    <glyph glyph-name="AE" unicode="&#xc6;" horiz-adv-x="1528" 
d="M703 240q38 55 92.5 96.5t120.5 70.5l-14 12q-62 10 -93 16q-58 12 -74 50q-2 12 -2 18q0 41 34 80q26 30 68 52q113 61 238 97q137 39 263 39q93 0 178 -22l33 -24q11 -14 11 -32q0 -21 -16 -41q-29 -22 -63.5 -37t-76.5 -25q-3 4 -11 7t-11 9q6 11 29 18q35 11 39 13
q39 19 45 23q25 17 20 39q-23 18 -52.5 24t-72.5 6q-20 0 -40 -0.5t-39 -0.5q-163 -21 -273 -54q-141 -43 -243 -117q-8 -12 -15.5 -23.5t-7.5 -26.5q0 -8 1 -12q32 -31 94 -42q44 -8 113 -8h36q74 18 154 36.5t145 18.5q29 0 42.5 -1t40.5 -7q1 -11 -8 -19q-13 -9 -18 -12
q-64 -27 -199 -38.5t-176 -20.5q-102 -23 -160 -85q-48 -39 -69 -65q-37 -45 -37 -89q0 -11 3 -23q44 -72 131 -104q73 -27 178 -27q52 0 107.5 6t120.5 16.5t145 36.5q65 21 140 54q-48 -62 -151 -93q-91 -23 -181 -46q-43 -5 -90.5 -9t-90.5 -4q-97 0 -170 19
q-86 22 -143 71q9 -19 19 -38q7 -13 22 -38q-2 -8 -7 -13.5t-13 -4.5q-3 -1 -6.5 -1h-4.5q-27 0 -46 35l-18 34q-14 31 -52 145q-18 53 -33 87q-71 0 -158.5 -6t-185.5 -17q-46 -60 -74 -92q-47 -52 -89 -80q-52 -34 -112 -42q-48 0 -89 24t-59 64q-9 12 -11.5 28.5
t-2.5 41.5q5 3 11 3q9 -1 13 -1q10 -44 21 -64q19 -36 52 -49q24 -10 51 -10q40 0 80 22q33 18 65 50.5t45 46.5q24 25 30 49q-33 0 -59.5 -4t-68.5 -15q-6 5 -6 16q0 9 3 15q16 10 124 23q77 9 89 69q65 96 121 203q49 94 100 215q9 3 23.5 6t26.5 3q27 0 40 -14
q0 -106 22 -225q17 -95 52 -213l80 -10q0 -12 -5.5 -20t-17.5 -16q-17 2 -25 2q-14 0 -17 -10l24 -82q4 17 7 27t14 36zM510 676h-7q-18 -32 -72 -130q-46 -84 -72 -129q-41 -71 -76 -123q86 0 185 9q30 3 110 12q-20 85 -37.5 177.5t-30.5 183.5z" />
    <glyph glyph-name="Oslash" unicode="&#xd8;" horiz-adv-x="936" 
d="M68 -56l-16 22l87 96q-14 10 -24 18q-16 14 -23 20q-44 39 -64 96t-20 123q0 39 6 77q50 143 182 257t288 147h15t17 1q15 0 24.5 -1.5t18.5 -7.5q5 -9 -5.5 -17t-22.5 -4q-159 -19 -287 -124q-120 -98 -182 -245q-12 -39 -12 -79q0 -63 26 -119.5t74 -99.5l17 -11
l576 633q-45 15 -97 15q-23 0 -49 -3q-136 -19 -244 -92q-3 19 15 38q13 14 39 27q59 28 122 44t125 16q29 0 57.5 -4t55.5 -13l121 132l16 -22l-110 -121q15 -6 25 -12q6 -3 23 -16q55 -38 85.5 -97.5t30.5 -129.5v-30q-3 -14 -4 -20q-27 -165 -163 -285
q-130 -115 -307 -145q-50 -9 -102 -9q-61 0 -116 12t-103 38zM192 80q41 -19 93.5 -29t101.5 -10q126 0 236 48q101 44 174 122q77 83 100 182q5 24 9 52t4 56q0 44 -9.5 79t-32 60t-47 44.5t-51.5 31.5z" />
    <glyph glyph-name="plusminus" unicode="&#xb1;" horiz-adv-x="185" 
d="M29 281v25h122v-25h-122zM151 420v-25h-54v-74h-20v74h-48v25h48v75h20v-75h54z" />
    <glyph glyph-name="yen" unicode="&#xa5;" horiz-adv-x="496" 
d="M427 15h57v-30h-66q-16 -43 -39 -75q-26 -36 -63 -59q-53 -33 -127 -33q-47 0 -89 17q-26 11 -48 27.5t-35 35.5q4 9 14.5 15t18.5 2q19 -33 56.5 -53t81.5 -20q10 0 16 1q58 5 102.5 35t61.5 81l10 26h-370v30h379q2 7 5.5 23.5t5.5 31.5h-386v30h390q4 39 4 87
q0 35 -1.5 90t-1.5 56l-6 -4q-43 -78 -74 -114q-51 -60 -114 -74h-30q-27 0 -44 3.5t-32 17.5q-43 38 -60.5 90.5t-17.5 119.5q0 31 3.5 68t10.5 83.5t26 109.5q13 44 38 110q7 12 16 24.5t24 9.5q4 -6 11 -13t10 -11q-45 -95 -68 -175q-28 -97 -28 -187q0 -44 4 -75.5
t17 -72.5q18 -37 26 -48q18 -24 46 -29q89 0 153 81q30 37 85 152q16 40 29 167t55 181q11 2 16 0t13 -17q0 -61 -47 -263q-23 -99 -23 -166q4 -54 4.5 -74t0.5 -42v-53q-3 -22 -4 -32h45v-30h-49q-3 -18 -5 -35q-5 -14 -7 -20z" />
    <glyph glyph-name="ordfeminine" unicode="&#xaa;" horiz-adv-x="168" 
d="M158 463q2 -8 2 -10q0 -6 -14 -15q-6 5 -15.5 17t-15.5 22q-23 -32 -26 -35q-10 -10 -25 -16q-18 -3 -31.5 5.5t-20.5 24.5q-5 22 -5 40q0 80 60 123q9 2 20 4.5t16 2.5q14 0 27 -7q12 -9 12 -29q0 -6 -2 -14.5t-7 -8.5h-9v21q-2 11 -12 14t-13 3q-13 0 -25 -11
q-3 -2 -16 -19q-23 -35 -23 -74q0 -26 11 -45q3 -6 12 -6t12 5q21 19 38 61q6 15 16 43q10 2 14 2q3 0 7 -5q4 -8 4 -21q0 -7 -1 -20.5t-1 -19.5q0 -15 2.5 -21t8.5 -11z" />
    <glyph glyph-name="ordmasculine" unicode="&#xba;" horiz-adv-x="182" 
d="M182 493h-34q-15 -26 -23 -38q-15 -22 -35 -27q-6 -3 -14 -3t-17.5 4t-17.5 9q-21 22 -21 53q0 23 11 52q1 3 12 28q3 1 38 40q14 15 25 15t24 -10l18 -22q3 -16 5 -27.5t2 -19.5q0 -16 -5 -27q6 -3 15.5 -5.5t17.5 -1.5q3 -9 3 -13q0 -3 -4 -7zM122 586q-3 11 -14 11
q-7 0 -12 -5.5t-3 -13.5q3 -35 32 -47q5 13 5 29q0 17 -8 26zM70 554l-8 -18q-5 -6 -7 -16t-2 -20q1 -22 1 -33q3 -10 13 -14t20 -2q13 6 22 22t9 31q-14 6 -27 20.5t-21 29.5z" />
    <glyph glyph-name="ae" unicode="&#xe6;" horiz-adv-x="556" 
d="M317 76q-15 13 -20.5 29.5t-5.5 40.5q0 12 2 36t2 36q0 14 -1 20q20 76 74 133q7 10 19 14.5t27 4.5q7 0 17 -2t19 -5q18 -10 28 -21q15 -16 15 -34v-8q0 -61 -44 -134l-76 -116q7 -13 23 -18.5t35 -5.5q15 0 29 1l28 2q3 1 15 9.5t19 7.5q21 -4 21 -17q0 -9 -7.5 -20
t-14.5 -21l-35 -12q-21 -6 -42 -6q-25 0 -48.5 6.5t-53.5 19.5q-6 6 -12.5 14t-12.5 16q3 4 3 13q0 6 -3 17zM294 238q-9 -36 -9 -74q0 -45 13 -85l19 -33q-5 -7 -24 -20q-18 13 -35 35q-7 10 -28 43q-22 -29 -43 -58q-27 -32 -59 -45q-4 -1 -8 -1h-6q-30 0 -54 17t-37 45
q-8 40 -8 76q0 77 30 142.5t89 106.5q19 5 38 9t35 4q28 0 54 -13q12 -10 17.5 -24t5.5 -31q0 -11 -1 -18t-4 -18.5t-17 -11.5h-14v21q0 20 -5 32t-19.5 17t-25.5 5q-26 0 -51 -22q-13 -12 -32 -38q-46 -67 -46 -144q0 -52 24 -93q4 -13 21 -13q16 0 27 11q37 35 65 95
q11 25 42 112q6 -2 15.5 1t12.5 3q7 0 13 -9q5 -13 5 -24zM411 332q-30 -37 -49 -80t-19 -88q0 -18 3 -36l34 37q6 14 28 52q32 56 32 91q0 7 -2 21z" />
    <glyph glyph-name="oslash" unicode="&#xf8;" horiz-adv-x="364" 
d="M57 26q-21 21 -30.5 48t-9.5 57q0 40 14 84q8 27 31 76q3 1 75 81q26 29 51 29q22 0 49 -20l3 -5l74 145l28 -22l-78 -152l7 -9q6 -30 10.5 -54t4.5 -41q0 -29 -10 -53q16 -8 32 -12.5t34 -2.5q6 -22 6 -24q0 -7 -8 -15q-6 -1 -14 -1h-12h-21.5t-21.5 1q-30 -54 -46 -78
q-29 -43 -71 -53q-13 -5 -26 -5q-17 0 -38 8l-40 -79l-28 22l38 73zM153 205q-25 30 -38 53l-14 -37q-11 -15 -15.5 -34t-4.5 -40q0 -9 1 -30t1 -33l3 -8zM217 330q-7 14 -23 14q-15 0 -25.5 -11.5t-6.5 -27.5q3 -31 16 -52zM202 225q10 -8 23 -14q4 15 7 30.5t3 31.5
q0 10 -1 14zM114 54q9 -4 24 -4q4 0 12 2q26 11 43 42.5t17 62.5q-6 4 -11 7q-13 9 -21 16z" />
    <glyph glyph-name="questiondown" unicode="&#xbf;" horiz-adv-x="695" 
d="M462 746q-10 -2 -14 -2q-12 0 -22 7q-3 2 -17 15q-3 6 -3 14q0 12 9 22t23 12q15 -2 26 -8t16 -18q1 -10 -3 -18q-8 -12 -15 -24zM640 222q-93 -93 -181 -144q-112 -65 -221 -65q-34 0 -70 7t-71 22l-52 50q-9 21 -18 45t-9 46v16q3 8 4 11q27 90 121 144l172 80
q98 51 131 131q4 7 4 13q0 9 -7.5 22t-7.5 17q0 6 7 12q19 -5 32 -16.5t10 -29.5q0 -40 -11.5 -70t-38.5 -54q-37 -26 -149 -79q-102 -48 -146 -86q-69 -59 -80 -142q7 -28 21 -48q18 -26 44 -34q45 -9 90 -9q124 0 234 59t182 158q13 5 17 -6t2 -18z" />
    <glyph glyph-name="exclamdown" unicode="&#xa1;" horiz-adv-x="134" 
d="M100 748q-10 -2 -13 -2q-15 0 -24.5 8.5t-17.5 24.5q7 15 10 22q7 13 19 17q21 -3 34.5 -6t13.5 -19q-3 -13 -7 -26.5t-15 -18.5zM53 33q-11 -15 -25 -15q-27 0 -27 33q22 152 46 319t24 290q8 3 13 3q11 0 17 -11.5t9 -26.5q0 -149 -14.5 -293t-42.5 -299z" />
    <glyph glyph-name="guillemotleft" unicode="&#xab;" horiz-adv-x="274" 
d="M254 5q-29 31 -58 63l-126 234q18 16 29 45q11 36 16 50q11 28 33 90q38 105 61 154l14 -10q-20 -44 -37 -88q-7 -19 -56 -154q-11 -31 -16 -47q-10 -29 -21 -43q20 -26 69 -135q24 -52 45 -82q7 -9 20 -23q34 -35 38 -40zM194 -4q-29 31 -58 63l-126 234q18 16 29 45
q11 36 16 50q11 28 33 90q38 105 61 154l14 -10q-20 -44 -37 -88q-7 -19 -56 -154q-11 -31 -16 -47q-10 -29 -21 -43q20 -26 69 -135q24 -52 45 -82q7 -9 20 -23q34 -35 38 -40z" />
    <glyph glyph-name="guillemotright" unicode="&#xbb;" horiz-adv-x="274" 
d="M141 65q-7 -9 -20 -23q-34 -35 -38 -40l-11 14q29 31 58 63q57 108 114 217q-11 13 -20 39.5t-18 51.5t-32 89q-36 99 -60 152l14 10q23 -50 61 -153q16 -46 33 -91q8 -25 16 -49q12 -30 29 -46q-27 -35 -52 -87q-62 -129 -74 -147zM81 74q-7 -9 -20 -23q-34 -35 -38 -40
l-11 14q29 31 58 63q57 108 114 217q-11 13 -20 39.5t-18 51.5t-32 89q-36 99 -60 152l14 10q23 -50 61 -153q16 -46 33 -91q8 -25 16 -49q12 -30 29 -46q-27 -35 -52 -87q-62 -129 -74 -147z" />
    <glyph glyph-name="ellipsis" unicode="&#x2026;" horiz-adv-x="468" 
d="M74 81q6 -9 6 -20q0 -20 -13 -31q-8 -6 -17 -6q-15 0 -24 15q-5 10 -5 20q0 20 13 31q8 6 17 6q15 0 23 -15zM259 90q6 -9 6 -20q0 -20 -13 -31q-8 -6 -17 -6q-15 0 -24 15q-5 10 -5 20q0 19 12 31q8 6 17 6q15 0 24 -15zM439 93q6 -9 6 -20q0 -20 -13 -31q-8 -6 -17 -6
q-15 0 -24 15q-5 10 -5 20q0 19 12 31q8 6 17 6q15 0 24 -15z" />
    <glyph glyph-name="nonbreakingspace" unicode="&#xa0;" horiz-adv-x="266" 
 />
    <glyph glyph-name="Agrave" unicode="&#xc0;" horiz-adv-x="740" 
d="M749 -34q-3 -1 -6.5 -1h-4.5q-27 0 -46 35l-18 34q-14 31 -52 145q-18 53 -33 87q-71 0 -158.5 -6t-185.5 -17q-46 -60 -74 -92q-47 -52 -89 -80q-52 -34 -112 -42q-48 0 -89 24t-59 64q-9 12 -11.5 28.5t-2.5 41.5q5 3 11 3q9 -1 13 -1q10 -44 21 -64q19 -36 52 -49
q24 -10 51 -10q40 0 80 22q33 18 65 50.5t45 46.5q24 25 30 49q-33 0 -59.5 -4t-68.5 -15q-6 5 -6 16q0 9 3 15q16 10 124 23q77 9 89 69q65 96 121 203q49 94 100 215q9 3 23.5 6t26.5 3q27 0 40 -14q0 -106 22 -225q17 -95 52 -213l80 -10q0 -12 -5.5 -20t-17.5 -16
q-17 2 -25 2q-14 0 -17 -10q27 -91 46 -142q28 -74 65 -133q-2 -8 -7 -13.5t-13 -4.5zM388 1015l4 50l32 5l116 -190l-12 -20zM510 676h-7q-18 -32 -72 -130q-46 -84 -72 -129q-41 -71 -76 -123q86 0 185 9q30 3 110 12q-20 85 -37.5 177.5t-30.5 183.5z" />
    <glyph glyph-name="Atilde" unicode="&#xc3;" horiz-adv-x="772" 
d="M418 948h60l58 12q25 8 40 33v-15q-14 -35 -28 -47.5t-49 -21.5h-74q-21 -5 -37 -23q-12 -14 -23 -40q11 59 14 66q11 29 39 36zM749 -34q-3 -1 -6.5 -1h-4.5q-27 0 -46 35l-18 34q-14 31 -52 145q-18 53 -33 87q-71 0 -158.5 -6t-185.5 -17q-46 -60 -74 -92
q-47 -52 -89 -80q-52 -34 -112 -42q-48 0 -89 24t-59 64q-9 12 -11.5 28.5t-2.5 41.5q5 3 11 3q9 -1 13 -1q10 -44 21 -64q19 -36 52 -49q24 -10 51 -10q40 0 80 22q33 18 65 50.5t45 46.5q24 25 30 49q-33 0 -59.5 -4t-68.5 -15q-6 5 -6 16q0 9 3 15q16 10 124 23
q77 9 89 69q65 96 121 203q49 94 100 215q9 3 23.5 6t26.5 3q27 0 40 -14q0 -106 22 -225q17 -95 52 -213l80 -10q0 -12 -5.5 -20t-17.5 -16q-17 2 -25 2q-14 0 -17 -10q27 -91 46 -142q28 -74 65 -133q-2 -8 -7 -13.5t-13 -4.5zM510 676h-7q-18 -32 -72 -130
q-46 -84 -72 -129q-41 -71 -76 -123q86 0 185 9q30 3 110 12q-20 85 -37.5 177.5t-30.5 183.5z" />
    <glyph glyph-name="Otilde" unicode="&#xd5;" horiz-adv-x="976" 
d="M466 973h60l58 12q25 8 40 33v-15q-14 -35 -28 -47.5t-49 -21.5h-74q-21 -5 -37 -23q-12 -14 -23 -40q11 59 14 66q11 29 39 36zM484 8q-50 -9 -99 -9q-85 0 -161.5 25.5t-131.5 75.5q-42 39 -63 97.5t-21 122.5q0 38 6 76q50 143 182 257t288 147h15t17 1
q15 0 24.5 -1.5t18.5 -7.5q5 -9 -5.5 -17t-22.5 -4q-159 -19 -287 -124q-120 -98 -182 -245q-12 -39 -12 -79q0 -63 26 -119.5t74 -99.5q48 -32 109.5 -47.5t128.5 -15.5q125 0 235 48q101 44 174 122q77 83 100 182q12 55 12 108q0 43 -9.5 79t-32.5 62q-86 99 -221 99
q-23 0 -49 -3q-136 -19 -244 -92q-3 19 15 38q13 14 39 27q57 27 120.5 43t124.5 16q55 0 102 -12.5t88 -42.5q56 -39 86 -98.5t30 -128.5v-30q-3 -14 -4 -20q-27 -165 -163 -285q-130 -115 -307 -145z" />
    <glyph glyph-name="OE" unicode="&#x152;" horiz-adv-x="1740" 
d="M484 8q-50 -9 -99 -9q-85 0 -161.5 25.5t-131.5 75.5q-42 39 -63 97.5t-21 122.5q0 38 6 76q50 143 182 257t288 147h15t17 1q15 0 24.5 -1.5t18.5 -7.5q5 -9 -5.5 -17t-22.5 -4q-159 -19 -287 -124q-120 -98 -182 -245q-12 -39 -12 -79q0 -63 26 -119.5t74 -99.5
q48 -32 109.5 -47.5t128.5 -15.5q125 0 235 48q101 44 174 122q77 83 100 182q12 55 12 108q0 43 -9.5 79t-32.5 62q-86 99 -221 99q-23 0 -49 -3q-136 -19 -244 -92q-3 19 15 38q13 14 39 27q57 27 120.5 43t124.5 16q55 0 102 -12.5t88 -42.5q66 -47 95 -121
q13 27 37.5 49t52.5 37q115 61 238 96q137 39 265 39q89 0 176 -21l33 -24q11 -14 11 -32q0 -21 -16 -41q-29 -22 -63.5 -37t-76.5 -25q-3 4 -11 7t-11 9q6 11 29 18q35 11 39 13q39 19 45 23q25 17 20 39q-23 18 -52.5 24t-72.5 6q-20 0 -40 -0.5t-39 -0.5
q-163 -21 -273 -54q-141 -43 -243 -117q-8 -12 -15.5 -23.5t-7.5 -26.5q0 -8 1 -12q32 -31 94 -42q44 -8 113 -8h36q74 18 154 36.5t145 18.5q29 0 42.5 -1t40.5 -7q1 -11 -8 -19q-13 -9 -18 -12q-63 -26 -196 -39t-179 -24q-102 -24 -160 -86q-50 -40 -69 -63
q-37 -43 -37 -86q0 -11 3 -23q44 -72 131 -104q73 -27 178 -27q52 0 107.5 6t120.5 16.5t145 36.5q65 21 140 54q-48 -62 -151 -93q-91 -23 -181 -46q-43 -5 -90.5 -9t-90.5 -4q-113 0 -195 26q-97 31 -154 101q-12 21 -12 51q0 19 4.5 38.5t13.5 40.5q-64 -103 -171.5 -173
t-234.5 -91zM954 438q-6 -37 -18.5 -71.5t-31.5 -69.5q38 49 91 89t113 66l-14 12q-7 2 -61 9.5t-77 22.5v-30q0 -7 -1 -15t-1 -13z" />
    <glyph glyph-name="oe" unicode="&#x153;" horiz-adv-x="544" 
d="M271 136q-30 -54 -46 -78q-29 -43 -71 -53q-13 -5 -26 -5q-36 0 -71 26q-21 21 -30.5 48t-9.5 57q0 40 14 84q8 27 31 76q3 1 75 81q26 29 51 29q22 0 49 -20l34 -43q6 -30 10.5 -54t4.5 -41q0 -29 -10 -53l29 -11q0 55 22 105.5t61 91.5q7 10 19 14.5t27 4.5q7 0 17 -2
t19 -5q18 -10 28 -21q15 -16 15 -34v-8q0 -61 -44 -134l-76 -116q7 -13 23 -18.5t35 -5.5q15 0 29 1l28 2q3 1 15 9.5t19 7.5q21 -4 21 -17q0 -9 -7.5 -20t-14.5 -21l-35 -12q-21 -6 -42 -6q-25 0 -48.5 6.5t-53.5 19.5q-17 16 -32 41q-5 8 -12 22q-3 9 -6 25t-5 26h-18
t-18 1zM115 258l-14 -37q-11 -15 -15.5 -34t-4.5 -40q0 -9 1 -30t1 -33q4 -16 19 -25t33 -9q5 0 15 2q26 11 43 42.5t17 62.5q-26 14 -52.5 42.5t-42.5 58.5zM431 337q-30 -37 -49 -80t-19 -88q0 -18 3 -36l34 37q6 14 28 52q32 56 32 91q0 7 -2 21zM220 322q-4 23 -26 23
q-15 0 -25.5 -11.5t-6.5 -28.5q3 -34 17.5 -57t45.5 -37q3 11 6 29t3 32q0 32 -14 50z" />
    <glyph glyph-name="endash" unicode="&#x2013;" horiz-adv-x="269" 
d="M34 359v25h196v-25h-196z" />
    <glyph glyph-name="emdash" unicode="&#x2014;" horiz-adv-x="422" 
d="M34 359v25h372v-25h-372z" />
    <glyph glyph-name="quotedblleft" unicode="&#x201c;" horiz-adv-x="98" 
d="M75 653q-9 13 -19 39l-28 76q-3 18 -3 26q0 7 4 8l49 -143zM51 646q-17 37 -25 56q-15 35 -15 58q0 10 1 15l46 -130q-5 -1 -7 1z" />
    <glyph glyph-name="quotedblright" unicode="&#x201d;" horiz-adv-x="76" 
d="M28 637q-2 1 -3.5 3t-3.5 -1q6 28 21 66q12 32 25 64q1 -5 1 -15q0 -24 -14 -56.5t-26 -60.5zM4 647l-3 6l49 143q4 -3 4 -10q-3 -17 -3 -24q-5 -10 -19.5 -54t-27.5 -61z" />
    <glyph glyph-name="quoteleft" unicode="&#x2018;" horiz-adv-x="98" 
d="M51 646q-17 37 -25 56q-15 35 -15 58q0 10 1 15l46 -130q-5 -1 -7 1z" />
    <glyph glyph-name="quoteright" unicode="&#x2019;" horiz-adv-x="76" 
d="M28 637q-2 1 -3.5 3t-3.5 -1q6 28 21 66q12 32 25 64q1 -5 1 -15q0 -24 -14 -56.5t-26 -60.5z" />
    <glyph glyph-name="ydieresis" unicode="&#xff;" horiz-adv-x="332" 
d="M290 10q13 -2 25.5 -9.5t14.5 -17.5q-15 -4 -29.5 -19.5t-22.5 -19.5q0 -125 -2 -165q-5 -93 -20 -162q-18 -81 -56 -147q-26 -26 -41 -37q-25 -18 -54 -23q-5 -1 -15 -1q-20 0 -39.5 7.5t-36.5 20.5q-21 26 -30.5 55t-9.5 63q0 55 25 120q19 50 54.5 106.5t77.5 103.5
q47 52 104 93q0 22 9 78q5 31 5 46q0 18 -4 33q-18 -34 -44.5 -66t-55.5 -51q-43 0 -61 5q-33 9 -46 38l-12 27q-4 9 -5.5 18t-1.5 25t1.5 44.5t1.5 30.5q11 39 16 58q9 32 21 56q8 4 16 4q10 0 17.5 -5t17.5 -16q-17 -46 -26 -87q-12 -52 -12 -93q0 -23 5 -53
q6 -1 16.5 -10.5t16.5 -10.5q72 34 119 134q46 121 70 175q5 11 19 11q11 -1 22 -1l17 -26l-30 -108q-18 -65 -26 -110q-11 -61 -11 -114zM130 523q14 -12 14 -34q0 -10 -6 -21q-9 -17 -27 -17q-9 0 -17 6q-14 12 -14 34q0 11 7.5 25t25.5 14q10 0 17 -7zM284 520
q14 -12 14 -34q0 -10 -6 -21q-9 -17 -28 -17q-9 0 -17 6q-14 12 -14 34q0 11 6 22q11 17 28 17q10 0 17 -7zM25 -486q4 -21 18 -36.5t35 -15.5q6 0 9 1q82 45 111 157q19 73 19 213v68q-90 -78 -136 -153q-58 -94 -58 -196v-23q2 -11 2 -15z" />
    <glyph glyph-name="Ydieresis" unicode="&#x178;" horiz-adv-x="496" 
d="M442 301v-64q0 -145 -18 -219q-28 -113 -108 -167q-53 -34 -125 -34q-50 0 -91 18q-26 11 -48 27.5t-35 35.5q4 9 14.5 15t18.5 2q19 -33 56.5 -53t81.5 -20q10 0 16 1q58 5 102.5 35t61.5 81q21 50 29 106t8 123q0 24 -1 72t-1 73l-6 -4q-43 -78 -74 -114
q-51 -60 -114 -74h-30q-27 0 -44 3.5t-32 17.5q-43 38 -60.5 90.5t-17.5 119.5q0 31 3.5 68t10.5 83.5t26 109.5q13 44 38 110q7 12 16 24.5t24 9.5q4 -6 11 -13t10 -11q-45 -95 -68 -175q-28 -97 -28 -187q0 -44 4 -75.5t17 -72.5q18 -37 26 -48q18 -24 46 -29q89 0 153 81
q30 37 85 152q16 40 29 167t55 181q11 2 16 0t13 -17q0 -61 -47 -263q-23 -99 -23 -166zM238 933q14 -12 14 -34q0 -10 -6 -21q-9 -17 -27 -17q-9 0 -17 6q-14 12 -14 34q0 11 7.5 25t25.5 14q10 0 17 -7zM392 930q14 -12 14 -34q0 -10 -6 -21q-9 -17 -28 -17q-9 0 -17 6
q-14 12 -14 34q0 11 6 22q11 17 28 17q10 0 17 -7z" />
    <glyph glyph-name="Acircumflex" unicode="&#xc2;" horiz-adv-x="740" 
d="M749 -34q-3 -1 -6.5 -1h-4.5q-27 0 -46 35l-18 34q-14 31 -52 145q-18 53 -33 87q-71 0 -158.5 -6t-185.5 -17q-46 -60 -74 -92q-47 -52 -89 -80q-52 -34 -112 -42q-48 0 -89 24t-59 64q-9 12 -11.5 28.5t-2.5 41.5q5 3 11 3q9 -1 13 -1q10 -44 21 -64q19 -36 52 -49
q24 -10 51 -10q40 0 80 22q33 18 65 50.5t45 46.5q24 25 30 49q-33 0 -59.5 -4t-68.5 -15q-6 5 -6 16q0 9 3 15q16 10 124 23q77 9 89 69q65 96 121 203q49 94 100 215q9 3 23.5 6t26.5 3q27 0 40 -14q0 -106 22 -225q17 -95 52 -213l80 -10q0 -12 -5.5 -20t-17.5 -16
q-17 2 -25 2q-14 0 -17 -10q27 -91 46 -142q28 -74 65 -133q-2 -8 -7 -13.5t-13 -4.5zM569 867q-11 39 -14 48q-11 31 -22 49q-6 -30 -21 -58q-10 -19 -31 -46l-11 14q21 27 33.5 55t18.5 73q21 -19 39 -63q12 -29 22 -66zM510 676h-7q-18 -32 -72 -130q-46 -84 -72 -129
q-41 -71 -76 -123q86 0 185 9q30 3 110 12q-20 85 -37.5 177.5t-30.5 183.5z" />
    <glyph glyph-name="Ecircumflex" unicode="&#xca;" horiz-adv-x="852" 
d="M538 3q-43 -5 -90.5 -9t-90.5 -4q-113 0 -195 26q-97 31 -154 101q-13 23 -13 51q0 24 6 44t18 48q38 55 92.5 96.5t120.5 70.5l-14 12q-62 10 -93 16q-58 12 -74 50q-2 12 -2 18q0 41 34 80q26 30 68 52q113 61 238 97q137 39 263 39q93 0 178 -22l33 -24q11 -14 11 -32
q0 -21 -16 -41q-29 -22 -63.5 -37t-76.5 -25q-3 4 -11 7t-11 9q6 11 29 18q35 11 39 13q39 19 45 23q25 17 20 39q-23 18 -52.5 24t-72.5 6q-20 0 -40 -0.5t-39 -0.5q-163 -21 -273 -54q-141 -43 -243 -117q-8 -12 -15.5 -23.5t-7.5 -26.5q0 -8 1 -12q32 -31 94 -42
q44 -8 113 -8h36q74 18 154 36.5t145 18.5q29 0 42.5 -1t40.5 -7q1 -11 -8 -19q-13 -9 -18 -12q-64 -27 -199 -38.5t-176 -20.5q-102 -23 -160 -85q-48 -39 -69 -65q-37 -45 -37 -89q0 -11 3 -23q44 -72 131 -104q73 -27 178 -27q52 0 107.5 6t120.5 16.5t145 36.5
q65 21 140 54q-48 -62 -151 -93q-91 -23 -181 -46zM493 847q-11 39 -14 48q-11 31 -22 49q-6 -30 -21 -58q-10 -19 -31 -46l-11 14q21 27 33.5 55t18.5 73q21 -19 39 -63q12 -29 22 -66z" />
    <glyph glyph-name="Aacute" unicode="&#xc1;" horiz-adv-x="740" 
d="M749 -34q-3 -1 -6.5 -1h-4.5q-27 0 -46 35l-18 34q-14 31 -52 145q-18 53 -33 87q-71 0 -158.5 -6t-185.5 -17q-46 -60 -74 -92q-47 -52 -89 -80q-52 -34 -112 -42q-48 0 -89 24t-59 64q-9 12 -11.5 28.5t-2.5 41.5q5 3 11 3q9 -1 13 -1q10 -44 21 -64q19 -36 52 -49
q24 -10 51 -10q40 0 80 22q33 18 65 50.5t45 46.5q24 25 30 49q-33 0 -59.5 -4t-68.5 -15q-6 5 -6 16q0 9 3 15q16 10 124 23q77 9 89 69q65 96 121 203q49 94 100 215q9 3 23.5 6t26.5 3q27 0 40 -14q0 -106 22 -225q17 -95 52 -213l80 -10q0 -12 -5.5 -20t-17.5 -16
q-17 2 -25 2q-14 0 -17 -10q27 -91 46 -142q28 -74 65 -133q-2 -8 -7 -13.5t-13 -4.5zM477 845l-12 20l116 190l32 -5l4 -50zM510 676h-7q-18 -32 -72 -130q-46 -84 -72 -129q-41 -71 -76 -123q86 0 185 9q30 3 110 12q-20 85 -37.5 177.5t-30.5 183.5z" />
    <glyph glyph-name="Edieresis" unicode="&#xcb;" horiz-adv-x="852" 
d="M538 3q-43 -5 -90.5 -9t-90.5 -4q-113 0 -195 26q-97 31 -154 101q-13 23 -13 51q0 24 6 44t18 48q38 55 92.5 96.5t120.5 70.5l-14 12q-62 10 -93 16q-58 12 -74 50q-2 12 -2 18q0 41 34 80q26 30 68 52q113 61 238 97q137 39 263 39q93 0 178 -22l33 -24q11 -14 11 -32
q0 -21 -16 -41q-29 -22 -63.5 -37t-76.5 -25q-3 4 -11 7t-11 9q6 11 29 18q35 11 39 13q39 19 45 23q25 17 20 39q-23 18 -52.5 24t-72.5 6q-20 0 -40 -0.5t-39 -0.5q-163 -21 -273 -54q-141 -43 -243 -117q-8 -12 -15.5 -23.5t-7.5 -26.5q0 -8 1 -12q32 -31 94 -42
q44 -8 113 -8h36q74 18 154 36.5t145 18.5q29 0 42.5 -1t40.5 -7q1 -11 -8 -19q-13 -9 -18 -12q-64 -27 -199 -38.5t-176 -20.5q-102 -23 -160 -85q-48 -39 -69 -65q-37 -45 -37 -89q0 -11 3 -23q44 -72 131 -104q73 -27 178 -27q52 0 107.5 6t120.5 16.5t145 36.5
q65 21 140 54q-48 -62 -151 -93q-91 -23 -181 -46zM394 983q14 -12 14 -34q0 -10 -6 -21q-9 -17 -27 -17q-9 0 -17 6q-14 12 -14 34q0 11 7.5 25t25.5 14q10 0 17 -7zM548 980q14 -12 14 -34q0 -10 -6 -21q-9 -17 -28 -17q-9 0 -17 6q-14 12 -14 34q0 11 6 22q11 17 28 17
q10 0 17 -7z" />
    <glyph glyph-name="Egrave" unicode="&#xc8;" horiz-adv-x="852" 
d="M538 3q-43 -5 -90.5 -9t-90.5 -4q-113 0 -195 26q-97 31 -154 101q-13 23 -13 51q0 24 6 44t18 48q38 55 92.5 96.5t120.5 70.5l-14 12q-62 10 -93 16q-58 12 -74 50q-2 12 -2 18q0 41 34 80q26 30 68 52q113 61 238 97q137 39 263 39q93 0 178 -22l33 -24q11 -14 11 -32
q0 -21 -16 -41q-29 -22 -63.5 -37t-76.5 -25q-3 4 -11 7t-11 9q6 11 29 18q35 11 39 13q39 19 45 23q25 17 20 39q-23 18 -52.5 24t-72.5 6q-20 0 -40 -0.5t-39 -0.5q-163 -21 -273 -54q-141 -43 -243 -117q-8 -12 -15.5 -23.5t-7.5 -26.5q0 -8 1 -12q32 -31 94 -42
q44 -8 113 -8h36q74 18 154 36.5t145 18.5q29 0 42.5 -1t40.5 -7q1 -11 -8 -19q-13 -9 -18 -12q-64 -27 -199 -38.5t-176 -20.5q-102 -23 -160 -85q-48 -39 -69 -65q-37 -45 -37 -89q0 -11 3 -23q44 -72 131 -104q73 -27 178 -27q52 0 107.5 6t120.5 16.5t145 36.5
q65 21 140 54q-48 -62 -151 -93q-91 -23 -181 -46zM316 1035l4 50l32 5l116 -190l-12 -20z" />
    <glyph glyph-name="Iacute" unicode="&#xcd;" horiz-adv-x="808" 
d="M325 -10q-111 0 -181 25q-95 34 -127 112q-3 14 -3 27q0 24 11 44.5t31 29.5q14 0 14 -16q0 -6 -3 -11q-15 -8 -15 -32q0 -11 1 -20t3 -18q36 -53 102 -79q57 -22 134 -22q25 0 51 3q161 15 286 136q117 113 161 274q4 13 6 30t2 33q0 49 -17 93t-50 85
q-28 34 -70.5 47.5t-97.5 13.5q-19 0 -29.5 -0.5t-47.5 -3.5q-122 -26 -220 -90.5t-161 -165.5q-7 -15 -7 -35q0 -29 12 -55q46 -39 104 -57t123 -18q64 0 129 13.5t134 37.5l11 -7q-11 -26 -48 -39q-32 -10 -64 -19q-37 -7 -79 -12t-78 -5q-88 0 -153 24q-75 27 -118 87
q-6 24 -6 47q0 84 76 160q51 51 152 109q58 34 125 54q75 23 142 23q60 0 109.5 -17t89.5 -55t60 -91t20 -113q0 -74 -29 -153q-55 -151 -185 -253q-135 -106 -300 -121zM381 860l-12 20l116 190l32 -5l4 -50z" />
    <glyph glyph-name="Icircumflex" unicode="&#xce;" horiz-adv-x="808" 
d="M325 -10q-111 0 -181 25q-95 34 -127 112q-3 14 -3 27q0 24 11 44.5t31 29.5q14 0 14 -16q0 -6 -3 -11q-15 -8 -15 -32q0 -11 1 -20t3 -18q36 -53 102 -79q57 -22 134 -22q25 0 51 3q161 15 286 136q117 113 161 274q4 13 6 30t2 33q0 49 -17 93t-50 85
q-28 34 -70.5 47.5t-97.5 13.5q-19 0 -29.5 -0.5t-47.5 -3.5q-122 -26 -220 -90.5t-161 -165.5q-7 -15 -7 -35q0 -29 12 -55q46 -39 104 -57t123 -18q64 0 129 13.5t134 37.5l11 -7q-11 -26 -48 -39q-32 -10 -64 -19q-37 -7 -79 -12t-78 -5q-88 0 -153 24q-75 27 -118 87
q-6 24 -6 47q0 84 76 160q51 51 152 109q58 34 125 54q75 23 142 23q60 0 109.5 -17t89.5 -55t60 -91t20 -113q0 -74 -29 -153q-55 -151 -185 -253q-135 -106 -300 -121zM481 877q-11 39 -14 48q-11 31 -22 49q-6 -30 -21 -58q-10 -19 -31 -46l-11 14q21 27 33.5 55t18.5 73
q21 -19 39 -63q12 -29 22 -66z" />
    <glyph glyph-name="Idieresis" unicode="&#xcf;" horiz-adv-x="808" 
d="M325 -10q-111 0 -181 25q-95 34 -127 112q-3 14 -3 27q0 24 11 44.5t31 29.5q14 0 14 -16q0 -6 -3 -11q-15 -8 -15 -32q0 -11 1 -20t3 -18q36 -53 102 -79q57 -22 134 -22q25 0 51 3q161 15 286 136q117 113 161 274q4 13 6 30t2 33q0 49 -17 93t-50 85
q-28 34 -70.5 47.5t-97.5 13.5q-19 0 -29.5 -0.5t-47.5 -3.5q-122 -26 -220 -90.5t-161 -165.5q-7 -15 -7 -35q0 -29 12 -55q46 -39 104 -57t123 -18q64 0 129 13.5t134 37.5l11 -7q-11 -26 -48 -39q-32 -10 -64 -19q-37 -7 -79 -12t-78 -5q-88 0 -153 24q-75 27 -118 87
q-6 24 -6 47q0 84 76 160q51 51 152 109q58 34 125 54q75 23 142 23q60 0 109.5 -17t89.5 -55t60 -91t20 -113q0 -74 -29 -153q-55 -151 -185 -253q-135 -106 -300 -121zM406 973q14 -12 14 -34q0 -10 -6 -21q-9 -17 -27 -17q-9 0 -17 6q-14 12 -14 34q0 11 7.5 25t25.5 14
q10 0 17 -7zM560 970q13 -12 13 -34q0 -9 -5 -21q-9 -20 -29 -20q-11 0 -21 11t-10 28q0 15 7 26q11 17 28 17q10 0 17 -7z" />
    <glyph glyph-name="Igrave" unicode="&#xcc;" horiz-adv-x="808" 
d="M325 -10q-111 0 -181 25q-95 34 -127 112q-3 14 -3 27q0 24 11 44.5t31 29.5q14 0 14 -16q0 -6 -3 -11q-15 -8 -15 -32q0 -11 1 -20t3 -18q36 -53 102 -79q57 -22 134 -22q25 0 51 3q161 15 286 136q117 113 161 274q4 13 6 30t2 33q0 49 -17 93t-50 85
q-28 34 -70.5 47.5t-97.5 13.5q-19 0 -29.5 -0.5t-47.5 -3.5q-122 -26 -220 -90.5t-161 -165.5q-7 -15 -7 -35q0 -29 12 -55q46 -39 104 -57t123 -18q64 0 129 13.5t134 37.5l11 -7q-11 -26 -48 -39q-32 -10 -64 -19q-37 -7 -79 -12t-78 -5q-88 0 -153 24q-75 27 -118 87
q-6 24 -6 47q0 84 76 160q51 51 152 109q58 34 125 54q75 23 142 23q60 0 109.5 -17t89.5 -55t60 -91t20 -113q0 -74 -29 -153q-55 -151 -185 -253q-135 -106 -300 -121zM288 1050l4 50l32 5l116 -190l-12 -20z" />
    <glyph glyph-name="Oacute" unicode="&#xd3;" horiz-adv-x="936" 
d="M484 8q-50 -9 -99 -9q-85 0 -161.5 25.5t-131.5 75.5q-42 39 -63 97.5t-21 122.5q0 38 6 76q50 143 182 257t288 147h15t17 1q15 0 24.5 -1.5t18.5 -7.5q5 -9 -5.5 -17t-22.5 -4q-159 -19 -287 -124q-120 -98 -182 -245q-12 -39 -12 -79q0 -63 26 -119.5t74 -99.5
q48 -32 109.5 -47.5t128.5 -15.5q125 0 235 48q101 44 174 122q77 83 100 182q12 55 12 108q0 43 -9.5 79t-32.5 62q-86 99 -221 99q-23 0 -49 -3q-136 -19 -244 -92q-3 19 15 38q13 14 39 27q57 27 120.5 43t124.5 16q55 0 102 -12.5t88 -42.5q56 -39 86 -98.5t30 -128.5
v-30q-3 -14 -4 -20q-27 -165 -163 -285q-130 -115 -307 -145zM369 880l-12 20l116 190l32 -5l4 -50z" />
    <glyph glyph-name="Ocircumflex" unicode="&#xd4;" horiz-adv-x="936" 
d="M484 8q-50 -9 -99 -9q-85 0 -161.5 25.5t-131.5 75.5q-42 39 -63 97.5t-21 122.5q0 38 6 76q50 143 182 257t288 147h15t17 1q15 0 24.5 -1.5t18.5 -7.5q5 -9 -5.5 -17t-22.5 -4q-159 -19 -287 -124q-120 -98 -182 -245q-12 -39 -12 -79q0 -63 26 -119.5t74 -99.5
q48 -32 109.5 -47.5t128.5 -15.5q125 0 235 48q101 44 174 122q77 83 100 182q12 55 12 108q0 43 -9.5 79t-32.5 62q-86 99 -221 99q-23 0 -49 -3q-136 -19 -244 -92q-3 19 15 38q13 14 39 27q57 27 120.5 43t124.5 16q55 0 102 -12.5t88 -42.5q56 -39 86 -98.5t30 -128.5
v-30q-3 -14 -4 -20q-27 -165 -163 -285q-130 -115 -307 -145zM529 897q-11 39 -14 48q-11 31 -22 49q-6 -30 -21 -58q-10 -19 -31 -46l-11 14q21 27 33.5 55t18.5 73q21 -19 39 -63q12 -29 22 -66z" />
    <glyph glyph-name="Ograve" unicode="&#xd2;" horiz-adv-x="936" 
d="M484 8q-50 -9 -99 -9q-85 0 -161.5 25.5t-131.5 75.5q-42 39 -63 97.5t-21 122.5q0 38 6 76q50 143 182 257t288 147h15t17 1q15 0 24.5 -1.5t18.5 -7.5q5 -9 -5.5 -17t-22.5 -4q-159 -19 -287 -124q-120 -98 -182 -245q-12 -39 -12 -79q0 -63 26 -119.5t74 -99.5
q48 -32 109.5 -47.5t128.5 -15.5q125 0 235 48q101 44 174 122q77 83 100 182q12 55 12 108q0 43 -9.5 79t-32.5 62q-86 99 -221 99q-23 0 -49 -3q-136 -19 -244 -92q-3 19 15 38q13 14 39 27q57 27 120.5 43t124.5 16q55 0 102 -12.5t88 -42.5q56 -39 86 -98.5t30 -128.5
v-30q-3 -14 -4 -20q-27 -165 -163 -285q-130 -115 -307 -145zM368 1085l4 50l32 5l116 -190l-12 -20z" />
    <glyph glyph-name="Uacute" unicode="&#xda;" horiz-adv-x="595" 
d="M402 87q-32 -42 -75 -64.5t-97 -22.5q-14 0 -21 1q-55 11 -96 52q-35 35 -58 87q-28 109 -28 233q0 95 16.5 192t46.5 184q6 7 18 7q13 0 22 -7q2 -16 2 -24q0 -33 -12 -76q-29 -103 -29 -131q0 -31 -4 -100t-4 -105q0 -91 20 -148q26 -73 89 -111q25 -14 54 -14
q16 0 33.5 5t32.5 13q83 70 133 181q44 97 62 222q15 103 15 235l-4 104q24 -9 35.5 -28.5t14.5 -46.5q0 -200 -33 -343q-40 -173 -133 -295zM253 870l-12 15l116 190l32 -5l4 -50z" />
    <glyph glyph-name="Ucircumflex" unicode="&#xdb;" horiz-adv-x="595" 
d="M402 87q-32 -42 -75 -64.5t-97 -22.5q-14 0 -21 1q-55 11 -96 52q-35 35 -58 87q-28 109 -28 233q0 95 16.5 192t46.5 184q6 7 18 7q13 0 22 -7q2 -16 2 -24q0 -33 -12 -76q-29 -103 -29 -131q0 -31 -4 -100t-4 -105q0 -91 20 -148q26 -73 89 -111q25 -14 54 -14
q16 0 33.5 5t32.5 13q83 70 133 181q44 97 62 222q15 103 15 235l-4 104q24 -9 35.5 -28.5t14.5 -46.5q0 -200 -33 -343q-40 -173 -133 -295zM329 902q-11 39 -14 48q-11 31 -22 49q-6 -30 -21 -58q-10 -19 -31 -46l-11 14q21 27 33.5 55t18.5 73q21 -20 39 -60
q13 -29 22 -64z" />
    <glyph glyph-name="Ugrave" unicode="&#xd9;" horiz-adv-x="595" 
d="M402 87q-32 -42 -75 -64.5t-97 -22.5q-14 0 -21 1q-55 11 -96 52q-35 35 -58 87q-28 109 -28 233q0 95 16.5 192t46.5 184q6 7 18 7q13 0 22 -7q2 -16 2 -24q0 -33 -12 -76q-29 -103 -29 -131q0 -31 -4 -100t-4 -105q0 -91 20 -148q26 -73 89 -111q25 -14 54 -14
q16 0 33.5 5t32.5 13q83 70 133 181q44 97 62 222q15 103 15 235l-4 104q24 -9 35.5 -28.5t14.5 -46.5q0 -200 -33 -343q-40 -173 -133 -295zM176 970l4 50l32 5l116 -190l-12 -20z" />
    <glyph glyph-name="circumflex" unicode="&#x2c6;" horiz-adv-x="139" 
d="M113 507q-11 39 -14 48q-11 31 -22 49q-6 -30 -21 -58q-10 -19 -31 -46l-11 14q21 27 33.5 55t18.5 73q21 -19 39 -63q12 -29 22 -66z" />
    <glyph glyph-name="tilde" unicode="&#x2dc;" horiz-adv-x="242" 
d="M70 648h60l58 12q25 8 40 33v-15q-14 -35 -28 -47.5t-49 -21.5h-74q-21 -5 -37 -23q-12 -14 -23 -40q11 59 14 66q11 29 39 36z" />
    <glyph glyph-name="macron" unicode="&#xaf;" horiz-adv-x="173" 
d="M14 377v20h137v-20h-137z" />
    <glyph glyph-name="breve" unicode="&#x2d8;" horiz-adv-x="132" 
d="M137 438q0 -40 -19 -67.5t-52 -27.5q-32 0 -51.5 27.5t-19.5 67.5h20q0 -26 14.5 -40.5t36.5 -14.5q23 0 37 13.5t14 41.5h20z" />
    <glyph glyph-name="dotaccent" unicode="&#x2d9;" horiz-adv-x="132" 
d="M94 388q0 -15 -8 -25t-20 -10t-20 10t-8 25q0 35 28 35q12 0 20 -10t8 -25z" />
    <glyph glyph-name="ring" unicode="&#x2da;" horiz-adv-x="132" 
d="M115 394q0 -26 -13.5 -43.5t-35.5 -17.5q-21 0 -35 17t-14 44q0 25 14 43t35 18t35 -17t14 -44zM37 394q0 -16 8.5 -26.5t20.5 -10.5t20.5 10.5t8.5 26.5t-8.5 26.5t-20.5 10.5q-13 0 -21 -10t-8 -27z" />
    <glyph glyph-name="cedilla" unicode="&#xb8;" horiz-adv-x="132" 
d="M62 0h20l-15 -38q6 3 18 3q15 0 26 -10t11 -34q0 -26 -17.5 -38t-37.5 -12q-27 0 -47 10l7 21l16 -4t17 -2q12 0 19.5 5t7.5 18q0 8 -4 13q-7 9 -18 9q-9 0 -17 -3l-6 5z" />
    <glyph glyph-name="hungarumlaut" unicode="&#x2ba;" horiz-adv-x="219" 
d="M62 444q12 16 21 16t16 -7t7 -17q0 -15 -16 -26l-72 -55h-24zM160 444q12 16 22 16q9 0 16 -7t7 -17q0 -9 -3.5 -14.5t-11.5 -11.5l-72 -55h-25z" />
    <glyph glyph-name="ogonek" unicode="&#x2db;" horiz-adv-x="132" 
d="M126 -91q-8 -22 -20.5 -30t-27.5 -8q-19 0 -30 10t-11 34q0 18 9 35q13 24 45 50h19q-24 -26 -32.5 -43.5t-8.5 -34.5q0 -26 21 -26q10 0 15 4t12 16z" />
    <glyph glyph-name="caron" unicode="&#x2c7;" horiz-adv-x="168" 
d="M105 344h-38l-58 102h24l53 -59l53 59h24z" />
    <glyph glyph-name="Lslash" unicode="&#x141;" horiz-adv-x="578" 
d="M77 516q0 53 -9.5 79t-37.5 33v16q22 0 61 -2t57 -2q19 0 65 2t53 2v-16q-27 -7 -37.5 -33.5t-10.5 -78.5v-138l94 35v-55l-94 -35v-148q0 -76 17.5 -107t62.5 -31q70 0 143 61q60 50 111 130l13 -7l-59 -225q-54 0 -188 2t-171 2q-21 0 -75 -2t-61 -2v20q42 0 56 53
q10 37 10 121v80l-45 -17v55l45 17v191z" />
    <glyph glyph-name="lslash" unicode="&#x142;" horiz-adv-x="266" 
d="M79 601q0 62 -46 74v15q39 5 80.5 14t84.5 21l-2 -107v-183l50 33v-55l-50 -33v-213q0 -69 11.5 -107t42.5 -49v-15q-19 0 -64.5 2t-47.5 2q-19 0 -65 -2t-48 -2v15q30 11 42 49.5t12 106.5v136l-50 -33v55l50 33v243z" />
    <glyph glyph-name="Scaron" unicode="&#x160;" horiz-adv-x="904" 
d="M824 552q-25 -11 -49 -17.5t-47 -6.5h-20q-10 3 -14 4q-4 8 -4 15q0 9 7.5 11.5t22.5 2.5h18q19 0 26 7q38 20 56 30q33 20 45 44q1 4 1 12q0 23 -17 42q-12 14 -38 30q-56 17 -115 25t-117 8q-132 0 -266 -41q-126 -38 -240 -110q-16 -20 -21 -32t-5 -23q0 -7 1 -10
q14 -44 67 -77q20 -13 96.5 -48t206.5 -76q106 -34 213 -67q119 -41 203 -87q21 -21 21 -46q0 -11 -5 -19q-31 -57 -109 -88q-60 -24 -148 -32q-32 -3 -63 -3q-118 0 -228 38t-204 106v11q27 0 67 -21q51 -27 64 -31q63 -29 142.5 -46.5t155.5 -17.5q79 0 144.5 18t118.5 59
q11 15 11 29q0 6 -3 12q-58 40 -140 72q-43 17 -147 47.5t-153 49.5q-99 34 -197 69q-111 46 -155 118q-1 9 -2.5 21.5t-1.5 25.5q0 21 7 41q79 82 200 129q104 40 245 56q108 12 262 12q61 0 116 -29.5t83 -78.5v-12q0 -41 -24.5 -74.5t-66.5 -51.5zM504 855h-38l-58 102
h24l53 -59l53 59h24z" />
    <glyph glyph-name="scaron" unicode="&#x161;" horiz-adv-x="296" 
d="M277 0q-7 0 -15 0.5t-23 3.5q-37 0 -75 23l-64 44q-21 -25 -34.5 -38.5t-35.5 -30.5q-15 0 -15 13q0 4 1 9.5t6 18.5q17 16 54 89q18 35 34 50q29 102 81 218q51 0 64 -57q9 -49 19 -98q7 -24 14.5 -50t7.5 -47q0 -17 -6 -35l-28 -58q10 -3 15 -4t15 -1q3 -9 3 -19
q0 -12 -3.5 -19.5t-14.5 -11.5zM170 249q0 -19 -19.5 -60t-19.5 -60q0 -25 22 -42q14 -13 30 -13q22 0 42 22q7 11 11 28.5t4 32.5q0 19 -2 31t-8 29q-13 29 -22 44t-17 15q-5 0 -10.5 -6.5t-10.5 -20.5zM225 464h-38l-58 102h24l53 -59l53 59h24z" />
    <glyph glyph-name="Zcaron" unicode="&#x17d;" horiz-adv-x="780" 
d="M94 122q-4 -12 -7.5 -25t-3.5 -23q0 -16 11 -26q100 14 211 28.5t197 14.5q119 0 216 -25q12 -3 12 -16q0 -5 -4 -13l-8 -6q-83 9 -162 9q-77 0 -139 -5t-169 -17l-154 -18q-5 13 -32 46q-23 28 -23 52q0 14 4 26q68 122 183 235q97 95 235 192q73 51 251 164
q3 5 20.5 14t11.5 21l-14 7q-325 0 -618 -94q-9 5 -9 15q2 8 2.5 14.5t-1.5 12.5l36 21q141 37 298 55.5t316 18.5l30 -17q13 -17 17 -25q8 -15 8 -28q0 -11 -7 -21q-180 -112 -260 -166q-149 -101 -250 -192q-126 -113 -198 -229zM492 865h-38l-58 102h24l53 -59l53 59h24z
" />
    <glyph glyph-name="zcaron" unicode="&#x17e;" horiz-adv-x="272" 
d="M187 -48q11 -63 11 -122q0 -99 -27.5 -192t-81.5 -165q-13 -11 -31.5 -19.5t-38.5 -8.5q-12 0 -21 4q-40 15 -60 49.5t-20 78.5q0 116 64 224q57 96 152 166q0 26 -9 45.5t-28 43.5q-3 0 -35 -7q-14 -3 -23 -3q-10 14 -19 29q0 2 2 10q14 23 49 23q6 0 18 -2
q27 41 42.5 82t15.5 83q0 40 -17 73q-11 12 -27 12t-31 -10q-8 -3 -21.5 -21.5t-23.5 -18.5q-6 0 -13 4q-5 6 -5 15q0 10 10 24q7 10 15 21q29 35 81 35q19 0 35 -6.5t26 -19.5q21 -41 21 -88q0 -57 -34 -141q-17 -39 -33 -78q14 -8 31 -41q9 -17 19 -27q28 8 57 16
q12 0 21 -8q6 -11 6 -17q0 -11 -35.5 -16.5t-41.5 -26.5zM39 -188q-42 -74 -56.5 -123t-14.5 -90q0 -27 4.5 -47t16.5 -46q14 -9 32 -9q28 0 41 15q41 71 64 155.5t23 169.5v37q-3 26 -4 38q-35 -12 -70 -55q-18 -22 -36 -45zM134 474h-38l-58 102h24l53 -59l53 59h24z" />
    <glyph glyph-name="brokenbar" unicode="&#xa6;" horiz-adv-x="178" 
d="M42 275h93v-275h-93v275zM42 725h93v-275h-93v275z" />
    <glyph glyph-name="Eth" unicode="&#xd0;" horiz-adv-x="637" 
d="M73 516q0 54 -8.5 79t-32.5 33v16q18 0 63 -2t48 -2h182q102 0 182 -73q99 -90 99 -247q0 -158 -98 -247q-80 -73 -183 -73h-159q-25 0 -87 -2t-68 -2v20q40 0 53 53q9 35 9 121v131h-63v37h63v158zM214 358h111v-37h-111v-131q0 -105 15 -131.5t68 -26.5q82 0 122 100
q31 77 31 188q0 147 -36 212q-42 76 -148 76h-52v-250z" />
    <glyph glyph-name="eth" unicode="&#xf0;" horiz-adv-x="534" 
d="M138 725q29 -14 54 -27t52 -30l155 57l11 -25l-136 -50q110 -72 167 -158q68 -102 68 -232q0 -123 -73 -201q-69 -74 -169 -74q-99 0 -168 74q-73 78 -73 201t72 201q69 74 169 74l35 -3q-31 51 -84 97l-137 -51l-11 26l124 46q-11 10 -23.5 19t-50.5 35zM157 260
q0 -122 34 -188q28 -55 76 -55q61 0 90 89q21 64 21 154q0 88 -21 153q-29 90 -90 90t-89 -89q-21 -66 -21 -154z" />
    <glyph glyph-name="Yacute" unicode="&#xdd;" horiz-adv-x="520" 
d="M442 301v-64q0 -145 -18 -219q-28 -113 -108 -167q-53 -34 -125 -34q-50 0 -91 18q-26 11 -48 27.5t-35 35.5q4 9 14.5 15t18.5 2q19 -33 56.5 -53t81.5 -20q10 0 16 1q58 5 102.5 35t61.5 81q21 50 29 106t8 123q0 24 -1 72t-1 73l-6 -4q-43 -78 -74 -114
q-51 -60 -114 -74h-30q-27 0 -44 3.5t-32 17.5q-43 38 -60.5 90.5t-17.5 119.5q0 31 3.5 68t10.5 83.5t26 109.5q13 44 38 110q7 12 16 24.5t24 9.5q4 -6 11 -13t10 -11q-45 -95 -68 -175q-28 -97 -28 -187q0 -44 4 -75.5t17 -72.5q18 -37 26 -48q18 -24 46 -29q89 0 153 81
q30 37 85 152q16 40 29 167t55 181q11 2 16 0t13 -17q0 -61 -47 -263q-23 -99 -23 -166zM237 776l-12 20l116 190l32 -5l4 -50z" />
    <glyph glyph-name="yacute" unicode="&#xfd;" horiz-adv-x="360" 
d="M290 10q13 -2 25.5 -9.5t14.5 -17.5q-15 -4 -29.5 -19.5t-22.5 -19.5q0 -125 -2 -165q-5 -93 -20 -162q-18 -81 -56 -147q-26 -26 -41 -37q-25 -18 -54 -23q-5 -1 -15 -1q-20 0 -39.5 7.5t-36.5 20.5q-21 26 -30.5 55t-9.5 63q0 55 25 120q19 50 54.5 106.5t77.5 103.5
q47 52 104 93q0 22 9 78q5 31 5 46q0 18 -4 33q-18 -34 -44.5 -66t-55.5 -51q-43 0 -61 5q-33 9 -46 38l-12 27q-4 9 -5.5 18t-1.5 25t1.5 44.5t1.5 30.5q11 39 16 58q9 32 21 56q8 4 16 4q10 0 17.5 -5t17.5 -16q-17 -46 -26 -87q-12 -52 -12 -93q0 -23 5 -53
q6 -1 16.5 -10.5t16.5 -10.5q72 34 119 134q46 121 70 175q5 11 19 11q11 -1 22 -1l17 -26l-30 -108q-18 -65 -26 -110q-11 -61 -11 -114zM25 -486q4 -21 18 -36.5t35 -15.5q6 0 9 1q82 45 111 157q19 73 19 213v68q-90 -78 -136 -153q-58 -94 -58 -196v-23q2 -11 2 -15z
M155 380l-12 20l116 190l32 -5l4 -50z" />
    <glyph glyph-name="Thorn" unicode="&#xde;" horiz-adv-x="563" 
d="M75 516q0 99 -41 112v16q19 0 64.5 -2t47.5 -2q18 0 62.5 2t48.5 2v-16q-41 -13 -41 -110h82q109 0 177 -42q75 -46 75 -129q0 -82 -74 -128q-70 -43 -178 -43h-82q0 -77 10 -112q14 -48 52 -48v-20q-22 0 -66 2t-66 2t-74.5 -2t-57.5 -2v20q39 0 52 53q9 36 9 121v326z
M216 208h31q149 0 149 139q0 70 -35.5 104.5t-113.5 34.5h-31v-278z" />
    <glyph glyph-name="thorn" unicode="&#xfe;" horiz-adv-x="548" 
d="M174 -77q0 -46 14 -69.5t51 -30.5v-17q-20 0 -69.5 2t-50.5 2q-18 0 -64 -2t-51 -2v15q30 6 42 31t12 63v685q0 74 -44 79v15q86 13 163 31l-3 -142v-157q22 56 56 82.5t87 26.5q84 0 143 -81t59 -188q0 -115 -58 -198t-144 -83q-45 0 -79.5 14.5t-63.5 49.5v-126z
M281 23q55 0 81 60t26 177q0 118 -25.5 177.5t-80.5 59.5q-56 0 -82 -59.5t-26 -177.5t25.5 -177.5t81.5 -59.5z" />
    <glyph glyph-name="minus" unicode="&#xad;" horiz-adv-x="480" 
d="M32 202v116h416v-116h-416z" />
    <glyph glyph-name="multiply" unicode="&#xd7;" horiz-adv-x="480" 
d="M32 437l67 81l141 -176l141 176l67 -81l-142 -177l142 -178l-67 -80l-141 176l-141 -176l-67 80l142 178z" />
    <glyph glyph-name="onesuperior" unicode="&#xb9;" horiz-adv-x="320" 
d="M201 331q0 -34 10.5 -50t41.5 -16v-15l-93 2l-93 -2v15q30 0 41 16t11 50v208q0 26 -10 37t-34 13v15q47 8 67 12t59 14v-299z" />
    <glyph glyph-name="twosuperior" unicode="&#xb2;" horiz-adv-x="320" 
d="M18 252q0 58 45 106q23 24 90 71q22 15 33 42.5t11 58.5q0 74 -63 74q-28 0 -51 -30.5t-33 -74.5l-6 -5l-23 107q57 29 123 29q53 0 94 -25q52 -32 52 -89q0 -50 -39 -82q-30 -25 -79 -37q-39 -9 -58 -21q-31 -19 -35 -52h122q32 0 55.5 13t37.5 44h9l-36 -129h-249z" />
    <glyph glyph-name="threesuperior" unicode="&#xb3;" horiz-adv-x="320" 
d="M30 604q41 14 66 20t57 6q72 0 110 -28q31 -23 31 -64q0 -43 -37 -65q-26 -16 -70 -21q45 -6 78 -26q44 -27 44 -71q0 -61 -52 -90q-40 -22 -100 -22q-40 0 -76 7.5t-71 24.5l29 110l9 -5q0 -48 27.5 -79.5t70.5 -31.5q33 0 51.5 23.5t18.5 60.5q0 38 -21 61t-50 23
q-7 0 -12.5 -1t-21.5 -7v41q19 -7 34 -7q26 0 41.5 22.5t15.5 53.5t-16 48t-44 17q-31 0 -54 -29t-29 -66l-9 -4z" />
    <glyph glyph-name="onehalf" unicode="&#xbd;" horiz-adv-x="800" 
d="M230 331q0 -34 10.5 -50t41.5 -16v-15l-93 2l-93 -2v15q30 0 41 16t11 50v208q0 26 -10 37t-34 13v15q47 8 67 12t59 14v-299zM573 630l-347 -645h-54l347 645h54zM442 0q0 46 27 84q24 34 109 93q22 15 33 42.5t11 58.5q0 74 -63 74q-28 0 -51 -30.5t-33 -74.5l-6 -5
l-23 107q57 29 123 29q54 0 94 -25q51 -32 51 -89q0 -49 -39 -82q-30 -25 -78 -37q-39 -9 -58 -21q-31 -19 -35 -52h122q33 0 55.5 12.5t37.5 44.5h9l-36 -129h-250z" />
    <glyph glyph-name="onequarter" unicode="&#xbc;" horiz-adv-x="800" 
d="M230 331q0 -34 10.5 -50t41.5 -16v-15l-93 2l-93 -2v15q30 0 41 16t11 50v208q0 26 -10 37t-34 13v15q47 8 67 12t59 14v-299zM601 630l-347 -645h-54l347 645h54zM392 118l198 251h34v-238q56 0 86 59h9l-30 -107q-33 6 -65 6q0 -40 9.5 -58t35.5 -18v-15l-86 2l-86 -2
v15q26 0 35.5 17.5t9.5 58.5h-157zM542 126v146l-115 -146h115z" />
    <glyph glyph-name="threequarters" unicode="&#xbe;" horiz-adv-x="800" 
d="M85 604q40 14 65 20t57 6q72 0 110 -28q32 -23 32 -64q0 -43 -37 -65q-26 -16 -70 -21q44 -6 77 -26q44 -27 44 -71q0 -61 -52 -90q-40 -22 -100 -22q-40 0 -76 7t-70 25l29 110l8 -5q0 -48 27.5 -79.5t70.5 -31.5q33 0 51.5 23.5t18.5 60.5q0 38 -21 61t-50 23
q-7 0 -13 -1t-20 -7v41q18 -7 33 -7q28 0 42.5 22t14.5 54q0 30 -15.5 47.5t-43.5 17.5q-32 0 -55 -28.5t-28 -66.5l-9 -4zM629 630l-347 -645h-54l347 645h54zM408 118l198 251h34v-238q56 0 86 59h9l-30 -107q-33 6 -65 6q0 -40 9.5 -58t35.5 -18v-15l-86 2l-86 -2v15
q26 0 35.5 17.5t9.5 58.5h-157zM558 126v146l-115 -146h115z" />
  </font>
</defs>
</svg>
