<?xml version="1.0" encoding="utf-8"?>
<!-- Generator: Adobe Illustrator 17.1.0, SVG Export Plug-In . SVG Version: 6.00 Build 0)  -->
<!DOCTYPE svg PUBLIC "-//W3C//DTD SVG 1.1//EN" "http://www.w3.org/Graphics/SVG/1.1/DTD/svg11.dtd">
<svg version="1.1" id="Layer_1" xmlns="http://www.w3.org/2000/svg" xmlns:xlink="http://www.w3.org/1999/xlink" x="0px" y="0px"
	 viewBox="0 0 189.1 470.9" enable-background="new 0 0 189.1 470.9" xml:space="preserve">
<g>
	<path d="M141.3,438.6c0,8.7-3.3,14.4-7.4,12.8L31.3,411.2c-2.9-1.1-5.2-7.8-5.2-15V62.6c0-7.2,2.3-13.6,5.2-14.3l102.6-26.2
		c4.1-1,7.4,5.1,7.4,13.8V438.6z"/>
	<path fill="#A5A5A5" d="M133.9,453.3L31.3,412.9c-3.2-1.3-5.8-8.8-5.8-16.9V62.7c0-8,2.6-15.3,5.8-16.1l102.6-26.5
		c4.6-1.2,8.4,5.8,8.4,15.5V439C142.3,448.7,138.5,455.1,133.9,453.3z M31.3,49.9c-2.5,0.6-4.6,6.2-4.6,12.5v334
		c0,6.3,2,12.2,4.6,13.1l102.6,39.8c3.6,1.4,6.5-3.6,6.5-11.2V36c0-7.5-2.9-12.9-6.5-12L31.3,49.9z"/>
	<g>
		<polygon points="134.6,68 30.7,87.4 30.7,80.5 134.6,59.9 		"/>
		<path fill="#777777" d="M135.1,68.9L30.4,88.2v-8.5l104.7-20.9V68.9z M31.1,86.5l103.1-19.3V61L31.1,81.3V86.5z"/>
	</g>
	<g>
		<g>
			<polygon fill="#FFFFFF" points="136.7,409.1 30.2,374.3 30.2,297.1 136.7,317.2 			"/>
			<g>
				<path fill="#C7CED5" d="M37.9,317.2c0,1.1-0.4,1.9-0.9,1.8l-5-1.1c-0.5-0.1-0.8-1.1-0.8-2.2v-11.9c0-1.1,0.4-1.9,0.8-1.8l5,1
					c0.5,0.1,0.9,1.1,0.9,2.2V317.2z"/>
				<path fill="#E9F1F9" d="M37.6,316.2c0,1.1-0.4,1.9-0.9,1.8l-5-1.1c-0.5-0.1-0.8-1.1-0.8-2.2v-11.9c0-1.1,0.4-1.9,0.8-1.8l5,1
					c0.5,0.1,0.9,1.1,0.9,2.2V316.2z"/>
			</g>
			<g>
				<path fill="#C7CED5" d="M46.2,319.1c0,1.1-0.4,2-0.9,1.9l-5.2-1.2c-0.5-0.1-0.9-1.1-0.9-2.2v-12.1c0-1.1,0.4-2,0.9-1.9l5.2,1
					c0.5,0.1,0.9,1.1,0.9,2.2V319.1z"/>
				<path fill="#E9F1F9" d="M45.9,318c0,1.1-0.4,2-0.9,1.9l-5.2-1.2c-0.5-0.1-0.9-1.1-0.9-2.2v-12.1c0-1.1,0.4-2,0.9-1.9l5.2,1
					c0.5,0.1,0.9,1.1,0.9,2.2V318z"/>
			</g>
			<g>
				<path fill="#C7CED5" d="M54.5,320.9c0,1.2-0.4,2-0.9,1.9l-5.3-1.2c-0.5-0.1-0.9-1.1-0.9-2.3v-12.3c0-1.1,0.4-2,0.9-1.9l5.3,1
					c0.5,0.1,0.9,1.1,0.9,2.3V320.9z"/>
				<path fill="#E9F1F9" d="M54.2,319.8c0,1.2-0.4,2-0.9,1.9l-5.3-1.2c-0.5-0.1-0.9-1.1-0.9-2.3V306c0-1.1,0.4-2,0.9-1.9l5.3,1
					c0.5,0.1,0.9,1.1,0.9,2.3V319.8z"/>
			</g>
			<g>
				<path fill="#C7CED5" d="M63.4,322.9c0,1.2-0.4,2-0.9,1.9l-5.5-1.2c-0.5-0.1-0.9-1.1-0.9-2.3v-12.5c0-1.2,0.4-2,0.9-1.9l5.5,1.1
					c0.5,0.1,0.9,1.1,0.9,2.3V322.9z"/>
				<path fill="#E9F1F9" d="M63,321.8c0,1.2-0.4,2-0.9,1.9l-5.5-1.2c-0.5-0.1-0.9-1.1-0.9-2.3v-12.4c0-1.2,0.4-2,0.9-1.9l5.5,1.1
					c0.5,0.1,0.9,1.1,0.9,2.3V321.8z"/>
			</g>
			<g>
				<path fill="#C7CED5" d="M72.5,324.9c0,1.2-0.4,2.1-1,1.9l-5.6-1.3c-0.5-0.1-0.9-1.2-0.9-2.3v-12.6c0-1.2,0.4-2,0.9-1.9l5.6,1.1
					c0.5,0.1,1,1.2,1,2.3V324.9z"/>
				<path fill="#E9F1F9" d="M72.2,323.8c0,1.2-0.4,2.1-1,1.9l-5.6-1.3c-0.5-0.1-0.9-1.2-0.9-2.3v-12.6c0-1.2,0.4-2.1,0.9-1.9
					l5.6,1.1c0.5,0.1,1,1.2,1,2.3V323.8z"/>
			</g>
			<g>
				<path fill="#C7CED5" d="M81.9,327c0,1.2-0.4,2.1-1,2l-5.8-1.3c-0.5-0.1-1-1.2-1-2.4v-12.8c0-1.2,0.4-2.1,1-2l5.8,1.1
					c0.5,0.1,1,1.2,1,2.4V327z"/>
				<path fill="#E9F1F9" d="M81.6,325.8c0,1.2-0.4,2.1-1,2l-5.8-1.3c-0.5-0.1-1-1.2-1-2.4v-12.8c0-1.2,0.4-2.1,1-2l5.8,1.1
					c0.5,0.1,1,1.2,1,2.4V325.8z"/>
			</g>
			<g>
				<path fill="#C7CED5" d="M91.6,329.1c0,1.2-0.5,2.1-1,2l-6-1.3c-0.6-0.1-1-1.2-1-2.4v-13c0-1.2,0.4-2.1,1-2l6,1.2
					c0.6,0.1,1,1.2,1,2.4V329.1z"/>
				<path fill="#E9F1F9" d="M91.3,328c0,1.2-0.5,2.1-1,2l-6-1.3c-0.6-0.1-1-1.2-1-2.4v-13c0-1.2,0.4-2.1,1-2l6,1.2
					c0.6,0.1,1,1.2,1,2.4V328z"/>
			</g>
			<g>
				<path fill="#C7CED5" d="M101.7,331.4c0,1.3-0.5,2.2-1.1,2l-6.2-1.4c-0.6-0.1-1-1.2-1-2.5v-13.2c0-1.2,0.5-2.1,1-2l6.2,1.2
					c0.6,0.1,1.1,1.2,1.1,2.5V331.4z"/>
				<path fill="#E9F1F9" d="M101.3,330.2c0,1.3-0.5,2.2-1.1,2l-6.2-1.4c-0.6-0.1-1-1.2-1-2.5v-13.2c0-1.2,0.5-2.1,1-2l6.2,1.2
					c0.6,0.1,1.1,1.2,1.1,2.5V330.2z"/>
			</g>
			<g>
				<path fill="#C7CED5" d="M112,333.6c0,1.3-0.5,2.2-1.1,2.1l-6.4-1.4c-0.6-0.1-1.1-1.3-1.1-2.5v-13.5c0-1.3,0.5-2.2,1.1-2.1
					l6.4,1.3c0.6,0.1,1.1,1.2,1.1,2.5V333.6z"/>
				<path fill="#E9F1F9" d="M111.7,332.5c0,1.3-0.5,2.2-1.1,2.1l-6.4-1.4c-0.6-0.1-1.1-1.3-1.1-2.5v-13.5c0-1.3,0.5-2.2,1.1-2.1
					l6.4,1.2c0.6,0.1,1.1,1.2,1.1,2.5V332.5z"/>
			</g>
			<g>
				<path fill="#C7CED5" d="M122.8,336c0,1.3-0.5,2.2-1.1,2.1l-6.6-1.5c-0.6-0.1-1.1-1.3-1.1-2.6v-13.7c0-1.3,0.5-2.2,1.1-2.1
					l6.6,1.3c0.6,0.1,1.1,1.3,1.1,2.6V336z"/>
				<path fill="#E9F1F9" d="M122.4,334.8c0,1.3-0.5,2.2-1.1,2.1l-6.6-1.5c-0.6-0.1-1.1-1.3-1.1-2.6v-13.7c0-1.3,0.5-2.2,1.1-2.1
					l6.6,1.3c0.6,0.1,1.1,1.3,1.1,2.6V334.8z"/>
			</g>
			<g>
				<path fill="#C7CED5" d="M133.8,338.5c0,1.3-0.5,2.3-1.2,2.1l-6.8-1.5c-0.6-0.1-1.1-1.3-1.1-2.6v-13.9c0-1.3,0.5-2.2,1.1-2.1
					l6.8,1.3c0.6,0.1,1.2,1.3,1.2,2.6V338.5z"/>
				<path fill="#E9F1F9" d="M133.4,337.2c0,1.3-0.5,2.3-1.2,2.1l-6.8-1.5c-0.6-0.1-1.1-1.3-1.1-2.6v-13.9c0-1.3,0.5-2.2,1.1-2.1
					l6.8,1.3c0.6,0.1,1.2,1.3,1.2,2.6V337.2z"/>
			</g>
			<g>
				<path fill="#C7CED5" d="M41.2,336.7c0,1.1-0.4,1.9-0.9,1.8l-5.1-1.3c-0.5-0.1-0.8-1.1-0.8-2.2v-12c0-1.1,0.4-1.9,0.8-1.8
					l5.1,1.2c0.5,0.1,0.9,1.1,0.9,2.2V336.7z"/>
				<path fill="#E9F1F9" d="M41,335.7c0,1.1-0.4,1.9-0.9,1.8l-5.1-1.3c-0.5-0.1-0.8-1.1-0.8-2.2v-12c0-1.1,0.4-1.9,0.8-1.8l5.1,1.2
					c0.5,0.1,0.9,1.1,0.9,2.2V335.7z"/>
			</g>
			<g>
				<path fill="#C7CED5" d="M49.6,338.9c0,1.1-0.4,2-0.9,1.8l-5.2-1.3c-0.5-0.1-0.9-1.1-0.9-2.3v-12.2c0-1.1,0.4-2,0.9-1.9l5.2,1.2
					c0.5,0.1,0.9,1.1,0.9,2.3V338.9z"/>
				<path fill="#E9F1F9" d="M49.3,337.8c0,1.1-0.4,2-0.9,1.8l-5.2-1.3c-0.5-0.1-0.9-1.1-0.9-2.3v-12.2c0-1.1,0.4-2,0.9-1.9l5.2,1.2
					c0.5,0.1,0.9,1.1,0.9,2.3V337.8z"/>
			</g>
			<g>
				<path fill="#C7CED5" d="M58,341c0,1.2-0.4,2-0.9,1.9l-5.4-1.4c-0.5-0.1-0.9-1.2-0.9-2.3v-12.3c0-1.1,0.4-2,0.9-1.9l5.4,1.2
					c0.5,0.1,0.9,1.2,0.9,2.3V341z"/>
				<path fill="#E9F1F9" d="M57.7,339.9c0,1.2-0.4,2-0.9,1.9l-5.4-1.4c-0.5-0.1-0.9-1.2-0.9-2.3v-12.3c0-1.1,0.4-2,0.9-1.9l5.4,1.2
					c0.5,0.1,0.9,1.2,0.9,2.3V339.9z"/>
			</g>
			<g>
				<path fill="#C7CED5" d="M67,343.3c0,1.2-0.4,2-0.9,1.9l-5.5-1.4c-0.5-0.1-0.9-1.2-0.9-2.3v-12.5c0-1.2,0.4-2,0.9-1.9l5.5,1.3
					c0.5,0.1,0.9,1.2,0.9,2.4V343.3z"/>
				<path fill="#E9F1F9" d="M66.7,342.2c0,1.2-0.4,2-0.9,1.9l-5.5-1.4c-0.5-0.1-0.9-1.2-0.9-2.3v-12.5c0-1.2,0.4-2,0.9-1.9l5.5,1.3
					c0.5,0.1,0.9,1.2,0.9,2.4V342.2z"/>
			</g>
			<g>
				<path fill="#C7CED5" d="M76.3,345.6c0,1.2-0.4,2.1-1,1.9l-5.7-1.5c-0.5-0.1-1-1.2-1-2.4V331c0-1.2,0.4-2,1-1.9l5.7,1.3
					c0.5,0.1,1,1.2,1,2.4V345.6z"/>
				<path fill="#E9F1F9" d="M75.9,344.5c0,1.2-0.4,2.1-1,1.9l-5.7-1.5c-0.5-0.1-1-1.2-1-2.4v-12.7c0-1.2,0.4-2,1-1.9l5.7,1.3
					c0.5,0.1,1,1.2,1,2.4V344.5z"/>
			</g>
			<g>
				<path fill="#C7CED5" d="M85.8,348.1c0,1.2-0.4,2.1-1,1.9l-5.9-1.5c-0.5-0.1-1-1.2-1-2.4v-12.9c0-1.2,0.4-2.1,1-2l5.9,1.3
					c0.6,0.1,1,1.2,1,2.4V348.1z"/>
				<path fill="#E9F1F9" d="M85.4,346.9c0,1.2-0.4,2.1-1,1.9l-5.9-1.5c-0.5-0.1-1-1.2-1-2.4V332c0-1.2,0.4-2.1,1-2l5.9,1.3
					c0.6,0.1,1,1.2,1,2.4V346.9z"/>
			</g>
			<g>
				<path fill="#C7CED5" d="M95.6,350.6c0,1.2-0.5,2.1-1,2l-6.1-1.6c-0.6-0.1-1-1.3-1-2.5v-13.1c0-1.2,0.5-2.1,1-2l6.1,1.4
					c0.6,0.1,1,1.2,1,2.5V350.6z"/>
				<path fill="#E9F1F9" d="M95.3,349.4c0,1.2-0.5,2.1-1,2l-6.1-1.6c-0.6-0.1-1-1.3-1-2.5v-13.1c0-1.2,0.5-2.1,1-2l6.1,1.4
					c0.6,0.1,1,1.2,1,2.5V349.4z"/>
			</g>
			<g>
				<path fill="#C7CED5" d="M105.8,353.2c0,1.3-0.5,2.2-1.1,2l-6.3-1.6c-0.6-0.1-1-1.3-1-2.5v-13.3c0-1.2,0.5-2.1,1-2l6.3,1.4
					c0.6,0.1,1.1,1.3,1.1,2.5V353.2z"/>
				<path fill="#E9F1F9" d="M105.4,352c0,1.3-0.5,2.2-1.1,2l-6.3-1.6c-0.6-0.1-1-1.3-1-2.5v-13.3c0-1.2,0.5-2.1,1-2l6.3,1.4
					c0.6,0.1,1.1,1.3,1.1,2.5V352z"/>
			</g>
			<g>
				<path fill="#C7CED5" d="M116.3,355.8c0,1.3-0.5,2.2-1.1,2l-6.5-1.7c-0.6-0.2-1.1-1.3-1.1-2.6v-13.6c0-1.3,0.5-2.2,1.1-2l6.5,1.5
					c0.6,0.1,1.1,1.3,1.1,2.6V355.8z"/>
				<path fill="#E9F1F9" d="M115.9,354.6c0,1.3-0.5,2.2-1.1,2l-6.5-1.7c-0.6-0.2-1.1-1.3-1.1-2.6v-13.5c0-1.3,0.5-2.2,1.1-2l6.5,1.5
					c0.6,0.1,1.1,1.3,1.1,2.6V354.6z"/>
			</g>
			<g>
				<path fill="#C7CED5" d="M134.5,360.5c0,1.3-0.9,2.1-2.1,1.8l-12-3.1c-1.1-0.3-2-1.6-2-2.8v-13.8c0-1.3,0.9-2.1,2-1.9l12,2.7
					c1.1,0.3,2.1,1.5,2.1,2.9V360.5z"/>
				<path fill="#E9F1F9" d="M133.8,359.1c0,1.3-0.9,2.1-2.1,1.9l-11.9-3.1c-1.1-0.3-2-1.5-2-2.8v-13.8c0-1.3,0.9-2.1,2-1.9l11.9,2.7
					c1.1,0.3,2.1,1.5,2.1,2.8V359.1z"/>
			</g>
			<g>
				<path fill="#C7CED5" d="M38.5,355c0,1.1-0.4,1.9-0.9,1.8l-5-1.5c-0.5-0.1-0.8-1.1-0.8-2.3v-11.9c0-1.1,0.4-1.9,0.8-1.8l5,1.3
					c0.5,0.1,0.9,1.1,0.9,2.3V355z"/>
				<path fill="#E9F1F9" d="M38.3,353.9c0,1.1-0.4,1.9-0.9,1.8l-5-1.5c-0.5-0.1-0.8-1.1-0.8-2.3v-11.9c0-1.1,0.4-1.9,0.8-1.8l5,1.3
					c0.5,0.1,0.9,1.1,0.9,2.3V353.9z"/>
			</g>
			<g>
				<path fill="#C7CED5" d="M46.5,375c0,1.1-0.8,1.8-1.9,1.5L33.8,373c-1-0.3-1.8-1.5-1.8-2.6v-11.9c0-1.1,0.8-1.8,1.8-1.5l10.9,3.2
					c1,0.3,1.9,1.5,1.9,2.6V375z"/>
				<path fill="#E9F1F9" d="M46.1,373.9c0,1.1-0.8,1.8-1.9,1.5l-10.9-3.5c-1-0.3-1.8-1.5-1.8-2.6v-11.9c0-1.1,0.8-1.8,1.8-1.5
					l10.9,3.2c1,0.3,1.9,1.5,1.9,2.6V373.9z"/>
			</g>
			<g>
				<path fill="#C7CED5" d="M46.8,357.4c0,1.1-0.4,2-0.9,1.8l-5.2-1.5c-0.5-0.1-0.9-1.2-0.9-2.3v-12.1c0-1.1,0.4-1.9,0.9-1.8
					l5.2,1.4c0.5,0.1,0.9,1.2,0.9,2.3V357.4z"/>
				<path fill="#E9F1F9" d="M46.5,356.3c0,1.1-0.4,2-0.9,1.8l-5.2-1.5c-0.5-0.1-0.9-1.2-0.9-2.3v-12.1c0-1.1,0.4-1.9,0.9-1.8
					l5.2,1.3c0.5,0.1,0.9,1.2,0.9,2.3V356.3z"/>
			</g>
			<g>
				<path fill="#C7CED5" d="M55.1,359.8c0,1.2-0.4,2-0.9,1.8l-5.3-1.5c-0.5-0.1-0.9-1.2-0.9-2.3v-12.3c0-1.1,0.4-2,0.9-1.8l5.3,1.4
					c0.5,0.1,0.9,1.2,0.9,2.3V359.8z"/>
				<path fill="#E9F1F9" d="M54.8,358.7c0,1.2-0.4,2-0.9,1.8l-5.3-1.5c-0.5-0.1-0.9-1.2-0.9-2.3v-12.3c0-1.1,0.4-2,0.9-1.8l5.3,1.4
					c0.5,0.1,0.9,1.2,0.9,2.3V358.7z"/>
			</g>
			<g>
				<path fill="#C7CED5" d="M55.1,378.2c0,1.2-0.4,2-0.9,1.8l-5.3-1.7c-0.5-0.2-0.9-1.2-0.9-2.4v-12.3c0-1.1,0.4-2,0.9-1.8l5.3,1.6
					c0.5,0.1,0.9,1.2,0.9,2.4V378.2z"/>
				<path fill="#E9F1F9" d="M54.8,377.1c0,1.2-0.4,2-0.9,1.8l-5.3-1.7c-0.5-0.2-0.9-1.2-0.9-2.4v-12.3c0-1.1,0.4-2,0.9-1.8l5.3,1.6
					c0.5,0.1,0.9,1.2,0.9,2.4V377.1z"/>
			</g>
			<g>
				<path fill="#C7CED5" d="M135.5,403.9c0,1.3-0.5,2.2-1.2,2l-6.9-2.2c-0.6-0.2-1.1-1.4-1.1-2.7V387c0-1.3,0.5-2.2,1.1-2l6.9,2
					c0.6,0.2,1.2,1.4,1.2,2.7V403.9z"/>
				<path fill="#E9F1F9" d="M135.1,402.6c0,1.3-0.5,2.2-1.2,2l-6.9-2.2c-0.6-0.2-1.1-1.4-1.1-2.7v-13.9c0-1.3,0.5-2.2,1.1-2l6.9,2
					c0.6,0.2,1.2,1.4,1.2,2.7V402.6z"/>
			</g>
			<g>
				<path fill="#C7CED5" d="M64,362.3c0,1.2-0.4,2-0.9,1.9l-5.5-1.6c-0.5-0.1-0.9-1.2-0.9-2.4v-12.5c0-1.2,0.4-2,0.9-1.9l5.5,1.4
					c0.5,0.1,0.9,1.2,0.9,2.4V362.3z"/>
				<path fill="#E9F1F9" d="M63.7,361.2c0,1.2-0.4,2-0.9,1.9l-5.5-1.6c-0.5-0.1-0.9-1.2-0.9-2.4v-12.5c0-1.2,0.4-2,0.9-1.9l5.5,1.4
					c0.5,0.1,0.9,1.2,0.9,2.4V361.2z"/>
			</g>
			<g>
				<path fill="#C7CED5" d="M73.2,364.9c0,1.2-0.4,2-1,1.9l-5.6-1.6c-0.5-0.2-0.9-1.2-0.9-2.4v-12.7c0-1.2,0.4-2,0.9-1.9l5.6,1.5
					c0.5,0.1,1,1.2,1,2.4V364.9z"/>
				<path fill="#E9F1F9" d="M72.8,363.8c0,1.2-0.4,2-1,1.9l-5.6-1.6c-0.5-0.2-0.9-1.2-0.9-2.4V349c0-1.2,0.4-2,0.9-1.9l5.6,1.5
					c0.5,0.1,1,1.2,1,2.4V363.8z"/>
			</g>
			<g>
				<path fill="#C7CED5" d="M82.6,367.7c0,1.2-0.4,2.1-1,1.9l-5.8-1.7c-0.5-0.2-1-1.3-1-2.5v-12.9c0-1.2,0.4-2.1,1-1.9l5.8,1.5
					c0.5,0.1,1,1.2,1,2.5V367.7z"/>
				<path fill="#E9F1F9" d="M82.3,366.5c0,1.2-0.4,2.1-1,1.9l-5.8-1.7c-0.5-0.2-1-1.3-1-2.4v-12.8c0-1.2,0.4-2.1,1-1.9l5.8,1.5
					c0.5,0.1,1,1.2,1,2.5V366.5z"/>
			</g>
			<g>
				<path fill="#C7CED5" d="M92.4,370.5c0,1.2-0.5,2.1-1,1.9l-6-1.8c-0.6-0.2-1-1.3-1-2.5v-13.1c0-1.2,0.4-2.1,1-1.9l6,1.6
					c0.6,0.2,1,1.3,1,2.5V370.5z"/>
				<path fill="#E9F1F9" d="M92,369.3c0,1.2-0.5,2.1-1,1.9l-6-1.7c-0.6-0.2-1-1.3-1-2.5v-13c0-1.2,0.4-2.1,1-1.9l6,1.6
					c0.6,0.1,1,1.3,1,2.5V369.3z"/>
			</g>
			<g>
				<path fill="#C7CED5" d="M102.4,373.3c0,1.3-0.5,2.1-1.1,2l-6.2-1.8c-0.6-0.2-1-1.3-1-2.5v-13.3c0-1.2,0.5-2.1,1-2l6.2,1.6
					c0.6,0.2,1.1,1.3,1.1,2.5V373.3z"/>
				<path fill="#E9F1F9" d="M102,372.2c0,1.3-0.5,2.1-1.1,2l-6.2-1.8c-0.6-0.2-1-1.3-1-2.5v-13.3c0-1.2,0.5-2.1,1-2l6.2,1.6
					c0.6,0.2,1.1,1.3,1.1,2.5V372.2z"/>
			</g>
			<g>
				<path fill="#C7CED5" d="M112.8,376.3c0,1.3-0.5,2.2-1.1,2l-6.4-1.9c-0.6-0.2-1.1-1.3-1.1-2.6v-13.5c0-1.3,0.5-2.1,1.1-2l6.4,1.7
					c0.6,0.2,1.1,1.3,1.1,2.6V376.3z"/>
				<path fill="#E9F1F9" d="M112.4,375.1c0,1.3-0.5,2.2-1.1,2l-6.4-1.9c-0.6-0.2-1.1-1.3-1.1-2.6v-13.5c0-1.3,0.5-2.1,1.1-2l6.4,1.7
					c0.6,0.2,1.1,1.3,1.1,2.6V375.1z"/>
			</g>
			<g>
				<path fill="#C7CED5" d="M123.6,379.4c0,1.3-0.5,2.2-1.1,2l-6.6-1.9c-0.6-0.2-1.1-1.4-1.1-2.6v-13.7c0-1.3,0.5-2.2,1.1-2l6.6,1.7
					c0.6,0.2,1.1,1.3,1.1,2.6V379.4z"/>
				<path fill="#E9F1F9" d="M123.2,378.2c0,1.3-0.5,2.2-1.1,2l-6.6-1.9c-0.6-0.2-1.1-1.4-1.1-2.6V362c0-1.3,0.5-2.2,1.1-2l6.6,1.7
					c0.6,0.2,1.1,1.3,1.1,2.6V378.2z"/>
			</g>
			<g>
				<path fill="#C7CED5" d="M123.6,400.1c0,1.3-0.5,2.2-1.1,2l-6.6-2.1c-0.6-0.2-1.1-1.4-1.1-2.7v-13.7c0-1.3,0.5-2.2,1.1-2l6.6,1.9
					c0.6,0.2,1.1,1.4,1.1,2.7V400.1z"/>
				<path fill="#E9F1F9" d="M123.2,398.8c0,1.3-0.5,2.2-1.1,2l-6.6-2.1c-0.6-0.2-1.1-1.4-1.1-2.7v-13.7c0-1.3,0.5-2.2,1.1-2l6.6,1.9
					c0.6,0.2,1.1,1.4,1.1,2.7V398.8z"/>
			</g>
			<g>
				<path fill="#C7CED5" d="M134.7,382.6c0,1.3-0.5,2.2-1.2,2l-6.8-2c-0.6-0.2-1.1-1.4-1.1-2.7v-13.9c0-1.3,0.5-2.2,1.1-2l6.8,1.8
					c0.6,0.2,1.2,1.4,1.2,2.7V382.6z"/>
				<path fill="#E9F1F9" d="M134.2,381.4c0,1.3-0.5,2.2-1.2,2l-6.8-2c-0.6-0.2-1.1-1.4-1.1-2.7v-13.9c0-1.3,0.5-2.2,1.1-2.1l6.8,1.8
					c0.6,0.2,1.2,1.4,1.2,2.7V381.4z"/>
			</g>
			<g>
				<path fill="#C7CED5" d="M110.6,395.3c0,1.3-0.5,2.1-1.1,1.9l-52.4-16.9c-0.5-0.2-0.9-1.2-0.9-2.4v-11.6c0-1.2,0.4-2,0.9-1.8
					l52.4,15.4c0.6,0.2,1.1,1.3,1.1,2.6V395.3z"/>
				<path fill="#E9F1F9" d="M109.8,394.3c0,1.3-0.5,2.1-1.1,1.9l-52.3-16.8c-0.5-0.2-0.9-1.2-0.9-2.4v-11.6c0-1.2,0.4-2,0.9-1.8
					l52.3,15.4c0.6,0.2,1.1,1.3,1.1,2.6V394.3z"/>
			</g>
		</g>
		<polygon fill="#C7CED5" points="69.7,100.7 30.8,106.6 30.8,92.9 69.7,86 		"/>
		<g>
			<polygon fill="#FFFFFF" points="69.7,301.8 30.8,294.7 30.8,110.4 69.7,104.7 			"/>
			<path fill="#C7CED5" d="M70.1,302.7l-39.7-7.3V109.7l39.7-5.8V302.7z M31.1,293.9l38.3,7V105.6l-38.3,5.5V293.9z"/>
		</g>
		<polygon fill="#C7CED5" points="136.5,90.6 72.2,100.3 72.2,85.6 136.5,74.3 		"/>
		<polygon fill="#C7CED5" points="136.5,315.8 72.2,303.8 72.2,103.4 136.5,93.9 		"/>
		<path fill="#8DA9D8" d="M67.3,129.6c0,1.2-0.4,2.2-0.9,2.2l-32.8,3.3c-0.5,0-0.8-0.8-0.8-1.9v-14.9c0-1.1,0.4-2.1,0.8-2.1
			l32.8-4.4c0.5-0.1,0.9,0.8,0.9,2V129.6z"/>
		<polygon fill="#A1A8AA" points="133.5,131.8 74.5,137.1 74.5,108.6 133.5,100.5 		"/>
		<polygon fill="#A1A8AA" points="133.5,162.6 74.5,165.2 74.5,144.3 133.5,139.7 		"/>
		<polygon fill="#A1A8AA" points="133.5,201.7 74.5,200.8 74.5,172.3 133.5,170.4 		"/>
		<polygon fill="#A1A8AA" points="133.5,267.7 74.5,260.9 74.5,239.5 133.5,244.2 		"/>
		<polygon fill="#A1A8AA" points="133.5,229.1 74.5,225.8 74.5,211 133.5,212.9 		"/>
	</g>
</g>
<path fill="#A5A5A5" d="M158,436c0,5.5-1.8,10.7-4.1,11.6l-11,4.5c-2.4,1-4.3-2.8-4.3-8.5V30.4c0-5.7,1.9-9.7,4.3-8.9l11,3.6
	c2.3,0.7,4.1,5.8,4.1,11.3V436z"/>
</svg>
