<?xml version="1.0" encoding="utf-8"?>
<!-- Generator: Adobe Illustrator 17.1.0, SVG Export Plug-In . SVG Version: 6.00 Build 0)  -->
<!DOCTYPE svg PUBLIC "-//W3C//DTD SVG 1.1//EN" "http://www.w3.org/Graphics/SVG/1.1/DTD/svg11.dtd">
<svg version="1.1" id="Layer_1" xmlns="http://www.w3.org/2000/svg" xmlns:xlink="http://www.w3.org/1999/xlink" x="0px" y="0px"
	 viewBox="0 0 371.4 227.1" enable-background="new 0 0 371.4 227.1" xml:space="preserve">
<g>
	<polygon fill="#C7CED5" points="326.8,62.8 329.7,63.2 329.7,157.5 326.8,156.9 	"/>
	<polygon fill="#A1A8AA" points="332.6,157.2 329.4,158.6 329.4,58.2 332.6,57.4 	"/>
</g>
<g>
	<polygon fill="#C7CED5" points="195.9,48.2 198.8,48.5 198.8,132.9 195.9,132.4 	"/>
	<polygon fill="#A1A8AA" points="201.7,132.6 198.5,133.9 198.5,44.1 201.7,43.3 	"/>
</g>
<g>
	<polygon fill="#A1A8AA" points="47.9,79 44.7,79.6 44.7,163.3 47.9,162.3 	"/>
	<polygon fill="#C7CED5" points="44.7,163.3 42.1,162.5 42.1,71.5 44.7,71.9 	"/>
</g>
<g>
	<polygon fill="#A1A8AA" points="194.6,206 190.5,207.7 190.5,95.1 194.6,94.1 	"/>
	<polygon fill="#C7CED5" points="187.7,103.8 190.5,104.3 190.5,207.7 187.7,206.9 	"/>
</g>
<g>
	<g>
		<polygon fill="#A1A8AA" points="199.2,37.2 354.7,56.2 187,101.1 18.8,69.8 		"/>
		<polygon fill="#6F7F8F" points="187.6,106.3 18.8,74.4 18.8,69.8 187,101 		"/>
	</g>
	<polygon fill="#585C7F" points="354.9,60 187,106.2 187,101.1 354.9,56.2 	"/>
</g>
<polygon fill="#FFFFFF" points="101.6,65.9 212.5,84.3 308.6,60 203,46.2 "/>
<g>
	<path fill="#E9F1F9" d="M205.3,26.7V27c-0.3-0.1-0.6-0.2-0.9-0.2c-3.6-0.4-6.4,3.8-6.4,9.3c0,5.5,2.9,10.4,6.4,10.8
		c0.3,0,0.6,0,0.9,0V47l107.8,14.1V38.7L205.3,26.7z"/>
	<g>
		<path fill="#9AA593" d="M318.4,42.7c0,0-1.9-3.8-6.1-3.8c-4.2,0.1-6.9,2.6-8.1,5.5c-1.3,2.9-1,11.7,0.8,13.9
			c1.9,2.2,6.1,3.5,9.7,2c3.7-1.5,4.6-4.9,4.8-8.7C319.8,47.9,319.6,44.5,318.4,42.7z"/>
		<path fill="#62707F" d="M311.6,56.3c0,0,1-0.3,1.7-2.5c0.6-2.2,0.2-3.5-0.6-4.7c-0.8-1.2-3.4-1.3-4.1-1.3c-0.7,0-1,0.2-1,0.2
			l-1.3,4l0.3,3l1.3,1.4l2.4,0.3L311.6,56.3z"/>
		<path fill="#A19FAC" d="M316.1,43.7c0,0,2.5,2.6,3.1,4.9c0.6,2.3,0.3,3.5,0.3,3.5s0.6-7-1.6-10.6c-2.2-3.7-6.8-2.9-8.1-2.7
			c-1.3,0.2-3.5,2.5-3.5,2.5l6.7,1.9L316.1,43.7z"/>
		<path fill="#C7CED5" d="M306.8,41.1l9.3,2.6c0,0-6.1,0.8-7.8,3c-1.7,2.2-1.6,7.7-0.5,9c1.1,1.3,4.4,0.3,4.4,0.3s-0.6,0.8-1.6,1
			c-1,0.2-6.8-2-6.8-2s-0.9-6.1-0.3-8.8c0.6-2.6,2.7-5.1,3.3-5.6V41.1z"/>
	</g>
</g>
<g>
	<path fill="#62707F" d="M217.7,48.5c-0.1-0.4-0.2-0.4-0.5-0.5l-38.6-5.1c-0.2,0-0.5,0-0.7,0c0,0-1.2,0.2-1.6,0.5
		c-0.6,0.4-0.9,0.6-0.7,0.7l38.9,4.6c0.2,0,1,0.8,1.5,1.1L217.7,48.5z"/>
	<path fill="#585C7F" d="M217.8,48.9c0-0.4-0.2-0.7-0.4-0.7l-1.3,0.3c-0.2,0-0.4,0.4-0.4,0.9v25.4c0,0.4,0.2,0.7,0.4,0.7l1.3-0.3
		c0.2-0.1,0.4-0.4,0.4-0.9V48.9z"/>
	<path fill="#C7CED5" d="M216.3,50.7c0-1.1-0.8-2.1-1.7-2.2l-37.8-5c-0.9-0.1-1.6,0.7-1.6,1.7v22c0,1.1,0.7,2,1.6,2.2l37.8,6
		c0.9,0.2,1.7-0.6,1.7-1.7V50.7z"/>
	<path fill="#97A8B9" d="M213.6,53c0-1.1-0.8-2.1-1.7-2.2l-32.7-4.4c-0.9-0.1-1.6,0.7-1.6,1.7v17.4c0,1.1,0.7,2,1.6,2.2l32.7,5.1
		c0.9,0.1,1.7-0.6,1.7-1.7V53z"/>
	<path fill="#C7CED5" d="M174.3,71.1c0.2,0,0.6,0,0.8,0l41.2,6.7c0.3,0,0.4,0.1,0.2,0.2l-30,7.4c-0.2,0.1-0.6,0.1-0.9,0l-41.7-7.3
		c-0.3,0-0.3-0.1-0.1-0.2L174.3,71.1z"/>
	<path fill="#62707F" d="M187.1,86.9c0,0.9-0.6,1.6-1.4,1.4l-40.7-7.2c-0.7-0.1-1.3-1-1.3-1.8l0,0c0-0.9,0.6-1.5,1.3-1.4l40.7,7
		C186.5,85.1,187.1,86,187.1,86.9L187.1,86.9z"/>
	<path fill="#A1A8AA" d="M204.8,78.3c-0.2,0-0.6,0-0.9,0L171.3,73c-0.3,0-0.3-0.1-0.1-0.2l2.1-0.5c0.2,0,0.6,0,0.8,0l32.6,5.3
		c0.3,0,0.4,0.1,0.2,0.2L204.8,78.3z"/>
	<path fill="#A1A8AA" d="M197.3,80c-0.2,0-0.6,0-0.9,0l-31.9-5.3c-0.3,0-0.3-0.1-0.1-0.2l3.1-0.7c0.2,0,0.6,0,0.8,0l31.8,5.2
		c0.3,0,0.3,0.1,0.2,0.2L197.3,80z"/>
	<path fill="#A1A8AA" d="M190.6,81.8c-0.2,0-0.6,0-0.9,0l-32.1-5.4c-0.3,0-0.3-0.1-0.1-0.2l2.4-0.5c0.2,0,0.6,0,0.8,0l32.1,5.4
		c0.3,0,0.3,0.1,0.2,0.2L190.6,81.8z"/>
	<path fill="#585C7F" d="M216.3,78.6c0-0.4-0.2-0.7-0.4-0.7L187,85c-0.3,0.1-0.5,0.5-0.5,0.9v1.7c0,0.4,0.2,0.8,0.5,0.7l28.9-7.1
		c0.2-0.1,0.4-0.5,0.4-0.9V78.6z"/>
</g>
</svg>
