<?xml version="1.0" encoding="utf-8"?>
<!-- Generator: Adobe Illustrator 17.1.0, SVG Export Plug-In . SVG Version: 6.00 Build 0)  -->
<!DOCTYPE svg PUBLIC "-//W3C//DTD SVG 1.1//EN" "http://www.w3.org/Graphics/SVG/1.1/DTD/svg11.dtd">
<svg version="1.1" id="Layer_1" xmlns="http://www.w3.org/2000/svg" xmlns:xlink="http://www.w3.org/1999/xlink" x="0px" y="0px"
	 viewBox="0 0 4.5 7.1" enable-background="new 0 0 4.5 7.1" xml:space="preserve">
<path fill="#FCFCFC" d="M3.3,0H1.2C0.5,0,0,0.5,0,1v5.1c0,0.6,0.5,1,1.2,1h2.2c0.6,0,1.2-0.5,1.2-1V1C4.5,0.5,4,0,3.3,0z M1.2,6.6
	C1,6.6,0.8,6.5,0.8,6.3C0.8,6.2,1,6,1.2,6c0.2,0,0.4,0.1,0.4,0.3C1.6,6.5,1.4,6.6,1.2,6.6z M1.2,5.8C1,5.8,0.8,5.7,0.8,5.5
	c0-0.2,0.2-0.3,0.4-0.3c0.2,0,0.4,0.1,0.4,0.3C1.6,5.7,1.4,5.8,1.2,5.8z M1.2,5.1C1,5.1,0.8,4.9,0.8,4.8c0-0.2,0.2-0.3,0.4-0.3
	c0.2,0,0.4,0.1,0.4,0.3C1.6,4.9,1.4,5.1,1.2,5.1z M2.3,6.6C2,6.6,1.8,6.5,1.8,6.3C1.8,6.2,2,6,2.3,6c0.2,0,0.4,0.1,0.4,0.3
	C2.7,6.5,2.5,6.6,2.3,6.6z M2.3,5.8C2,5.8,1.8,5.7,1.8,5.5c0-0.2,0.2-0.3,0.4-0.3c0.2,0,0.4,0.1,0.4,0.3C2.7,5.7,2.5,5.8,2.3,5.8z
	 M2.3,5.1C2,5.1,1.8,4.9,1.8,4.8c0-0.2,0.2-0.3,0.4-0.3c0.2,0,0.4,0.1,0.4,0.3C2.7,4.9,2.5,5.1,2.3,5.1z M3.3,6.6
	c-0.2,0-0.4-0.1-0.4-0.3C2.9,6.2,3.1,6,3.3,6c0.2,0,0.4,0.1,0.4,0.3C3.7,6.5,3.5,6.6,3.3,6.6z M3.3,5.8c-0.2,0-0.4-0.1-0.4-0.3
	c0-0.2,0.2-0.3,0.4-0.3c0.2,0,0.4,0.1,0.4,0.3C3.7,5.7,3.5,5.8,3.3,5.8z M3.3,5.1c-0.2,0-0.4-0.1-0.4-0.3c0-0.2,0.2-0.3,0.4-0.3
	c0.2,0,0.4,0.1,0.4,0.3C3.7,4.9,3.5,5.1,3.3,5.1z M3.9,3.5c0,0.3-0.4,0.5-0.8,0.5H1.5C1,4.1,0.6,3.8,0.6,3.5V1
	c0-0.3,0.4-0.5,0.8-0.5H3c0.5,0,0.8,0.2,0.8,0.5V3.5z"/>
</svg>
