<?xml version="1.0" encoding="utf-8"?>
<!-- Generator: Adobe Illustrator 17.1.0, SVG Export Plug-In . SVG Version: 6.00 Build 0)  -->
<!DOCTYPE svg PUBLIC "-//W3C//DTD SVG 1.1//EN" "http://www.w3.org/Graphics/SVG/1.1/DTD/svg11.dtd">
<svg version="1.1" id="Layer_1" xmlns="http://www.w3.org/2000/svg" xmlns:xlink="http://www.w3.org/1999/xlink" x="0px" y="0px"
	 viewBox="0 0 65.5 106.7" enable-background="new 0 0 65.5 106.7" xml:space="preserve">
<g>
	<path fill="#6F8622" d="M4,38.2c-4,19.9,6.5,36.2,24.2,29.6c8.5-3,16-10,20.3-16.3c4.4-6.5,5.6-12.3,3.9-17.5
		c-1.7-5.2-5.7-10.2-10-15.5C38,13.3,33.3,7.8,28.2,6C18.6,1.9,7.9,18.2,4,38.2z"/>
	<path fill="#53641A" d="M10.4,37.2C7.2,53.3,15.7,66.4,30,61.2c6.9-2.4,12.9-8.1,16.4-13.2c3.5-5.3,4.5-9.9,3.2-14.1
		c-1.4-4.2-4.6-8.2-8.1-12.5C37.9,17.2,34,12.7,30,11.2C22.2,7.9,13.6,21.1,10.4,37.2z"/>
	<g>
		<g>
			<path fill="#873A16" d="M26.4,91.4c0,0,1.9-50.8,1.9-51.3c0-0.4,0.5-0.6,0.8-1.5c2,8.5,0.9,47.1,0.5,60.5h-2.9L26.4,91.4z"/>
			<path fill="#BF952A" d="M19.4,50.8c0.5-0.4,0.3-0.4,1,0.3c0.6,0.7,7.8,18.7,9,48.1h-3.7C25.5,90.1,24.3,55.9,19.4,50.8z"/>
			<path fill="#A55518" d="M20.2,50.8c0.5-0.4,0.3-0.4,1,0.3c0.6,0.7,7.8,18.7,9,48.1h-3.7C26.3,90.1,25.1,55.9,20.2,50.8z"/>
		</g>
	</g>
</g>
</svg>
