<?xml version="1.0" encoding="utf-8"?>
<!-- Generator: Adobe Illustrator 17.1.0, SVG Export Plug-In . SVG Version: 6.00 Build 0)  -->
<!DOCTYPE svg PUBLIC "-//W3C//DTD SVG 1.1//EN" "http://www.w3.org/Graphics/SVG/1.1/DTD/svg11.dtd">
<svg version="1.1" id="Layer_1" xmlns="http://www.w3.org/2000/svg" xmlns:xlink="http://www.w3.org/1999/xlink" x="0px" y="0px"
	 viewBox="0 0 692 252.7" enable-background="new 0 0 692 252.7" xml:space="preserve">
<g>
	<path fill-rule="evenodd" clip-rule="evenodd" fill="#649488" d="M399.9,57.9c0.7-0.4,1.4-0.7,2-0.9c0.7-0.2,1.3-0.4,2.1-0.5
		c0.4,0,0.9-0.1,1.4-0.1c0.2,0,0.3,0,0.5,0c0.7,0,1.4,0.1,2.1,0.3c0.7,0.1,1.4,0.3,2,0.6c0.7,0.3,1.4,0.8,2,1.2
		c0.4,0.3,0.8,0.7,1.2,1.1c0.3,0.3,0.5,0.5,0.8,0.8c0.9,1.2,1.6,2.4,2,3.7c0.1,0.3,0.2,0.7,0.3,1.1c0,0.2,0,0.4,0.1,0.6
		c0,0,0.1,0,0.1-0.1c0.5-0.4,1-0.7,1.5-0.9c0.5-0.1,1.1-0.2,1.6-0.2c0.1,0,0.2,0,0.4,0c0.7,0,1.4,0.2,2.1,0.6
		c0.3,0.2,0.6,0.5,0.9,0.8c0.5,0.5,0.9,1,1.1,1.6c0,0.1,0,0.2,0.1,0.3c0,0,0,0.1,0.1,0.2c0,0,0.1,0,0.1,0c0.4-0.2,0.9-0.3,1.4-0.3
		c0.1,0,0.2,0,0.3,0.1c0.7,0,1.4,0.2,2,0.5c0.5,0.3,1,0.7,1.4,1.1c0.2,0.2,0.4,0.4,0.6,0.6c0.2,0.3,0.4,0.6,0.5,1
		c0.3,0.7,0.5,1.4,0.5,2.2c0,1.2-0.3,2.2-1,3.2c-0.2,0.2-0.4,0.4-0.6,0.6c-0.4,0.5-0.9,0.9-1.4,1.1c-0.6,0.3-1.3,0.4-2,0.5
		c-0.1,0-0.1,0-0.2,0h-31.3c-0.2,0-0.4,0-0.7-0.1c-0.7-0.1-1.4-0.3-2-0.7c-0.5-0.3-0.9-0.6-1.4-1c-0.2-0.2-0.4-0.5-0.6-0.7
		c-0.8-1-1.1-2.2-1.1-3.5c0-1,0.2-1.9,0.6-2.7c0.2-0.3,0.4-0.6,0.6-0.9c0.2-0.3,0.4-0.5,0.6-0.8c0.4-0.4,0.9-0.8,1.4-1
		c0.5-0.3,1-0.5,1.6-0.6c0.1,0,0.3-0.1,0.4-0.1c0.2,0,0.3,0,0.4,0c0.1-1.8,0.6-3.5,1.6-4.9v-0.1c0.4-0.7,1-1.3,1.7-2
		c0.1-0.1,0.3-0.3,0.4-0.4C398.5,58.7,399.2,58.3,399.9,57.9z"/>
</g>
<g>
	<path fill-rule="evenodd" clip-rule="evenodd" fill="#9A9283" d="M388.7,251.8c0,0.4-0.1,0.7-0.2,0.7h-72.9c-0.1,0-0.2-0.2-0.2-0.7
		V94.2h7.8V66.2l18.3-15.6v-4h20.9v4l18.3,15.6v27.9h7.9V251.8z M331.2,68.9c-0.1,0-0.2,0.1-0.2,0.2v8.7c0,0.1,0.1,0.2,0.2,0.2h5.4
		c0,0,0.1-0.1,0.1-0.2V69c0-0.1,0-0.2-0.1-0.2H331.2z M350.7,69.1c-0.1,0-0.2,0-0.2,0.1v8.7c0,0,0.1,0,0.2,0.1h5.2
		c0.1,0,0.1,0,0.1-0.1v-8.7c0-0.1,0-0.1-0.1-0.1H350.7z M347.7,69.1h-5.3c-0.1,0-0.2,0-0.2,0.1v8.7c0,0.1,0.1,0.1,0.2,0.1h5.3
		c0.1,0,0.2,0,0.2-0.1v-8.7C347.9,69.2,347.8,69.1,347.7,69.1z M367.5,68.9c0,0-0.1,0.1-0.1,0.2v8.7c0,0.1,0,0.2,0.1,0.2h5.3
		c0.1,0,0.2-0.1,0.2-0.2V69c0-0.1-0.1-0.2-0.2-0.2H367.5z M372.8,82.8h-5.3c0,0-0.1,0-0.1,0.1v8.7c0,0.1,0,0.2,0.1,0.2h5.3
		c0.1,0,0.2-0.1,0.2-0.2v-8.7C372.9,82.8,372.9,82.8,372.8,82.8z M350.5,83.1v8.7c0,0.1,0.1,0.2,0.2,0.2h5.2c0.1,0,0.1-0.1,0.1-0.2
		v-8.7c0-0.1,0-0.2-0.1-0.2h-5.2C350.5,82.9,350.5,83,350.5,83.1z M342.3,83.1v8.7c0,0.1,0.1,0.2,0.2,0.2h5.3c0.1,0,0.2-0.1,0.2-0.2
		v-8.7c0-0.1-0.1-0.2-0.2-0.2h-5.3C342.4,82.9,342.3,83,342.3,83.1z M359.4,101h-6.2c-0.1,0-0.2,0.1-0.2,0.2v10.3
		c0,0.1,0.1,0.1,0.2,0.1h6.2c0.1,0,0.1,0,0.1-0.1v-10.3C359.5,101.1,359.5,101,359.4,101z M349.7,101h-6.2c-0.1,0-0.2,0.1-0.2,0.2
		v10.3c0,0.1,0.1,0.1,0.2,0.1h6.2c0.1,0,0.2,0,0.2-0.1v-10.3C349.9,101.1,349.9,101,349.7,101z M343.3,117.5v10.2
		c0,0.1,0.1,0.2,0.2,0.2h6.2c0.1,0,0.2-0.1,0.2-0.2v-10.2c0-0.1-0.1-0.2-0.2-0.2h-6.2C343.4,117.3,343.3,117.4,343.3,117.5z
		 M359.5,117.5c0-0.1,0-0.2-0.1-0.2h-6.2c-0.1,0-0.2,0.1-0.2,0.2v10.2c0,0.1,0.1,0.2,0.2,0.2h6.2c0.1,0,0.1-0.1,0.1-0.2V117.5z
		 M373.1,101c-0.1,0-0.2,0.1-0.2,0.2v10.3c0,0.1,0.1,0.1,0.2,0.1h6.1c0.2,0,0.3,0,0.3-0.1v-10.3c0-0.1-0.1-0.2-0.3-0.2H373.1z
		 M372.9,117.5v10.2c0,0.1,0.1,0.2,0.2,0.2h6.1c0.2,0,0.3-0.1,0.3-0.2v-10.2c0-0.1-0.1-0.2-0.3-0.2h-6.1
		C373,117.3,372.9,117.4,372.9,117.5z M324.6,166.5v10.2c0,0.1,0.1,0.2,0.2,0.2h6.2c0.1,0,0.1-0.1,0.1-0.2v-10.2
		c0-0.1,0-0.2-0.1-0.2h-6.2C324.6,166.3,324.6,166.4,324.6,166.5z M324.8,150c-0.1,0-0.2,0.1-0.2,0.2v10.2c0,0.1,0.1,0.2,0.2,0.2
		h6.2c0.1,0,0.1-0.1,0.1-0.2v-10.2c0-0.1,0-0.2-0.1-0.2H324.8z M331.1,133.9c0-0.1,0-0.2-0.1-0.2h-6.2c-0.1,0-0.2,0.1-0.2,0.2v10.2
		c0,0.1,0.1,0.2,0.2,0.2h6.2c0.1,0,0.1-0.1,0.1-0.2V133.9z M324.8,117.3c-0.1,0-0.2,0.1-0.2,0.2v10.2c0,0.1,0.1,0.2,0.2,0.2h6.2
		c0.1,0,0.1-0.1,0.1-0.2v-10.2c0-0.1,0-0.2-0.1-0.2H324.8z M331.1,101.2c0-0.1,0-0.2-0.1-0.2h-6.2c-0.1,0-0.2,0.1-0.2,0.2v10.3
		c0,0.1,0.1,0.1,0.2,0.1h6.2c0.1,0,0.1,0,0.1-0.1V101.2z M336.6,82.9c0-0.1,0-0.1-0.1-0.1h-5.4c-0.1,0-0.2,0-0.2,0.1v8.7
		c0,0.1,0.1,0.2,0.2,0.2h5.4c0,0,0.1-0.1,0.1-0.2V82.9z M379.2,133.7h-6.1c-0.1,0-0.2,0.1-0.2,0.2v10.2c0,0.1,0.1,0.2,0.2,0.2h6.1
		c0.2,0,0.3-0.1,0.3-0.2v-10.2C379.5,133.8,379.4,133.7,379.2,133.7z M372.9,150.2v10.2c0,0.1,0.1,0.2,0.2,0.2h6.1
		c0.2,0,0.3-0.1,0.3-0.2v-10.2c0-0.1-0.1-0.2-0.3-0.2h-6.1C373,150,372.9,150,372.9,150.2z M353,133.9v10.2c0,0.1,0.1,0.2,0.2,0.2
		h6.2c0.1,0,0.1-0.1,0.1-0.2v-10.2c0-0.1,0-0.2-0.1-0.2h-6.2C353.1,133.7,353,133.8,353,133.9z M349.7,133.7h-6.2
		c-0.1,0-0.2,0.1-0.2,0.2v10.2c0,0.1,0.1,0.2,0.2,0.2h6.2c0.1,0,0.2-0.1,0.2-0.2v-10.2C349.9,133.8,349.9,133.7,349.7,133.7z
		 M343.3,150.2v10.2c0,0.1,0.1,0.2,0.2,0.2h6.2c0.1,0,0.2-0.1,0.2-0.2v-10.2c0-0.1-0.1-0.2-0.2-0.2h-6.2
		C343.4,150,343.3,150,343.3,150.2z M359.4,150h-6.2c-0.1,0-0.2,0.1-0.2,0.2v10.2c0,0.1,0.1,0.2,0.2,0.2h6.2c0.1,0,0.1-0.1,0.1-0.2
		v-10.2C359.5,150,359.5,150,359.4,150z M343.3,166.5v10.2c0,0.1,0.1,0.2,0.2,0.2h6.2c0.1,0,0.2-0.1,0.2-0.2v-10.2
		c0-0.1-0.1-0.2-0.2-0.2h-6.2C343.4,166.3,343.3,166.4,343.3,166.5z M353.2,166.3c-0.1,0-0.2,0.1-0.2,0.2v10.2
		c0,0.1,0.1,0.2,0.2,0.2h6.2c0.1,0,0.1-0.1,0.1-0.2v-10.2c0-0.1,0-0.2-0.1-0.2H353.2z M379.2,166.3h-6.1c-0.1,0-0.2,0.1-0.2,0.2
		v10.2c0,0.1,0.1,0.2,0.2,0.2h6.1c0.2,0,0.3-0.1,0.3-0.2v-10.2C379.5,166.4,379.4,166.3,379.2,166.3z M373.1,182.7
		c-0.1,0-0.2,0.1-0.2,0.2V193c0,0.1,0.1,0.2,0.2,0.2h6.1c0.2,0,0.3-0.1,0.3-0.2v-10.2c0-0.1-0.1-0.2-0.3-0.2H373.1z M379.2,199h-6.1
		c-0.1,0-0.2,0-0.2,0.1v10.3c0,0.1,0.1,0.2,0.2,0.2h6.1c0.2,0,0.3-0.1,0.3-0.2v-10.3C379.5,199,379.4,199,379.2,199z M349.7,182.7
		h-6.2c-0.1,0-0.2,0.1-0.2,0.2V193c0,0.1,0.1,0.2,0.2,0.2h6.2c0.1,0,0.2-0.1,0.2-0.2v-10.2C349.9,182.7,349.9,182.7,349.7,182.7z
		 M359.4,182.7h-6.2c-0.1,0-0.2,0.1-0.2,0.2V193c0,0.1,0.1,0.2,0.2,0.2h6.2c0.1,0,0.1-0.1,0.1-0.2v-10.2
		C359.5,182.7,359.5,182.7,359.4,182.7z M343.3,199.1v10.2c0,0.1,0.1,0.2,0.2,0.2h6.2c0.1,0,0.2-0.1,0.2-0.2v-10.2
		c0-0.1-0.1-0.1-0.2-0.1h-6.2C343.4,199,343.3,199,343.3,199.1z M359.4,199h-6.2c-0.1,0-0.2,0-0.2,0.1v10.3c0,0.1,0.1,0.2,0.2,0.2
		h6.2c0.1,0,0.1-0.1,0.1-0.2v-10.3C359.5,199,359.5,199,359.4,199z M341.5,217.2v11.5h17.3c0.8,0,1.1-0.1,1.1-0.2v-11.1
		c0-0.1-0.4-0.2-1.1-0.2H341.5z M332.6,236.3c0-0.1-0.1-0.2-0.2-0.2h-6.9c-0.1,0-0.2,0.1-0.2,0.2V250c0,0.1,0.1,0.2,0.2,0.2h6.9
		c0.1,0,0.2-0.1,0.2-0.2V236.3z M324.8,199c-0.1,0-0.2,0-0.2,0.1v10.3c0,0.1,0.1,0.2,0.2,0.2h6.2c0.1,0,0.1-0.1,0.1-0.2v-10.3
		c0-0.1,0-0.1-0.1-0.1H324.8z M331.1,182.8c0-0.1,0-0.2-0.1-0.2h-6.2c-0.1,0-0.2,0.1-0.2,0.2V193c0,0.1,0.1,0.2,0.2,0.2h6.2
		c0.1,0,0.1-0.1,0.1-0.2V182.8z M378.5,236.1h-6.9c-0.1,0-0.2,0.1-0.2,0.2V250c0,0.1,0.1,0.2,0.2,0.2h6.9c0.1,0,0.1-0.1,0.1-0.2
		v-13.7C378.6,236.1,378.6,236.1,378.5,236.1z M359.6,233h-16.9c-0.3,0-0.4,0.1-0.4,0.2v11c0,0.2,0.1,0.3,0.4,0.3h16.9
		c0.1,0,0.2-0.1,0.2-0.2v-11.1C359.8,233.1,359.7,233,359.6,233z"/>
	<path fill-rule="evenodd" clip-rule="evenodd" fill="#FACE53" d="M331.2,68.9h5.4c0,0,0.1,0.1,0.1,0.2v8.7c0,0.1,0,0.2-0.1,0.2
		h-5.4c-0.1,0-0.2-0.1-0.2-0.2V69C331.1,68.9,331.1,68.9,331.2,68.9z M343.3,117.5c0-0.1,0.1-0.2,0.2-0.2h6.2c0.1,0,0.2,0.1,0.2,0.2
		v10.2c0,0.1-0.1,0.2-0.2,0.2h-6.2c-0.1,0-0.2-0.1-0.2-0.2V117.5z M349.7,101c0.1,0,0.2,0.1,0.2,0.2v10.3c0,0.1-0.1,0.1-0.2,0.1
		h-6.2c-0.1,0-0.2,0-0.2-0.1v-10.3c0-0.1,0.1-0.2,0.2-0.2H349.7z M359.4,101c0.1,0,0.1,0.1,0.1,0.2v10.3c0,0.1,0,0.1-0.1,0.1h-6.2
		c-0.1,0-0.2,0-0.2-0.1v-10.3c0-0.1,0.1-0.2,0.2-0.2H359.4z M342.3,83.1c0-0.1,0.1-0.2,0.2-0.2h5.3c0.1,0,0.2,0.1,0.2,0.2v8.7
		c0,0.1-0.1,0.2-0.2,0.2h-5.3c-0.1,0-0.2-0.1-0.2-0.2V83.1z M350.5,83.1c0-0.1,0.1-0.2,0.2-0.2h5.2c0.1,0,0.1,0.1,0.1,0.2v8.7
		c0,0.1,0,0.2-0.1,0.2h-5.2c-0.1,0-0.2-0.1-0.2-0.2V83.1z M372.8,82.8c0.1,0,0.2,0,0.2,0.1v8.7c0,0.1-0.1,0.2-0.2,0.2h-5.3
		c0,0-0.1-0.1-0.1-0.2v-8.7c0-0.1,0-0.1,0.1-0.1H372.8z M367.5,68.9h5.3c0.1,0,0.2,0.1,0.2,0.2v8.7c0,0.1-0.1,0.2-0.2,0.2h-5.3
		c0,0-0.1-0.1-0.1-0.2V69C367.4,68.9,367.4,68.9,367.5,68.9z M347.7,69.1c0.1,0,0.2,0,0.2,0.1v8.7c0,0.1-0.1,0.1-0.2,0.1h-5.3
		c-0.1,0-0.2,0-0.2-0.1v-8.7c0-0.1,0.1-0.1,0.2-0.1H347.7z M350.7,69.1h5.2c0.1,0,0.1,0,0.1,0.1v8.7c0,0,0,0.1-0.1,0.1h-5.2
		c-0.1,0-0.2,0-0.2-0.1v-8.7C350.5,69.2,350.5,69.1,350.7,69.1z M359.5,117.5v10.2c0,0.1,0,0.2-0.1,0.2h-6.2c-0.1,0-0.2-0.1-0.2-0.2
		v-10.2c0-0.1,0.1-0.2,0.2-0.2h6.2C359.5,117.3,359.5,117.4,359.5,117.5z M372.9,117.5c0-0.1,0.1-0.2,0.2-0.2h6.1
		c0.2,0,0.3,0.1,0.3,0.2v10.2c0,0.1-0.1,0.2-0.3,0.2h-6.1c-0.1,0-0.2-0.1-0.2-0.2V117.5z M373.1,101h6.1c0.2,0,0.3,0.1,0.3,0.2v10.3
		c0,0.1-0.1,0.1-0.3,0.1h-6.1c-0.1,0-0.2,0-0.2-0.1v-10.3C372.9,101.1,373,101,373.1,101z M336.6,82.9v8.7c0,0.1,0,0.2-0.1,0.2h-5.4
		c-0.1,0-0.2-0.1-0.2-0.2v-8.7c0-0.1,0.1-0.1,0.2-0.1h5.4C336.6,82.8,336.6,82.8,336.6,82.9z M331.1,101.2v10.3c0,0.1,0,0.1-0.1,0.1
		h-6.2c-0.1,0-0.2,0-0.2-0.1v-10.3c0-0.1,0.1-0.2,0.2-0.2h6.2C331,101,331.1,101.1,331.1,101.2z M324.8,117.3h6.2
		c0.1,0,0.1,0.1,0.1,0.2v10.2c0,0.1,0,0.2-0.1,0.2h-6.2c-0.1,0-0.2-0.1-0.2-0.2v-10.2C324.6,117.4,324.6,117.3,324.8,117.3z
		 M331.1,133.9v10.2c0,0.1,0,0.2-0.1,0.2h-6.2c-0.1,0-0.2-0.1-0.2-0.2v-10.2c0-0.1,0.1-0.2,0.2-0.2h6.2
		C331,133.7,331.1,133.8,331.1,133.9z M324.8,150h6.2c0.1,0,0.1,0.1,0.1,0.2v10.2c0,0.1,0,0.2-0.1,0.2h-6.2c-0.1,0-0.2-0.1-0.2-0.2
		v-10.2C324.6,150,324.6,150,324.8,150z M324.6,166.5c0-0.1,0.1-0.2,0.2-0.2h6.2c0.1,0,0.1,0.1,0.1,0.2v10.2c0,0.1,0,0.2-0.1,0.2
		h-6.2c-0.1,0-0.2-0.1-0.2-0.2V166.5z M341.5,217.2h17.3c0.8,0,1.1,0.1,1.1,0.2v11.1c0,0.1-0.4,0.2-1.1,0.2h-17.3V217.2z M359.4,199
		c0.1,0,0.1,0,0.1,0.1v10.3c0,0.1,0,0.2-0.1,0.2h-6.2c-0.1,0-0.2-0.1-0.2-0.2v-10.3c0-0.1,0.1-0.1,0.2-0.1H359.4z M343.3,199.1
		c0-0.1,0.1-0.1,0.2-0.1h6.2c0.1,0,0.2,0,0.2,0.1v10.2c0,0.1-0.1,0.2-0.2,0.2h-6.2c-0.1,0-0.2-0.1-0.2-0.2V199.1z M359.4,182.7
		c0.1,0,0.1,0.1,0.1,0.2V193c0,0.1,0,0.2-0.1,0.2h-6.2c-0.1,0-0.2-0.1-0.2-0.2v-10.2c0-0.1,0.1-0.2,0.2-0.2H359.4z M349.7,182.7
		c0.1,0,0.2,0.1,0.2,0.2V193c0,0.1-0.1,0.2-0.2,0.2h-6.2c-0.1,0-0.2-0.1-0.2-0.2v-10.2c0-0.1,0.1-0.2,0.2-0.2H349.7z M379.2,199
		c0.2,0,0.3,0,0.3,0.1v10.3c0,0.1-0.1,0.2-0.3,0.2h-6.1c-0.1,0-0.2-0.1-0.2-0.2v-10.3c0-0.1,0.1-0.1,0.2-0.1H379.2z M373.1,182.7
		h6.1c0.2,0,0.3,0.1,0.3,0.2V193c0,0.1-0.1,0.2-0.3,0.2h-6.1c-0.1,0-0.2-0.1-0.2-0.2v-10.2C372.9,182.7,373,182.7,373.1,182.7z
		 M379.2,166.3c0.2,0,0.3,0.1,0.3,0.2v10.2c0,0.1-0.1,0.2-0.3,0.2h-6.1c-0.1,0-0.2-0.1-0.2-0.2v-10.2c0-0.1,0.1-0.2,0.2-0.2H379.2z
		 M353.2,166.3h6.2c0.1,0,0.1,0.1,0.1,0.2v10.2c0,0.1,0,0.2-0.1,0.2h-6.2c-0.1,0-0.2-0.1-0.2-0.2v-10.2
		C353,166.4,353.1,166.3,353.2,166.3z M343.3,166.5c0-0.1,0.1-0.2,0.2-0.2h6.2c0.1,0,0.2,0.1,0.2,0.2v10.2c0,0.1-0.1,0.2-0.2,0.2
		h-6.2c-0.1,0-0.2-0.1-0.2-0.2V166.5z M359.4,150c0.1,0,0.1,0.1,0.1,0.2v10.2c0,0.1,0,0.2-0.1,0.2h-6.2c-0.1,0-0.2-0.1-0.2-0.2
		v-10.2c0-0.1,0.1-0.2,0.2-0.2H359.4z M343.3,150.2c0-0.1,0.1-0.2,0.2-0.2h6.2c0.1,0,0.2,0.1,0.2,0.2v10.2c0,0.1-0.1,0.2-0.2,0.2
		h-6.2c-0.1,0-0.2-0.1-0.2-0.2V150.2z M349.7,133.7c0.1,0,0.2,0.1,0.2,0.2v10.2c0,0.1-0.1,0.2-0.2,0.2h-6.2c-0.1,0-0.2-0.1-0.2-0.2
		v-10.2c0-0.1,0.1-0.2,0.2-0.2H349.7z M353,133.9c0-0.1,0.1-0.2,0.2-0.2h6.2c0.1,0,0.1,0.1,0.1,0.2v10.2c0,0.1,0,0.2-0.1,0.2h-6.2
		c-0.1,0-0.2-0.1-0.2-0.2V133.9z M372.9,150.2c0-0.1,0.1-0.2,0.2-0.2h6.1c0.2,0,0.3,0.1,0.3,0.2v10.2c0,0.1-0.1,0.2-0.3,0.2h-6.1
		c-0.1,0-0.2-0.1-0.2-0.2V150.2z M379.2,133.7c0.2,0,0.3,0.1,0.3,0.2v10.2c0,0.1-0.1,0.2-0.3,0.2h-6.1c-0.1,0-0.2-0.1-0.2-0.2v-10.2
		c0-0.1,0.1-0.2,0.2-0.2H379.2z M331.1,182.8V193c0,0.1,0,0.2-0.1,0.2h-6.2c-0.1,0-0.2-0.1-0.2-0.2v-10.2c0-0.1,0.1-0.2,0.2-0.2h6.2
		C331,182.7,331.1,182.7,331.1,182.8z M324.8,199h6.2c0.1,0,0.1,0,0.1,0.1v10.3c0,0.1,0,0.2-0.1,0.2h-6.2c-0.1,0-0.2-0.1-0.2-0.2
		v-10.3C324.6,199,324.6,199,324.8,199z M332.6,236.3V250c0,0.1-0.1,0.2-0.2,0.2h-6.9c-0.1,0-0.2-0.1-0.2-0.2v-13.7
		c0-0.1,0.1-0.2,0.2-0.2h6.9C332.5,236.1,332.6,236.1,332.6,236.3z M359.6,233c0.1,0,0.2,0.1,0.2,0.2v11.1c0,0.1-0.1,0.2-0.2,0.2
		h-16.9c-0.3,0-0.4-0.1-0.4-0.3v-11c0-0.1,0.1-0.2,0.4-0.2H359.6z M378.5,236.1c0.1,0,0.1,0.1,0.1,0.2V250c0,0.1,0,0.2-0.1,0.2h-6.9
		c-0.1,0-0.2-0.1-0.2-0.2v-13.7c0-0.1,0.1-0.2,0.2-0.2H378.5z"/>
</g>
<g>
	<polygon fill-rule="evenodd" clip-rule="evenodd" fill="#9A9283" points="466.2,128.2 457.5,137.4 449,128.2 449,126.5 
		447.6,126.5 447.6,124.7 449,122.9 449,90.5 449,90 446.8,90 446.8,88.1 447.5,86.5 447.5,86.2 447.5,53.6 447.5,49.9 447.5,46.9 
		446.8,45.4 446.8,43.5 454,43.5 455.2,43.5 458.9,43.5 462.8,43.5 468.4,43.5 468.4,45.4 467.6,46.9 467.6,49.9 467.6,52 
		467.6,54.8 467.6,82 467.6,86.2 467.6,86.5 468.4,88.1 468.4,90 466.2,90 466.2,90.5 466.2,118.1 466.2,122.9 467.4,124.4 
		467.4,126.5 466.2,126.5 	"/>
</g>
<g>
	<path fill-rule="evenodd" clip-rule="evenodd" fill="#9A9283" d="M555.5,252.3c0,0.4-0.1,0.7-0.2,0.7h-72.8c-0.1,0-0.2-0.2-0.2-0.7
		V94.9h7.8V67l18.3-15.6v-4h20.9v4L547.6,67v27.9h7.9V252.3z M534.3,69.6c0,0-0.1,0.1-0.1,0.2v8.7c0,0.1,0,0.2,0.1,0.2h5.3
		c0.1,0,0.2-0.1,0.2-0.2v-8.7c0-0.1-0.1-0.2-0.2-0.2H534.3z M539.6,83.5h-5.3c0,0-0.1,0-0.1,0.1v8.7c0,0.1,0,0.2,0.1,0.2h5.3
		c0.1,0,0.2-0.1,0.2-0.2v-8.7C539.8,83.6,539.7,83.5,539.6,83.5z M546,101.7h-6.1c-0.1,0-0.2,0.1-0.2,0.2v10.3
		c0,0.1,0.1,0.1,0.2,0.1h6.1c0.2,0,0.3,0,0.3-0.1v-10.3C546.3,101.8,546.2,101.7,546,101.7z M539.9,118c-0.1,0-0.2,0.1-0.2,0.2v10.2
		c0,0.1,0.1,0.2,0.2,0.2h6.1c0.2,0,0.3-0.1,0.3-0.2v-10.2c0-0.1-0.1-0.2-0.3-0.2H539.9z M539.8,134.5v10.2c0,0.1,0.1,0.2,0.2,0.2
		h6.1c0.2,0,0.3-0.1,0.3-0.2v-10.2c0-0.1-0.1-0.2-0.3-0.2h-6.1C539.8,134.4,539.8,134.4,539.8,134.5z M539.9,150.6
		c-0.1,0-0.2,0.1-0.2,0.2V161c0,0.1,0.1,0.2,0.2,0.2h6.1c0.2,0,0.3-0.1,0.3-0.2v-10.2c0-0.1-0.1-0.2-0.3-0.2H539.9z M546.3,167.1
		c0-0.1-0.1-0.2-0.3-0.2h-6.1c-0.1,0-0.2,0.1-0.2,0.2v10.2c0,0.1,0.1,0.2,0.2,0.2h6.1c0.2,0,0.3-0.1,0.3-0.2V167.1z M539.9,183.3
		c-0.1,0-0.2,0.1-0.2,0.2v10.2c0,0.1,0.1,0.2,0.2,0.2h6.1c0.2,0,0.3-0.1,0.3-0.2v-10.2c0-0.1-0.1-0.2-0.3-0.2H539.9z M539.8,199.7
		v10.3c0,0.1,0.1,0.2,0.2,0.2h6.1c0.2,0,0.3-0.1,0.3-0.2v-10.3c0-0.1-0.1-0.1-0.3-0.1h-6.1C539.8,199.6,539.8,199.6,539.8,199.7z
		 M545.3,236.6h-6.9c-0.1,0-0.2,0.1-0.2,0.2v13.7c0,0.1,0.1,0.2,0.2,0.2h6.9c0.1,0,0.1-0.1,0.1-0.2v-13.7
		C545.4,236.7,545.4,236.6,545.3,236.6z"/>
	<path fill-rule="evenodd" clip-rule="evenodd" fill="#FACE53" d="M545.3,236.6c0.1,0,0.1,0.1,0.1,0.2v13.7c0,0.1,0,0.2-0.1,0.2
		h-6.9c-0.1,0-0.2-0.1-0.2-0.2v-13.7c0-0.1,0.1-0.2,0.2-0.2H545.3z M539.8,199.7c0-0.1,0.1-0.1,0.2-0.1h6.1c0.2,0,0.3,0,0.3,0.1
		v10.3c0,0.1-0.1,0.2-0.3,0.2h-6.1c-0.1,0-0.2-0.1-0.2-0.2V199.7z M539.9,183.3h6.1c0.2,0,0.3,0.1,0.3,0.2v10.2
		c0,0.1-0.1,0.2-0.3,0.2h-6.1c-0.1,0-0.2-0.1-0.2-0.2v-10.2C539.8,183.3,539.8,183.3,539.9,183.3z M546.3,167.1v10.2
		c0,0.1-0.1,0.2-0.3,0.2h-6.1c-0.1,0-0.2-0.1-0.2-0.2v-10.2c0-0.1,0.1-0.2,0.2-0.2h6.1C546.2,166.9,546.3,167,546.3,167.1z
		 M539.9,150.6h6.1c0.2,0,0.3,0.1,0.3,0.2V161c0,0.1-0.1,0.2-0.3,0.2h-6.1c-0.1,0-0.2-0.1-0.2-0.2v-10.2
		C539.8,150.7,539.8,150.6,539.9,150.6z M539.8,134.5c0-0.1,0.1-0.2,0.2-0.2h6.1c0.2,0,0.3,0.1,0.3,0.2v10.2c0,0.1-0.1,0.2-0.3,0.2
		h-6.1c-0.1,0-0.2-0.1-0.2-0.2V134.5z M539.9,118h6.1c0.2,0,0.3,0.1,0.3,0.2v10.2c0,0.1-0.1,0.2-0.3,0.2h-6.1
		c-0.1,0-0.2-0.1-0.2-0.2v-10.2C539.8,118.1,539.8,118,539.9,118z M546,101.7c0.2,0,0.3,0.1,0.3,0.2v10.3c0,0.1-0.1,0.1-0.3,0.1
		h-6.1c-0.1,0-0.2,0-0.2-0.1v-10.3c0-0.1,0.1-0.2,0.2-0.2H546z M539.6,83.5c0.1,0,0.2,0,0.2,0.1v8.7c0,0.1-0.1,0.2-0.2,0.2h-5.3
		c0,0-0.1-0.1-0.1-0.2v-8.7c0-0.1,0-0.1,0.1-0.1H539.6z M534.3,69.6h5.3c0.1,0,0.2,0.1,0.2,0.2v8.7c0,0.1-0.1,0.2-0.2,0.2h-5.3
		c0,0-0.1-0.1-0.1-0.2v-8.7C534.2,69.7,534.3,69.6,534.3,69.6z"/>
</g>
<g>
	<path fill-rule="evenodd" clip-rule="evenodd" fill="#FACE53" d="M530.4,83.5c0.1,0,0.2,0,0.2,0.1v8.7c0,0.1-0.1,0.2-0.2,0.2H525
		c0,0-0.1-0.1-0.1-0.2v-8.7c0-0.1,0-0.1,0.1-0.1H530.4z M530.4,69.6c0.1,0,0.2,0.1,0.2,0.2v8.7c0,0.1-0.1,0.2-0.2,0.2H525
		c0,0-0.1-0.1-0.1-0.2v-8.7c0-0.1,0-0.2,0.1-0.2H530.4z"/>
</g>
<g>
	<path fill-rule="evenodd" clip-rule="evenodd" fill="#FACE53" d="M521.1,83.5c0.1,0,0.2,0,0.2,0.1v8.7c0,0.1-0.1,0.2-0.2,0.2h-5.3
		c0,0-0.1-0.1-0.1-0.2v-8.7c0-0.1,0-0.1,0.1-0.1H521.1z M515.8,69.6h5.3c0.1,0,0.2,0.1,0.2,0.2v8.7c0,0.1-0.1,0.2-0.2,0.2h-5.3
		c0,0-0.1-0.1-0.1-0.2v-8.7C515.7,69.7,515.7,69.6,515.8,69.6z"/>
</g>
<g>
	<polygon fill-rule="evenodd" clip-rule="evenodd" fill="#9A9283" points="479.7,31.8 481.1,31.8 481.1,35.3 479.7,38.7 479.7,99.7 
		479.7,100.5 482,100.5 482,104.1 481.2,107.1 481.2,107.7 481.2,169.2 481.2,176.1 481.2,181.8 482,184.7 482,188.2 474.7,188.2 
		473.6,188.2 469.9,188.2 465.9,188.2 460.4,188.2 460.4,184.7 461.2,181.7 461.2,176.1 461.2,172.2 461.2,166.9 461.2,115.7 
		461.2,107.7 461.2,107.1 460.4,104.1 460.4,100.5 462.6,100.5 462.6,99.7 462.6,47.6 462.6,38.6 461.4,35.7 461.4,31.8 462.6,31.8 
		462.6,28.7 471.2,11.3 479.7,28.7 	"/>
</g>
<g>
	<polygon fill-rule="evenodd" clip-rule="evenodd" fill="#9A9283" points="434.6,31.8 435.7,31.8 435.7,28.7 444.4,11.3 453,28.7 
		453,31.8 454.3,31.8 454.4,35.3 453,38.7 453,99.7 453,100.5 455.2,100.5 455.2,104.1 454.4,107.1 454.4,107.7 454.4,169.1 
		454.4,176.1 454.4,181.8 455.2,184.7 455.2,188.2 447.9,188.2 446.8,188.2 443.1,188.2 439.1,188.2 433.6,188.2 433.6,184.7 
		434.4,181.7 434.4,176.1 434.4,172.2 434.4,166.9 434.4,115.7 434.4,107.7 434.4,107.1 433.6,104.1 433.6,100.5 435.7,100.5 
		435.7,99.7 435.7,47.6 435.7,38.6 434.6,35.7 	"/>
</g>
<g>
	<path fill-rule="evenodd" clip-rule="evenodd" fill="#9A9283" d="M174.7,105.5l12.2,10.4v20.5h5.8v115.7c0,0.3-0.1,0.5-0.2,0.5
		h-53.5c-0.1,0-0.2-0.2-0.2-0.5V136.4h5.8v-20.5l12.2-10.4H174.7z"/>
</g>
<path fill-rule="evenodd" clip-rule="evenodd" fill="#9A9283" d="M147.3,85.3h-17.8V92h17.8V85.3z M147.3,116h-17.8v6.7h17.8V116z
	 M147.3,100.9h-17.8v6.7h17.8V100.9z M147.3,131.6h-17.8v6.7h17.8V131.6z M147.3,162.7h-17.8v6.6h17.8V162.7z M147.3,147.1h-17.8
	v6.6h17.8V147.1z M117.3,85.3V92h10v-6.7H117.3z M150.2,78h-38.4c-0.5,0-0.8,0.2-0.8,0.5v2.9c0,0.3,0.3,0.5,0.8,0.5h38.4v11.5h-38.4
	c-0.5,0-0.8,0.2-0.8,0.5v2.9c0,0.3,0.3,0.5,0.8,0.5h38.4v11.5h-38.4c-0.5,0-0.8,0.2-0.8,0.5v2.9c0,0.3,0.3,0.5,0.8,0.5h38.4v11.5
	h-38.4c-0.5,0-0.8,0.2-0.8,0.5v2.9c0,0.3,0.3,0.5,0.8,0.5h38.4v11.6h-38.4c-0.5,0-0.8,0.2-0.8,0.5v2.9c0,0.3,0.3,0.5,0.8,0.5h38.4
	v11.5h-38.4c-0.5,0-0.8,0.2-0.8,0.5v2.9c0,0.3,0.3,0.5,0.8,0.5h38.4v11.5h-38.4c-0.5,0-0.8,0.2-0.8,0.5v2.9c0,0.3,0.3,0.5,0.8,0.5
	h38.4V186h-38.4c-0.5,0-0.8,0.2-0.8,0.5v2.9c0,0.3,0.3,0.5,0.8,0.5h38.4v2.3h5.5v6h-5.5v20.2c0,0.3-0.2,0.5-0.5,0.5h-36.4H98.4V216
	H111c0.2,0,0.3-0.1,0.3-0.3v-14c0-0.1-0.1-0.2-0.3-0.2H98.4V32.7l51.8,14.1v15.7h-38.4c-0.5,0-0.8,0.2-0.8,0.5v2.9
	c0,0.3,0.3,0.5,0.8,0.5h38.4V78z M127.3,100.9h-10v6.7h10V100.9z M117.3,122.7h10V116h-10V122.7z M127.3,131.6h-10v6.7h10V131.6z
	 M117.3,147.1v6.6h10v-6.6H117.3z M127.3,169.4v-6.6h-10v6.6H127.3z M129.5,184.6h17.8V178h-17.8V184.6z M127.3,178h-10v6.6h10V178z
	 M127.3,54.2h-10v6.7h10V54.2z M129.5,60.9h17.8v-6.7h-17.8V60.9z M117.3,69.9v6.6h10v-6.6H117.3z M129.5,69.9v6.6h17.8v-6.6H129.5z
	"/>
<path fill-rule="evenodd" clip-rule="evenodd" fill="#FFF22D" d="M150.2,62.5h4.3c0.5,0,0.8,0.2,0.8,0.5v2.9c0,0.3-0.3,0.5-0.8,0.5
	h-4.3h-38.4c-0.5,0-0.8-0.2-0.8-0.5V63c0-0.3,0.3-0.5,0.8-0.5H150.2z M117.3,69.9h10v6.6h-10V69.9z M129.5,60.9v-6.7h17.8v6.7H129.5
	z M127.3,54.2v6.7h-10v-6.7H127.3z M129.5,69.9h17.8v6.6h-17.8V69.9z M150.2,78h4.3c0.5,0,0.8,0.2,0.8,0.5v2.9
	c0,0.3-0.3,0.5-0.8,0.5h-4.3h-38.4c-0.5,0-0.8-0.2-0.8-0.5v-2.9c0-0.3,0.3-0.5,0.8-0.5H150.2z M150.2,93.4h4.3
	c0.5,0,0.8,0.2,0.8,0.5v2.9c0,0.3-0.3,0.5-0.8,0.5h-4.3h-38.4c-0.5,0-0.8-0.2-0.8-0.5v-2.9c0-0.3,0.3-0.5,0.8-0.5H150.2z
	 M150.2,108.8h4.3c0.5,0,0.8,0.2,0.8,0.5v2.9c0,0.3-0.3,0.5-0.8,0.5h-4.3h-38.4c-0.5,0-0.8-0.2-0.8-0.5v-2.9c0-0.3,0.3-0.5,0.8-0.5
	H150.2z M150.2,124.2h4.3c0.5,0,0.8,0.2,0.8,0.5v2.9c0,0.3-0.3,0.5-0.8,0.5h-4.3h-38.4c-0.5,0-0.8-0.2-0.8-0.5v-2.9
	c0-0.3,0.3-0.5,0.8-0.5H150.2z M150.2,139.7h4.3c0.5,0,0.8,0.2,0.8,0.5v2.9c0,0.3-0.3,0.5-0.8,0.5h-4.3h-38.4
	c-0.5,0-0.8-0.2-0.8-0.5v-2.9c0-0.3,0.3-0.5,0.8-0.5H150.2z M150.2,155.1h4.3c0.5,0,0.8,0.2,0.8,0.5v2.9c0,0.3-0.3,0.5-0.8,0.5h-4.3
	h-38.4c-0.5,0-0.8-0.2-0.8-0.5v-2.9c0-0.3,0.3-0.5,0.8-0.5H150.2z M150.2,170.5h4.3c0.5,0,0.8,0.2,0.8,0.5v2.9
	c0,0.3-0.3,0.5-0.8,0.5h-4.3h-38.4c-0.5,0-0.8-0.2-0.8-0.5v-2.9c0-0.3,0.3-0.5,0.8-0.5H150.2z M150.2,186h4.3c0.5,0,0.8,0.2,0.8,0.5
	v2.9c0,0.3-0.3,0.5-0.8,0.5h-4.3h-38.4c-0.5,0-0.8-0.2-0.8-0.5v-2.9c0-0.3,0.3-0.5,0.8-0.5H150.2z M127.3,178v6.6h-10V178H127.3z
	 M129.5,184.6V178h17.8v6.6H129.5z M127.3,169.4h-10v-6.6h10V169.4z M117.3,147.1h10v6.6h-10V147.1z M127.3,131.6v6.7h-10v-6.7
	H127.3z M117.3,122.7V116h10v6.7H117.3z M127.3,100.9v6.7h-10v-6.7H127.3z M117.3,85.3h10V92h-10V85.3z M147.3,147.1v6.6h-17.8v-6.6
	H147.3z M147.3,162.7v6.6h-17.8v-6.6H147.3z M147.3,131.6v6.7h-17.8v-6.7H147.3z M147.3,100.9v6.7h-17.8v-6.7H147.3z M147.3,116v6.7
	h-17.8V116H147.3z M147.3,85.3V92h-17.8v-6.7H147.3z M98.4,201.6H111c0.2,0,0.3,0.1,0.3,0.2v14c0,0.2-0.1,0.3-0.3,0.3H98.4V201.6z"
	/>
<g>
	<polygon fill-rule="evenodd" clip-rule="evenodd" fill="#9A9283" points="52.7,93 78.1,75.7 103,93 103,96.2 107,96.2 107.1,99.7 
		103,103 103,164.1 103,164.9 109.6,164.9 109.6,168.5 107.2,171.5 107.2,172.1 107.2,233.5 107.2,240.4 107.2,246.1 109.6,249.1 
		109.6,252.6 88.3,252.6 84.9,252.6 74.1,252.6 62.5,252.6 46.3,252.6 46.3,249.1 48.7,246.1 48.7,240.4 48.7,236.6 48.7,231.3 
		48.7,180.1 48.7,172.1 48.7,171.5 46.3,168.5 46.3,164.9 52.7,164.9 52.7,164.1 52.7,112 52.7,103 49.3,100.1 49.3,96.2 52.7,96.2 
			"/>
</g>
<path fill-rule="evenodd" clip-rule="evenodd" fill="#9A9283" d="M386.1,223.9h38.4c0.5,0,0.8-0.2,0.8-0.5v-2.9
	c0-0.3-0.3-0.5-0.8-0.5h-38.4v-11.5h38.4c0.5,0,0.8-0.2,0.8-0.5v-2.9c0-0.3-0.3-0.5-0.8-0.5h-38.4V193h38.4c0.5,0,0.8-0.2,0.8-0.5
	v-2.9c0-0.3-0.3-0.5-0.8-0.5h-38.4v-11.5h38.4c0.5,0,0.8-0.2,0.8-0.5v-2.9c0-0.3-0.3-0.5-0.8-0.5h-38.4v-11.6h38.4
	c0.5,0,0.8-0.2,0.8-0.5v-2.9c0-0.3-0.3-0.5-0.8-0.5h-38.4v-11.5h38.4c0.5,0,0.8-0.2,0.8-0.5v-2.9c0-0.3-0.3-0.5-0.8-0.5h-38.4v-11.5
	h38.4c0.5,0,0.8-0.2,0.8-0.5v-2.9c0-0.3-0.3-0.5-0.8-0.5h-38.4v-11.5h38.4c0.5,0,0.8-0.2,0.8-0.5v-2.9c0-0.3-0.3-0.5-0.8-0.5h-38.4
	v-11.5h38.4c0.5,0,0.8-0.2,0.8-0.5V97c0-0.3-0.3-0.5-0.8-0.5h-38.4V80.8l55.1-18.3h22.1l0.1,0.1c2.8,0,4.2,0.2,4.2,0.4v21v137.1v5.1
	v6v20.2c0,0.3-2,0.5-6,0.5h-20.4H423h-36.4c-0.3,0-0.5-0.2-0.5-0.5v-20.2h-5.5v-6h5.5V223.9z M465.5,89.2c0-0.3-0.1-0.5-0.4-0.5
	h-19.5c-0.2,0-0.4,0.2-0.4,0.5v2.9c0,0.3,0.1,0.5,0.4,0.5h19.5c0.3,0,0.4-0.2,0.4-0.5V89.2z M431.4,88c0,0-0.1,0.2-0.1,0.5v2.9
	c0,0.3,0,0.5,0.1,0.5h4.4c0.1,0,0.1-0.2,0.1-0.5v-2.9c0-0.3,0-0.5-0.1-0.5H431.4z M445.2,104.5v2.9c0,0.3,0.1,0.5,0.4,0.5H465
	c0.3,0,0.4-0.2,0.4-0.5v-2.9c0-0.3-0.1-0.5-0.4-0.5h-19.5C445.3,104,445.2,104.2,445.2,104.5z M431.4,103.4c0,0-0.1,0.2-0.1,0.5v2.9
	c0,0.3,0,0.5,0.1,0.5h4.4c0.1,0,0.1-0.2,0.1-0.5v-2.9c0-0.3,0-0.5-0.1-0.5H431.4z M435.8,118.8h-4.4c0,0-0.1,0.2-0.1,0.5v2.9
	c0,0.3,0,0.5,0.1,0.5h4.4c0.1,0,0.1-0.2,0.1-0.5v-2.9C435.9,119,435.8,118.8,435.8,118.8z M445.2,120v2.9c0,0.3,0.1,0.5,0.4,0.5H465
	c0.3,0,0.4-0.2,0.4-0.5V120c0-0.3-0.1-0.5-0.4-0.5h-19.5C445.3,119.5,445.2,119.6,445.2,120z M388.9,150v6.7h17.8V150H388.9z
	 M409,165.6v6.7h9.9v-6.7H409z M388.9,165.6v6.7h17.8v-6.7H388.9z M406.8,141.6V135h-17.8v6.7H406.8z M418.9,150H409v6.7h9.9V150z
	 M418.9,135H409v6.7h9.9V135z M409,119.4v6.7h9.9v-6.7H409z M418.9,110.5v-6.6H409v6.6H418.9z M388.9,119.4v6.7h17.8v-6.7H388.9z
	 M388.9,103.9v6.6h17.8v-6.6H388.9z M406.8,94.9v-6.7h-17.8v6.7H406.8z M418.9,94.9v-6.7H409v6.7H418.9z M465.4,135.4
	c0-0.3-0.1-0.5-0.4-0.5h-19.5c-0.2,0-0.4,0.2-0.4,0.5v2.9c0,0.3,0.1,0.5,0.4,0.5H465c0.3,0,0.4-0.2,0.4-0.5V135.4z M465,150.3h-19.5
	c-0.2,0-0.4,0.2-0.4,0.5v2.9c0,0.3,0.1,0.5,0.4,0.5H465c0.3,0,0.4-0.2,0.4-0.5v-2.9C465.4,150.5,465.3,150.3,465,150.3z
	 M435.8,138.1c0.1,0,0.1-0.2,0.1-0.5v-2.9c0-0.3,0-0.5-0.1-0.5h-4.4c0,0-0.1,0.2-0.1,0.5v2.9c0,0.3,0,0.5,0.1,0.5H435.8z
	 M431.3,150.2v2.9c0,0.3,0,0.5,0.1,0.5h4.4c0.1,0,0.1-0.2,0.1-0.5v-2.9c0-0.3,0-0.5-0.1-0.5h-4.4
	C431.4,149.7,431.3,149.8,431.3,150.2z M431.3,165.6v2.9c0,0.3,0,0.5,0.1,0.5h4.4c0.1,0,0.1-0.2,0.1-0.5v-2.9c0-0.3,0-0.5-0.1-0.5
	h-4.4C431.4,165.1,431.3,165.3,431.3,165.6z M445.2,169.3c0,0.3,0.1,0.5,0.4,0.5H465c0.3,0,0.4-0.2,0.4-0.5v-2.9
	c0-0.3-0.1-0.5-0.4-0.5h-19.5c-0.2,0-0.4,0.2-0.4,0.5V169.3z M465.4,181.8c0-0.3-0.1-0.5-0.4-0.5h-19.5c-0.2,0-0.4,0.2-0.4,0.5v2.9
	c0,0.3,0.1,0.5,0.4,0.5H465c0.3,0,0.4-0.2,0.4-0.5V181.8z M465.4,200.1v-2.9c0-0.3-0.1-0.5-0.4-0.5h-19.5c-0.2,0-0.4,0.2-0.4,0.5
	v2.9c0,0.3,0.1,0.5,0.4,0.5H465C465.3,200.7,465.4,200.5,465.4,200.1z M435.8,184.5c0.1,0,0.1-0.2,0.1-0.5v-2.9c0-0.3,0-0.5-0.1-0.5
	h-4.4c0,0-0.1,0.2-0.1,0.5v2.9c0,0.3,0,0.5,0.1,0.5H435.8z M435.8,199.9c0.1,0,0.1-0.2,0.1-0.5v-2.9c0-0.3,0-0.5-0.1-0.5h-4.4
	c0,0-0.1,0.2-0.1,0.5v2.9c0,0.3,0,0.5,0.1,0.5H435.8z M445.2,212.7v2.9c0,0.3,0.1,0.5,0.4,0.5H465c0.3,0,0.4-0.2,0.4-0.5v-2.9
	c0-0.3-0.1-0.5-0.4-0.5h-19.5C445.3,212.2,445.2,212.4,445.2,212.7z M435.8,211.4h-4.4c0,0-0.1,0.2-0.1,0.5v2.9c0,0.3,0,0.5,0.1,0.5
	h4.4c0.1,0,0.1-0.2,0.1-0.5v-2.9C435.9,211.6,435.8,211.4,435.8,211.4z M388.9,203.4h17.8v-6.7h-17.8V203.4z M418.9,212H409v6.6h9.9
	V212z M388.9,212v6.6h17.8V212H388.9z M418.9,196.7H409v6.7h9.9V196.7z M406.8,187.7v-6.6h-17.8v6.6H406.8z M418.9,187.7v-6.6H409
	v6.6H418.9z M425,235.8v14c0,0.2,0.1,0.3,0.3,0.3h10.6c0.2,0,0.3-0.1,0.3-0.3v-14c0-0.1-0.1-0.2-0.3-0.2h-10.6
	C425,235.6,425,235.7,425,235.8z M421.9,235.6H408c-0.2,0-0.4,0.1-0.4,0.2v9.2c0,0.1,0.1,0.2,0.4,0.2h13.9c0.2,0,0.4-0.1,0.4-0.2
	v-9.2C422.2,235.7,422.1,235.6,421.9,235.6z M404.7,235.8c0-0.1-0.1-0.2-0.4-0.2h-13.9c-0.3,0-0.4,0.1-0.4,0.2v9.2
	c0,0.1,0.1,0.2,0.4,0.2h13.9c0.2,0,0.4-0.1,0.4-0.2V235.8z"/>
<path fill-rule="evenodd" clip-rule="evenodd" fill="#FFF35D" d="M386.1,96.5h38.4c0.5,0,0.8,0.2,0.8,0.5v2.9c0,0.3-0.3,0.5-0.8,0.5
	h-38.4h-4.3c-0.5,0-0.8-0.2-0.8-0.5V97c0-0.3,0.3-0.5,0.8-0.5H386.1z M386.1,204.6h38.4c0.5,0,0.8,0.2,0.8,0.5v2.9
	c0,0.3-0.3,0.5-0.8,0.5h-38.4h-4.3c-0.5,0-0.8-0.2-0.8-0.5v-2.9c0-0.3,0.3-0.5,0.8-0.5H386.1z M386.1,223.9h-4.3
	c-0.5,0-0.8-0.2-0.8-0.5v-2.9c0-0.3,0.3-0.5,0.8-0.5h4.3h38.4c0.5,0,0.8,0.2,0.8,0.5v2.9c0,0.3-0.3,0.5-0.8,0.5H386.1z M386.1,193
	h-4.3c-0.5,0-0.8-0.2-0.8-0.5v-2.9c0-0.3,0.3-0.5,0.8-0.5h4.3h38.4c0.5,0,0.8,0.2,0.8,0.5v2.9c0,0.3-0.3,0.5-0.8,0.5H386.1z
	 M386.1,162.1h-4.3c-0.5,0-0.8-0.2-0.8-0.5v-2.9c0-0.3,0.3-0.5,0.8-0.5h4.3h38.4c0.5,0,0.8,0.2,0.8,0.5v2.9c0,0.3-0.3,0.5-0.8,0.5
	H386.1z M386.1,177.6h-4.3c-0.5,0-0.8-0.2-0.8-0.5v-2.9c0-0.3,0.3-0.5,0.8-0.5h4.3h38.4c0.5,0,0.8,0.2,0.8,0.5v2.9
	c0,0.3-0.3,0.5-0.8,0.5H386.1z M386.1,146.7h-4.3c-0.5,0-0.8-0.2-0.8-0.5v-2.9c0-0.3,0.3-0.5,0.8-0.5h4.3h38.4
	c0.5,0,0.8,0.2,0.8,0.5v2.9c0,0.3-0.3,0.5-0.8,0.5H386.1z M386.1,131.3h-4.3c-0.5,0-0.8-0.2-0.8-0.5v-2.9c0-0.3,0.3-0.5,0.8-0.5h4.3
	h38.4c0.5,0,0.8,0.2,0.8,0.5v2.9c0,0.3-0.3,0.5-0.8,0.5H386.1z M386.1,115.8h-4.3c-0.5,0-0.8-0.2-0.8-0.5v-2.9
	c0-0.3,0.3-0.5,0.8-0.5h4.3h38.4c0.5,0,0.8,0.2,0.8,0.5v2.9c0,0.3-0.3,0.5-0.8,0.5H386.1z M445.2,120c0-0.3,0.1-0.5,0.4-0.5H465
	c0.3,0,0.4,0.2,0.4,0.5v2.9c0,0.3-0.1,0.5-0.4,0.5h-19.5c-0.2,0-0.4-0.2-0.4-0.5V120z M435.8,118.8c0.1,0,0.1,0.2,0.1,0.5v2.9
	c0,0.3,0,0.5-0.1,0.5h-4.4c0,0-0.1-0.2-0.1-0.5v-2.9c0-0.3,0-0.5,0.1-0.5H435.8z M431.4,103.4h4.4c0.1,0,0.1,0.2,0.1,0.5v2.9
	c0,0.3,0,0.5-0.1,0.5h-4.4c0,0-0.1-0.2-0.1-0.5v-2.9C431.3,103.5,431.4,103.4,431.4,103.4z M445.2,104.5c0-0.3,0.1-0.5,0.4-0.5H465
	c0.3,0,0.4,0.2,0.4,0.5v2.9c0,0.3-0.1,0.5-0.4,0.5h-19.5c-0.2,0-0.4-0.2-0.4-0.5V104.5z M431.4,88h4.4c0.1,0,0.1,0.2,0.1,0.5v2.9
	c0,0.3,0,0.5-0.1,0.5h-4.4c0,0-0.1-0.2-0.1-0.5v-2.9C431.3,88.1,431.4,88,431.4,88z M465.5,89.2v2.9c0,0.3-0.1,0.5-0.4,0.5h-19.5
	c-0.2,0-0.4-0.2-0.4-0.5v-2.9c0-0.3,0.1-0.5,0.4-0.5h19.5C465.4,88.7,465.5,88.9,465.5,89.2z M418.9,94.9H409v-6.7h9.9V94.9z
	 M406.8,94.9h-17.8v-6.7h17.8V94.9z M388.9,103.9h17.8v6.6h-17.8V103.9z M388.9,119.4h17.8v6.7h-17.8V119.4z M418.9,110.5H409v-6.6
	h9.9V110.5z M409,119.4h9.9v6.7H409V119.4z M418.9,135v6.7H409V135H418.9z M418.9,150v6.7H409V150H418.9z M406.8,141.6h-17.8V135
	h17.8V141.6z M388.9,165.6h17.8v6.7h-17.8V165.6z M409,165.6h9.9v6.7H409V165.6z M388.9,150h17.8v6.7h-17.8V150z M435.8,211.4
	c0.1,0,0.1,0.2,0.1,0.5v2.9c0,0.3,0,0.5-0.1,0.5h-4.4c0,0-0.1-0.2-0.1-0.5v-2.9c0-0.3,0-0.5,0.1-0.5H435.8z M445.2,212.7
	c0-0.3,0.1-0.5,0.4-0.5H465c0.3,0,0.4,0.2,0.4,0.5v2.9c0,0.3-0.1,0.5-0.4,0.5h-19.5c-0.2,0-0.4-0.2-0.4-0.5V212.7z M435.8,199.9
	h-4.4c0,0-0.1-0.2-0.1-0.5v-2.9c0-0.3,0-0.5,0.1-0.5h4.4c0.1,0,0.1,0.2,0.1,0.5v2.9C435.9,199.7,435.8,199.9,435.8,199.9z
	 M435.8,184.5h-4.4c0,0-0.1-0.2-0.1-0.5v-2.9c0-0.3,0-0.5,0.1-0.5h4.4c0.1,0,0.1,0.2,0.1,0.5v2.9
	C435.9,184.3,435.8,184.5,435.8,184.5z M465.4,200.1c0,0.3-0.1,0.5-0.4,0.5h-19.5c-0.2,0-0.4-0.2-0.4-0.5v-2.9
	c0-0.3,0.1-0.5,0.4-0.5H465c0.3,0,0.4,0.2,0.4,0.5V200.1z M465.4,181.8v2.9c0,0.3-0.1,0.5-0.4,0.5h-19.5c-0.2,0-0.4-0.2-0.4-0.5
	v-2.9c0-0.3,0.1-0.5,0.4-0.5H465C465.3,181.3,465.4,181.5,465.4,181.8z M445.2,169.3v-2.9c0-0.3,0.1-0.5,0.4-0.5H465
	c0.3,0,0.4,0.2,0.4,0.5v2.9c0,0.3-0.1,0.5-0.4,0.5h-19.5C445.3,169.8,445.2,169.6,445.2,169.3z M431.3,165.6c0-0.3,0-0.5,0.1-0.5
	h4.4c0.1,0,0.1,0.2,0.1,0.5v2.9c0,0.3,0,0.5-0.1,0.5h-4.4c0,0-0.1-0.2-0.1-0.5V165.6z M431.3,150.2c0-0.3,0-0.5,0.1-0.5h4.4
	c0.1,0,0.1,0.2,0.1,0.5v2.9c0,0.3,0,0.5-0.1,0.5h-4.4c0,0-0.1-0.2-0.1-0.5V150.2z M435.8,138.1h-4.4c0,0-0.1-0.2-0.1-0.5v-2.9
	c0-0.3,0-0.5,0.1-0.5h4.4c0.1,0,0.1,0.2,0.1,0.5v2.9C435.9,138,435.8,138.1,435.8,138.1z M465,150.3c0.3,0,0.4,0.2,0.4,0.5v2.9
	c0,0.3-0.1,0.5-0.4,0.5h-19.5c-0.2,0-0.4-0.2-0.4-0.5v-2.9c0-0.3,0.1-0.5,0.4-0.5H465z M465.4,135.4v2.9c0,0.3-0.1,0.5-0.4,0.5
	h-19.5c-0.2,0-0.4-0.2-0.4-0.5v-2.9c0-0.3,0.1-0.5,0.4-0.5H465C465.3,134.9,465.4,135.1,465.4,135.4z M418.9,187.7H409v-6.6h9.9
	V187.7z M406.8,187.7h-17.8v-6.6h17.8V187.7z M418.9,196.7v6.7H409v-6.7H418.9z M388.9,212h17.8v6.6h-17.8V212z M418.9,212v6.6H409
	V212H418.9z M388.9,203.4v-6.7h17.8v6.7H388.9z M404.7,235.8v9.2c0,0.1-0.1,0.2-0.4,0.2h-13.9c-0.3,0-0.4-0.1-0.4-0.2v-9.2
	c0-0.1,0.1-0.2,0.4-0.2h13.9C404.6,235.6,404.7,235.7,404.7,235.8z M421.9,235.6c0.2,0,0.4,0.1,0.4,0.2v9.2c0,0.1-0.1,0.2-0.4,0.2
	H408c-0.2,0-0.4-0.1-0.4-0.2v-9.2c0-0.1,0.1-0.2,0.4-0.2H421.9z M425,235.8c0-0.1,0.1-0.2,0.3-0.2h10.6c0.2,0,0.3,0.1,0.3,0.2v14
	c0,0.2-0.1,0.3-0.3,0.3h-10.6c-0.2,0-0.3-0.1-0.3-0.3V235.8z"/>
<path fill-rule="evenodd" clip-rule="evenodd" fill="#645649" d="M61,252.3c-0.1,0-0.2-0.2-0.2-0.6v-39.3V95.9h-4V68.3l-6.5-15.5
	h-5.8v-3.9h10.6v3.9h5l18.1,15.5v27.6H86v155.8c0,0.4-0.1,0.6-0.2,0.6H61z"/>
<path fill-rule="evenodd" clip-rule="evenodd" fill="#649488" d="M56.9,68.3H8.7l19.6-15.5h5.6h10.6h5.8L56.9,68.3z M8.7,95.9h48.2
	h4v116.5H4.1V95.9H8.7z"/>
<path fill-rule="evenodd" clip-rule="evenodd" fill="#7BB6A7" d="M44.5,52.8H33.9v-3.9h10.6V52.8z M8.7,68.3h48.2v27.6H8.7V68.3z
	 M61,252.3H0v-39.9h4.1h56.7v39.3C60.8,252.1,60.9,252.3,61,252.3z"/>
<g>
	<path fill-rule="evenodd" clip-rule="evenodd" fill="#A1A244" d="M76.8,199.6c0.1,0,0.2,0.1,0.2,0.2v10.1c0,0.1-0.1,0.2-0.2,0.2
		h-6.1c-0.1,0-0.2-0.1-0.2-0.2v-10.1c0-0.1,0.1-0.2,0.2-0.2H76.8z"/>
</g>
<g>
	<path fill-rule="evenodd" clip-rule="evenodd" fill="#A1A244" d="M70.7,183.5h6.1c0.1,0,0.2,0.1,0.2,0.2v10.1
		c0,0.1-0.1,0.2-0.2,0.2h-6.1c-0.1,0-0.2-0.1-0.2-0.2v-10.1C70.5,183.6,70.6,183.5,70.7,183.5z"/>
</g>
<g>
	<path fill-rule="evenodd" clip-rule="evenodd" fill="#A1A244" d="M70.5,177.6v-10.1c0-0.1,0.1-0.2,0.2-0.2h6.1
		c0.1,0,0.2,0.1,0.2,0.2v10.1c0,0.1-0.1,0.2-0.2,0.2h-6.1C70.6,177.8,70.5,177.7,70.5,177.6z"/>
</g>
<g>
	<path fill-rule="evenodd" clip-rule="evenodd" fill="#A1A244" d="M70.7,161.7c-0.1,0-0.2-0.1-0.2-0.2v-10.1c0-0.1,0.1-0.2,0.2-0.2
		h6.1c0.1,0,0.2,0.1,0.2,0.2v10.1c0,0.1-0.1,0.2-0.2,0.2H70.7z"/>
</g>
<g>
	<path fill-rule="evenodd" clip-rule="evenodd" fill="#A1A244" d="M76.8,135.1c0.1,0,0.2,0.1,0.2,0.2v10.1c0,0.1-0.1,0.2-0.2,0.2
		h-6.1c-0.1,0-0.2-0.1-0.2-0.2v-10.1c0-0.1,0.1-0.2,0.2-0.2H76.8z"/>
</g>
<g>
	<path fill-rule="evenodd" clip-rule="evenodd" fill="#A1A244" d="M70.5,129.2v-10.1c0-0.1,0.1-0.2,0.2-0.2h6.1
		c0.1,0,0.2,0.1,0.2,0.2v10.1c0,0.1-0.1,0.2-0.2,0.2h-6.1C70.6,129.4,70.5,129.3,70.5,129.2z"/>
</g>
<g>
	<path fill-rule="evenodd" clip-rule="evenodd" fill="#A1A244" d="M70.7,113.3c-0.1,0-0.2-0.1-0.2-0.2V103c0-0.1,0.1-0.2,0.2-0.2
		h6.1c0.1,0,0.2,0.1,0.2,0.2v10.1c0,0.1-0.1,0.2-0.2,0.2H70.7z"/>
</g>
<g>
	<path fill-rule="evenodd" clip-rule="evenodd" fill="#A1A244" d="M65.1,84.7h5.2c0.1,0,0.1,0,0.1,0.1v8.6c0,0.1,0,0.1-0.1,0.1h-5.2
		c-0.1,0-0.1,0-0.1-0.1v-8.6C65,84.7,65,84.7,65.1,84.7z"/>
</g>
<g>
	<path fill-rule="evenodd" clip-rule="evenodd" fill="#A1A244" d="M65.1,79.8c-0.1,0-0.1,0-0.1-0.1v-8.6c0-0.1,0-0.1,0.1-0.1h5.2
		c0.1,0,0.1,0,0.1,0.1v8.6c0,0.1,0,0.1-0.1,0.1H65.1z"/>
</g>
<path fill-rule="evenodd" clip-rule="evenodd" fill="#FACE53" d="M36.7,233.2c0.2,0,0.4,0.1,0.4,0.3V250c0,0.2-0.1,0.3-0.4,0.3H24.2
	c-0.2,0-0.3-0.1-0.3-0.3v-16.5c0-0.2,0.1-0.3,0.3-0.3H36.7z"/>
<path fill-rule="evenodd" clip-rule="evenodd" fill="#FACE53" d="M40.3,233.4c0-0.1,0.1-0.2,0.4-0.2h16.7c0.1,0,0.2,0.1,0.2,0.2v11
	c0,0.1-0.1,0.2-0.2,0.2H40.7c-0.2,0-0.4-0.1-0.4-0.2V233.4z"/>
<path fill-rule="evenodd" clip-rule="evenodd" fill="#FACE53" d="M13.6,199.6c0.1,0,0.2,0.1,0.2,0.2v10.1c0,0.1-0.1,0.2-0.2,0.2H7.5
	c-0.1,0-0.2-0.1-0.2-0.2v-10.1c0-0.1,0.1-0.2,0.2-0.2H13.6z"/>
<path fill-rule="evenodd" clip-rule="evenodd" fill="#FACE53" d="M23.1,199.6c0.1,0,0.2,0.1,0.2,0.2v10.1c0,0.1-0.1,0.2-0.2,0.2H17
	c-0.1,0-0.2-0.1-0.2-0.2v-10.1c0-0.1,0.1-0.2,0.2-0.2H23.1z"/>
<path fill-rule="evenodd" clip-rule="evenodd" fill="#FACE53" d="M23.1,183.4c0.1,0,0.2,0.1,0.2,0.2v10.1c0,0.1-0.1,0.2-0.2,0.2H17
	c-0.1,0-0.2-0.1-0.2-0.2v-10.1c0-0.1,0.1-0.2,0.2-0.2H23.1z"/>
<path fill-rule="evenodd" clip-rule="evenodd" fill="#FACE53" d="M13.6,183.4c0.1,0,0.2,0.1,0.2,0.2v10.1c0,0.1-0.1,0.2-0.2,0.2H7.5
	c-0.1,0-0.2-0.1-0.2-0.2v-10.1c0-0.1,0.1-0.2,0.2-0.2H13.6z"/>
<path fill-rule="evenodd" clip-rule="evenodd" fill="#FACE53" d="M47.7,199.6c0.1,0,0.2,0.1,0.2,0.2v10.1c0,0.1-0.1,0.2-0.2,0.2
	h-6.1c-0.1,0-0.2-0.1-0.2-0.2v-10.1c0-0.1,0.1-0.2,0.2-0.2H47.7z"/>
<path fill-rule="evenodd" clip-rule="evenodd" fill="#FACE53" d="M57.2,199.6c0.1,0,0.2,0.1,0.2,0.2v10.1c0,0.1-0.1,0.2-0.2,0.2H51
	c-0.1,0-0.2-0.1-0.2-0.2v-10.1c0-0.1,0.1-0.2,0.2-0.2H57.2z"/>
<path fill-rule="evenodd" clip-rule="evenodd" fill="#FACE53" d="M57.2,183.4c0.1,0,0.2,0.1,0.2,0.2v10.1c0,0.1-0.1,0.2-0.2,0.2H51
	c-0.1,0-0.2-0.1-0.2-0.2v-10.1c0-0.1,0.1-0.2,0.2-0.2H57.2z"/>
<path fill-rule="evenodd" clip-rule="evenodd" fill="#FACE53" d="M47.7,183.4c0.1,0,0.2,0.1,0.2,0.2v10.1c0,0.1-0.1,0.2-0.2,0.2
	h-6.1c-0.1,0-0.2-0.1-0.2-0.2v-10.1c0-0.1,0.1-0.2,0.2-0.2H47.7z"/>
<path fill-rule="evenodd" clip-rule="evenodd" fill="#FACE53" d="M3.4,228.7v-10.9c0-0.1,0.4-0.2,1.3-0.2h51.6c1,0,1.5,0.1,1.5,0.2
	v10.9c0,0.1-0.5,0.2-1.5,0.2H4.7C3.8,228.9,3.4,228.8,3.4,228.7z"/>
<path fill-rule="evenodd" clip-rule="evenodd" fill="#FACE53" d="M3.4,233.4c0-0.1,0.1-0.2,0.4-0.2h16.4c0.3,0,0.4,0.1,0.4,0.2v10.9
	c0,0.1-0.1,0.2-0.4,0.2H3.8c-0.3,0-0.4-0.1-0.4-0.2V233.4z"/>
<path fill-rule="evenodd" clip-rule="evenodd" fill="#FACE53" d="M50.9,167.5c0-0.1,0.1-0.2,0.2-0.2h6.1c0.1,0,0.2,0.1,0.2,0.2v10.1
	c0,0.1-0.1,0.2-0.2,0.2H51c-0.1,0-0.2-0.1-0.2-0.2V167.5z"/>
<path fill-rule="evenodd" clip-rule="evenodd" fill="#FACE53" d="M57.2,151.2c0.1,0,0.2,0.1,0.2,0.2v10.1c0,0.1-0.1,0.2-0.2,0.2H51
	c-0.1,0-0.2-0.1-0.2-0.2v-10.1c0-0.1,0.1-0.2,0.2-0.2H57.2z"/>
<path fill-rule="evenodd" clip-rule="evenodd" fill="#FACE53" d="M57.2,135c0.1,0,0.2,0.1,0.2,0.2v10.1c0,0.1-0.1,0.2-0.2,0.2H51
	c-0.1,0-0.2-0.1-0.2-0.2v-10.1c0-0.1,0.1-0.2,0.2-0.2H57.2z"/>
<path fill-rule="evenodd" clip-rule="evenodd" fill="#FACE53" d="M41.4,167.5c0-0.1,0.1-0.2,0.2-0.2h6.1c0.1,0,0.2,0.1,0.2,0.2v10.1
	c0,0.1-0.1,0.2-0.2,0.2h-6.1c-0.1,0-0.2-0.1-0.2-0.2V167.5z"/>
<path fill-rule="evenodd" clip-rule="evenodd" fill="#FACE53" d="M41.4,151.3c0-0.1,0.1-0.2,0.2-0.2h6.1c0.1,0,0.2,0.1,0.2,0.2v10.1
	c0,0.1-0.1,0.2-0.2,0.2h-6.1c-0.1,0-0.2-0.1-0.2-0.2V151.3z"/>
<path fill-rule="evenodd" clip-rule="evenodd" fill="#FACE53" d="M17,167.3h6.1c0.1,0,0.2,0.1,0.2,0.2v10.1c0,0.1-0.1,0.2-0.2,0.2
	H17c-0.1,0-0.2-0.1-0.2-0.2v-10.1C16.9,167.4,16.9,167.3,17,167.3z"/>
<path fill-rule="evenodd" clip-rule="evenodd" fill="#FACE53" d="M7.5,167.3h6.1c0.1,0,0.2,0.1,0.2,0.2v10.1c0,0.1-0.1,0.2-0.2,0.2
	H7.5c-0.1,0-0.2-0.1-0.2-0.2v-10.1C7.4,167.4,7.4,167.3,7.5,167.3z"/>
<path fill-rule="evenodd" clip-rule="evenodd" fill="#FACE53" d="M7.4,151.3c0-0.1,0.1-0.2,0.2-0.2h6.1c0.1,0,0.2,0.1,0.2,0.2v10.1
	c0,0.1-0.1,0.2-0.2,0.2H7.5c-0.1,0-0.2-0.1-0.2-0.2V151.3z"/>
<path fill-rule="evenodd" clip-rule="evenodd" fill="#FACE53" d="M17,151.2h6.1c0.1,0,0.2,0.1,0.2,0.2v10.1c0,0.1-0.1,0.2-0.2,0.2
	H17c-0.1,0-0.2-0.1-0.2-0.2v-10.1C16.9,151.2,16.9,151.2,17,151.2z"/>
<path fill-rule="evenodd" clip-rule="evenodd" fill="#FACE53" d="M7.4,135.2c0-0.1,0.1-0.2,0.2-0.2h6.1c0.1,0,0.2,0.1,0.2,0.2v10.1
	c0,0.1-0.1,0.2-0.2,0.2H7.5c-0.1,0-0.2-0.1-0.2-0.2V135.2z"/>
<path fill-rule="evenodd" clip-rule="evenodd" fill="#FACE53" d="M16.9,135.2c0-0.1,0.1-0.2,0.2-0.2h6.1c0.1,0,0.2,0.1,0.2,0.2v10.1
	c0,0.1-0.1,0.2-0.2,0.2H17c-0.1,0-0.2-0.1-0.2-0.2V135.2z"/>
<path fill-rule="evenodd" clip-rule="evenodd" fill="#FACE53" d="M41.4,135.2c0-0.1,0.1-0.2,0.2-0.2h6.1c0.1,0,0.2,0.1,0.2,0.2v10.1
	c0,0.1-0.1,0.2-0.2,0.2h-6.1c-0.1,0-0.2-0.1-0.2-0.2V135.2z"/>
<path fill-rule="evenodd" clip-rule="evenodd" fill="#FACE53" d="M23.1,118.9c0.1,0,0.2,0.1,0.2,0.2v10.1c0,0.1-0.1,0.2-0.2,0.2H17
	c-0.1,0-0.2-0.1-0.2-0.2v-10.1c0-0.1,0.1-0.2,0.2-0.2H23.1z"/>
<path fill-rule="evenodd" clip-rule="evenodd" fill="#FACE53" d="M13.6,118.9c0.1,0,0.2,0.1,0.2,0.2v10.1c0,0.1-0.1,0.2-0.2,0.2H7.5
	c-0.1,0-0.2-0.1-0.2-0.2v-10.1c0-0.1,0.1-0.2,0.2-0.2H13.6z"/>
<path fill-rule="evenodd" clip-rule="evenodd" fill="#FACE53" d="M17,102.8h6.1c0.1,0,0.2,0.1,0.2,0.2V113c0,0.1-0.1,0.2-0.2,0.2H17
	c-0.1,0-0.2-0.1-0.2-0.2v-10.1C16.9,102.8,16.9,102.8,17,102.8z"/>
<path fill-rule="evenodd" clip-rule="evenodd" fill="#FACE53" d="M7.5,102.8h6.1c0.1,0,0.2,0.1,0.2,0.2V113c0,0.1-0.1,0.2-0.2,0.2
	H7.5c-0.1,0-0.2-0.1-0.2-0.2v-10.1C7.4,102.8,7.4,102.8,7.5,102.8z"/>
<path fill-rule="evenodd" clip-rule="evenodd" fill="#FACE53" d="M16.8,84.9c0.1,0,0.1,0,0.1,0.1v8.6c0,0.1,0,0.1-0.1,0.1h-5.2
	c-0.1,0-0.1,0-0.1-0.1V85c0-0.1,0-0.1,0.1-0.1H16.8z"/>
<path fill-rule="evenodd" clip-rule="evenodd" fill="#FFF22D" d="M36,102.6h3.1c0,0,0.1,0.5,0.1,1.6v104.2c0,1.1,0,1.6-0.1,1.6H36
	c-0.1,0-0.1-0.5-0.1-1.6V104.2C35.9,103.2,35.9,102.6,36,102.6z"/>
<path fill-rule="evenodd" clip-rule="evenodd" fill="#FFF22D" d="M25.9,102.6H29c0,0,0.1,0.5,0.1,1.6v104.2c0,1.1,0,1.6-0.1,1.6
	h-3.1c-0.1,0-0.1-0.5-0.1-1.6V104.2C25.8,103.2,25.8,102.6,25.9,102.6z"/>
<path fill-rule="evenodd" clip-rule="evenodd" fill="#FACE53" d="M24.8,84.9c0.1,0,0.1,0,0.1,0.1v8.6c0,0.1,0,0.1-0.1,0.1h-5.2
	c-0.1,0-0.1,0-0.1-0.1V85c0-0.1,0-0.1,0.1-0.1H24.8z"/>
<path fill-rule="evenodd" clip-rule="evenodd" fill="#FACE53" d="M50.9,119.1c0-0.1,0.1-0.2,0.2-0.2h6.1c0.1,0,0.2,0.1,0.2,0.2v10.1
	c0,0.1-0.1,0.2-0.2,0.2H51c-0.1,0-0.2-0.1-0.2-0.2V119.1z"/>
<path fill-rule="evenodd" clip-rule="evenodd" fill="#FACE53" d="M47.7,118.9c0.1,0,0.2,0.1,0.2,0.2v10.1c0,0.1-0.1,0.2-0.2,0.2
	h-6.1c-0.1,0-0.2-0.1-0.2-0.2v-10.1c0-0.1,0.1-0.2,0.2-0.2H47.7z"/>
<path fill-rule="evenodd" clip-rule="evenodd" fill="#FACE53" d="M50.9,102.9c0-0.1,0.1-0.2,0.2-0.2h6.1c0.1,0,0.2,0.1,0.2,0.2V113
	c0,0.1-0.1,0.2-0.2,0.2H51c-0.1,0-0.2-0.1-0.2-0.2V102.9z"/>
<path fill-rule="evenodd" clip-rule="evenodd" fill="#FACE53" d="M47.7,102.8c0.1,0,0.2,0.1,0.2,0.2V113c0,0.1-0.1,0.2-0.2,0.2h-6.1
	c-0.1,0-0.2-0.1-0.2-0.2v-10.1c0-0.1,0.1-0.2,0.2-0.2H47.7z"/>
<path fill-rule="evenodd" clip-rule="evenodd" fill="#FACE53" d="M45.6,84.9c0.1,0,0.2,0,0.2,0.1v8.6c0,0.1-0.1,0.1-0.2,0.1h-5.2
	c-0.1,0-0.1,0-0.1-0.1V85c0-0.1,0-0.1,0.1-0.1H45.6z"/>
<path fill-rule="evenodd" clip-rule="evenodd" fill="#FACE53" d="M53.7,84.9c0.1,0,0.1,0,0.1,0.1v8.6c0,0.1,0,0.1-0.1,0.1h-5.2
	c-0.1,0-0.1,0-0.1-0.1V85c0-0.1,0-0.1,0.1-0.1H53.7z"/>
<path fill-rule="evenodd" clip-rule="evenodd" fill="#FACE53" d="M48.4,71.3c0-0.1,0-0.1,0.1-0.1h5.2c0.1,0,0.1,0,0.1,0.1v8.6
	c0,0.1,0,0.1-0.1,0.1h-5.2c-0.1,0-0.1,0-0.1-0.1V71.3z"/>
<path fill-rule="evenodd" clip-rule="evenodd" fill="#FFF22D" d="M35.7,71.1h2.6c0,0,0,0.1,0,0.4v22c0,0.2,0,0.3,0,0.3h-2.6
	c-0.1,0-0.1-0.1-0.1-0.3v-22C35.6,71.2,35.7,71.1,35.7,71.1z"/>
<path fill-rule="evenodd" clip-rule="evenodd" fill="#FACE53" d="M40.3,71.3c0-0.1,0-0.1,0.1-0.1h5.2c0.1,0,0.2,0,0.2,0.1v8.6
	c0,0.1-0.1,0.2-0.2,0.2h-5.2c-0.1,0-0.1-0.1-0.1-0.2V71.3z"/>
<path fill-rule="evenodd" clip-rule="evenodd" fill="#FFF22D" d="M27.2,71.1h2.6c0,0,0.1,0.1,0.1,0.4v22c0,0.2,0,0.3-0.1,0.3h-2.6
	c0,0-0.1-0.1-0.1-0.3v-22C27.1,71.2,27.1,71.1,27.2,71.1z"/>
<path fill-rule="evenodd" clip-rule="evenodd" fill="#FACE53" d="M19.5,79.9v-8.6c0-0.1,0-0.1,0.1-0.1h5.2c0.1,0,0.1,0,0.1,0.1v8.6
	c0,0.1,0,0.1-0.1,0.1h-5.2C19.5,80,19.5,80,19.5,79.9z"/>
<path fill-rule="evenodd" clip-rule="evenodd" fill="#FACE53" d="M11.4,71.3c0-0.1,0-0.1,0.1-0.1h5.2c0.1,0,0.1,0,0.1,0.1v8.6
	c0,0.1,0,0.2-0.1,0.2h-5.2c-0.1,0-0.1-0.1-0.1-0.2V71.3z"/>
<g>
	<path fill-rule="evenodd" clip-rule="evenodd" fill="#A1A244" d="M69.2,250.3c-0.1,0-0.2-0.1-0.2-0.2v-13.6c0-0.1,0.1-0.2,0.2-0.2
		h6.7c0.1,0,0.2,0.1,0.2,0.2V250c0,0.1-0.1,0.2-0.2,0.2H69.2z"/>
</g>
<g>
	<g>
		<path fill-rule="evenodd" clip-rule="evenodd" fill="#649488" d="M121.9,188.2l24,17.4v47H97.4v-46.8c0-0.2,0.1-0.2,0.4-0.2
			L121.9,188.2z"/>
		<polygon fill-rule="evenodd" clip-rule="evenodd" fill="#645649" points="121.9,188.2 145,188.2 169,205.6 169.1,205.6 
			169.1,252.6 145.9,252.6 145.9,205.6 		"/>
		<g>
			<path fill-rule="evenodd" clip-rule="evenodd" fill="#FACE53" d="M129.7,222.6c0-0.1,0.1-0.1,0.3-0.1h13.7c0.1,0,0.1,0,0.1,0.1v9
				c0,0.1,0,0.1-0.1,0.1H130c-0.2,0-0.3-0.1-0.3-0.2V222.6z M130,217.7c-0.2,0-0.3-0.1-0.3-0.2v-9c0-0.1,0.1-0.1,0.3-0.1h13.7
				c0.1,0,0.1,0,0.1,0.1v9c0,0.1,0,0.1-0.1,0.1H130z M99.8,217.7c-0.2,0-0.4-0.1-0.4-0.2v-9c0-0.1,0.1-0.2,0.4-0.2h13.5
				c0.2,0,0.3,0.1,0.3,0.2v9c0,0.1-0.1,0.2-0.3,0.2H99.8z M99.4,222.6c0-0.1,0.1-0.2,0.4-0.2h13.5c0.2,0,0.3,0.1,0.3,0.2v8.9
				c0,0.1-0.1,0.2-0.3,0.2H99.8c-0.2,0-0.4-0.1-0.4-0.2V222.6z M116.2,199.8c0-0.3,0.1-0.5,0.3-0.5h10.3c0.2,0,0.3,0.2,0.3,0.5v31.6
				c0,0.4-0.1,0.6-0.3,0.6h-10.3c-0.2,0-0.3-0.2-0.3-0.6V199.8z M113.2,237c0.2,0,0.3,0.1,0.3,0.2v8.9c0,0.1-0.1,0.2-0.3,0.2H99.8
				c-0.2,0-0.4-0.1-0.4-0.2v-8.9c0-0.1,0.1-0.2,0.4-0.2H113.2z M126.8,237c0.2,0,0.3,0.1,0.3,0.2v13.5c0,0.2-0.1,0.2-0.3,0.2h-10.3
				c-0.2,0-0.3-0.1-0.3-0.2v-13.5c0-0.1,0.1-0.2,0.3-0.2H126.8z M143.9,237.2v9c0,0.1,0,0.1-0.1,0.1H130c-0.2,0-0.3-0.1-0.3-0.2v-9
				c0-0.1,0.1-0.1,0.3-0.1h13.7C143.8,237,143.9,237.1,143.9,237.2z"/>
			<path fill-rule="evenodd" clip-rule="evenodd" fill="#A1A244" d="M155.7,237.2v9c0,0.1,0,0.1-0.1,0.1h-5.7
				c-0.1,0-0.1-0.1-0.1-0.2v-9c0-0.1,0-0.1,0.1-0.1h5.7C155.7,237,155.7,237.1,155.7,237.2z M149.9,222.5h5.7c0,0,0.1,0,0.1,0.1v9
				c0,0.1,0,0.1-0.1,0.1h-5.7c-0.1,0-0.1-0.1-0.1-0.2v-9C149.8,222.5,149.9,222.5,149.9,222.5z M149.9,208.5h5.7c0,0,0.1,0,0.1,0.1
				v9c0,0.1,0,0.1-0.1,0.1h-5.7c-0.1,0-0.1-0.1-0.1-0.2v-9C149.8,208.5,149.9,208.5,149.9,208.5z"/>
		</g>
	</g>
</g>
<g>
	<path fill-rule="evenodd" clip-rule="evenodd" fill="#645649" d="M236.4,252.4v-20.7h-5.2v-6h5.2V62.1h22.1l0.1,0
		c2.8,0,4.3,0.2,4.3,0.4v21v137.1v5.1v6v20.2c0,0.3-2,0.5-6,0.5H236.4z"/>
	<path fill-rule="evenodd" clip-rule="evenodd" fill="#649488" d="M231.1,225.7h-49.8V80.4l55.1-18.3v163.6H231.1z M181.3,231.7
		h49.8h5.2v20.7h-18.1h-36.4c-0.3,0-0.5-0.2-0.5-0.5V231.7z"/>
	<polygon fill-rule="evenodd" clip-rule="evenodd" fill="#7BB6A7" points="181.3,225.7 231.1,225.7 231.1,231.7 181.3,231.7 
		175.8,231.7 175.8,225.7 	"/>
	<g>
		<path fill-rule="evenodd" clip-rule="evenodd" fill="#A1A244" d="M260.7,91.7c0,0.3-0.1,0.5-0.4,0.5h-19.5c-0.2,0-0.4-0.2-0.4-0.5
			v-2.9c0-0.3,0.1-0.5,0.4-0.5h19.5c0.2,0,0.4,0.2,0.4,0.5V91.7z"/>
	</g>
	<g>
		<path fill-rule="evenodd" clip-rule="evenodd" fill="#A1A244" d="M240.5,107v-2.9c0-0.3,0.1-0.5,0.4-0.5h19.5
			c0.3,0,0.4,0.2,0.4,0.5v2.9c0,0.3-0.1,0.5-0.4,0.5h-19.5C240.6,107.5,240.5,107.3,240.5,107z"/>
	</g>
	<g>
		<path fill-rule="evenodd" clip-rule="evenodd" fill="#A1A244" d="M240.5,122.2v-2.9c0-0.3,0.1-0.5,0.4-0.5h19.5
			c0.3,0,0.4,0.2,0.4,0.5v2.9c0,0.3-0.1,0.5-0.4,0.5h-19.5C240.6,122.7,240.5,122.6,240.5,122.2z"/>
	</g>
	<g>
		<path fill-rule="evenodd" clip-rule="evenodd" fill="#A1A244" d="M240.5,137.7v-2.9c0-0.3,0.1-0.5,0.4-0.5h19.5
			c0.3,0,0.4,0.2,0.4,0.5v2.9c0,0.3-0.1,0.5-0.4,0.5h-19.5C240.6,138.2,240.5,138,240.5,137.7z"/>
	</g>
	<g>
		<path fill-rule="evenodd" clip-rule="evenodd" fill="#A1A244" d="M260.7,153.1c0,0.3-0.1,0.5-0.4,0.5h-19.5
			c-0.2,0-0.4-0.2-0.4-0.5v-2.9c0-0.3,0.1-0.5,0.4-0.5h19.5c0.3,0,0.4,0.2,0.4,0.5V153.1z"/>
	</g>
	<g>
		<path fill-rule="evenodd" clip-rule="evenodd" fill="#A1A244" d="M240.5,168.7v-2.9c0-0.3,0.1-0.5,0.4-0.5h19.5
			c0.3,0,0.4,0.2,0.4,0.5v2.9c0,0.3-0.1,0.5-0.4,0.5h-19.5C240.6,169.2,240.5,169.1,240.5,168.7z"/>
	</g>
	<g>
		<path fill-rule="evenodd" clip-rule="evenodd" fill="#A1A244" d="M240.5,184.2v-2.9c0-0.3,0.1-0.5,0.4-0.5h19.5
			c0.3,0,0.4,0.2,0.4,0.5v2.9c0,0.3-0.1,0.5-0.4,0.5h-19.5C240.6,184.7,240.5,184.5,240.5,184.2z"/>
	</g>
	<g>
		<path fill-rule="evenodd" clip-rule="evenodd" fill="#A1A244" d="M260.7,199.6c0,0.3-0.1,0.5-0.4,0.5h-19.5
			c-0.2,0-0.4-0.2-0.4-0.5v-2.9c0-0.3,0.1-0.5,0.4-0.5h19.5c0.3,0,0.4,0.2,0.4,0.5V199.6z"/>
	</g>
	<g>
		<path fill-rule="evenodd" clip-rule="evenodd" fill="#A1A244" d="M240.5,212.1c0-0.3,0.1-0.5,0.4-0.5h19.5c0.3,0,0.4,0.2,0.4,0.5
			v2.9c0,0.3-0.1,0.5-0.4,0.5h-19.5c-0.2,0-0.4-0.2-0.4-0.5V212.1z"/>
	</g>
	<g>
		<path fill-rule="evenodd" clip-rule="evenodd" fill="#A1A244" d="M219.7,219.8c0.6,0,0.8,0.2,0.8,0.5v2.9c0,0.3-0.3,0.5-0.8,0.5
			h-42.7c-0.6,0-0.8-0.2-0.8-0.5v-2.9c0-0.3,0.3-0.5,0.8-0.5H219.7z M220.5,207.7c0,0.3-0.3,0.5-0.8,0.5h-42.7
			c-0.6,0-0.8-0.2-0.8-0.5v-2.9c0-0.3,0.3-0.5,0.8-0.5h42.7c0.6,0,0.8,0.2,0.8,0.5V207.7z M220.5,192.3c0,0.3-0.3,0.5-0.8,0.5h-42.7
			c-0.6,0-0.8-0.2-0.8-0.5v-2.9c0-0.3,0.3-0.5,0.8-0.5h42.7c0.6,0,0.8,0.2,0.8,0.5V192.3z M219.7,173.5c0.6,0,0.8,0.2,0.8,0.5v2.9
			c0,0.3-0.3,0.5-0.8,0.5h-42.7c-0.6,0-0.8-0.2-0.8-0.5V174c0-0.3,0.3-0.5,0.8-0.5H219.7z M219.7,158c0.6,0,0.8,0.2,0.8,0.5v2.9
			c0,0.3-0.3,0.5-0.8,0.5h-42.7c-0.6,0-0.8-0.2-0.8-0.5v-2.9c0-0.3,0.3-0.5,0.8-0.5H219.7z M220.5,146c0,0.3-0.3,0.5-0.8,0.5h-42.7
			c-0.6,0-0.8-0.2-0.8-0.5v-2.9c0-0.3,0.3-0.5,0.8-0.5h42.7c0.6,0,0.8,0.2,0.8,0.5V146z M219.7,127.2c0.6,0,0.8,0.2,0.8,0.5v2.9
			c0,0.3-0.3,0.5-0.8,0.5h-42.7c-0.6,0-0.8-0.2-0.8-0.5v-2.9c0-0.3,0.3-0.5,0.8-0.5H219.7z M219.7,111.7c0.6,0,0.8,0.2,0.8,0.5v2.9
			c0,0.3-0.3,0.5-0.8,0.5h-42.7c-0.6,0-0.8-0.2-0.8-0.5v-2.9c0-0.3,0.3-0.5,0.8-0.5H219.7z M219.7,96.3c0.6,0,0.8,0.2,0.8,0.5v2.9
			c0,0.3-0.3,0.5-0.8,0.5h-42.7c-0.6,0-0.8-0.2-0.8-0.5v-2.9c0-0.3,0.3-0.5,0.8-0.5H219.7z"/>
		<path fill-rule="evenodd" clip-rule="evenodd" fill="#FACE53" d="M214.1,88v6.6h-9.9V88H214.1z M184.1,103.7h17.8v6.6h-17.8V103.7
			z M204.2,103.7h9.9v6.6h-9.9V103.7z M201.9,88v6.6h-17.8V88H201.9z M214.1,125.7h-9.9v-6.6h9.9V125.7z M201.9,125.7h-17.8v-6.6
			h17.8V125.7z M214.1,134.7v6.6h-9.9v-6.6H214.1z M184.1,149.8h17.8v6.6h-17.8V149.8z M204.2,156.4v-6.6h9.9v6.6H204.2z
			 M201.9,141.4h-17.8v-6.6h17.8V141.4z M214.1,172h-9.9v-6.6h9.9V172z M201.9,172h-17.8v-6.6h17.8V172z M214.1,180.8v6.6h-9.9v-6.6
			H214.1z M184.1,196.5h17.8v6.6h-17.8V196.5z M204.2,203.1v-6.6h9.9v6.6H204.2z M184.1,180.8h17.8v6.6h-17.8V180.8z M214.1,218.4
			h-9.9v-6.6h9.9V218.4z M201.9,218.4h-17.8v-6.6h17.8V218.4z"/>
	</g>
	<g>
		<path fill-rule="evenodd" clip-rule="evenodd" fill="#FACE53" d="M185.2,235.5c0-0.1,0.1-0.1,0.4-0.1h13.9c0.2,0,0.4,0,0.4,0.1
			v9.2c0,0.1-0.1,0.1-0.4,0.1h-13.9c-0.3,0-0.4,0-0.4-0.1V235.5z M217.3,235.5v9.2c0,0.1-0.1,0.1-0.4,0.1h-13.9
			c-0.3,0-0.4,0-0.4-0.1v-9.2c0-0.1,0.1-0.1,0.4-0.1H217C217.2,235.3,217.3,235.4,217.3,235.5z M230.9,235.3c0.2,0,0.3,0.1,0.3,0.2
			v14c0,0.2-0.1,0.2-0.3,0.2h-10.6c-0.2,0-0.3-0.1-0.3-0.2v-14c0-0.1,0.1-0.2,0.3-0.2H230.9z"/>
	</g>
	<g>
		<path fill-rule="evenodd" clip-rule="evenodd" fill="#FACE53" d="M226.5,210.9h4.4c0.1,0,0.1,0.2,0.1,0.5v2.9c0,0.3,0,0.5-0.1,0.5
			h-4.4c0,0-0.1-0.2-0.1-0.5v-2.9C226.4,211.1,226.5,210.9,226.5,210.9z M230.9,199.4h-4.4c0,0-0.1-0.2-0.1-0.5V196
			c0-0.3,0-0.5,0.1-0.5h4.4c0.1,0,0.1,0.2,0.1,0.5v2.9C231,199.2,231,199.4,230.9,199.4z M226.4,183.4v-2.9c0-0.3,0-0.5,0.1-0.5h4.4
			c0.1,0,0.1,0.2,0.1,0.5v2.9c0,0.3,0,0.5-0.1,0.5h-4.4C226.5,183.9,226.4,183.8,226.4,183.4z M231,168c0,0.3,0,0.5-0.1,0.5h-4.4
			c0,0-0.1-0.2-0.1-0.5v-2.9c0-0.3,0-0.5,0.1-0.5h4.4c0.1,0,0.1,0.2,0.1,0.5V168z M230.9,153h-4.4c0,0-0.1-0.2-0.1-0.5v-2.9
			c0-0.3,0-0.5,0.1-0.5h4.4c0.1,0,0.1,0.2,0.1,0.5v2.9C231,152.9,231,153,230.9,153z M226.4,137.1v-2.9c0-0.3,0-0.5,0.1-0.5h4.4
			c0.1,0,0.1,0.2,0.1,0.5v2.9c0,0.3,0,0.5-0.1,0.5h-4.4C226.5,137.6,226.4,137.4,226.4,137.1z M231,121.7c0,0.3,0,0.5-0.1,0.5h-4.4
			c0,0-0.1-0.2-0.1-0.5v-2.9c0-0.3,0-0.5,0.1-0.5h4.4c0.1,0,0.1,0.2,0.1,0.5V121.7z M226.5,106.7c0,0-0.1-0.2-0.1-0.5v-2.9
			c0-0.3,0-0.5,0.1-0.5h4.4c0.1,0,0.1,0.2,0.1,0.5v2.9c0,0.3,0,0.5-0.1,0.5H226.5z M226.5,87.4h4.4c0.1,0,0.1,0.2,0.1,0.5v2.9
			c0,0.3,0,0.5-0.1,0.5h-4.4c0,0-0.1-0.2-0.1-0.5v-2.9C226.4,87.6,226.5,87.4,226.5,87.4z"/>
	</g>
</g>
<g>
	<path fill-rule="evenodd" clip-rule="evenodd" fill="#645649" d="M319.6,252.6v-5.1h-12.8v-4.2h16.7v-8.1v-97.6v-0.9h-46.8
		l-2.8-4.2h45.7v-5.1h3.9V38.9h-42l-4-4h42.1v-5.8h-38.1v-4.4h42L311.5,0l29.6,24.7v4.4h4.8l0,5.1l-4.8,4.8v86.5v0.6v1.3h7.8v5.1
		l-2.9,4.2v0.9v87.8v9.8v8.2l2.8,4.2v5.1h-25.2H319.6z M273.9,247.5l2.8-4.2h0h16.3v4.2h-16.3H273.9z"/>
	<path fill-rule="evenodd" clip-rule="evenodd" fill="#649488" d="M281.5,24.7l30-24.7l12.1,24.7H281.5z M319.6,127.4h-38.1v-1.3
		V51.7V38.9h42v88.6H319.6z M306.8,247.5v5.1h-13.8v-5.1v-4.2h-16.3v-8.1v-5.5v-7.6V149v-11.4v-0.9h46.8v0.9v97.6v8.1h-16.7V247.5z"
		/>
	<path fill-rule="evenodd" clip-rule="evenodd" fill="#7BB6A7" d="M277.5,34.9v-5.8h4h38.1v5.8H277.5z M273.9,132.5v-5.1h7.6h38.1
		v5.1H273.9z M319.6,252.6h-12.8v-5.1h12.8V252.6z M293.1,252.6h-19.2v-5.1h2.9h16.3V252.6z"/>
	<g>
		<path fill-rule="evenodd" clip-rule="evenodd" fill="#FACE53" d="M283.1,139.9c0,0,0.1,0.4,0.1,1.2v77.7c0,0.8,0,1.2-0.1,1.2h-3.4
			c-0.1,0-0.1-0.4-0.1-1.2v-77.7c0-0.8,0-1.2,0.1-1.2H283.1z"/>
	</g>
	<g>
		<path fill-rule="evenodd" clip-rule="evenodd" fill="#FACE53" d="M287.2,139.9h3.4c0,0,0.1,0.4,0.1,1.2v77.7c0,0.8,0,1.2-0.1,1.2
			h-3.4c-0.1,0-0.1-0.4-0.1-1.2v-77.7C287.1,140.3,287.1,139.9,287.2,139.9z"/>
	</g>
	<g>
		<path fill-rule="evenodd" clip-rule="evenodd" fill="#FACE53" d="M294.4,141.1c0-0.8,0-1.2,0.1-1.2h3.4c0,0,0.1,0.4,0.1,1.2v77.7
			c0,0.8,0,1.2-0.1,1.2h-3.4c-0.1,0-0.1-0.4-0.1-1.2V141.1z"/>
	</g>
	<g>
		<path fill-rule="evenodd" clip-rule="evenodd" fill="#FACE53" d="M305.3,139.9c0,0,0.1,0.4,0.1,1.2v77.7c0,0.8,0,1.2-0.1,1.2h-3.4
			c-0.1,0-0.1-0.4-0.1-1.2v-77.7c0-0.8,0-1.2,0.1-1.2H305.3z"/>
	</g>
	<g>
		<path fill-rule="evenodd" clip-rule="evenodd" fill="#FACE53" d="M312.6,139.9c0,0,0.1,0.4,0.1,1.2v77.7c0,0.8,0,1.2-0.1,1.2h-3.4
			c-0.1,0-0.1-0.4-0.1-1.2v-77.7c0-0.8,0-1.2,0.1-1.2H312.6z"/>
	</g>
	<g>
		<path fill-rule="evenodd" clip-rule="evenodd" fill="#FACE53" d="M316.5,139.9h3.4c0,0,0.1,0.4,0.1,1.2v77.7c0,0.8,0,1.2-0.1,1.2
			h-3.4c-0.1,0-0.1-0.4-0.1-1.2v-77.7C316.4,140.3,316.5,139.9,316.5,139.9z"/>
	</g>
	<g>
		<path fill-rule="evenodd" clip-rule="evenodd" fill="#FACE53" d="M286.3,43.9c0-0.8,0-1.2,0.1-1.2h3.5c0.1,0,0.1,0.4,0.1,1.2v78.7
			c0,0.8,0,1.2-0.1,1.2h-3.5c-0.1,0-0.1-0.4-0.1-1.2V43.9z"/>
	</g>
	<g>
		<path fill-rule="evenodd" clip-rule="evenodd" fill="#FACE53" d="M297.4,42.7c0.1,0,0.1,0.4,0.1,1.2v78.7c0,0.8,0,1.2-0.1,1.2
			h-3.5c-0.1,0-0.1-0.4-0.1-1.2V43.9c0-0.8,0-1.2,0.1-1.2H297.4z"/>
	</g>
	<g>
		<path fill-rule="evenodd" clip-rule="evenodd" fill="#FACE53" d="M301.4,42.7h3.5c0,0,0.1,0.4,0.1,1.2v78.7c0,0.8,0,1.2-0.1,1.2
			h-3.5c-0.1,0-0.1-0.4-0.1-1.2V43.9C301.3,43.1,301.4,42.7,301.4,42.7z"/>
	</g>
	<g>
		<path fill-rule="evenodd" clip-rule="evenodd" fill="#FACE53" d="M309,42.7h3.5c0.1,0,0.1,0.4,0.1,1.2v78.7c0,0.8,0,1.2-0.1,1.2
			H309c-0.1,0-0.1-0.4-0.1-1.2V43.9C308.9,43.1,308.9,42.7,309,42.7z"/>
	</g>
	<g>
		<path fill-rule="evenodd" clip-rule="evenodd" fill="#FACE53" d="M316.4,43.9c0-0.8,0-1.2,0.1-1.2h3.5c0.1,0,0.1,0.4,0.1,1.2v78.7
			c0,0.8,0,1.2-0.1,1.2h-3.5c-0.1,0-0.1-0.4-0.1-1.2V43.9z"/>
	</g>
	<g>
		<path fill-rule="evenodd" clip-rule="evenodd" fill="#A1A244" d="M339.3,140.8c0-0.8,0-1.2,0.1-1.2h3.1c0.1,0,0.1,0.4,0.1,1.2
			v78.1c0,0.8,0,1.2-0.1,1.2h-3.1c-0.1,0-0.1-0.4-0.1-1.2V140.8z M333.3,139.8h3.1c0.1,0,0.1,0.4,0.1,1.2v78.1c0,0.8,0,1.2-0.1,1.2
			h-3.1c-0.1,0-0.1-0.4-0.1-1.2V141C333.2,140.2,333.3,139.8,333.3,139.8z M329.7,139.8c0,0,0.1,0.4,0.1,1.2v78.1
			c0,0.8,0,1.2-0.1,1.2h-3.2c-0.1,0-0.1-0.4-0.1-1.2V141c0-0.8,0-1.2,0.1-1.2H329.7z M334,43.8c0-0.8,0-1.3,0.1-1.3h3.5
			c0.1,0,0.1,0.4,0.1,1.3v78.8c0,0.8,0,1.2-0.1,1.2h-3.5c-0.1,0-0.1-0.4-0.1-1.2V43.8z M326.5,43.8c0-0.8,0-1.3,0.1-1.3h3.5
			c0.1,0,0.1,0.4,0.1,1.3v78.8c0,0.8,0,1.2-0.1,1.2h-3.5c-0.1,0-0.1-0.4-0.1-1.2V43.8z"/>
	</g>
	<g>
		<path fill-rule="evenodd" clip-rule="evenodd" fill="#FACE53" d="M292.8,230.3c0.2,0,0.3,0.1,0.3,0.2v11c0,0.1-0.1,0.2-0.3,0.2
			h-12.6c-0.2,0-0.3-0.1-0.3-0.2v-11c0-0.1,0.1-0.2,0.3-0.2H292.8z"/>
	</g>
	<g>
		<path fill-rule="evenodd" clip-rule="evenodd" fill="#FACE53" d="M295.1,230.2h9.6c0.2,0,0.3,0.1,0.3,0.3v19.6
			c0,0.2-0.1,0.3-0.3,0.3h-9.6c-0.2,0-0.2-0.1-0.2-0.3v-19.6C294.8,230.3,294.9,230.2,295.1,230.2z"/>
	</g>
	<g>
		<path fill-rule="evenodd" clip-rule="evenodd" fill="#FACE53" d="M306.9,230.5c0-0.1,0.1-0.2,0.3-0.2h12.6c0.2,0,0.3,0.1,0.3,0.2
			v11c0,0.1-0.1,0.2-0.3,0.2h-12.6c-0.2,0-0.3-0.1-0.3-0.2V230.5z"/>
	</g>
</g>
<g>
	<g>
		<polygon fill-rule="evenodd" clip-rule="evenodd" fill="#645649" points="409.7,253 409.7,173.6 407.5,173.6 407.5,161.5 
			387.8,147.3 406.8,147.3 426.5,161.5 426.6,161.5 426.6,173.6 433,173.6 433,253 		"/>
		<path fill-rule="evenodd" clip-rule="evenodd" fill="#649488" d="M387.8,147.3l19.7,14.3v12.1h2.2V253h-48.4v-79.4h6.4v-11.9
			c0-0.1,0.1-0.2,0.3-0.2L387.8,147.3z M380.1,164.3c0,1.4,0.5,2.7,1.5,3.7c1,1,2.2,1.5,3.7,1.5c1.4,0,2.7-0.5,3.7-1.5
			c1-1,1.5-2.2,1.5-3.7s-0.5-2.7-1.5-3.7c-1-1-2.2-1.5-3.7-1.5c-1.4,0-2.7,0.5-3.7,1.5C380.6,161.6,380.1,162.8,380.1,164.3z"/>
		<path fill-rule="evenodd" clip-rule="evenodd" fill="#FACE53" d="M380.1,164.3c0-1.4,0.5-2.7,1.5-3.7c1-1,2.2-1.5,3.7-1.5
			c1.4,0,2.7,0.5,3.7,1.5c1,1,1.5,2.2,1.5,3.7S390,167,389,168c-1,1-2.2,1.5-3.7,1.5c-1.4,0-2.7-0.5-3.7-1.5
			C380.6,167,380.1,165.7,380.1,164.3z"/>
		<g>
			<path fill-rule="evenodd" clip-rule="evenodd" fill="#FACE53" d="M393.6,237.7c0-0.1,0.1-0.1,0.3-0.1h13.7c0.1,0,0.2,0,0.2,0.1v9
				c0,0.1-0.1,0.1-0.2,0.1h-13.7c-0.2,0-0.3-0.1-0.3-0.2V237.7z M380.1,251.3v-13.5c0-0.1,0.1-0.2,0.3-0.2h10.3
				c0.2,0,0.3,0.1,0.3,0.2v13.5c0,0.2-0.1,0.2-0.3,0.2h-10.3C380.2,251.5,380.1,251.4,380.1,251.3z M363.3,237.7
				c0-0.1,0.1-0.2,0.4-0.2h13.5c0.2,0,0.3,0.1,0.3,0.2v9c0,0.1-0.1,0.2-0.3,0.2h-13.5c-0.3,0-0.4-0.1-0.4-0.2V237.7z"/>
			<g>
				<path fill-rule="evenodd" clip-rule="evenodd" fill="#FACE53" d="M407.2,184.5h-17.6v-5.1h17.6V184.5z M389.6,193.6h17.6v5.1
					h-17.6V193.6z M389.6,207.7h17.6v5.1h-17.6V207.7z M381.6,179.5v5.1h-18.2v-5.1H381.6z M363.4,193.6h18.2v5.1h-18.2V193.6z
					 M363.4,207.7h18.2v5.1h-18.2V207.7z M381.6,221.8v5.1h-18.2v-5.1H381.6z M407.2,226.9h-17.6v-5.1h17.6V226.9z"/>
				<path fill-rule="evenodd" clip-rule="evenodd" fill="#A1A244" d="M413.9,189.7h-24.3v-3.6h24.3V189.7z M389.6,200.3h24.3v3.6
					h-24.3V200.3z M381.6,186.1v3.6h-24.1v-3.6H381.6z M357.5,200.3h24.1v3.6h-24.1V200.3z M381.6,214.4v3.6h-24.1v-3.6H381.6z
					 M381.6,228.5v3.6h-24.1v-3.6H381.6z M413.9,218h-24.3v-3.6h24.3V218z M413.9,232.1h-24.3v-3.6h24.3V232.1z"/>
			</g>
		</g>
	</g>
</g>
<g>
	<path fill-rule="evenodd" clip-rule="evenodd" fill="#645649" d="M505.9,252.6c-0.1,0-0.2-0.2-0.2-0.6v-29.9V96.2h-11.5V78.8h14.1
		v17.5H531V252c0,0.4-0.1,0.6-0.2,0.6H505.9z"/>
	<path fill-rule="evenodd" clip-rule="evenodd" fill="#7BB6A7" d="M449.1,222.2h56.7V252c0,0.4,0.1,0.6,0.2,0.6h-61v-30.4H449.1z"/>
	<polygon fill-rule="evenodd" clip-rule="evenodd" fill="#649488" points="505.7,222.2 449.1,222.2 449.1,96.2 461.7,96.2 
		461.7,78.8 494.3,78.8 494.3,96.2 505.7,96.2 	"/>
	<g>
		<path fill-rule="evenodd" clip-rule="evenodd" fill="#A1A244" d="M515.4,218.4v-10.9c0-0.1,0.1-0.2,0.2-0.2h6.1
			c0.1,0,0.2,0.1,0.2,0.2v10.9c0,0.1-0.1,0.2-0.2,0.2h-6.1C515.4,218.6,515.4,218.5,515.4,218.4z"/>
	</g>
	<g>
		<path fill-rule="evenodd" clip-rule="evenodd" fill="#A1A244" d="M521.6,189.9c0.1,0,0.2,0.1,0.2,0.2V201c0,0.1-0.1,0.2-0.2,0.2
			h-6.1c-0.1,0-0.2-0.1-0.2-0.2v-10.9c0-0.1,0.1-0.2,0.2-0.2H521.6z"/>
	</g>
	<g>
		<path fill-rule="evenodd" clip-rule="evenodd" fill="#A1A244" d="M515.3,172.7c0-0.1,0.1-0.2,0.2-0.2h6.1c0.1,0,0.2,0.1,0.2,0.2
			v10.9c0,0.1-0.1,0.2-0.2,0.2h-6.1c-0.1,0-0.2-0.1-0.2-0.2V172.7z"/>
	</g>
	<g>
		<path fill-rule="evenodd" clip-rule="evenodd" fill="#A1A244" d="M515.3,155.3c0-0.1,0.1-0.2,0.2-0.2h6.1c0.1,0,0.2,0.1,0.2,0.2
			v10.9c0,0.1-0.1,0.2-0.2,0.2h-6.1c-0.1,0-0.2-0.1-0.2-0.2V155.3z"/>
	</g>
	<g>
		<path fill-rule="evenodd" clip-rule="evenodd" fill="#A1A244" d="M515.3,148.7v-10.9c0-0.1,0.1-0.2,0.2-0.2h6.1
			c0.1,0,0.2,0.1,0.2,0.2v10.9c0,0.1-0.1,0.2-0.2,0.2h-6.1C515.3,148.9,515.3,148.9,515.3,148.7z"/>
	</g>
	<g>
		<path fill-rule="evenodd" clip-rule="evenodd" fill="#A1A244" d="M521.6,120.2c0.1,0,0.2,0.1,0.2,0.2v10.9c0,0.1-0.1,0.2-0.2,0.2
			h-6.1c-0.1,0-0.2-0.1-0.2-0.2v-10.9c0-0.1,0.1-0.2,0.2-0.2H521.6z"/>
	</g>
	<g>
		<path fill-rule="evenodd" clip-rule="evenodd" fill="#A1A244" d="M521.7,113.9c0,0.1-0.1,0.2-0.2,0.2h-6.1c-0.1,0-0.2-0.1-0.2-0.2
			V103c0-0.1,0.1-0.2,0.2-0.2h6.1c0.1,0,0.2,0.1,0.2,0.2V113.9z"/>
	</g>
	<g>
		<path fill-rule="evenodd" clip-rule="evenodd" fill="#FACE53" d="M501.5,103.8c0.1,0,0.2,0.1,0.2,0.2v10.8c0,0.1-0.1,0.2-0.2,0.2
			h-5.7c-0.1,0-0.2-0.1-0.2-0.2V104c0-0.1,0.1-0.2,0.2-0.2H501.5z M478.4,121.1h5.7c0.1,0,0.2,0.1,0.2,0.2v10.8
			c0,0.1-0.1,0.2-0.2,0.2h-5.7c-0.1,0-0.1-0.1-0.1-0.2v-10.8C478.3,121.2,478.3,121.1,478.4,121.1z M469.7,121.3
			c0-0.1,0-0.2,0.1-0.2h5.7c0.1,0,0.1,0.1,0.1,0.2v10.8c0,0.1,0,0.2-0.1,0.2h-5.7c-0.1,0-0.1-0.1-0.1-0.2V121.3z M466.9,121.1
			c0.1,0,0.1,0.1,0.1,0.2v10.8c0,0.1,0,0.2-0.1,0.2h-5.7c-0.1,0-0.1-0.1-0.1-0.2v-10.8c0-0.1,0-0.2,0.1-0.2H466.9z M466.9,103.8
			c0.1,0,0.1,0.1,0.1,0.2v10.8c0,0.1,0,0.2-0.1,0.2h-5.7c-0.1,0-0.1-0.1-0.1-0.2V104c0-0.1,0-0.2,0.1-0.2H466.9z M475.5,103.8
			c0.1,0,0.1,0.1,0.1,0.2v10.8c0,0.1,0,0.2-0.1,0.2h-5.7c-0.1,0-0.1-0.1-0.1-0.2V104c0-0.1,0-0.2,0.1-0.2H475.5z M478.3,104
			c0-0.1,0-0.2,0.1-0.2h5.7c0.1,0,0.2,0.1,0.2,0.2v10.8c0,0.1-0.1,0.2-0.2,0.2h-5.7c-0.1,0-0.1-0.1-0.1-0.2V104z M475.5,83.7v5.6
			c0,0.1-0.1,0.1-0.3,0.1h-10.3c-0.2,0-0.3,0-0.3-0.1v-5.6c0-0.1,0.1-0.1,0.3-0.1h10.3C475.4,83.6,475.5,83.6,475.5,83.7z
			 M491.2,83.6c0.1,0,0.2,0,0.2,0.1v5.6c0,0.1-0.1,0.1-0.2,0.1h-4.2c-0.1,0-0.1,0-0.1-0.1v-5.6c0-0.1,0-0.1,0.1-0.1H491.2z
			 M487.2,103.8h5.7c0.1,0,0.1,0.1,0.1,0.2v10.8c0,0.1,0,0.2-0.1,0.2h-5.7c-0.1,0-0.2-0.1-0.2-0.2V104
			C487.1,103.9,487.1,103.8,487.2,103.8z M452.3,121.3c0-0.1,0.1-0.2,0.2-0.2h5.7c0.1,0,0.2,0.1,0.2,0.2v10.8c0,0.1-0.1,0.2-0.2,0.2
			h-5.7c-0.1,0-0.2-0.1-0.2-0.2V121.3z M458.1,103.8c0.1,0,0.2,0.1,0.2,0.2v10.8c0,0.1-0.1,0.2-0.2,0.2h-5.7c-0.1,0-0.2-0.1-0.2-0.2
			V104c0-0.1,0.1-0.2,0.2-0.2H458.1z M495.8,121.1h5.7c0.1,0,0.2,0.1,0.2,0.2v10.8c0,0.1-0.1,0.2-0.2,0.2h-5.7
			c-0.1,0-0.2-0.1-0.2-0.2v-10.8C495.7,121.2,495.7,121.1,495.8,121.1z M487.2,121.1h5.7c0.1,0,0.1,0.1,0.1,0.2v10.8
			c0,0.1,0,0.2-0.1,0.2h-5.7c-0.1,0-0.2-0.1-0.2-0.2v-10.8C487.1,121.2,487.1,121.1,487.2,121.1z M461.1,138.6c0-0.1,0-0.1,0.1-0.1
			h5.7c0.1,0,0.1,0,0.1,0.1v10.8c0,0.1,0,0.2-0.1,0.2h-5.7c-0.1,0-0.1-0.1-0.1-0.2V138.6z M495.8,138.4h5.7c0.1,0,0.2,0,0.2,0.1
			v10.8c0,0.1-0.1,0.2-0.2,0.2h-5.7c-0.1,0-0.2-0.1-0.2-0.2v-10.8C495.7,138.5,495.7,138.4,495.8,138.4z M492.9,138.4
			c0.1,0,0.1,0,0.1,0.1v10.8c0,0.1,0,0.2-0.1,0.2h-5.7c-0.1,0-0.2-0.1-0.2-0.2v-10.8c0-0.1,0.1-0.1,0.2-0.1H492.9z M458.1,155.7
			c0.1,0,0.2,0.1,0.2,0.2v10.8c0,0.1-0.1,0.2-0.2,0.2h-5.7c-0.1,0-0.2-0.1-0.2-0.2v-10.8c0-0.1,0.1-0.2,0.2-0.2H458.1z M461.1,155.9
			c0-0.1,0-0.2,0.1-0.2h5.7c0.1,0,0.1,0.1,0.1,0.2v10.8c0,0.1,0,0.2-0.1,0.2h-5.7c-0.1,0-0.1-0.1-0.1-0.2V155.9z M452.4,138.4h5.7
			c0.1,0,0.2,0,0.2,0.1v10.8c0,0.1-0.1,0.2-0.2,0.2h-5.7c-0.1,0-0.2-0.1-0.2-0.2v-10.8C452.3,138.5,452.3,138.4,452.4,138.4z
			 M469.7,138.6c0-0.1,0-0.1,0.1-0.1h5.7c0.1,0,0.1,0,0.1,0.1v10.8c0,0.1,0,0.2-0.1,0.2h-5.7c-0.1,0-0.1-0.1-0.1-0.2V138.6z
			 M495.8,190.3h5.7c0.1,0,0.2,0.1,0.2,0.2v10.8c0,0.1-0.1,0.2-0.2,0.2h-5.7c-0.1,0-0.2-0.1-0.2-0.2v-10.8
			C495.7,190.4,495.7,190.3,495.8,190.3z M487.2,190.3h5.7c0.1,0,0.1,0.1,0.1,0.2v10.8c0,0.1,0,0.2-0.1,0.2h-5.7
			c-0.1,0-0.2-0.1-0.2-0.2v-10.8C487.1,190.4,487.1,190.3,487.2,190.3z M492.9,173c0.1,0,0.1,0.1,0.1,0.2V184c0,0.1,0,0.2-0.1,0.2
			h-5.7c-0.1,0-0.2-0.1-0.2-0.2v-10.9c0-0.1,0.1-0.2,0.2-0.2H492.9z M501.5,173c0.1,0,0.2,0.1,0.2,0.2V184c0,0.1-0.1,0.2-0.2,0.2
			h-5.7c-0.1,0-0.2-0.1-0.2-0.2v-10.9c0-0.1,0.1-0.2,0.2-0.2H501.5z M487.2,155.7h5.7c0.1,0,0.1,0.1,0.1,0.2v10.8
			c0,0.1,0,0.2-0.1,0.2h-5.7c-0.1,0-0.2-0.1-0.2-0.2v-10.8C487.1,155.8,487.1,155.7,487.2,155.7z M501.5,155.7
			c0.1,0,0.2,0.1,0.2,0.2v10.8c0,0.1-0.1,0.2-0.2,0.2h-5.7c-0.1,0-0.2-0.1-0.2-0.2v-10.8c0-0.1,0.1-0.2,0.2-0.2H501.5z M475.5,155.7
			c0.1,0,0.1,0.1,0.1,0.2v10.8c0,0.1,0,0.2-0.1,0.2h-5.7c-0.1,0-0.1-0.1-0.1-0.2v-10.8c0-0.1,0-0.2,0.1-0.2H475.5z M478.3,155.9
			c0-0.1,0-0.2,0.1-0.2h5.7c0.1,0,0.2,0.1,0.2,0.2v10.8c0,0.1-0.1,0.2-0.2,0.2h-5.7c-0.1,0-0.1-0.1-0.1-0.2V155.9z M478.4,138.4h5.7
			c0.1,0,0.2,0,0.2,0.1v10.8c0,0.1-0.1,0.2-0.2,0.2h-5.7c-0.1,0-0.1-0.1-0.1-0.2v-10.8C478.3,138.5,478.3,138.4,478.4,138.4z
			 M484.3,173.2V184c0,0.1-0.1,0.2-0.2,0.2h-5.7c-0.1,0-0.1-0.1-0.1-0.2v-10.8c0-0.1,0-0.2,0.1-0.2h5.7
			C484.2,173,484.3,173.1,484.3,173.2z M457.7,233.8c0-0.1,0.1-0.2,0.2-0.2h8c0,0,0.1,0.1,0.1,0.2v11c0,0.1,0,0.2-0.1,0.2h-8
			c-0.1,0-0.2-0.1-0.2-0.2V233.8z M455.7,233.6c0,0,0.1,0.1,0.1,0.2v11c0,0.1,0,0.2-0.1,0.2h-8c-0.1,0-0.2-0.1-0.2-0.2v-11
			c0-0.1,0.1-0.2,0.2-0.2H455.7z M452.3,207.8c0-0.1,0.1-0.2,0.2-0.2h5.7c0.1,0,0.2,0.1,0.2,0.2v10.8c0,0.1-0.1,0.2-0.2,0.2h-5.7
			c-0.1,0-0.2-0.1-0.2-0.2V207.8z M452.3,190.5c0-0.1,0.1-0.2,0.2-0.2h5.7c0.1,0,0.2,0.1,0.2,0.2v10.8c0,0.1-0.1,0.2-0.2,0.2h-5.7
			c-0.1,0-0.2-0.1-0.2-0.2V190.5z M458.1,173c0.1,0,0.2,0.1,0.2,0.2V184c0,0.1-0.1,0.2-0.2,0.2h-5.7c-0.1,0-0.2-0.1-0.2-0.2v-10.8
			c0-0.1,0.1-0.2,0.2-0.2H458.1z M495.8,207.6h5.7c0.1,0,0.2,0.1,0.2,0.2v10.8c0,0.1-0.1,0.2-0.2,0.2h-5.7c-0.1,0-0.2-0.1-0.2-0.2
			v-10.8C495.7,207.7,495.7,207.6,495.8,207.6z M492.9,207.6c0.1,0,0.1,0.1,0.1,0.2v10.8c0,0.1,0,0.2-0.1,0.2h-5.7
			c-0.1,0-0.2-0.1-0.2-0.2v-10.8c0-0.1,0.1-0.2,0.2-0.2H492.9z M478.4,207.6h5.7c0.1,0,0.2,0.1,0.2,0.2v10.8c0,0.1-0.1,0.2-0.2,0.2
			h-5.7c-0.1,0-0.1-0.1-0.1-0.2v-10.8C478.3,207.7,478.3,207.6,478.4,207.6z M466.9,207.6c0.1,0,0.1,0.1,0.1,0.2v10.8
			c0,0.1,0,0.2-0.1,0.2h-5.7c-0.1,0-0.1-0.1-0.1-0.2v-10.8c0-0.1,0-0.2,0.1-0.2H466.9z M469.7,207.8c0-0.1,0-0.2,0.1-0.2h5.7
			c0.1,0,0.1,0.1,0.1,0.2v10.8c0,0.1,0,0.2-0.1,0.2h-5.7c-0.1,0-0.1-0.1-0.1-0.2V207.8z M478.3,190.5c0-0.1,0-0.2,0.1-0.2h5.7
			c0.1,0,0.2,0.1,0.2,0.2v10.8c0,0.1-0.1,0.2-0.2,0.2h-5.7c-0.1,0-0.1-0.1-0.1-0.2V190.5z M469.7,190.5c0-0.1,0-0.2,0.1-0.2h5.7
			c0.1,0,0.1,0.1,0.1,0.2v10.8c0,0.1,0,0.2-0.1,0.2h-5.7c-0.1,0-0.1-0.1-0.1-0.2V190.5z M466.9,190.3c0.1,0,0.1,0.1,0.1,0.2v10.8
			c0,0.1,0,0.2-0.1,0.2h-5.7c-0.1,0-0.1-0.1-0.1-0.2v-10.8c0-0.1,0-0.2,0.1-0.2H466.9z M466.9,173c0.1,0,0.1,0.1,0.1,0.2V184
			c0,0.1,0,0.2-0.1,0.2h-5.7c-0.1,0-0.1-0.1-0.1-0.2v-10.9c0-0.1,0-0.2,0.1-0.2H466.9z M475.5,173c0.1,0,0.1,0.1,0.1,0.2V184
			c0,0.1,0,0.2-0.1,0.2h-5.7c-0.1,0-0.1-0.1-0.1-0.2v-10.9c0-0.1,0-0.2,0.1-0.2H475.5z M468.5,233.9c0-0.2,0.1-0.3,0.4-0.3h12.7
			c0.2,0,0.4,0.1,0.4,0.3v16.5c0,0.2-0.1,0.3-0.4,0.3h-12.7c-0.2,0-0.4-0.1-0.4-0.3V233.9z M494.7,233.8c0-0.1,0.1-0.2,0.2-0.2h8
			c0,0,0.1,0.1,0.1,0.2v11c0,0.1,0,0.2-0.1,0.2h-8c-0.1,0-0.2-0.1-0.2-0.2V233.8z M492.7,233.6c0,0,0.1,0.1,0.1,0.2v11
			c0,0.1,0,0.2-0.1,0.2h-8c-0.1,0-0.2-0.1-0.2-0.2v-11c0-0.1,0.1-0.2,0.2-0.2H492.7z"/>
		<path fill-rule="evenodd" clip-rule="evenodd" fill="#649488" d="M457.5,231v-5.7c0-0.1,0.3-0.1,0.9-0.1H492c0.6,0,0.9,0,0.9,0.1
			v5.7c0,0.1-0.3,0.1-0.9,0.1h-33.5C457.9,231.1,457.5,231.1,457.5,231z"/>
	</g>
</g>
<g>
	<g>
		<path fill-rule="evenodd" clip-rule="evenodd" fill="#649488" d="M647,166.2l19.2,13.9v8h2.5v9.3v55.2h-48.5v-55.2v-9.3h7.1v-7.8
			c0-0.1,0.1-0.2,0.3-0.2L647,166.2z"/>
		<polygon fill-rule="evenodd" clip-rule="evenodd" fill="#645649" points="668.7,252.7 668.7,197.5 668.7,188.2 666.2,188.2 
			666.2,180.2 647,166.2 665.5,166.2 684.8,180.2 684.9,180.2 684.9,188.2 692,188.2 692,197.5 692,252.7 		"/>
		<g>
			<path fill-rule="evenodd" clip-rule="evenodd" fill="#FACE53" d="M622.3,237.3c0-0.1,0.1-0.2,0.4-0.2h13.5c0.2,0,0.3,0.1,0.3,0.2
				v8.9c0,0.1-0.1,0.2-0.3,0.2h-13.5c-0.2,0-0.4-0.1-0.4-0.2V237.3z M631.1,222.5c0.1,0,0.2,0.1,0.2,0.2v8.9c0,0.1-0.1,0.2-0.2,0.2
				h-8.5c-0.2,0-0.3-0.1-0.3-0.2v-8.9c0-0.1,0.1-0.2,0.3-0.2H631.1z M622.3,208.7c0-0.1,0.1-0.2,0.3-0.2h8.5c0.1,0,0.2,0.1,0.2,0.2
				v9c0,0.1-0.1,0.2-0.2,0.2h-8.5c-0.2,0-0.3-0.1-0.3-0.2V208.7z M631.1,194.1c0.1,0,0.2,0.1,0.2,0.2v9c0,0.1-0.1,0.2-0.2,0.2h-8.5
				c-0.2,0-0.3-0.1-0.3-0.2v-9c0-0.1,0.1-0.2,0.3-0.2H631.1z M653.9,187.9V183c0,0,0.1-0.1,0.2-0.1h8.5c0.1,0,0.2,0,0.2,0.1v4.9
				c0,0.1-0.1,0.1-0.2,0.1h-8.5C654,188,653.9,188,653.9,187.9z M639.4,187.9c0,0.1-0.1,0.1-0.2,0.1h-8.5c-0.2,0-0.3,0-0.3-0.1V183
				c0,0,0.1-0.1,0.3-0.1h8.5c0.1,0,0.2,0,0.2,0.1V187.9z M642.2,183c0,0,0.1-0.1,0.2-0.1h8.6c0.1,0,0.2,0,0.2,0.1v4.9
				c0,0.1-0.1,0.1-0.2,0.1h-8.6c-0.1,0-0.2,0-0.2-0.1V183z M666.6,222.5c0.1,0,0.1,0.1,0.1,0.2v9c0,0.1,0,0.2-0.1,0.2H658
				c-0.1,0-0.2-0.1-0.2-0.2v-9c0-0.1,0.1-0.2,0.2-0.2H666.6z M652.5,237.3c0-0.1,0.1-0.2,0.3-0.2h13.7c0.1,0,0.2,0.1,0.2,0.2v9
				c0,0.1-0.1,0.2-0.2,0.2h-13.7c-0.2,0-0.3-0.1-0.3-0.2V237.3z M639.1,237.3c0-0.1,0.1-0.2,0.3-0.2h10.3c0.2,0,0.3,0.1,0.3,0.2
				v13.6c0,0.1-0.1,0.2-0.3,0.2h-10.3c-0.2,0-0.3-0.1-0.3-0.2V237.3z M634.2,222.5h8.6c0.1,0,0.2,0.1,0.2,0.2v8.9
				c0,0.1-0.1,0.2-0.2,0.2h-8.6c-0.1,0-0.2-0.1-0.2-0.2v-8.9C634,222.6,634.1,222.5,634.2,222.5z M645.8,222.7
				c0-0.1,0.1-0.2,0.2-0.2h8.5c0.1,0,0.2,0.1,0.2,0.2v8.9c0,0.1-0.1,0.2-0.2,0.2H646c-0.1,0-0.2-0.1-0.2-0.2V222.7z M642.8,208.5
				c0.1,0,0.2,0.1,0.2,0.2v9c0,0.1-0.1,0.2-0.2,0.2h-8.6c-0.1,0-0.2-0.1-0.2-0.2v-9c0-0.1,0.1-0.2,0.2-0.2H642.8z M634,203.2v-9
				c0-0.1,0.1-0.2,0.2-0.2h8.6c0.1,0,0.2,0.1,0.2,0.2v9c0,0.1-0.1,0.2-0.2,0.2h-8.6C634.1,203.4,634,203.3,634,203.2z M654.5,208.5
				c0.1,0,0.2,0.1,0.2,0.2v9c0,0.1-0.1,0.2-0.2,0.2H646c-0.1,0-0.2-0.1-0.2-0.2v-9c0-0.1,0.1-0.2,0.2-0.2H654.5z M657.8,208.7
				c0-0.1,0.1-0.1,0.2-0.1h8.7c0.1,0,0.1,0,0.1,0.1v9c0,0.1,0,0.1-0.1,0.1H658c-0.1,0-0.2-0.1-0.2-0.2V208.7z M654.5,194.1
				c0.1,0,0.2,0.1,0.2,0.2v9c0,0.1-0.1,0.2-0.2,0.2H646c-0.1,0-0.2-0.1-0.2-0.2v-9c0-0.1,0.1-0.2,0.2-0.2H654.5z M666.7,203.2
				c0,0.1,0,0.1-0.1,0.1H658c-0.1,0-0.2-0.1-0.2-0.2v-9c0-0.1,0.1-0.1,0.2-0.1h8.7c0.1,0,0.1,0,0.1,0.1V203.2z"/>
			<path fill-rule="evenodd" clip-rule="evenodd" fill="#A1A244" d="M678.5,222.5c0.1,0,0.1,0.1,0.1,0.2v9c0,0.1,0,0.2-0.1,0.2h-5.7
				c-0.1,0-0.1-0.1-0.1-0.2v-9c0-0.1,0-0.2,0.1-0.2H678.5z M678.6,194.2v9c0,0.1,0,0.1-0.1,0.1h-5.7c-0.1,0-0.1-0.1-0.1-0.2v-9
				c0-0.1,0-0.1,0.1-0.1h5.7C678.5,194.1,678.6,194.2,678.6,194.2z M678.5,208.6c0.1,0,0.1,0,0.1,0.1v9c0,0.1,0,0.1-0.1,0.1h-5.7
				c-0.1,0-0.1-0.1-0.1-0.2v-9c0-0.1,0-0.1,0.1-0.1H678.5z"/>
		</g>
	</g>
</g>
<g>
	<path fill-rule="evenodd" clip-rule="evenodd" fill="#FACE53" d="M172,192.1c0.1,0,0.1,0,0.1,0.1v7.5c0,0.1,0,0.2-0.1,0.2h-4.6
		c-0.1,0-0.1-0.1-0.1-0.2v-7.5c0-0.1,0-0.1,0.1-0.1H172z M165,180.1c0.1,0,0.1,0,0.1,0.1v7.5c0,0.1,0,0.1-0.1,0.1h-4.6
		c-0.1,0-0.1,0-0.1-0.1v-7.5c0-0.1,0-0.1,0.1-0.1H165z M172,180.1c0.1,0,0.1,0,0.1,0.1v7.5c0,0.1,0,0.1-0.1,0.1h-4.6
		c-0.1,0-0.1,0-0.1-0.1v-7.5c0-0.1,0-0.1,0.1-0.1H172z M172,168.1c0.1,0,0.1,0.1,0.1,0.2v7.5c0,0.1,0,0.2-0.1,0.2h-4.6
		c-0.1,0-0.1-0.1-0.1-0.2v-7.5c0-0.1,0-0.2,0.1-0.2H172z M160.3,175.8v-7.5c0-0.1,0-0.2,0.1-0.2h4.6c0.1,0,0.1,0.1,0.1,0.2v7.5
		c0,0.1,0,0.2-0.1,0.2h-4.6C160.3,175.9,160.3,175.9,160.3,175.8z M165,156.2c0.1,0,0.1,0,0.1,0.1v7.5c0,0.1,0,0.1-0.1,0.1h-4.6
		c-0.1,0-0.1,0-0.1-0.1v-7.5c0-0.1,0-0.1,0.1-0.1H165z M172,156.2c0.1,0,0.1,0,0.1,0.1v7.5c0,0.1,0,0.1-0.1,0.1h-4.6
		c-0.1,0-0.1,0-0.1-0.1v-7.5c0-0.1,0-0.1,0.1-0.1H172z M172,144.1c0.1,0,0.1,0.1,0.1,0.2v7.5c0,0.1,0,0.1-0.1,0.1h-4.6
		c-0.1,0-0.1,0-0.1-0.1v-7.5c0-0.1,0-0.2,0.1-0.2H172z M160.3,144.3c0-0.1,0-0.2,0.1-0.2h4.6c0.1,0,0.1,0.1,0.1,0.2v7.5
		c0,0.1,0,0.1-0.1,0.1h-4.6c-0.1,0-0.1,0-0.1-0.1V144.3z M165,132.2c0.1,0,0.1,0,0.1,0.1v7.5c0,0.1,0,0.1-0.1,0.1h-4.6
		c-0.1,0-0.1,0-0.1-0.1v-7.5c0-0.1,0-0.1,0.1-0.1H165z M172,132.2c0.1,0,0.1,0,0.1,0.1v7.5c0,0.1,0,0.1-0.1,0.1h-4.6
		c-0.1,0-0.1,0-0.1-0.1v-7.5c0-0.1,0-0.1,0.1-0.1H172z M167.2,120.4h3.8c0.1,0,0.1,0,0.1,0.1v6.4c0,0.1,0,0.1-0.1,0.1h-3.8
		c-0.1,0-0.2,0-0.2-0.1v-6.4C167,120.5,167.1,120.4,167.2,120.4z M161.1,120.5c0-0.1,0-0.1,0.1-0.1h3.9c0.1,0,0.1,0,0.1,0.1v6.4
		c0,0.1,0,0.1-0.1,0.1h-3.9c-0.1,0-0.1,0-0.1-0.1V120.5z M171,110.3c0.1,0,0.1,0,0.1,0.1v6.4c0,0,0,0.1-0.1,0.1h-3.8
		c-0.1,0-0.2,0-0.2-0.1v-6.4c0-0.1,0.1-0.1,0.2-0.1H171z M165,110.3c0.1,0,0.1,0,0.1,0.1v6.3c0,0.1,0,0.1-0.1,0.1h-3.9
		c-0.1,0-0.1,0-0.1-0.1v-6.3c0-0.1,0-0.1,0.1-0.1H165z"/>
</g>
<g>
	<path fill-rule="evenodd" clip-rule="evenodd" fill="#FACE53" d="M441.2,55.3c0-0.1,0-0.1,0.1-0.1h5.3c0.1,0,0.2,0,0.2,0.1V64
		c0,0.1-0.1,0.2-0.2,0.2h-5.3c0,0-0.1-0.1-0.1-0.2V55.3z M446.6,41.3c0.1,0,0.2,0.1,0.2,0.2v8.7c0,0.1-0.1,0.2-0.2,0.2h-5.3
		c0,0-0.1-0.1-0.1-0.2v-8.7c0-0.1,0-0.2,0.1-0.2H446.6z"/>
</g>
<g>
	<path fill-rule="evenodd" clip-rule="evenodd" fill="#FACE53" d="M468.9,55.3c0-0.1,0-0.1,0.1-0.1h5.3c0.1,0,0.2,0,0.2,0.1V64
		c0,0.1-0.1,0.2-0.2,0.2h-5.3c0,0-0.1-0.1-0.1-0.2V55.3z M474.3,41.3c0.1,0,0.2,0.1,0.2,0.2v8.7c0,0.1-0.1,0.2-0.2,0.2h-5.3
		c0,0-0.1-0.1-0.1-0.2v-8.7c0-0.1,0-0.2,0.1-0.2H474.3z"/>
</g>
</svg>
