<?xml version="1.0" encoding="utf-8"?>
<!-- Generator: Adobe Illustrator 17.1.0, SVG Export Plug-In . SVG Version: 6.00 Build 0)  -->
<!DOCTYPE svg PUBLIC "-//W3C//DTD SVG 1.1//EN" "http://www.w3.org/Graphics/SVG/1.1/DTD/svg11.dtd">
<svg version="1.1" id="Слой_1" xmlns="http://www.w3.org/2000/svg" xmlns:xlink="http://www.w3.org/1999/xlink" x="0px" y="0px"
	 viewBox="0 0 111.5 133.5" enable-background="new 0 0 111.5 133.5" xml:space="preserve">
<path fill="#809728" d="M56.4,131c-6.6,0-10.8-1.5-12.2-4.5c-1.5-3.2,0.4-7.6,2-9.6c1.9-2.4,1.6-4.3,1-5.5c-1.2-2.5-4.8-3.9-7.6-3.9
	l-0.1,0c-10.7,0.1-20.8,2.2-30.2,6.1c-3.8-9.2-5.8-19.1-5.9-29.5c0-2,0.7-4.1,1.9-5.2c0.6-0.6,1.2-0.9,1.9-0.9c0.7,0,1.5,0.3,2.4,1
	c1.4,1.1,4.7,3,8.2,3c0,0,0,0,0,0c2.2,0,4.1-0.8,5.5-2.2c2.4-2.5,3.6-6.9,3.5-13.1c-0.2-12.5-5.1-15.1-9.2-15.1
	c-3.5,0-6.9,2-8.3,3.2c-0.9,0.7-1.7,1.1-2.4,1.1c-2.2,0-3.8-3.2-3.9-6C2.7,39.4,4.5,29.5,8.1,20.2c9.2,3.6,19,5.4,29.2,5.4
	c0.4,0,0.8,0,1.1,0c2.9,0,6.4-1.4,7.6-4c0.6-1.2,0.8-3.2-1.1-5.5c-1.6-2-3.7-6.3-2.2-9.6c1.4-3,5.8-4.6,12.6-4.7l0.5,0
	c6.6,0,10.8,1.5,12.2,4.4c1.5,3.2-0.4,7.6-2,9.6c-1.9,2.4-1.6,4.3-1,5.5c1.2,2.5,4.8,3.9,7.6,3.9l0.1,0c10.7-0.1,20.8-2.2,30.2-6.1
	c3.8,9.2,5.8,19.1,5.9,29.5c0,2-0.7,4.1-1.9,5.2c-0.6,0.6-1.2,0.9-1.9,0.9c-0.7,0-1.5-0.3-2.4-1c-1.4-1.1-4.7-3-8.2-3
	c-2.2,0-4.1,0.8-5.5,2.2c-2.4,2.5-3.6,6.9-3.5,13.1c0.2,12.5,5.1,15.1,9.2,15.1c3.5,0,6.9-2,8.3-3.2c0.9-0.7,1.7-1.1,2.4-1.1
	c2.2,0,3.8,3.2,3.9,6c0.1,10.4-1.6,20.4-5.2,29.6c-9.2-3.6-19-5.4-29.3-5.4c-0.4,0-0.8,0-1.1,0c-2.9,0-6.4,1.4-7.6,4
	c-0.6,1.2-0.8,3.2,1.1,5.5c1.6,2,3.7,6.3,2.2,9.6c-1.4,3-5.8,4.6-12.6,4.7L56.4,131z"/>
</svg>
