<?xml version="1.0" encoding="utf-8"?>
<!-- Generator: Adobe Illustrator 17.1.0, SVG Export Plug-In . SVG Version: 6.00 Build 0)  -->
<!DOCTYPE svg PUBLIC "-//W3C//DTD SVG 1.1//EN" "http://www.w3.org/Graphics/SVG/1.1/DTD/svg11.dtd">
<svg version="1.1" id="Layer_1" xmlns="http://www.w3.org/2000/svg" xmlns:xlink="http://www.w3.org/1999/xlink" x="0px" y="0px"
	 viewBox="0 0 193 262" enable-background="new 0 0 193 262" xml:space="preserve">
<path fill="#FFE0D1" d="M95.6,249.3c-23.7,0-46-9.1-63-25.7c-17-16.6-26.6-38.8-27.1-62.5C5.1,137,14,114.2,30.6,96.8
	c16.7-17.4,39.1-27.2,63.2-27.7c0.6,0,1.1,0,1.7,0c0.8,0,1.6,0,2.5,0l11.6-24.7c1.2-2.6,3.9-4.3,6.7-4.3c0.2,0,0.3,0,0.5,0l0.3-0.7
	c0-1.1,0.2-2.2,0.7-3.3l0.8-1.6c-0.1-0.2-0.2-0.4-0.2-0.7c-0.5-1.8-0.4-3.7,0.4-5.4l0.8-1.7c0.9-1.9,2.6-3.4,4.5-4l6.3-13.5
	c1.2-2.5,3.7-4.1,6.4-4.1c1,0,2,0.2,2.9,0.6l17.3,8.1c1.6,0.8,2.9,2.1,3.6,3.9c0.6,1.8,0.6,3.8-0.3,5.5l-6.3,13.5
	c0.1,0.2,0.2,0.4,0.2,0.7c0.5,1.8,0.4,3.7-0.4,5.4l-0.8,1.7c-0.9,1.9-2.6,3.4-4.5,4l-0.8,1.7c-0.5,1-1.2,1.9-2.1,2.6l-0.3,0.7
	c0.7,0.7,1.2,1.6,1.6,2.6c0.7,1.9,0.6,3.9-0.3,5.7l-2,4.4c3.8,2.9,6.4,7.3,7,12.1c12.2,8.1,20.3,21.4,22.7,36.9
	c7.2,12.8,11.2,27.4,11.5,42.2c0.5,24.1-8.4,46.9-25.1,64.3c-16.7,17.4-39.1,27.2-63.2,27.7C96.9,249.3,96.3,249.3,95.6,249.3z"/>
<path fill="#FEC00F" d="M180.1,157.4c1,46.6-36,85.2-82.7,86.2c-46.6,1-85.2-36-86.2-82.7c-1-46.6,36-85.2,82.7-86.2
	C140.5,73.8,179.1,110.8,180.1,157.4z"/>
<path fill="#2C5066" d="M144.8,204.8v-10.2c0-1.5-1.8-2.8-4.1-2.8H51.4c-2.3,0-4.1,1.3-4.1,2.8v10.2H144.8z"/>
<rect x="45.6" y="202.4" fill="#0E303F" width="100.9" height="5.5"/>
<path fill="#6875A4" d="M142.5,79.5c-3.1-1.5-6.4-2.5-9.6-3.2l-12.4,26.6c7.3-6.6,15.3-9.3,21.4-6.5c10.6,4.9,11.8,24.8,2.6,44.3
	c-9.1,19.5-25.1,31.3-35.7,26.4c-6.1-2.9-9.1-10.7-8.7-20.5l-12.4,26.6c2.6,2.1,5.5,3.9,8.6,5.3c24.4,11.4,54.6-1.5,67.4-28.8
	C176.4,122.4,167,91,142.5,79.5z"/>
<path fill="#6875A4" d="M113.9,107.1c-0.5,1.2-1.5,1.9-2.1,1.6l-16.1-7.5c-0.6-0.3-0.6-1.5-0.1-2.6l27-57.8c0.5-1.2,1.5-1.9,2.1-1.6
	l16.1,7.5c0.6,0.3,0.6,1.5,0.1,2.6L113.9,107.1z"/>
<path fill="#6875A4" d="M103.5,122.3c-0.4,0.8-1,1.3-1.5,1.1l-11.3-5.3c-0.4-0.2-0.5-1-0.1-1.8l19-40.6c0.4-0.8,1-1.3,1.5-1.1
	l11.3,5.3c0.4,0.2,0.5,1,0.1,1.8L103.5,122.3z"/>
<path fill="#FFFFFF" d="M121,102.9c-0.4,0.9-1.5,1.3-2.3,0.8l-23.6-11c-0.9-0.4-1.3-1.5-0.8-2.3l20.4-43.6c0.4-0.9,1.5-1.3,2.3-0.9
	l23.6,11c0.9,0.4,1.3,1.5,0.8,2.3L121,102.9z"/>
<path fill="#FFFFFF" d="M142.5,47.7c-0.3,0.7-1.1,1.1-1.8,0.8l-17.3-8.1c-0.6-0.3-0.9-1.1-0.6-1.9l12.6-26.9
	c0.3-0.7,1.1-1.1,1.8-0.8l17.3,8.1c0.7,0.3,0.9,1.1,0.6,1.9L142.5,47.7z"/>
<path fill="#6875A4" d="M147.8,42.1c-0.4,0.9-1.4,1.3-2.2,0.9l-21.2-9.9c-0.8-0.4-1.1-1.4-0.7-2.3l0.8-1.7c0.4-0.9,1.4-1.3,2.2-0.9
	l21.2,9.9c0.8,0.4,1.1,1.4,0.7,2.3L147.8,42.1z"/>
<path fill="#6875A4" d="M103.4,166.6c-0.4,0.9-1.5,1.3-2.3,0.8l-21.5-10.1c-0.9-0.4-1.3-1.5-0.9-2.3l0.5-1.1
	c0.4-0.9,1.5-1.3,2.3-0.8l21.5,10.1c0.9,0.4,1.3,1.5,0.8,2.3L103.4,166.6z"/>
<path fill="#2C5066" d="M86.7,159.4c-0.8,1.8-2.2,2.9-3.1,2.5l-21.5-10.1c-0.9-0.4-0.9-2.2-0.1-4l1-2.2c0.8-1.8,2.2-2.9,3.1-2.5
	l21.5,10.1c0.9,0.4,0.9,2.2,0.1,4L86.7,159.4z"/>
<path fill="#6875A4" d="M109.6,155.7c-0.8,1.8-2.2,2.9-3.1,2.5l-21.5-10.1c-0.9-0.4-0.9-2.2-0.1-4l1-2.2c0.8-1.8,2.2-2.9,3.1-2.5
	l21.5,10.1c0.9,0.4,0.9,2.2,0.1,4L109.6,155.7z"/>
<path fill="#1695A4" d="M144.9,85.6c-2.9,6.1-10.2,8.8-16.3,5.9c-6.1-2.9-8.8-10.2-5.9-16.3c2.9-6.1,10.2-8.8,16.3-5.9
	C145.1,72.2,147.7,79.5,144.9,85.6z"/>
<path fill="#2C5066" d="M142.9,84.7c-2.4,5-8.4,7.2-13.4,4.9c-5-2.4-7.2-8.3-4.9-13.4c2.4-5,8.3-7.2,13.4-4.9
	C143.1,73.7,145.2,79.7,142.9,84.7z"/>
<path fill="#2C5066" d="M113.8,153.2c-0.6,1.2-1.7,1.9-2.6,1.4L56,128.8c-0.9-0.4-1.1-1.7-0.6-2.9l0.7-1.5c0.6-1.2,1.7-1.9,2.6-1.4
	l55.2,25.8c0.9,0.4,1.1,1.7,0.6,2.9L113.8,153.2z"/>
<path fill="#2C5066" d="M139.1,197.9l-7.7-19.5c-2-5.2-5.3-9.4-10.7-9.4c-3.9,0-7.4,4.2-7.8,9.4l-1.6,19.5H139.1z"/>
<circle fill="#1695A4" cx="121.3" cy="176.9" r="6"/>
</svg>
