<?xml version="1.0" encoding="utf-8"?>
<!-- Generator: Adobe Illustrator 17.1.0, SVG Export Plug-In . SVG Version: 6.00 Build 0)  -->
<!DOCTYPE svg PUBLIC "-//W3C//DTD SVG 1.1//EN" "http://www.w3.org/Graphics/SVG/1.1/DTD/svg11.dtd">
<svg version="1.1" id="Layer_1" xmlns="http://www.w3.org/2000/svg" xmlns:xlink="http://www.w3.org/1999/xlink" x="0px" y="0px"
	 viewBox="0 0 166.5 355.7" enable-background="new 0 0 166.5 355.7" xml:space="preserve">
<path d="M147.7,46.6c-0.1,0-0.1,0-0.2,0c-1.8,0.3-2.8,1.3-3.1,3c-0.4,1.6,0,4,1,7.1c-0.9,0.8-1.2,1.7-1.1,2.8c0.2,1.1,0.9,2.4,2.1,4
	c3.1,9.5,1,17.8-6.3,24.9c-2,1.5-3.9,3.1-5.7,4.8c-1.6,1.6-3.1,3.2-4.7,4.9c-4.2,4.7-7.7,10-10.5,15.7l-18.9,12.9l-0.5-1
	c-0.1-0.1-0.1-0.1-0.1-0.1c0,0-0.1,0-0.1,0c-0.1,0-0.2,0-0.2,0L85,135.7l-1.6-2.3c0.1-0.6,0.3-1.2,0.4-1.8c0.1-0.1,0-0.1,0-0.2
	c0-0.1-0.1-0.1-0.2-0.1l-2.7-0.7l0.6-6c1.5,0.2,3.1,0.3,4.8,0.3c0,0,0.1-0.1,0.2-0.1c7.7-6.1,12-13.8,12.9-23v-0.1
	c0.1-3.2-0.6-6.7-1.8-10.4c-0.8-2.5-1-4.3-0.7-5.2c1.3,1.5,2.4,3.3,3.5,5.4c0,0,0.1,0.1,0.1,0.1c0.1,0,0.1,0,0.2,0
	c0.1,0,0.1-0.1,0.2-0.1c0-0.1,0-0.1,0-0.2c0.2-2.4-0.1-4.8-0.9-7.3l7.3,7.3c0,0.1,0.1,0.1,0.2,0.1c0.1,0,0.2-0.1,0.2-0.1
	c0,0,0-0.1,0-0.2c0.2-3-0.5-6.1-1.8-9.3c3.6-0.4,6.4-0.9,8.5-1.5c1.5-0.5,2.6-1,3.4-1.5c0.9-0.6,1.3-1.4,1.3-2.1
	c0-0.8-0.5-1.7-1.3-2.6c-0.3-0.3-0.7-0.6-1.1-0.9c-0.8-0.8-1.5-1.4-2.3-2c-4.9-3.7-11-5.6-18.2-5.7c-4.1-13.8-10.8-21.5-20.2-23
	c-1.9-0.3-3.9-0.4-5.9-0.2c-1.6-2.2-3.5-2.8-5.6-2c-2.5,1-3.7,2.4-3.6,4.5c-11.5,4.9-17.5,14.1-18,27.8l0.1,0.1
	c0.1,0.1,0.1,0.1,0.1,0.1c0.9,0.5,1.9,1,2.8,1.4c-1,4.7-3.7,9.2-8.1,13.5c-0.1,0-0.1,0.1-0.1,0.2c0,0.1,0,0.1,0.1,0.2
	c0,0.1,0.1,0.1,0.1,0.2c0,0,0.1,0,0.2,0l6.4-2.6c-5.1,8.4-4.2,15.4,3,21c0.1,0,0.1,0.1,0.2,0.1c0,0,0.1,0,0.1-0.1
	c0,0,0.1-0.1,0.1-0.1c0.1,0,0.1-0.1,0.1-0.2l-0.6-3.9c1.8,3.2,5.4,5.6,11.1,7.1c2.4,4.1,5.3,7.3,8.7,9.6L66,125l-3,0.5
	c-0.1,0-0.1,0-0.1,0.1l-2.9,2.3c0,0,0,0.1,0,0.2c-0.1,0-0.1,0.1-0.1,0.1c0.1,0.8,0.3,1.5,0.4,2.3l-2.7,1.2l-23.1,3.7
	c-0.1,0-0.2,0-0.2,0.1c0,0.1,0,0.2,0,0.2l0.3,1.8c-9.6,2.2-17.8,5-24.6,8.4c-0.1,0.1-0.1,0.1-0.1,0.1c0,0,0,0.1,0,0.1
	c-2.7,12.7,2.6,26,16,40c-1.6,1.7-2,3.8-1.2,6.2c-0.9,0-1.5,0.2-1.9,0.6c-0.5,0.4-0.7,1-0.7,1.9c-0.7-0.1-1.3,0.2-1.7,0.8
	c-0.5,0.6-0.8,1.7-1,3.1c0,0,0,0.1,0,0.2c0.8,2.2,5.3,3.8,13.5,4.7c-0.2,1.1-0.4,2.3-0.6,3.4c-0.6,3.6-1,7.3-1.5,11
	c0,0.1,0,0.1,0,0.2c0,0,0,0,0.2,0.1c1.6,1,3.3,1.9,4.9,2.7c-2.1,6-3.8,12-5.1,18.1c-2.3,10.5-3.5,21.1-3.7,31.9c0,0.1,0,0.1,0,0.2
	c0.1,0.1,0.1,0.1,0.1,0.1c5.4,3,10.4,6,15,9.1c0.8,0.5,1.5,1,2.3,1.5c-2,6.6-3.4,13-4.1,19.2c-0.8,6.2-0.8,11.1-0.3,14.8l-5.3,6
	c0,0.1-0.1,0.1-0.1,0.1l-1.7,6.4c-2.8,2.4-4.6,6.2-5,11.5c-0.2,1.7-0.2,3.7-0.1,5.7c0,0.1,0,0.1,0,0.1c0.1,0.1,0.1,0.1,0.2,0.2
	c11.3,3.7,21.9,3.9,31.7,0.8c0.1-0.1,0.2-0.1,0.2-0.1c0-0.1,0-0.1,0-0.2c0.2-1.8,0.3-3.5,0.2-5.1c-0.1-1.8-0.4-3.4-0.7-4.8l1.5-8.6
	c0-0.1,0-0.1-0.1-0.1l-4-8.3l4.3-23.9c2.7,2.6,5.1,5.3,7.2,8v6c0,0.1,0,0.2,0.1,0.2l8.6,8.3c0,0,0.1,0,0.2,0c0.1,0,0.1,0,0.2,0
	c0.8-0.7,1.6-1.3,2.3-2v11.4c-5.7-1.1-10.1-0.5-13.2,1.9c-3.1,2.4-5.1,6.5-5.6,12.4c-0.2,1.5-0.2,3.2-0.2,5c0,0.1,0,0.1,0.1,0.2
	C61,347,61,347,61.1,347h28.5c0,0,0.1,0,0.2-0.1c0-0.1,0.1-0.1,0.1-0.2c2.4-13.7,7.2-27.2,14.5-40.9c0-0.1,0.1-0.1,0-0.2
	c0-0.1,0-0.2,0-0.2c-1-1-2.1-1.8-3.3-2.6c-1.9-1.3-3.9-2.4-6-3.1c-1.4-0.6-2.8-0.9-4.3-1.2c1-3,1.5-6.2,1.9-9.7c0-0.1,0-0.1,0-0.1
	c-0.1-0.1-0.1-0.1-0.1-0.1l-7.8-4.7c-0.1,0-0.1,0-0.1,0l-7.7-1.5l-12.7-8.4c4.4-11.9,7.5-22.8,9.2-32.8c1.5-8.6,2.1-16.5,1.7-23.8
	c2.3-2.5,4.4-5.6,6.3-9.2c0.1,0,0.1-0.1,0.1-0.2c0,0,0,0,0,0l-4.8-11.9l3.4-3.1c0.1-0.1,0.1-0.1,0.1-0.2c0-0.1,0-0.1,0-0.2
	c-1.5-4.9-1.9-10.3-1-16.2c0.3-2.5,0.9-5,1.7-7.7c1.4-3.3,2.5-6.6,3.4-9.8l20.6-8.9c0-0.1,0.1-0.1,0.1-0.1c0.1-0.1,0.1-0.2,0.1-0.2
	l-1.8-7.2l21.2-17c2-0.6,4-1.5,5.7-2.7c0.7-0.5,1.3-0.9,1.9-1.5c1-0.8,1.9-1.7,2.8-2.7c3.6-4.3,6.5-10.3,8.6-18l0,0
	c1.4-6.4,4.6-10.6,9.5-12.4h0c2.2-0.7,3.2-2.6,3.2-5.9c0-3-1.1-7.4-3.2-12.8c0.2-2.1,0.2-3.9,0.1-5.5l-0.1-8.5
	c-0.2-2.5-0.6-4.5-1.1-5.6c-0.6-1.2-1.4-1.8-2.4-1.7C148.9,47.5,148.3,46.9,147.7,46.6z M34.8,151.9l2.9,6.1
	c0.1,0.1,0.1,0.1,0.1,0.1c0.1,0.1,0.2,0.1,0.2,0.1l7.3-1.4c-2.1,5.3-3.9,10.7-5.6,16.3c-1.4,4.6-2.6,9.3-3.7,14.2
	c-0.3-0.4-0.6-0.8-1.1-1.1c-0.9-0.5-2.2-0.8-4.1-0.8c-1.1-13.8-3.4-24-6.9-30.8L34.8,151.9z M49.6,264.6l-2.4-1.6l4.9-12.8
	L49.6,264.6z"/>
<path fill="#D29169" d="M149.2,48.8c-0.5-0.9-1-1.5-1.6-1.9c-0.3,0.1-0.6,0.1-0.9,0.2l2.6,7.6c-1.9-0.8-3.3-0.8-4.2,0
	c0.2,0.7,0.4,1.4,0.6,2.1c0.3-0.2,0.6-0.4,0.9-0.6c0.8,0,1.5,0.2,2.2,0.4l1.4,12.9c2.9,7.3,3.2,12.3,0.7,15
	c-5.1,4-9.1,8.8-11.9,14.3c-4.2,13.1-9.6,20.7-16.4,23L102.1,137c-1-3.5-1.3-7-0.9-10.5l-0.8,0.6l-1,0.7c-0.8,5.5-0.1,10.9,2.1,16.2
	l1.5-1.2l21.4-17c2-0.6,3.9-1.5,5.6-2.7c0.7-0.5,1.3-0.9,1.9-1.5c0.9-0.8,1.9-1.7,2.7-2.7c3.6-4.3,6.5-10.2,8.5-17.9
	c1.4-6.5,4.6-10.7,9.7-12.6c4-1.3,4-7.5-0.2-18.4c0.2-2.1,0.2-3.9,0.1-5.5l-0.1-8.5c-0.2-3.6-0.9-5.8-2-6.7c1.1,3.5,1.6,6.9,1.5,10
	l-0.9-1.1C150.9,53.8,150.2,50.7,149.2,48.8L149.2,48.8z"/>
<path fill="#FFD5B2" d="M146.6,56.2c-0.4,0.2-0.7,0.4-0.9,0.6c-1.8,1.4-1.4,3.7,0.9,6.6c3.2,9.7,1.1,18.1-6.4,25.2
	c-2,1.5-3.9,3.1-5.6,4.8c-1.6,1.5-3.2,3.1-4.6,4.8c-4.2,4.7-7.7,10-10.5,15.8l-18.3,12.5c-0.4,3.5-0.1,7,0.9,10.5l20.7-15.1
	c6.7-2.3,12.2-10,16.4-23c2.8-5.5,6.7-10.3,11.9-14.3c2.5-2.7,2.2-7.7-0.7-15l-1.4-12.9C148.2,56.3,147.4,56.2,146.6,56.2
	L146.6,56.2z M146.1,57.4l2.6,6l0.7,6.2l-0.5,8.6c-1.2,5-4.2,9.5-8.7,13.6c-9.1,7.3-15.5,15.1-19.1,23.4l-19.4,13.9
	c0-0.7,0.1-1.4,0.1-2.2l18-12.3c0.1-0.1,0.2-0.2,0.3-0.3c2.8-5.7,6.2-10.9,10.4-15.6c1.4-1.6,3-3.2,4.6-4.8c1.8-1.7,3.6-3.3,5.6-4.8
	c0,0,0,0,0-0.1c7.7-7.4,9.9-16,6.6-26c0-0.1-0.1-0.2-0.1-0.3c-1.1-1.3-1.7-2.5-1.9-3.4C145.2,58.6,145.5,57.9,146.1,57.4L146.1,57.4
	z"/>
<path fill="#FFF0E6" d="M146.1,57.4c-0.6,0.5-0.9,1.2-0.8,2c0.2,1,0.8,2.1,1.9,3.4c0.1,0.1,0.1,0.2,0.1,0.3c3.3,10,1.1,18.6-6.6,26
	c0,0,0,0,0,0.1c-2,1.5-3.8,3.1-5.6,4.8c-1.6,1.5-3.1,3.1-4.6,4.8c-4.1,4.7-7.6,9.9-10.4,15.6c-0.1,0.1-0.1,0.2-0.3,0.3l-18,12.3
	c-0.1,0.7-0.1,1.4-0.1,2.2l19.4-13.9c3.7-8.3,10-16.2,19.1-23.4c4.5-4.1,7.5-8.6,8.7-13.6l0.5-8.6l-0.7-6.2L146.1,57.4L146.1,57.4z"
	/>
<path fill="#FFD5B2" d="M149.3,54.7l-2.6-7.6c-2.1,0.8-2.7,3.3-1.6,7.6C145.9,53.8,147.3,53.8,149.3,54.7L149.3,54.7z"/>
<path fill="#FFD5B2" d="M149.2,48.8c1,1.9,1.7,5,2,9.3l0.9,1.1c0.1-3.2-0.4-6.5-1.5-10C150.2,48.8,149.8,48.7,149.2,48.8L149.2,48.8
	z"/>
<path fill="#9BC162" d="M76.7,43.1C76.5,43,76.3,43,76,42.9c-11.9,8-16.7,18.2-14.3,30.4c6.6-5.7,15.4-8.8,26.5-9.6
	C87.9,54.4,84,47.5,76.7,43.1L76.7,43.1z M76.4,43.8c0.5,0.3,0.9,0.6,1.3,0.9c-9.3,7-13.7,15.5-13.1,25.5c-0.8,0.5-1.6,1.1-2.4,1.7
	c-1.8-11.3,2.9-20.7,13.9-28.2C76.3,43.8,76.4,43.8,76.4,43.8L76.4,43.8z"/>
<path fill="#B6D18B" d="M77.8,44.7c-0.4-0.3-0.9-0.6-1.3-0.9c-0.1,0-0.2,0-0.2-0.1c-11,7.5-15.7,16.9-13.9,28.2
	c0.8-0.6,1.5-1.2,2.4-1.7C64.1,60.2,68.5,51.7,77.8,44.7L77.8,44.7z"/>
<path fill="#9BC162" d="M113.5,71c-4.8-3.3-10.6-5-17.5-5.1c-8.9-0.1-19.5,2.6-32,8c9.9,4.4,19.3,4,28.4-1.2
	C97.6,69.2,104.6,68.6,113.5,71L113.5,71z"/>
<path fill="#709339" d="M76.7,43.1c7.3,4.4,11.1,11.3,11.5,20.7c-11.1,0.7-19.9,3.9-26.5,9.6C59.3,61.1,64.1,51,76,42.9
	c-1.5-0.3-3.1-0.4-4.7-0.3c-10.9,6.2-16.8,15.9-17.6,29.1l-10.4-1c0,0.6-0.1,1.3-0.1,2c1,0.5,2,1,2.9,1.5c4.9,2.2,9.2,2.8,12.9,1.9
	c1-0.3,2.1-0.7,3-1.2c0.7-0.3,1.3-0.6,2-0.9c12.4-5.4,23.1-8.1,32-8C92.1,52.5,85.7,44.8,76.7,43.1L76.7,43.1z"/>
<path fill="#090900" d="M105.4,81.8c3.7-0.4,6.7-0.9,8.9-1.5c1.4-0.4,2.6-0.9,3.3-1.5c1.6-1.2,1.6-2.7,0-4.4c-0.3-0.3-0.6-0.6-1-1
	c-0.8-0.2-1.5-0.4-2.3-0.6c-5.3-1.2-10-1-14.4,0.4C102.3,76.2,104.2,79.1,105.4,81.8L105.4,81.8z"/>
<path fill="#513226" d="M99.9,73.3c-1.8,0.6-3.5,1.4-5.2,2.4c-1.4,0.9-2.8,2-4.2,3.2c-0.5,0.7-1.1,1.3-1.7,1.8
	c0.3,0.1,0.6,0.2,1,0.3l5.3-2.3c2.4,3.5,3.7,6.8,3.9,9.8c0.6,0.9,1.2,2,1.8,3c0.3-2.7-0.2-5.5-1.3-8.3c-0.8-1.9-1.8-3.7-3.2-5.6
	l4.1-1c3.2,4.9,5.1,9.3,5.7,13.2l1.5,1.5c0.2-3-0.5-6.2-2-9.5C104.2,79.1,102.3,76.2,99.9,73.3L99.9,73.3z"/>
<path fill="#996148" d="M100.3,76.6l-4.1,1c1.3,1.9,2.4,3.8,3.2,5.6l6.6,6.6C105.4,85.9,103.5,81.5,100.3,76.6L100.3,76.6z"/>
<path fill="#D29169" d="M97.4,91.5c-0.9-2.9-1.1-4.8-0.5-5.7c-2.1-2.4-4.5-4-7.1-4.8c-0.3-0.1-0.6-0.2-1-0.3
	c-5.6,4.7-14.5,2.7-26.8-5.9c-0.9,0.5-2,0.9-3,1.2c-2.9,7.5-2.4,15.1,1.4,22.7c-1.3-7-0.5-12.8,2.4-17.3
	c14.6,8.3,23.2,10.1,25.8,5.6c9.4,13,7.9,24.4-4.6,34.2c-5.6,1.1-12.4-0.6-20.4-5.2c1.2,1.2,2.4,2.3,3.8,3.2
	c3.9,2.8,8.5,4.5,13.8,5.2c1.6,0.2,3.3,0.3,5,0.3c7.6-6.1,11.9-13.6,12.8-22.8C99.2,98.6,98.6,95.1,97.4,91.5L97.4,91.5z"/>
<path fill="#996148" d="M96.9,85.8c0.7,0.8,1.4,1.7,2,2.7c-0.2-3-1.4-6.3-3.9-9.8l-5.3,2.3C92.4,81.8,94.8,83.3,96.9,85.8L96.9,85.8
	z"/>
<path fill="#FFD5B2" d="M84.1,121.1c12.5-9.8,14.1-21.2,4.6-34.2c-2.6,4.6-11.2,2.7-25.8-5.6c-3,4.5-3.8,10.3-2.4,17.3l-2.9,1.9
	c-4.9-8.9-8.1-10.9-9.5-6c-0.4,6.3,2.5,10,8.7,11.3c0.6,1.2,1.2,2.4,1.9,3.5c1.5,2.5,3.2,4.7,5,6.5
	C71.7,120.5,78.5,122.3,84.1,121.1L84.1,121.1z M57.5,105.5c0-0.1-0.1-0.2-0.2-0.3c-0.1-0.1-0.2-0.1-0.3-0.2
	c-5.8-1.2-8.5-4.6-8.1-10.4c1.4,5.4,4.9,8.5,10.4,9.4c2.7,6.4,6.1,11,10.2,13.9c-1.7-0.7-3.5-1.6-5.3-2.7c-1.8-1.8-3.4-3.9-4.8-6.3
	C58.7,107.9,58.1,106.7,57.5,105.5L57.5,105.5z"/>
<path fill="#FFF0E6" d="M57.3,105.3c0.1,0.1,0.2,0.2,0.2,0.3c0.6,1.2,1.2,2.4,1.9,3.5c1.4,2.4,3,4.5,4.8,6.3c1.8,1,3.6,2,5.3,2.7
	c-4.1-2.9-7.5-7.5-10.2-13.9c-5.5-0.9-9-4-10.4-9.4c-0.4,5.8,2.4,9.2,8.1,10.4C57.1,105.1,57.2,105.2,57.3,105.3L57.3,105.3z"/>
<path fill="#1C4764" d="M99.7,125.8c-0.1,0.6-0.3,1.3-0.4,1.9l1-0.7L99.7,125.8L99.7,125.8z"/>
<path fill="#569CBA" d="M99.3,127.7c0.1-0.6,0.2-1.3,0.4-1.9l-3,2.1c-0.1,7.1,1.2,14,3.9,20.7l-3.9,0.8c0.5,1.1,1,2.3,1.6,3.3
	l6.4-2.7c-1.3-2.1-2.4-4.1-3.3-6.2C99.2,138.6,98.5,133.2,99.3,127.7L99.3,127.7z"/>
<path fill="#1C4764" d="M102.9,142.7l-1.5,1.2c0.9,2.1,2,4.1,3.3,6.2L102.9,142.7L102.9,142.7z"/>
<path fill="#569CBA" d="M93.7,130l-2.3,1.6c-1.7,7.1-1.2,14.1,1.4,21l-8.2,4c-0.2,0.8-0.4,1.6-0.6,2.4l14.3-6.2
	c-0.6-1.1-1.2-2.2-1.6-3.3C94.1,143.4,93,137,93.7,130L93.7,130z"/>
<path fill="#D29169" d="M80.5,132.8l0.2-1.9l0.4-4.5c-1.4-0.2-2.8-0.4-4.1-0.8c-0.2,6.9-1.9,12.1-5,15.6l-6.6-8.4
	c1.7,4,3.9,8,6.8,12.1C76.2,141.9,79,137.9,80.5,132.8L80.5,132.8z"/>
<path fill="#83B7DE" d="M80.7,130.9l-0.2,1.9c-1.5,5.1-4.3,9.1-8.3,12c-2.8-4-5.1-8-6.8-12.1c-0.2-0.4-0.4-0.9-0.5-1.3
	c-0.7-1.9-1.3-3.8-1.8-5.7l-2.9,2.3c0.1,0.8,0.3,1.7,0.5,2.5c0.9,4.3,2.7,8.4,5.2,12.3c1.5,2.4,3.4,4.7,5.6,7c2.8-1.3,5.1-3.2,7-5.8
	c2.1-2.8,3.7-6.3,4.8-10.6c0.2-0.6,0.3-1.2,0.4-1.8L80.7,130.9L80.7,130.9z"/>
<path fill="#AF6F50" d="M77,125.6c1.3,0.3,2.7,0.6,4.1,0.8l0.2-2c-5.3-0.7-9.9-2.4-13.8-5.2l-0.4,1.7c0.9,0.7,1.9,1.4,3,2
	C72.2,124,74.6,125,77,125.6L77,125.6z"/>
<path fill="#569CBA" d="M78.4,144.1l3.7,0.2l3.7,0.2c-0.1-2.8-0.3-5.6-0.8-8.3l-1.8-2.6C82.1,137.7,80.5,141.3,78.4,144.1
	L78.4,144.1z"/>
<path fill="#569CBA" d="M82.1,144.3l-3.7-0.2c-1.9,2.6-4.3,4.5-7,5.8c-2.2-2.3-4-4.6-5.6-7l-3.2-1.1c1.7,4.9,4.2,8.8,7.5,11.4
	C74.9,151,78.9,148,82.1,144.3L82.1,144.3z"/>
<path fill="#83B7DE" d="M82.1,144.3c-3.2,3.8-7.2,6.7-12,8.9c-3.3-2.6-5.8-6.4-7.5-11.4l-4.9-1.8c-2.7,5.2-5.1,10.5-7.3,15.8
	c8,3.7,17,5.1,27.2,4.1L82.1,144.3L82.1,144.3z"/>
<path fill="#83B7DE" d="M84.9,136.1c0.5,2.8,0.8,5.5,0.8,8.3c0.1,4-0.4,8-1.2,12.2l8.2-4c-2.6-6.8-3.1-13.9-1.4-21L84.9,136.1
	L84.9,136.1z"/>
<path fill="#569CBA" d="M85.8,144.4l-3.7-0.2l-4.5,15.6c2.1-0.2,4.3-0.5,6.5-0.9c0.2-0.8,0.4-1.6,0.6-2.4
	C85.4,152.5,85.8,148.4,85.8,144.4L85.8,144.4z"/>
<path fill="#569CBA" d="M77.5,159.9l-3.3,11.4l-0.5,6.4c1.8-0.3,3.5-0.7,5.3-1.1c0.4-2.5,0.9-5.1,1.8-7.7c1.4-3.3,2.5-6.6,3.3-9.9
	C81.8,159.4,79.6,159.7,77.5,159.9L77.5,159.9z"/>
<path fill="#83B7DE" d="M74.2,171.3l3.3-11.4c-10.2,0.9-19.2-0.5-27.2-4.1c-2.6,6.3-4.9,12.6-6.8,19c9.9,3.6,20,4.6,30.2,3
	L74.2,171.3L74.2,171.3z"/>
<path fill="#83B7DE" d="M96.7,149.4l3.9-0.8c-2.7-6.7-4-13.6-3.9-20.7l-3,2.1C93,137,94.1,143.4,96.7,149.4L96.7,149.4z"/>
<path fill="#569CBA" d="M78.9,176.6c-1.8,0.4-3.5,0.8-5.3,1.1l-1,12.1l-3.8,4.4l1.1,2.9c2.2-0.2,4.3-0.5,6.5-0.9l3.5-3.3
	C78.4,187.9,78,182.5,78.9,176.6L78.9,176.6z"/>
<path fill="#569CBA" d="M79.7,204.2c-1.9,1.4-3.8,2.8-5.6,3.9l0.9,2.3c-4.9,5.1-11.8,8.4-20.6,10c-7.7,1.3-15.4-0.1-23.1-4.2
	c-0.1,0.6-0.1,1.1-0.2,1.7c1.7,1,3.4,1.9,5.1,2.8c2,1,3.9,1.8,5.7,2.5c4.7,1.8,9.2,2.8,13.3,2.8c1.3,0,2.5,0,3.7-0.2
	c4.1-0.5,7.9-1.9,11.3-4.2c1.7-1.2,3.2-2.6,4.7-4.2c2.3-2.5,4.5-5.6,6.4-9.3L79.7,204.2L79.7,204.2z"/>
<path fill="#569CBA" d="M74,208.1c1.9-1.1,3.8-2.5,5.6-3.9l-3.2-8c-2.2,0.4-4.4,0.7-6.5,0.9L74,208.1L74,208.1z"/>
<path fill="#83B7DE" d="M74.9,210.4l-0.9-2.3c-12.4,7.4-25,7.7-37.9,0.9c-0.3,2.6-0.6,5.2-0.8,7.9l-2.4-1c0.3-2.7,0.6-5.4,1-8.1
	c-0.4-0.3-0.9-0.5-1.3-0.8c-0.5,3-0.9,6.1-1.3,9.2c7.7,4.1,15.4,5.5,23.1,4.2C63.1,218.8,69.9,215.5,74.9,210.4L74.9,210.4z"/>
<path fill="#9BC162" d="M71.3,42.7c-0.4,0-0.8,0.1-1.2,0.1c-1.3,0.1-2.7,0.3-4.1,0.7c-1.7,0.5-3.2,1-4.7,1.6
	c-10.9,4.6-16.9,13.1-17.8,25.7l10.4,1C54.5,58.5,60.4,48.8,71.3,42.7L71.3,42.7z M66.1,44.2c0.7-0.2,1.3-0.3,2-0.4
	c-1.3,0.9-2.6,1.9-3.8,2.9c-0.1,0-0.1,0.1-0.1,0.1c-3.9,1.6-7.5,4.2-10.9,7.8c-3.8,4.7-6,10-6.5,15.7L44.2,70
	c1.1-11.8,6.8-19.9,17.3-24.3C62.9,45.1,64.5,44.6,66.1,44.2L66.1,44.2z"/>
<path fill="#B6D18B" d="M68.1,43.7c-0.7,0.1-1.3,0.2-2,0.4c-1.6,0.5-3.2,1-4.6,1.6C51,50.1,45.3,58.2,44.2,70l2.6,0.3
	c0.5-5.8,2.7-11,6.5-15.7c3.3-3.6,7-6.2,10.9-7.8c0,0,0.1-0.1,0.1-0.1C65.5,45.7,66.8,44.7,68.1,43.7L68.1,43.7z"/>
<path fill="#090900" d="M70.1,42.7c-1.5-2.2-3.4-2.8-5.5-2.1c-2.4,0.9-3.5,2.4-3.4,4.4c1.5-0.6,3.1-1.2,4.7-1.6
	C67.4,43.1,68.7,42.9,70.1,42.7L70.1,42.7z"/>
<path fill="#513226" d="M53.8,78.6l0.9,12.5c-5.7-6.1-8.4-4.7-8.4,4.1l-1.1,9c0.7,0.8,1.5,1.5,2.4,2.2l-0.9-5.9
	c1.3,4.2,5.2,7.1,11.8,8.8c-0.7-1.1-1.3-2.3-1.9-3.5c-6.2-1.2-9.2-5-8.7-11.3c1.4-4.9,4.6-2.9,9.5,6l2.9-1.9
	c-3.9-7.6-4.3-15.1-1.4-22.7c-3.7,1-8,0.4-12.9-1.9c-0.2,0.9-0.4,1.7-0.7,2.5L53.8,78.6L53.8,78.6z"/>
<path fill="#996148" d="M54.8,91.1l-0.9-12.5l-8.3-1.9c-1.3,3.9-3.8,7.7-7.5,11.3l7.2-2.9c-4.8,7.5-4.8,13.8,0.1,19.1l1.1-9
	C46.3,86.4,49.1,85,54.8,91.1L54.8,91.1z M46,77.6l1.4,0.3c-0.3,2.6-1.5,4.9-3.8,7L41,86C43.3,83.3,44.9,80.5,46,77.6L46,77.6z
	 M45.7,85.7h1.1l-2.7,6.8c-0.4,2.8-0.2,5.5,0.8,8.2l-0.2,1.6C41.3,97.7,41.6,92.1,45.7,85.7L45.7,85.7z"/>
<path fill="#BF8F7B" d="M47.5,77.9L46,77.6c-1.1,2.9-2.7,5.7-5,8.4l2.7-1.1C45.9,82.8,47.2,80.5,47.5,77.9L47.5,77.9z"/>
<path fill="#BF8F7B" d="M46.8,85.7h-1.1c-4.1,6.4-4.4,11.9-1,16.6l0.2-1.6c-1-2.6-1.2-5.4-0.8-8.2L46.8,85.7L46.8,85.7z"/>
<path fill="#1C4764" d="M66.2,125.3l-3.1,0.5c0.5,1.9,1.1,3.8,1.8,5.7L66.2,125.3L66.2,125.3z"/>
<path fill="#FFD5B2" d="M64.8,131.5c0.2,0.4,0.4,0.9,0.5,1.3l6.6,8.4c3.1-3.5,4.8-8.7,5-15.6c-2.5-0.6-4.8-1.6-6.9-2.8
	c-1-0.6-2-1.3-3-2l-1,4.5L64.8,131.5L64.8,131.5z M67.1,133.7l-1-1.3c-0.1-0.3-0.3-0.6-0.4-0.9l2-9.3c0.7,0.5,1.5,1,2.3,1.4
	L67.1,133.7L67.1,133.7z"/>
<path fill="#FFF0E6" d="M66,132.4l1,1.3l2.8-10.1c-0.8-0.4-1.5-0.9-2.3-1.4l-2,9.3C65.8,131.7,65.9,132,66,132.4L66,132.4z"/>
<path fill="#569CBA" d="M60.6,130.7l-2,0.9l4,10.2l3.2,1.1C63.2,139,61.5,135,60.6,130.7L60.6,130.7z"/>
<path fill="#83B7DE" d="M58.6,131.6l-0.9,0.4c-1.4,2.4-2.7,4.5-3.7,6.6l2,0.7c0.8-1.4,1.6-2.9,2.4-4.3l0.9,2.1c-0.5,1-1,1.9-1.5,2.9
	l4.9,1.8L58.6,131.6L58.6,131.6z"/>
<path fill="#569CBA" d="M57.6,132l-3.7,0.6l-8.2,16.3l-1.8,0.9c0.1,2.3,0,4.7-0.2,7.1l1.9-0.4c0.3-0.9,0.7-1.8,1.1-2.6
	c2.2-5.3,4.5-10.4,7.1-15.3C55,136.6,56.2,134.4,57.6,132L57.6,132z"/>
<path fill="#83B7DE" d="M55.9,139.3l-2-0.7c-2.6,4.9-4.9,10-7.1,15.3c0.5,0.3,1,0.6,1.5,0.8C50.6,149.5,53.1,144.3,55.9,139.3
	L55.9,139.3z"/>
<path fill="#C4DDEE" d="M55.9,139.3l1.8,0.6c0.5-1,1-1.9,1.5-2.9l-0.9-2.1C57.5,136.4,56.6,137.9,55.9,139.3L55.9,139.3z"/>
<path fill="#C4DDEE" d="M57.7,140l-1.8-0.6c-2.7,5-5.3,10.1-7.5,15.4c0.6,0.3,1.3,0.7,2,1C52.5,150.4,55,145.2,57.7,140L57.7,140z"
	/>
<path fill="#1C4764" d="M34.8,137.7c0.3-0.1,0.5-0.1,0.8-0.2c-0.3-0.6-0.7-1.3-1.1-1.9L34.8,137.7L34.8,137.7z"/>
<path fill="#D29169" d="M35.6,137.6c-0.3,0.1-0.5,0.1-0.8,0.2c-0.4,0.1-0.7,0.2-1.1,0.3c2,4,2.5,7.8,1.7,11.4l-12.9,3.3
	c-0.8-1.3-1.7-2.4-2.6-3.4c5.1,13.4,7.8,26.2,8.2,38.5l3.9,2l-1,11.1c-4.5-0.4-8.3-1.6-11.3-3.6c-0.1,0.4-0.2,0.8-0.2,1.3
	c0.9,2.2,5.4,3.7,13.5,4.6c0.7-4.3,1.5-8.6,2.4-12.7c0.1-0.6,0.3-1.2,0.4-1.8c0.3-2-1.5-3-5.3-3.1c-1.1-14-3.5-24.4-7-31.2l11.3-3
	l3.7-1C38.7,145.8,37.6,141.5,35.6,137.6L35.6,137.6z"/>
<path fill="#83B7DE" d="M34.5,135.7c0.4,0.6,0.7,1.2,1.1,1.9c2.1,3.9,3.1,8.3,3.1,13.1c0,0.6,0,1.1,0,1.7l2.7-1.3
	c0.3-4.5-0.2-9.9-1.6-16.1L34.5,135.7L34.5,135.7z"/>
<path fill="#569CBA" d="M41.4,134.7l-1.6,0.3c1.3,6.2,1.9,11.6,1.6,16.1l-2.7,1.3c-0.1,1.8-0.3,3.7-0.7,5.7l5.9-1.1
	c0.2-2.4,0.2-4.8,0.2-7.1C43.8,144.6,42.9,139.6,41.4,134.7L41.4,134.7z"/>
<path fill="#83B7DE" d="M46.8,153.9c-0.4,0.9-0.7,1.7-1.1,2.6c-2.1,5.4-4.1,11-5.8,16.7c0.4,0.2,0.9,0.4,1.3,0.6
	c2-6.6,4.4-12.9,7-19.1C47.8,154.5,47.3,154.2,46.8,153.9L46.8,153.9z"/>
<path fill="#83B7DE" d="M44,149.8l1.8-0.9l8.2-16.3l-12.6,2C42.9,139.6,43.8,144.6,44,149.8L44,149.8z"/>
<path fill="#C4DDEE" d="M50.3,155.7c-0.7-0.3-1.3-0.6-2-1c-2.7,6.1-5,12.5-7,19.1c0.7,0.3,1.4,0.6,2.2,0.8
	C45.4,168.3,47.7,162,50.3,155.7L50.3,155.7z"/>
<path fill="#1C4764" d="M35,151.6l3,6.4c0.4-2,0.6-3.8,0.7-5.7c0-0.6,0-1.1,0-1.7L35,151.6L35,151.6z"/>
<path fill="#FFD5B2" d="M35.4,149.4c0.8-3.6,0.3-7.4-1.7-11.4c-9.2,2.2-17.1,4.9-23.6,8.2c-2.7,12.7,2.7,26,16.1,40
	c-1.8,1.8-2.2,3.9-1.2,6.5c0.3,0.9,0.8,1.8,1.4,2.7c0.4,0.6,0.8,1.2,1.3,1.8l-1.8-0.7l-0.4,0.9c-1.3-1.3-2.4-2.1-3.3-2.3
	c-1.2-0.3-2,0.5-2.5,2.3c3,1.9,6.7,3.1,11.3,3.6l1-11.1l-3.9-2c-0.4-12.3-3.1-25.2-8.2-38.5c0.9,1,1.8,2.1,2.6,3.4L35.4,149.4
	L35.4,149.4z M33.3,138.9c0.3,0.6,0.5,1.2,0.8,1.8l-21.3,8.6c-1.3,9.8,2.8,20.7,12.5,32.5l2.1,2.9c0.1,1,0.1,2.1,0.1,3.1
	c0,0.1,0,0.3,0.1,0.4c0.1,0.1,0.2,0.2,0.3,0.3c-1.9,1.6-1.7,4.3,0.3,8c0.1,0.1,0.1,0.1,0.2,0.2c0.1,0.1,0.1,0.3,0.2,0.4
	c-0.1-0.2-0.2-0.4-0.3-0.6c-0.4-0.5-0.8-1-1.1-1.5c-0.6-0.9-1.1-1.8-1.4-2.6c-0.9-2.3-0.5-4.2,1-5.7c0.2-0.2,0.2-0.3,0.2-0.5
	c0-0.2-0.1-0.4-0.2-0.6c-13.1-13.6-18.4-26.5-16-38.9C17.1,143.6,24.6,141,33.3,138.9L33.3,138.9z"/>
<path fill="#FFF0E6" d="M34.1,140.7c-0.2-0.6-0.5-1.2-0.8-1.8c-8.7,2.1-16.2,4.7-22.5,7.8c-2.4,12.4,2.9,25.3,16,38.9
	c0.1,0.2,0.2,0.3,0.2,0.6c0,0.2-0.1,0.4-0.2,0.5c-1.5,1.5-1.9,3.4-1,5.7c0.3,0.8,0.8,1.7,1.4,2.6c0.3,0.5,0.7,1,1.1,1.5
	c-2.1-3.7-2.2-6.4-0.3-8c-0.1-0.1-0.2-0.2-0.3-0.3c-0.1-0.1-0.1-0.3-0.1-0.4c0-1-0.1-2.1-0.1-3.1l-2.1-2.9
	c-9.7-11.9-13.8-22.8-12.5-32.5L34.1,140.7L34.1,140.7z"/>
<path fill="#D29169" d="M26.4,195.4c-0.6-1-1.1-1.9-1.4-2.7c-0.3,0-0.5-0.1-0.7,0l1.2,3.1l-3.1-1.3c0,0.2-0.1,0.4,0,0.6
	c0.9,0.2,2,1,3.3,2.3l0.4-0.9l1.8,0.7C27.2,196.5,26.8,196,26.4,195.4L26.4,195.4z"/>
<path fill="#FFD5B2" d="M22.3,194.5l3.1,1.3l-1.2-3.1C23.1,192.7,22.4,193.3,22.3,194.5C22.3,194.4,22.3,194.4,22.3,194.5
	L22.3,194.5z"/>
<path fill="#83B7DE" d="M68.8,194.2l3.8-4.4l1-12.1c-10.2,1.6-20.2,0.6-30.2-3c-1.8,5.8-3.3,11.6-4.5,17.5
	c9.8,4.2,20.1,5.8,30.9,4.9L68.8,194.2L68.8,194.2z"/>
<path fill="#83B7DE" d="M41.3,173.8c-0.5-0.2-0.9-0.4-1.3-0.6c-1.5,5-2.9,10.2-4.1,15.5c-0.1,0.6-0.3,1.2-0.4,1.8
	c0.4,0.2,0.8,0.4,1.2,0.6C38.1,185.2,39.6,179.4,41.3,173.8L41.3,173.8z"/>
<path fill="#83B7DE" d="M36.8,191.2c-0.4-0.2-0.8-0.4-1.2-0.6c-0.9,4.2-1.7,8.4-2.4,12.7c-0.2,1.2-0.4,2.4-0.6,3.7
	c0.4,0.3,0.9,0.5,1.3,0.8C34.6,202.1,35.6,196.6,36.8,191.2L36.8,191.2z"/>
<path fill="#C4DDEE" d="M36.8,191.2c0.7,0.3,1.4,0.7,2.2,1c1.2-5.9,2.7-11.7,4.5-17.5c-0.7-0.3-1.4-0.6-2.2-0.8
	C39.6,179.4,38.1,185.2,36.8,191.2L36.8,191.2z"/>
<path fill="#C4DDEE" d="M38.9,192.1c-0.7-0.3-1.4-0.6-2.2-1c-1.2,5.4-2.2,11-2.9,16.6c0.7,0.4,1.5,0.9,2.3,1.3
	C36.8,203.4,37.7,197.7,38.9,192.1L38.9,192.1z"/>
<path fill="#C4DDEE" d="M36.1,209.1c-0.8-0.4-1.5-0.8-2.3-1.3c-0.4,2.7-0.7,5.4-1,8.1l2.4,1C35.5,214.3,35.8,211.7,36.1,209.1
	L36.1,209.1z"/>
<path fill="#83B7DE" d="M69.9,197.1c-10.8,0.9-21.1-0.8-30.9-4.9c-1.2,5.6-2.2,11.2-2.8,16.9c12.9,6.8,25.5,6.5,37.9-0.9L69.9,197.1
	L69.9,197.1z"/>
<path fill="#873623" d="M58.9,225.9c-1.2,0.1-2.4,0.2-3.7,0.2c-4.1-0.1-8.5-1-13.3-2.8c-1.9-0.7-3.8-1.5-5.7-2.5
	c-0.2,0.6-0.4,1.2-0.6,1.8l3.4,2.2l-3,10.8l-4.4,0.9c-0.2,0.9-0.4,1.8-0.6,2.7l6.2-2.1l4-11.8l12.4,3.5c-0.5,11.2-3.3,22.3-8.5,33.3
	l-7.8-4.5l37.9,28l7.5,1.1l6.1,3.6c-1.5,10.5-5.8,19.3-12.8,26.4l1.4,1.3c0.9-0.7,1.9-1.5,2.7-2.3c0.3-0.3,0.6-0.6,0.9-0.9
	c1.5-1.5,2.9-3.2,4.1-4.9c1.1-1.5,2.1-3.2,2.9-4.9c0.9-1.9,1.7-3.9,2.4-5.9c1-3.1,1.6-6.4,1.9-9.9l-7.8-4.6l-7.8-1.5l-12.9-8.5
	c4.4-11.9,7.5-22.9,9.3-32.9c1.5-8.6,2.1-16.6,1.7-23.8c-1.5,1.6-3.1,3-4.7,4.2C66.7,224,63,225.4,58.9,225.9L58.9,225.9z
	 M55.5,227.7l2.8,0.6c-0.2,4.5-1.1,7.7-2.7,9.7C56.1,234.6,56,231.2,55.5,227.7L55.5,227.7z M54.6,242.8l0.3-1.3
	c3.1-3.7,4.5-7.9,4.3-12.7l8.3-2.1l-1.9,10.6l4.7,5.4l-8.9,29.8L49.8,265l-2.9-1.9l5.9-15.5L54.6,242.8L54.6,242.8z M72,240.2
	l-3.1-3l1-13l3.7-0.9L72,240.2L72,240.2z"/>
<path fill="#E04F30" d="M58.3,228.3l-2.8-0.6c0.6,3.4,0.6,6.9,0.1,10.3C57.2,236,58.1,232.8,58.3,228.3L58.3,228.3z"/>
<polygon fill="#546272" points="54.9,242 54.9,241.5 54.6,242.8 54.9,242 "/>
<path fill="#E04F30" d="M54.9,241.5l0,0.4l-0.3,0.8l-1.8,4.8l-3,17.4l11.6,7.6l8.9-29.8l-4.7-5.4l1.9-10.6l-8.3,2.1
	C59.5,233.6,58,237.8,54.9,241.5L54.9,241.5z M52,265.5l-1.3-0.8l2.9-16.9l0.7-1.8L52,265.5L52,265.5z"/>
<polygon fill="#E4A89A" points="50.7,264.6 52,265.5 54.2,246 53.5,247.8 50.7,264.6 "/>
<polygon fill="#E04F30" points="68.9,237.2 72,240.2 73.6,223.2 69.9,224.1 68.9,237.2 "/>
<path fill="#E04F30" d="M39,224.7l-3.4-2.2c-1.5,4.6-2.8,9.2-3.9,13.8l4.4-0.9L39,224.7L39,224.7z"/>
<path fill="#E04F30" d="M41.2,225.1l-4,11.8L31,239c-2.3,10.5-3.5,21.1-3.7,31.8c5.5,3,10.5,6,15,9.1c0.8,0.5,1.6,1.1,2.4,1.6
	c6.3,4.4,11.8,8.8,16.4,13.2c2.2,2.1,4.2,4.3,6,6.4l1.6-4.1v6.1v6.1l7.2,7c7-7.1,11.2-15.9,12.8-26.4l-6.1-3.6l-7.5-1.1l-37.9-28
	l7.8,4.5c5.2-10.9,8-22,8.5-33.3L41.2,225.1L41.2,225.1z M28.1,270.4c0.2-10.4,1.4-20.7,3.6-30.8l1.7-0.6c-2.2,9.9-3.4,19.9-3.5,30
	c11.1,4.6,23.7,14.4,37.6,29.4l-0.6,1.4c-1.6-1.9-3.3-3.7-5.3-5.5c-4.6-4.5-10.1-8.9-16.5-13.3c-0.8-0.6-1.6-1.1-2.4-1.7
	C38.3,276.3,33.4,273.4,28.1,270.4L28.1,270.4z M69.6,297.2l1.7,10.6l5.9,6.2c-0.4,0.5-0.8,0.9-1.3,1.4l-6.4-6.2V297.2L69.6,297.2z"
	/>
<path fill="#E4A89A" d="M31.7,239.6c-2.2,10.1-3.3,20.4-3.6,30.8c5.3,2.9,10.2,5.9,14.7,8.9c0.8,0.5,1.6,1.1,2.4,1.7
	c6.4,4.4,11.9,8.8,16.5,13.3c1.9,1.8,3.7,3.7,5.3,5.5l0.6-1.4c-14-14.9-26.5-24.7-37.6-29.4c0.1-10.1,1.2-20.1,3.5-30L31.7,239.6
	L31.7,239.6z"/>
<path fill="#E4A89A" d="M71.3,307.8l-1.7-10.6v11.9l6.4,6.2c0.4-0.5,0.8-0.9,1.3-1.4L71.3,307.8L71.3,307.8z"/>
<path fill="#873623" d="M44.8,281.6c-0.3,0.8-0.5,1.7-0.7,2.5l14,12.2l-4.7,24.1l3.7,6.4c-7-5.4-14.5-6.4-22.6-3l-1.2,4.6
	c2.4-2,5.6-3,9.7-2.9c1.3,0,2.8,0.1,4.3,0.4c6.5,1.2,10.5,4.7,12.1,10.5l1.5-8.5l-4.1-8.3l4.4-24.5C56.6,290.4,51.2,286,44.8,281.6
	L44.8,281.6z"/>
<path fill="#E04F30" d="M40.5,315.8l-5.4,6l-0.5,1.9c8-3.4,15.6-2.4,22.6,3l-3.7-6.4l4.7-24.1l-14-12.2c-1.6,5.8-2.8,11.4-3.4,16.8
	C39.9,307.2,39.9,312.2,40.5,315.8L40.5,315.8z M44.5,285.5l1.8,1.6c-2.8,9-3.9,18.8-3.2,29.7l-3.8,4.8c-1.2,0.2-2.4,0.6-3.6,1
	l0.1-0.3l5.3-5.9c0.1-0.1,0.1-0.2,0.2-0.3c0-0.1,0.1-0.2,0-0.4c-0.6-3.6-0.5-8.5,0.2-14.6C42.1,296,43.1,290.8,44.5,285.5
	L44.5,285.5z"/>
<path fill="#E4A89A" d="M46.3,287l-1.8-1.6c-1.4,5.4-2.5,10.6-3.1,15.6c-0.7,6.1-0.8,11-0.2,14.6c0,0.1,0,0.2,0,0.4
	c0,0.1-0.1,0.2-0.2,0.3l-5.3,5.9l-0.1,0.3c1.2-0.4,2.4-0.8,3.6-1l3.8-4.8C42.4,305.9,43.5,296,46.3,287L46.3,287z"/>
<path fill="#873623" d="M67.2,301.3c0.6,0.7,1.1,1.3,1.6,2v-6.1L67.2,301.3L67.2,301.3z"/>
<path fill="#A2A2A2" d="M59.9,346.1c0.1-0.9,0.2-1.8,0.2-2.6c0-0.9,0-1.7,0-2.5c-9.7,1.5-20.3,1.1-31.7-1.3
	c-0.2,1.7-0.2,3.6-0.1,5.6C39.6,349,50.1,349.2,59.9,346.1L59.9,346.1z"/>
<path fill="#D0D0D0" d="M60.1,341c-0.1-1.8-0.3-3.3-0.7-4.8c-1.5-5.8-5.6-9.3-12.1-10.5c-1.5-0.2-3-0.3-4.3-0.4
	c6.4,3.9,9.7,8.1,9.8,12.8l-24-1.6c-0.2,1-0.4,2-0.5,3.1C39.8,342.1,50.4,342.6,60.1,341L60.1,341z"/>
<path fill="#D0D0D0" d="M61.6,338.8c-0.2,0.9-0.3,1.9-0.4,2.9l24.5-1.4c0.5-2,1.1-4,1.8-5.9l-3.5-3.1l-3.9-3.5
	c-2-0.4-3.9-0.6-5.6-0.5l5.4,8.6L61.6,338.8L61.6,338.8z"/>
<path fill="#A2A2A2" d="M61.2,341.7c0,0.6-0.1,1.2-0.1,1.9c-0.1,1-0.1,2.1,0,3.1h28.5c2.4-13.6,7.3-27.3,14.5-40.9
	c-1-1-2.1-1.8-3.2-2.6c-1.9,3.3-3.6,6.6-5.2,10c-3.3,6.9-6,14-8.3,21.2c-0.6,2-1.2,3.9-1.8,5.9L61.2,341.7L61.2,341.7z"/>
<path fill="#EEEEEE" d="M43,325.4c-4.1,0-7.3,1-9.7,2.9c-2.3,1.9-3.8,4.6-4.5,8.2l24,1.6C52.7,333.5,49.4,329.3,43,325.4L43,325.4z"
	/>
<path fill="#709339" d="M90.4,298.8c-0.6,2.1-1.4,4-2.4,5.9l3.1,3.7v8.5L84,331.2l3.5,3.1c2.3-7.2,5-14.3,8.3-21.2
	c-3.2-3.9-3.5-8.3-0.8-13.1C93.5,299.5,92,299.1,90.4,298.8L90.4,298.8z"/>
<path fill="#9BC162" d="M88.1,304.7c-0.9,1.7-1.9,3.4-2.9,4.9l5.3,1l-1.7,5.6l-7.7-1.6c-0.3,0.3-0.6,0.6-0.9,0.9v3.1l7.5,1.1
	l-2.1,6.8l-5.4-1.3v2.5l3.9,3.5l7.1-14.3v-8.5L88.1,304.7L88.1,304.7z"/>
<path fill="#EEEEEE" d="M88.7,316.2l1.7-5.6l-5.3-1c-1.2,1.8-2.6,3.4-4.1,4.9L88.7,316.2L88.7,316.2z"/>
<polygon fill="#EEEEEE" points="87.6,319.7 80.1,318.6 80.1,325.2 85.5,326.5 87.6,319.7 "/>
<path fill="#EEEEEE" d="M100.9,303.1c-1.9-1.3-3.9-2.3-6-3.1c-2.7,4.8-2.4,9.2,0.8,13.1C97.4,309.8,99.1,306.4,100.9,303.1
	L100.9,303.1z"/>
<path fill="#EEEEEE" d="M79.9,335.7l-5.4-8.6c-7.1,0.2-11.4,4-12.8,11.6L79.9,335.7L79.9,335.7z"/>
<path d="M78.5,81.4v-2.5c-4.7-1.6-8.6,0.6-11.6,6.6C70.4,82.1,74.3,80.8,78.5,81.4L78.5,81.4z"/>
<path d="M92.1,78.5c-1,1.5-1.9,3-2.6,4.5c3.3-1.8,6.7-1.8,10.1,0C97.9,79.9,95.4,78.4,92.1,78.5L92.1,78.5z"/>
<path fill="#FFFFFF" d="M90.8,87.9L90.8,87.9c0.6,0.8,0.9,1.8,1,3c0.1,1.2-0.1,2.2-0.6,3c-0.3,0.5-0.7,0.9-1.1,1.1
	c1.2,0.4,2.4,0.3,3.5-0.3c0.5-2.2,0.3-4.5-0.6-6.9C92.1,87.7,91.4,87.7,90.8,87.9L90.8,87.9z"/>
<path fill="#006699" d="M90.8,88L90.8,88c-0.2,0-0.4,0.1-0.6,0.1c0.1,0.1,0.3,0.3,0.4,0.5c0.4,0.6,0.6,1.2,0.7,2
	c0.1,0.8-0.1,1.5-0.4,2c-0.3,0.6-0.7,0.9-1.2,0.9c-0.5,0-1-0.3-1.4-0.9c-0.1-0.2-0.2-0.4-0.3-0.5c0,0.6-0.1,1.1-0.1,1.7l0.1,0.1
	c0.7,0.6,1.4,1,2.2,1.2c0.4-0.2,0.8-0.6,1.1-1.1c0.5-0.8,0.7-1.8,0.6-3C91.7,89.8,91.4,88.8,90.8,88L90.8,88z"/>
<path d="M90.8,87.9c0.6-0.2,1.4-0.2,2.2-0.1c0.3,0.1,0.6,0.2,0.9,0.2l-0.1-1.2c-1.5-0.5-2.8-0.4-3.9,0.2c-0.4,0.2-0.7,0.4-0.9,0.7
	c-0.3,0.3-0.6,0.6-0.8,0.9c0,0.3,0,0.6-0.1,0.9c-0.1,0.1-0.1,0.3-0.1,0.5c0,0.2,0,0.5,0,0.7C88,90.8,88,91,88,91.2
	c0,0.3,0,0.6,0,0.9c0.1,0.2,0.2,0.4,0.3,0.5c0.4,0.6,0.9,0.9,1.4,0.9c0.5,0,0.9-0.3,1.2-0.9c0.3-0.6,0.5-1.2,0.4-2
	c-0.1-0.8-0.3-1.5-0.7-2c-0.1-0.2-0.3-0.3-0.4-0.5C90.4,88,90.5,88,90.8,87.9L90.8,87.9z M90,88.2c0.1,0.1,0.3,0.2,0.3,0.4
	c0.2,0.3,0.4,0.7,0.4,1.2c0,0.4-0.1,0.8-0.3,1.1c-0.2,0.3-0.4,0.5-0.7,0.5c-0.3,0-0.5-0.2-0.8-0.5c-0.2-0.3-0.3-0.7-0.4-1.1
	c0-0.2,0-0.3,0-0.5C89,88.8,89.5,88.4,90,88.2L90,88.2z"/>
<path fill="#FFFFFF" d="M90.3,88.5c-0.1-0.1-0.2-0.3-0.3-0.4c-0.5,0.3-1,0.6-1.3,1.1c0,0.1,0,0.3,0,0.5c0,0.4,0.1,0.8,0.4,1.1
	c0.2,0.3,0.5,0.5,0.8,0.5c0.3,0,0.5-0.2,0.7-0.5c0.2-0.3,0.3-0.7,0.3-1.1C90.7,89.2,90.5,88.9,90.3,88.5L90.3,88.5z"/>
<path fill="#AF6F50" d="M88.2,89.5c0-0.3,0.1-0.6,0.1-0.9c0.3-1.9,0.7-3.7,1.3-5.6c-1.3,2.7-2.1,5.5-2.4,8.2c0,0.2-0.1,0.4-0.1,0.6
	c0,0,0,0.1,0,0.1c0,0.1-0.1,0.3-0.1,0.4c0,0.2,0,0.5,0,0.7c0,0,0,0.1,0,0.1c0,0,0,0.1,0,0.1v0c0,0.5,0,0.9,0,1.3l3.1,7.1
	c-0.4,1.4-1.2,2.6-2.3,3.7c1.4-0.4,2.7-1.6,3.8-3.7c-0.5-2-1.6-4.2-3.2-6.7c1.6,1.4,3.7,1.4,6.2-0.1L94.5,94c-0.3,0.3-0.6,0.5-1,0.7
	c-1.1,0.6-2.3,0.7-3.5,0.3c-0.7-0.2-1.4-0.6-2.2-1.2l-0.1-0.1c0-0.6,0-1.1,0.1-1.7c0-0.3,0-0.6,0-0.9c0-0.2,0-0.4,0.1-0.5
	c0-0.3,0-0.5,0-0.7C88.1,89.8,88.1,89.7,88.2,89.5L88.2,89.5z"/>
<path d="M77,86.9c0.4,0,0.8,0.1,1.2,0.3v-1.3c-2-0.5-3.6-0.4-5,0.2c-0.5,0.2-0.9,0.5-1.3,0.8c-0.8,0.6-1.4,1.3-2,2.3
	c-0.5,0.8-1,1.9-1.3,3c0.4-0.8,0.8-1.5,1.3-2.1c0,0.7,0.3,1.4,0.7,1.9c0.5,0.6,1,0.9,1.7,0.9c0.7,0,1.3-0.3,1.7-0.9
	c0.4-0.6,0.7-1.3,0.7-2.2c0-0.8-0.2-1.6-0.7-2.2c-0.2-0.2-0.3-0.4-0.5-0.5c0.2-0.1,0.5-0.2,0.7-0.2C75.1,86.8,76,86.8,77,86.9
	L77,86.9z M71.7,90.1c-0.3-0.3-0.4-0.7-0.4-1.2c0-0.2,0-0.3,0.1-0.5c0.6-0.5,1.2-0.9,1.9-1.1c0.1,0.1,0.3,0.2,0.4,0.4
	c0.3,0.3,0.4,0.7,0.4,1.2c0,0.5-0.1,0.9-0.4,1.2c-0.3,0.3-0.6,0.5-1,0.5C72.3,90.6,71.9,90.4,71.7,90.1L71.7,90.1z"/>
<path fill="#FFFFFF" d="M71.3,88.9c0,0.5,0.1,0.9,0.4,1.2c0.3,0.3,0.6,0.5,1,0.5c0.4,0,0.7-0.2,1-0.5c0.3-0.3,0.4-0.7,0.4-1.2
	c0-0.5-0.1-0.9-0.4-1.2c-0.1-0.2-0.3-0.3-0.4-0.4c-0.7,0.3-1.3,0.6-1.9,1.1C71.3,88.6,71.3,88.7,71.3,88.9L71.3,88.9z"/>
<path fill="#AF6F50" d="M78.6,94.5v-1c-0.4,0.3-0.9,0.5-1.3,0.7c-1.5,0.6-3.1,0.7-4.6,0.3c-1.4-0.4-2.7-1.2-4.1-2.4
	c0.5,1,1.2,1.7,1.9,2.3C72.5,96.1,75.2,96.1,78.6,94.5L78.6,94.5z"/>
<path fill="#FFFFFF" d="M77.3,94.2c0.7-2.3,0.6-4.7-0.3-7.3c-1-0.2-1.9-0.1-2.8,0.1v0c0.7,0.9,1.1,2,1.1,3.2c0,1.2-0.4,2.3-1.1,3.2
	c-0.4,0.6-0.9,1-1.5,1.2C74.3,95,75.8,94.9,77.3,94.2L77.3,94.2z"/>
<path fill="#006699" d="M74.2,87L74.2,87c-0.3,0-0.5,0.1-0.7,0.2c0.2,0.1,0.3,0.3,0.5,0.5c0.4,0.6,0.7,1.3,0.7,2.2
	c0,0.9-0.2,1.6-0.7,2.2c-0.5,0.6-1,0.9-1.7,0.9c-0.7,0-1.2-0.3-1.7-0.9c-0.4-0.5-0.7-1.2-0.7-1.9c-0.5,0.6-0.9,1.3-1.3,2.1
	c1.4,1.2,2.8,2,4.1,2.4c0.6-0.2,1.1-0.6,1.5-1.2c0.7-0.9,1.1-2,1.1-3.2C75.3,89,74.9,87.9,74.2,87L74.2,87z"/>
<path fill="#AF6F50" d="M82.4,103.8c0.1-1.2,0.3-2.2,0.7-3c-1.3,1.1-1.9,2.4-1.8,3.9c1.2,0.3,2.4,0.3,3.7,0
	C84,104.6,83.1,104.3,82.4,103.8L82.4,103.8z"/>
<path fill="#AF6F50" d="M75.5,107.3v-2.4c-0.4,1.8-1.4,3.1-2.8,3.9c0.9,0.4,1.7,0.1,2.4-0.8l0,0.1l4.1,6.9c1.8,3.5,4.7,4.6,8.8,3.2
	c0-0.1,0-0.3,0-0.4c-0.2,0.1-0.4,0.1-0.5,0.2c-0.2,0-0.3,0.1-0.5,0.1c-2.6,0.5-4.8-0.3-6.4-2.2c-0.1-0.2-0.2-0.3-0.3-0.5
	c-1.5-2.2-2.8-4.4-4-6.6c0.8,0.5,1.7,1,2.6,1.5c2.5,1.2,4.8,1.9,7.2,2c0.8,0.1,1.6,0,2.4-0.2c0.9-0.4,1.7-0.9,2.5-1.6
	c1-1.1,2-2.6,2.9-4.5C89.8,112.6,83.7,113.1,75.5,107.3L75.5,107.3z"/>
<path d="M90.8,110.3c-0.8,0.7-1.6,1.3-2.5,1.6c-0.3,1.5-1.2,2.2-2.7,2.2l-2.7-0.4c-2.4-0.3-3.8-1.5-4.1-3.6c-0.9-0.5-1.7-1-2.6-1.5
	c1.2,2.2,2.5,4.4,4,6.6c4.1-0.3,6.4,0.6,6.8,2.7c0.2-0.1,0.3-0.1,0.5-0.1l0.6-2.3C88.5,113.9,89.4,112.1,90.8,110.3L90.8,110.3z"/>
<path fill="#FFFFFF" d="M85.6,114.1c1.5,0.1,2.4-0.7,2.7-2.2c-0.7,0.3-1.5,0.3-2.4,0.2c-2.3-0.1-4.7-0.8-7.2-2
	c0.3,2,1.7,3.2,4.1,3.6L85.6,114.1L85.6,114.1z"/>
<path fill="#B10101" d="M80.2,115.4c0.1,0.2,0.2,0.3,0.3,0.5c1.6,2,3.8,2.7,6.4,2.2C86.6,115.9,84.4,115,80.2,115.4L80.2,115.4z"/>
<path fill="#709339" d="M94.7,75.7c1.6-1,3.3-1.8,5.2-2.4c4.4-1.4,9.2-1.5,14.4-0.4c0.7,0.2,1.5,0.3,2.3,0.6
	c-0.7-0.7-1.5-1.3-2.3-1.9c-0.3-0.2-0.5-0.4-0.8-0.6c-8.9-2.4-15.9-1.8-21.1,1.7c-9.1,5.2-18.5,5.6-28.4,1.2c-0.7,0.3-1.3,0.6-2,0.9
	c12.3,8.6,21.2,10.6,26.8,5.9c0.6-0.5,1.2-1.1,1.7-1.8C91.9,77.6,93.3,76.6,94.7,75.7L94.7,75.7z"/>
</svg>
