<?xml version="1.0" encoding="utf-8"?>
<!-- Generator: Adobe Illustrator 17.1.0, SVG Export Plug-In . SVG Version: 6.00 Build 0)  -->
<!DOCTYPE svg PUBLIC "-//W3C//DTD SVG 1.1//EN" "http://www.w3.org/Graphics/SVG/1.1/DTD/svg11.dtd">
<svg version="1.1" id="Layer_1" xmlns="http://www.w3.org/2000/svg" xmlns:xlink="http://www.w3.org/1999/xlink" x="0px" y="0px"
	 viewBox="0 0 707.6 710.6" enable-background="new 0 0 707.6 710.6" xml:space="preserve">
<g>
	<g>
		<path fill="#FFFFFF" d="M356.9,648.1c-0.6,0-1-0.5-1-1c0-0.6,0.5-1.1,1-1.1c2.5,0,4.9-0.1,7.3-0.2c0.5,0,1.1,0.4,1.1,1
			c0,0.6-0.4,1.1-1,1.1C361.9,648,359.4,648.1,356.9,648.1C356.9,648.1,356.9,648.1,356.9,648.1L356.9,648.1z M349.6,648.1
			C349.6,648.1,349.6,648.1,349.6,648.1c-2.5,0-4.9-0.1-7.4-0.2c-0.6,0-1-0.5-1-1.1c0-0.6,0.5-1,1.1-1c2.4,0.1,4.9,0.2,7.3,0.2
			c0.6,0,1,0.5,1,1.1C350.6,647.7,350.1,648.1,349.6,648.1L349.6,648.1z M371.6,647.6c-0.6,0-1-0.4-1-1c0-0.6,0.4-1.1,1-1.1
			c2.4-0.1,4.9-0.3,7.3-0.5c0.6-0.1,1.1,0.4,1.1,1c0.1,0.6-0.4,1.1-1,1.1C376.5,647.3,374.1,647.5,371.6,647.6
			C371.6,647.6,371.6,647.6,371.6,647.6L371.6,647.6z M334.9,647.6C334.9,647.6,334.9,647.6,334.9,647.6c-2.5-0.2-5-0.3-7.4-0.5
			c-0.6,0-1-0.6-1-1.1c0-0.6,0.6-1,1.1-1c2.4,0.2,4.9,0.4,7.3,0.5c0.6,0,1,0.5,1,1.1C335.9,647.2,335.5,647.6,334.9,647.6
			L334.9,647.6z M386.2,646.4c-0.5,0-1-0.4-1-0.9c-0.1-0.6,0.4-1.1,0.9-1.2c2.4-0.3,4.8-0.6,7.3-0.9c0.6-0.1,1.1,0.3,1.2,0.9
			c0.1,0.6-0.3,1.1-0.9,1.2c-2.4,0.3-4.9,0.6-7.3,0.9C386.2,646.4,386.2,646.4,386.2,646.4L386.2,646.4z M320.3,646.3
			c0,0-0.1,0-0.1,0c-2.4-0.3-4.9-0.6-7.3-0.9c-0.6-0.1-1-0.6-0.9-1.2c0.1-0.6,0.6-1,1.2-0.9c2.4,0.3,4.8,0.6,7.3,0.9
			c0.6,0.1,1,0.6,0.9,1.2C321.3,645.9,320.8,646.3,320.3,646.3L320.3,646.3z M400.7,644.4c-0.5,0-1-0.4-1-0.9
			c-0.1-0.6,0.3-1.1,0.9-1.2c2.4-0.4,4.8-0.8,7.2-1.2c0.6-0.1,1.1,0.3,1.2,0.8c0.1,0.6-0.3,1.1-0.8,1.2c-2.4,0.4-4.8,0.9-7.3,1.3
			C400.8,644.4,400.8,644.4,400.7,644.4L400.7,644.4z M305.8,644.3c-0.1,0-0.1,0-0.2,0c-2.4-0.4-4.9-0.8-7.3-1.3
			c-0.6-0.1-0.9-0.7-0.8-1.2c0.1-0.6,0.7-0.9,1.2-0.8c2.4,0.4,4.8,0.9,7.2,1.3c0.6,0.1,1,0.6,0.9,1.2
			C306.7,644,306.3,644.3,305.8,644.3L305.8,644.3z M415.1,641.7c-0.5,0-0.9-0.3-1-0.8c-0.1-0.6,0.2-1.1,0.8-1.2
			c2.4-0.5,4.8-1,7.1-1.6c0.6-0.1,1.1,0.2,1.3,0.8c0.1,0.6-0.2,1.1-0.8,1.3c-2.4,0.6-4.8,1.1-7.2,1.6
			C415.3,641.7,415.2,641.7,415.1,641.7L415.1,641.7z M291.3,641.6c-0.1,0-0.1,0-0.2,0c-2.4-0.5-4.8-1.1-7.2-1.6
			c-0.6-0.1-0.9-0.7-0.8-1.3c0.1-0.6,0.7-0.9,1.3-0.8c2.3,0.6,4.7,1.1,7.1,1.6c0.6,0.1,0.9,0.7,0.8,1.2
			C292.3,641.3,291.8,641.6,291.3,641.6L291.3,641.6z M429.4,638.3c-0.5,0-0.9-0.3-1-0.8c-0.1-0.6,0.2-1.1,0.7-1.3
			c2.3-0.6,4.7-1.3,7-2c0.6-0.2,1.1,0.2,1.3,0.7c0.2,0.6-0.2,1.1-0.7,1.3c-2.4,0.7-4.8,1.4-7.1,2
			C429.6,638.3,429.5,638.3,429.4,638.3L429.4,638.3z M277.1,638.2c-0.1,0-0.2,0-0.3,0c-2.4-0.6-4.8-1.3-7.1-2
			c-0.6-0.2-0.9-0.7-0.7-1.3c0.2-0.6,0.7-0.9,1.3-0.7c2.3,0.7,4.7,1.3,7,2c0.6,0.1,0.9,0.7,0.7,1.3
			C278,637.9,277.5,638.2,277.1,638.2L277.1,638.2z M443.5,634.2c-0.4,0-0.9-0.3-1-0.7c-0.2-0.6,0.1-1.1,0.7-1.3
			c2.3-0.7,4.6-1.5,6.9-2.3c0.5-0.2,1.1,0.1,1.3,0.6c0.2,0.5-0.1,1.1-0.6,1.3c-2.3,0.8-4.7,1.6-7,2.3
			C443.7,634.2,443.6,634.2,443.5,634.2L443.5,634.2z M263,634.1c-0.1,0-0.2,0-0.3-0.1c-2.3-0.7-4.7-1.5-7-2.3
			c-0.5-0.2-0.8-0.8-0.6-1.3c0.2-0.5,0.8-0.8,1.3-0.6c2.3,0.8,4.6,1.6,7,2.3c0.6,0.2,0.9,0.8,0.7,1.3
			C263.9,633.8,263.4,634.1,263,634.1L263,634.1z M457.3,629.4c-0.4,0-0.8-0.3-1-0.7c-0.2-0.5,0.1-1.1,0.6-1.3
			c2.3-0.9,4.6-1.8,6.8-2.6c0.5-0.2,1.1,0,1.4,0.6c0.2,0.5,0,1.1-0.6,1.4c-2.2,0.9-4.5,1.8-6.9,2.7
			C457.6,629.4,457.5,629.4,457.3,629.4L457.3,629.4z M249.1,629.3c-0.1,0-0.2,0-0.4-0.1c-2.3-0.9-4.6-1.8-6.9-2.7
			c-0.5-0.2-0.8-0.8-0.6-1.4c0.2-0.5,0.8-0.8,1.4-0.6c2.2,0.9,4.5,1.8,6.8,2.7c0.5,0.2,0.8,0.8,0.6,1.4
			C249.9,629,249.5,629.3,249.1,629.3L249.1,629.3z M470.9,623.9c-0.4,0-0.8-0.2-1-0.6c-0.2-0.5,0-1.1,0.5-1.4c2.2-1,4.5-2,6.7-3
			c0.5-0.2,1.1,0,1.4,0.5c0.2,0.5,0,1.1-0.5,1.4c-2.2,1-4.5,2-6.7,3C471.2,623.9,471.1,623.9,470.9,623.9L470.9,623.9z M235.5,623.8
			c-0.1,0-0.3,0-0.4-0.1c-2.3-1-4.5-2-6.7-3c-0.5-0.2-0.8-0.9-0.5-1.4c0.2-0.5,0.9-0.8,1.4-0.5c2.2,1,4.4,2,6.7,3
			c0.5,0.2,0.8,0.8,0.5,1.4C236.2,623.5,235.9,623.8,235.5,623.8L235.5,623.8z M484.2,617.8c-0.4,0-0.8-0.2-0.9-0.6
			c-0.3-0.5,0-1.1,0.5-1.4c2.2-1.1,4.4-2.2,6.5-3.3c0.5-0.3,1.1-0.1,1.4,0.4c0.3,0.5,0.1,1.1-0.4,1.4c-2.2,1.1-4.4,2.2-6.5,3.3
			C484.5,617.8,484.4,617.8,484.2,617.8L484.2,617.8z M222.1,617.6c-0.2,0-0.3,0-0.5-0.1c-2.2-1.1-4.4-2.2-6.6-3.4
			c-0.5-0.3-0.7-0.9-0.4-1.4c0.3-0.5,0.9-0.7,1.4-0.4c2.2,1.1,4.3,2.3,6.5,3.3c0.5,0.3,0.7,0.9,0.5,1.4
			C222.9,617.4,222.5,617.6,222.1,617.6L222.1,617.6z M497.2,611c-0.4,0-0.7-0.2-0.9-0.5c-0.3-0.5-0.1-1.1,0.4-1.4
			c2.1-1.2,4.2-2.4,6.3-3.6c0.5-0.3,1.1-0.1,1.4,0.4c0.3,0.5,0.1,1.1-0.4,1.4c-2.1,1.2-4.2,2.5-6.4,3.6
			C497.5,611,497.3,611,497.2,611L497.2,611z M209.1,610.7c-0.2,0-0.3,0-0.5-0.1c-2.1-1.2-4.3-2.4-6.4-3.7c-0.5-0.3-0.7-0.9-0.4-1.4
			c0.3-0.5,0.9-0.7,1.4-0.4c2.1,1.2,4.2,2.5,6.3,3.6c0.5,0.3,0.7,0.9,0.4,1.4C209.8,610.5,209.5,610.7,209.1,610.7L209.1,610.7z
			 M509.8,603.6c-0.3,0-0.7-0.2-0.9-0.5c-0.3-0.5-0.2-1.1,0.3-1.4c2.1-1.3,4.1-2.6,6.1-3.9c0.5-0.3,1.1-0.2,1.5,0.3
			c0.3,0.5,0.2,1.1-0.3,1.5c-2,1.3-4.1,2.7-6.2,4C510.2,603.5,510,603.6,509.8,603.6L509.8,603.6z M196.5,603.2
			c-0.2,0-0.4-0.1-0.6-0.2c-2.1-1.3-4.2-2.6-6.2-4c-0.5-0.3-0.6-1-0.3-1.5c0.3-0.5,1-0.6,1.5-0.3c2,1.3,4.1,2.7,6.2,4
			c0.5,0.3,0.6,1,0.3,1.4C197.2,603.1,196.8,603.2,196.5,603.2L196.5,603.2z M522,595.5c-0.3,0-0.7-0.2-0.9-0.5
			c-0.3-0.5-0.2-1.1,0.3-1.5c2-1.4,4-2.8,5.9-4.2c0.5-0.3,1.1-0.2,1.5,0.2c0.3,0.5,0.2,1.1-0.2,1.5c-2,1.4-4,2.9-6,4.3
			C522.4,595.5,522.2,595.5,522,595.5L522,595.5z M184.2,595.2c-0.2,0-0.4-0.1-0.6-0.2c-2-1.4-4-2.8-6-4.3c-0.5-0.3-0.6-1-0.2-1.5
			c0.3-0.5,1-0.6,1.5-0.2c2,1.4,4,2.9,6,4.3c0.5,0.3,0.6,1,0.3,1.5C184.9,595,184.5,595.2,184.2,595.2L184.2,595.2z M533.9,586.9
			c-0.3,0-0.6-0.1-0.8-0.4c-0.4-0.5-0.3-1.1,0.2-1.5c1.9-1.5,3.8-3,5.7-4.5c0.4-0.4,1.1-0.3,1.5,0.2c0.4,0.5,0.3,1.1-0.2,1.5
			c-1.9,1.5-3.8,3.1-5.8,4.6C534.3,586.8,534.1,586.9,533.9,586.9L533.9,586.9z M172.4,586.5c-0.2,0-0.4-0.1-0.6-0.2
			c-1.9-1.5-3.9-3-5.8-4.6c-0.4-0.4-0.5-1-0.2-1.5c0.4-0.4,1-0.5,1.5-0.2c1.9,1.5,3.8,3.1,5.7,4.5c0.5,0.4,0.5,1,0.2,1.5
			C173,586.3,172.7,586.5,172.4,586.5L172.4,586.5z M545.3,577.7c-0.3,0-0.6-0.1-0.8-0.4c-0.4-0.4-0.3-1.1,0.1-1.5
			c1.9-1.6,3.7-3.2,5.5-4.8c0.4-0.4,1.1-0.3,1.5,0.1c0.4,0.4,0.3,1.1-0.1,1.5c-1.8,1.6-3.7,3.2-5.5,4.8
			C545.7,577.6,545.5,577.7,545.3,577.7L545.3,577.7z M161,577.2c-0.2,0-0.5-0.1-0.7-0.3c-1.9-1.6-3.7-3.2-5.5-4.9
			c-0.4-0.4-0.5-1-0.1-1.5c0.4-0.4,1-0.5,1.5-0.1c1.8,1.6,3.6,3.2,5.5,4.8c0.4,0.4,0.5,1,0.1,1.5C161.6,577.1,161.3,577.2,161,577.2
			L161,577.2z M556.2,567.9c-0.3,0-0.6-0.1-0.8-0.3c-0.4-0.4-0.4-1.1,0-1.5c1.8-1.7,3.5-3.4,5.3-5.1c0.4-0.4,1.1-0.4,1.5,0
			c0.4,0.4,0.4,1.1,0,1.5c-1.7,1.7-3.5,3.4-5.3,5.1C556.7,567.8,556.4,567.9,556.2,567.9L556.2,567.9z M150.1,567.4
			c-0.3,0-0.5-0.1-0.7-0.3c-1.8-1.7-3.6-3.4-5.3-5.1c-0.4-0.4-0.4-1.1,0-1.5c0.4-0.4,1.1-0.4,1.5,0c1.7,1.7,3.5,3.4,5.3,5.1
			c0.4,0.4,0.4,1.1,0,1.5C150.6,567.3,150.3,567.4,150.1,567.4L150.1,567.4z M566.6,557.6c-0.3,0-0.5-0.1-0.7-0.3
			c-0.4-0.4-0.4-1.1,0-1.5c1.7-1.8,3.4-3.5,5-5.3c0.4-0.4,1.1-0.5,1.5-0.1c0.4,0.4,0.5,1.1,0.1,1.5c-1.6,1.8-3.3,3.6-5,5.4
			C567.2,557.5,566.9,557.6,566.6,557.6L566.6,557.6z M139.6,557.1c-0.3,0-0.6-0.1-0.8-0.3c-1.7-1.8-3.4-3.6-5-5.4
			c-0.4-0.4-0.4-1.1,0.1-1.5c0.4-0.4,1.1-0.4,1.5,0.1c1.6,1.8,3.3,3.6,5,5.3c0.4,0.4,0.4,1.1,0,1.5
			C140.2,557,139.9,557.1,139.6,557.1L139.6,557.1z M576.6,546.8c-0.2,0-0.5-0.1-0.7-0.3c-0.4-0.4-0.5-1-0.1-1.5
			c1.6-1.8,3.2-3.7,4.7-5.6c0.4-0.4,1-0.5,1.5-0.1c0.4,0.4,0.5,1,0.1,1.5c-1.6,1.9-3.2,3.8-4.8,5.6
			C577.1,546.7,576.9,546.8,576.6,546.8L576.6,546.8z M129.7,546.3c-0.3,0-0.6-0.1-0.8-0.4c-1.6-1.9-3.2-3.7-4.8-5.6
			c-0.4-0.4-0.3-1.1,0.1-1.5c0.4-0.4,1.1-0.3,1.5,0.1c1.5,1.9,3.1,3.7,4.7,5.6c0.4,0.4,0.3,1.1-0.1,1.5
			C130.2,546.2,130,546.3,129.7,546.3L129.7,546.3z M585.9,535.6c-0.2,0-0.5-0.1-0.6-0.2c-0.5-0.4-0.5-1-0.2-1.5
			c1.5-1.9,3-3.8,4.5-5.8c0.3-0.5,1-0.6,1.5-0.2c0.5,0.3,0.6,1,0.2,1.5c-1.5,2-3,3.9-4.5,5.8C586.6,535.4,586.3,535.6,585.9,535.6
			L585.9,535.6z M120.4,535c-0.3,0-0.6-0.1-0.8-0.4c-1.5-1.9-3-3.9-4.5-5.8c-0.3-0.5-0.3-1.1,0.2-1.5c0.5-0.3,1.1-0.3,1.5,0.2
			c1.5,1.9,3,3.9,4.4,5.8c0.4,0.5,0.3,1.1-0.2,1.5C120.9,534.9,120.6,535,120.4,535L120.4,535z M594.8,523.8c-0.2,0-0.4-0.1-0.6-0.2
			c-0.5-0.3-0.6-1-0.2-1.5c1.4-2,2.8-4,4.2-6c0.3-0.5,1-0.6,1.5-0.3c0.5,0.3,0.6,1,0.3,1.5c-1.4,2-2.8,4.1-4.2,6
			C595.4,523.7,595.1,523.8,594.8,523.8L594.8,523.8z M111.6,523.2c-0.3,0-0.7-0.2-0.9-0.4c-1.4-2-2.8-4-4.2-6
			c-0.3-0.5-0.2-1.1,0.3-1.5c0.5-0.3,1.1-0.2,1.5,0.3c1.4,2,2.8,4,4.2,6c0.3,0.5,0.2,1.1-0.2,1.5C112,523.2,111.8,523.2,111.6,523.2
			L111.6,523.2z M603,511.7c-0.2,0-0.4-0.1-0.6-0.2c-0.5-0.3-0.6-1-0.3-1.4c1.3-2,2.6-4.1,3.9-6.2c0.3-0.5,0.9-0.7,1.4-0.4
			c0.5,0.3,0.7,0.9,0.4,1.4c-1.3,2.1-2.6,4.2-3.9,6.3C603.7,511.5,603.4,511.7,603,511.7L603,511.7z M103.4,511.1
			c-0.3,0-0.7-0.2-0.9-0.5c-1.3-2.1-2.6-4.2-3.9-6.2c-0.3-0.5-0.1-1.1,0.4-1.4c0.5-0.3,1.1-0.1,1.4,0.4c1.3,2.1,2.5,4.2,3.9,6.2
			c0.3,0.5,0.2,1.1-0.3,1.4C103.8,511,103.6,511.1,103.4,511.1L103.4,511.1z M610.6,499.1c-0.2,0-0.4,0-0.5-0.1
			c-0.5-0.3-0.7-0.9-0.4-1.4c1.2-2.1,2.4-4.3,3.6-6.4c0.3-0.5,0.9-0.7,1.4-0.4c0.5,0.3,0.7,0.9,0.4,1.4c-1.2,2.2-2.4,4.3-3.6,6.4
			C611.4,498.9,611,499.1,610.6,499.1L610.6,499.1z M95.9,498.6c-0.4,0-0.7-0.2-0.9-0.5c-1.2-2.1-2.4-4.3-3.6-6.4
			c-0.3-0.5-0.1-1.1,0.4-1.4c0.5-0.3,1.1-0.1,1.4,0.4c1.1,2.1,2.3,4.3,3.5,6.4c0.3,0.5,0.1,1.1-0.4,1.4
			C96.2,498.5,96,498.6,95.9,498.6L95.9,498.6z M617.6,486.2c-0.2,0-0.3,0-0.5-0.1c-0.5-0.3-0.7-0.9-0.5-1.4
			c1.1-2.2,2.2-4.4,3.2-6.6c0.3-0.5,0.9-0.7,1.4-0.5c0.5,0.3,0.7,0.9,0.5,1.4c-1.1,2.2-2.2,4.4-3.3,6.6
			C618.4,486,618,486.2,617.6,486.2L617.6,486.2z M88.9,485.7c-0.4,0-0.8-0.2-0.9-0.6c-1.1-2.2-2.2-4.4-3.2-6.6
			c-0.2-0.5,0-1.1,0.5-1.4c0.5-0.2,1.1,0,1.4,0.5c1,2.2,2.1,4.4,3.2,6.5c0.3,0.5,0.1,1.1-0.5,1.4C89.2,485.7,89.1,485.7,88.9,485.7
			L88.9,485.7z M624,472.9c-0.1,0-0.3,0-0.4-0.1c-0.5-0.2-0.8-0.9-0.5-1.4c1-2.2,2-4.5,2.9-6.7c0.2-0.5,0.8-0.8,1.4-0.6
			c0.5,0.2,0.8,0.8,0.6,1.4c-0.9,2.3-1.9,4.5-2.9,6.8C624.8,472.7,624.4,472.9,624,472.9L624,472.9z M82.6,472.5
			c-0.4,0-0.8-0.2-1-0.6c-1-2.2-2-4.5-2.9-6.7c-0.2-0.5,0-1.1,0.6-1.4c0.5-0.2,1.1,0,1.4,0.6c0.9,2.2,1.9,4.5,2.9,6.7
			c0.2,0.5,0,1.1-0.5,1.4C82.9,472.5,82.8,472.5,82.6,472.5L82.6,472.5z M629.7,459.4c-0.1,0-0.3,0-0.4-0.1
			c-0.5-0.2-0.8-0.8-0.6-1.4c0.9-2.3,1.8-4.6,2.6-6.9c0.2-0.5,0.8-0.8,1.3-0.6c0.5,0.2,0.8,0.8,0.6,1.3c-0.8,2.3-1.7,4.6-2.6,6.9
			C630.5,459.1,630.1,459.4,629.7,459.4L629.7,459.4z M77,459c-0.4,0-0.8-0.3-1-0.7c-0.9-2.3-1.8-4.6-2.6-6.9
			c-0.2-0.5,0.1-1.1,0.6-1.3c0.5-0.2,1.1,0.1,1.3,0.6c0.8,2.3,1.7,4.6,2.6,6.8c0.2,0.5-0.1,1.1-0.6,1.4C77.2,459,77.1,459,77,459
			L77,459z M634.7,445.5c-0.1,0-0.2,0-0.3-0.1c-0.6-0.2-0.8-0.8-0.7-1.3c0.8-2.3,1.5-4.7,2.2-7c0.2-0.6,0.8-0.9,1.3-0.7
			c0.6,0.2,0.9,0.8,0.7,1.3c-0.7,2.3-1.5,4.7-2.2,7C635.5,445.2,635.1,445.5,634.7,445.5L634.7,445.5z M72,445.2
			c-0.4,0-0.8-0.3-1-0.7c-0.8-2.3-1.5-4.7-2.2-7c-0.2-0.6,0.1-1.1,0.7-1.3c0.6-0.2,1.1,0.1,1.3,0.7c0.7,2.3,1.5,4.7,2.2,7
			c0.2,0.5-0.1,1.1-0.7,1.3C72.2,445.2,72.1,445.2,72,445.2L72,445.2z M639,431.5c-0.1,0-0.2,0-0.3,0c-0.6-0.2-0.9-0.7-0.7-1.3
			c0.7-2.3,1.3-4.7,1.9-7.1c0.1-0.6,0.7-0.9,1.3-0.8c0.6,0.1,0.9,0.7,0.8,1.3c-0.6,2.4-1.2,4.8-1.9,7.1
			C639.8,431.2,639.4,431.5,639,431.5L639,431.5z M67.8,431.2c-0.5,0-0.9-0.3-1-0.8c-0.7-2.4-1.3-4.8-1.9-7.1
			c-0.1-0.6,0.2-1.1,0.8-1.3c0.6-0.1,1.1,0.2,1.3,0.8c0.6,2.3,1.2,4.7,1.9,7.1c0.2,0.6-0.2,1.1-0.7,1.3
			C67.9,431.1,67.8,431.2,67.8,431.2L67.8,431.2z M642.6,417.2c-0.1,0-0.2,0-0.2,0c-0.6-0.1-0.9-0.7-0.8-1.3c0.5-2.4,1-4.8,1.5-7.2
			c0.1-0.6,0.7-0.9,1.2-0.8c0.6,0.1,0.9,0.7,0.8,1.2c-0.5,2.4-1,4.8-1.5,7.2C643.5,416.9,643,417.2,642.6,417.2L642.6,417.2z
			 M64.2,416.9c-0.5,0-0.9-0.3-1-0.8c-0.5-2.4-1-4.8-1.5-7.2c-0.1-0.6,0.3-1.1,0.8-1.2c0.6-0.1,1.1,0.3,1.2,0.8
			c0.5,2.4,1,4.8,1.5,7.2c0.1,0.6-0.2,1.1-0.8,1.3C64.3,416.9,64.3,416.9,64.2,416.9L64.2,416.9z M645.4,402.8c-0.1,0-0.1,0-0.2,0
			c-0.6-0.1-1-0.6-0.9-1.2c0.4-2.4,0.8-4.8,1.2-7.2c0.1-0.6,0.6-1,1.2-0.9c0.6,0.1,1,0.6,0.9,1.2c-0.4,2.4-0.8,4.9-1.2,7.3
			C646.4,402.5,645.9,402.8,645.4,402.8L645.4,402.8z M61.3,402.5c-0.5,0-0.9-0.4-1-0.9c-0.4-2.4-0.8-4.9-1.2-7.3
			c-0.1-0.6,0.3-1.1,0.9-1.2c0.6-0.1,1.1,0.3,1.2,0.9c0.4,2.4,0.7,4.8,1.2,7.2c0.1,0.6-0.3,1.1-0.9,1.2
			C61.4,402.5,61.4,402.5,61.3,402.5L61.3,402.5z M647.6,388.3c0,0-0.1,0-0.1,0c-0.6-0.1-1-0.6-0.9-1.2c0.3-2.4,0.6-4.8,0.8-7.3
			c0.1-0.6,0.6-1,1.1-0.9c0.6,0.1,1,0.6,0.9,1.1c-0.2,2.5-0.5,4.9-0.8,7.3C648.5,387.9,648.1,388.3,647.6,388.3L647.6,388.3z
			 M59.2,388c-0.5,0-1-0.4-1-0.9c-0.3-2.4-0.6-4.9-0.8-7.3c-0.1-0.6,0.4-1.1,0.9-1.1c0.6-0.1,1.1,0.4,1.1,0.9
			c0.2,2.4,0.5,4.9,0.8,7.3c0.1,0.6-0.3,1.1-0.9,1.2C59.3,388,59.2,388,59.2,388L59.2,388z M649,373.7
			C649,373.7,649,373.7,649,373.7c-0.7,0-1.1-0.5-1-1.1c0.2-2.4,0.3-4.9,0.4-7.3c0-0.6,0.5-1,1.1-1c0.6,0,1,0.5,1,1.1
			c-0.1,2.4-0.3,4.9-0.4,7.3C650,373.3,649.5,373.7,649,373.7L649,373.7z M57.8,373.4c-0.5,0-1-0.4-1-1c-0.2-2.4-0.3-4.9-0.4-7.3
			c0-0.6,0.4-1.1,1-1.1c0.6,0,1.1,0.4,1.1,1c0.1,2.4,0.3,4.9,0.4,7.3C58.9,372.9,58.4,373.4,57.8,373.4
			C57.8,373.4,57.8,373.4,57.8,373.4L57.8,373.4z M649.7,359.1C649.7,359.1,649.7,359.1,649.7,359.1c-0.6,0-1.1-0.5-1-1.1
			c0.1-2.4,0.1-4.9,0.1-7.3c0-0.6,0.5-1,1-1c0.6,0,1,0.5,1,1c0,2.5,0,4.9-0.1,7.4C650.8,358.6,650.3,359.1,649.7,359.1L649.7,359.1z
			 M57.1,358.8c-0.6,0-1-0.5-1-1c-0.1-2.3-0.1-4.7-0.1-7.1v-0.3c0-0.6,0.5-1,1-1c0.6,0,1,0.5,1,1v0.3c0,2.3,0,4.7,0.1,7
			C58.1,358.3,57.7,358.8,57.1,358.8C57.1,358.8,57.1,358.8,57.1,358.8L57.1,358.8z M649.7,345c-0.6,0-1-0.5-1-1
			c-0.1-2.5-0.1-4.9-0.3-7.3c0-0.6,0.4-1.1,1-1.1c0.6,0,1.1,0.4,1.1,1c0.1,2.4,0.2,4.9,0.3,7.4C650.8,344.5,650.3,345,649.7,345
			C649.7,345,649.7,345,649.7,345L649.7,345z M57.1,344.1C57.1,344.1,57.1,344.1,57.1,344.1c-0.6,0-1.1-0.5-1-1.1
			c0.1-2.4,0.2-4.9,0.3-7.4c0-0.6,0.5-1,1.1-1c0.6,0,1,0.5,1,1.1c-0.1,2.4-0.2,4.9-0.3,7.3C58.1,343.7,57.7,344.1,57.1,344.1
			L57.1,344.1z M649,330.4c-0.5,0-1-0.4-1-1c-0.2-2.4-0.4-4.9-0.6-7.3c-0.1-0.6,0.4-1.1,0.9-1.1c0.6-0.1,1.1,0.4,1.1,0.9
			c0.2,2.4,0.4,4.9,0.6,7.3C650.1,329.8,649.7,330.3,649,330.4C649.1,330.4,649.1,330.4,649,330.4L649,330.4z M57.8,329.5
			C57.8,329.5,57.8,329.5,57.8,329.5c-0.7,0-1.1-0.5-1-1.1c0.2-2.4,0.4-4.9,0.6-7.3c0.1-0.6,0.6-1,1.1-0.9c0.6,0.1,1,0.6,0.9,1.1
			c-0.2,2.4-0.5,4.9-0.6,7.3C58.8,329,58.4,329.5,57.8,329.5L57.8,329.5z M647.6,315.8c-0.5,0-1-0.4-1-0.9c-0.3-2.4-0.6-4.8-1-7.2
			c-0.1-0.6,0.3-1.1,0.9-1.2c0.6-0.1,1.1,0.3,1.2,0.9c0.4,2.4,0.7,4.9,1,7.3c0.1,0.6-0.3,1.1-0.9,1.2
			C647.7,315.8,647.7,315.8,647.6,315.8L647.6,315.8z M59.3,314.9c0,0-0.1,0-0.1,0c-0.6-0.1-1-0.6-0.9-1.2c0.3-2.4,0.6-4.9,1-7.3
			c0.1-0.6,0.6-1,1.2-0.9c0.6,0.1,1,0.6,0.9,1.2c-0.4,2.4-0.7,4.8-1,7.2C60.2,314.5,59.8,314.9,59.3,314.9L59.3,314.9z M645.5,301.2
			c-0.5,0-0.9-0.4-1-0.9c-0.4-2.4-0.9-4.8-1.3-7.2c-0.1-0.6,0.3-1.1,0.8-1.2c0.6-0.1,1.1,0.3,1.2,0.8c0.5,2.4,0.9,4.8,1.3,7.2
			c0.1,0.6-0.3,1.1-0.9,1.2C645.6,301.2,645.6,301.2,645.5,301.2L645.5,301.2z M61.4,300.4c-0.1,0-0.1,0-0.2,0
			c-0.6-0.1-1-0.6-0.9-1.2c0.4-2.4,0.9-4.8,1.4-7.2c0.1-0.6,0.7-0.9,1.2-0.8c0.6,0.1,0.9,0.7,0.8,1.2c-0.5,2.4-0.9,4.8-1.3,7.2
			C62.4,300,61.9,300.4,61.4,300.4L61.4,300.4z M642.7,286.9c-0.5,0-0.9-0.3-1-0.8c-0.5-2.4-1.1-4.8-1.7-7.1
			c-0.1-0.6,0.2-1.1,0.8-1.3c0.6-0.1,1.1,0.2,1.3,0.8c0.6,2.4,1.2,4.8,1.7,7.2c0.1,0.6-0.2,1.1-0.8,1.3
			C642.8,286.8,642.8,286.9,642.7,286.9L642.7,286.9z M64.3,286c-0.1,0-0.2,0-0.2,0c-0.6-0.1-0.9-0.7-0.8-1.3
			c0.5-2.4,1.1-4.8,1.7-7.2c0.1-0.6,0.7-0.9,1.3-0.8c0.6,0.1,0.9,0.7,0.8,1.3c-0.6,2.4-1.2,4.8-1.7,7.1
			C65.2,285.6,64.8,286,64.3,286L64.3,286z M639.1,272.6c-0.5,0-0.9-0.3-1-0.8c-0.6-2.3-1.3-4.7-2-7c-0.2-0.6,0.1-1.1,0.7-1.3
			c0.6-0.2,1.1,0.1,1.3,0.7c0.7,2.3,1.4,4.7,2,7.1c0.2,0.6-0.2,1.1-0.7,1.3C639.3,272.6,639.2,272.6,639.1,272.6L639.1,272.6z
			 M67.9,271.7c-0.1,0-0.2,0-0.3,0c-0.6-0.2-0.9-0.7-0.7-1.3c0.7-2.4,1.4-4.7,2.1-7.1c0.2-0.6,0.8-0.9,1.3-0.7
			c0.6,0.2,0.9,0.8,0.7,1.3c-0.7,2.3-1.4,4.7-2.1,7C68.8,271.4,68.4,271.7,67.9,271.7L67.9,271.7z M634.9,258.6
			c-0.4,0-0.8-0.3-1-0.7c-0.8-2.3-1.6-4.6-2.4-6.9c-0.2-0.5,0.1-1.1,0.6-1.3c0.5-0.2,1.1,0.1,1.3,0.6c0.8,2.3,1.6,4.6,2.4,7
			c0.2,0.5-0.1,1.1-0.7,1.3C635.1,258.6,635,258.6,634.9,258.6L634.9,258.6z M72.2,257.7c-0.1,0-0.2,0-0.3-0.1
			c-0.5-0.2-0.8-0.8-0.7-1.3c0.8-2.3,1.6-4.7,2.4-7c0.2-0.5,0.8-0.8,1.3-0.6c0.5,0.2,0.8,0.8,0.6,1.3c-0.8,2.3-1.6,4.6-2.4,6.9
			C73.1,257.4,72.7,257.7,72.2,257.7L72.2,257.7z M629.9,244.8c-0.4,0-0.8-0.3-1-0.7c-0.9-2.3-1.8-4.6-2.7-6.8
			c-0.2-0.5,0-1.1,0.6-1.4c0.5-0.2,1.1,0,1.4,0.6c0.9,2.2,1.8,4.5,2.7,6.8c0.2,0.5-0.1,1.1-0.6,1.4
			C630.2,244.8,630,244.8,629.9,244.8L629.9,244.8z M77.2,243.9c-0.1,0-0.3,0-0.4-0.1c-0.5-0.2-0.8-0.8-0.6-1.4
			c0.9-2.3,1.8-4.6,2.8-6.8c0.2-0.5,0.8-0.8,1.4-0.6c0.5,0.2,0.8,0.8,0.6,1.4c-0.9,2.2-1.9,4.5-2.8,6.8
			C78.1,243.6,77.7,243.9,77.2,243.9L77.2,243.9z M624.3,231.3c-0.4,0-0.8-0.2-1-0.6c-1-2.2-2-4.4-3-6.6c-0.2-0.5,0-1.1,0.5-1.4
			c0.5-0.3,1.1,0,1.4,0.5c1,2.2,2.1,4.4,3.1,6.7c0.2,0.5,0,1.1-0.5,1.4C624.6,231.3,624.4,231.3,624.3,231.3L624.3,231.3z
			 M82.9,230.3c-0.1,0-0.3,0-0.4-0.1c-0.5-0.2-0.8-0.9-0.5-1.4c1-2.2,2.1-4.5,3.1-6.7c0.3-0.5,0.9-0.7,1.4-0.5
			c0.5,0.3,0.7,0.9,0.5,1.4c-1.1,2.2-2.1,4.4-3.1,6.6C83.7,230.1,83.3,230.3,82.9,230.3L82.9,230.3z M618,218.1
			c-0.4,0-0.8-0.2-0.9-0.6c-1.1-2.2-2.2-4.3-3.4-6.5c-0.3-0.5-0.1-1.1,0.4-1.4c0.5-0.3,1.1-0.1,1.4,0.4c1.1,2.1,2.3,4.3,3.4,6.5
			c0.3,0.5,0.1,1.1-0.5,1.4C618.3,218,618.2,218.1,618,218.1L618,218.1z M89.3,217c-0.2,0-0.3,0-0.5-0.1c-0.5-0.3-0.7-0.9-0.5-1.4
			c1.1-2.2,2.3-4.4,3.4-6.5c0.3-0.5,0.9-0.7,1.4-0.4c0.5,0.3,0.7,0.9,0.4,1.4c-1.2,2.1-2.3,4.3-3.4,6.5C90,216.8,89.7,217,89.3,217
			L89.3,217z M611.1,205.2c-0.4,0-0.7-0.2-0.9-0.5c-1.2-2.1-2.4-4.2-3.7-6.3c-0.3-0.5-0.1-1.1,0.4-1.4c0.5-0.3,1.1-0.1,1.4,0.4
			c1.3,2.1,2.5,4.2,3.7,6.3c0.3,0.5,0.1,1.1-0.4,1.4C611.4,205.1,611.3,205.2,611.1,205.2L611.1,205.2z M96.3,204.1
			c-0.2,0-0.4,0-0.5-0.1c-0.5-0.3-0.7-0.9-0.4-1.4c1.2-2.1,2.5-4.3,3.8-6.3c0.3-0.5,0.9-0.7,1.4-0.4c0.5,0.3,0.7,0.9,0.4,1.4
			c-1.3,2.1-2.5,4.2-3.7,6.3C97,203.9,96.7,204.1,96.3,204.1L96.3,204.1z M603.5,192.6c-0.3,0-0.7-0.2-0.9-0.5c-1.3-2-2.6-4.1-4-6.1
			c-0.3-0.5-0.2-1.1,0.3-1.5c0.5-0.3,1.1-0.2,1.5,0.3c1.4,2,2.7,4.1,4,6.1c0.3,0.5,0.2,1.1-0.3,1.4
			C603.9,192.6,603.7,192.6,603.5,192.6L603.5,192.6z M104,191.6c-0.2,0-0.4-0.1-0.6-0.2c-0.5-0.3-0.6-1-0.3-1.4
			c1.3-2.1,2.7-4.1,4.1-6.1c0.3-0.5,1-0.6,1.5-0.3c0.5,0.3,0.6,1,0.3,1.5c-1.4,2-2.7,4.1-4,6.1C104.6,191.4,104.3,191.6,104,191.6
			L104,191.6z M595.4,180.5c-0.3,0-0.7-0.2-0.9-0.4c-1.4-2-2.8-4-4.3-5.9c-0.3-0.5-0.3-1.1,0.2-1.5s1.1-0.3,1.5,0.2
			c1.5,2,2.9,4,4.3,5.9c0.3,0.5,0.2,1.1-0.3,1.5C595.8,180.4,595.6,180.5,595.4,180.5L595.4,180.5z M112.2,179.4
			c-0.2,0-0.4-0.1-0.6-0.2c-0.5-0.3-0.6-1-0.2-1.5c1.4-2,2.9-4,4.4-5.9c0.3-0.5,1-0.6,1.5-0.2c0.5,0.3,0.6,1,0.2,1.5
			c-1.5,1.9-2.9,3.9-4.3,5.9C112.8,179.3,112.5,179.4,112.2,179.4L112.2,179.4z M586.6,168.8c-0.3,0-0.6-0.1-0.8-0.4
			c-1.5-1.9-3-3.8-4.6-5.7c-0.4-0.4-0.3-1.1,0.1-1.5c0.4-0.4,1.1-0.3,1.5,0.1c1.5,1.9,3.1,3.8,4.6,5.7c0.4,0.5,0.3,1.1-0.2,1.5
			C587,168.7,586.8,168.8,586.6,168.8L586.6,168.8z M121,167.7c-0.2,0-0.5-0.1-0.7-0.2c-0.5-0.4-0.5-1-0.2-1.5
			c1.5-1.9,3.1-3.8,4.6-5.7c0.4-0.4,1-0.5,1.5-0.1c0.4,0.4,0.5,1,0.1,1.5c-1.6,1.9-3.1,3.8-4.6,5.7
			C121.7,167.6,121.3,167.7,121,167.7L121,167.7z M577.3,157.5c-0.3,0-0.6-0.1-0.8-0.4c-1.6-1.8-3.2-3.7-4.9-5.5
			c-0.4-0.4-0.4-1.1,0.1-1.5c0.4-0.4,1.1-0.4,1.5,0.1c1.6,1.8,3.3,3.6,4.9,5.5c0.4,0.4,0.3,1.1-0.1,1.5
			C577.7,157.4,577.5,157.5,577.3,157.5L577.3,157.5z M130.4,156.4c-0.2,0-0.5-0.1-0.7-0.3c-0.4-0.4-0.5-1-0.1-1.5
			c1.6-1.8,3.3-3.7,4.9-5.5c0.4-0.4,1.1-0.5,1.5-0.1c0.4,0.4,0.5,1.1,0.1,1.5c-1.6,1.8-3.3,3.6-4.9,5.4
			C131,156.3,130.7,156.4,130.4,156.4L130.4,156.4z M567.4,146.6c-0.3,0-0.6-0.1-0.8-0.3c-1.7-1.8-3.4-3.5-5.1-5.2
			c-0.4-0.4-0.4-1.1,0-1.5c0.4-0.4,1.1-0.4,1.5,0c1.7,1.7,3.5,3.5,5.2,5.2c0.4,0.4,0.4,1.1,0,1.5
			C567.9,146.5,567.6,146.6,567.4,146.6L567.4,146.6z M140.4,145.6c-0.3,0-0.5-0.1-0.7-0.3c-0.4-0.4-0.4-1.1,0-1.5
			c1.7-1.8,3.4-3.5,5.2-5.2c0.4-0.4,1.1-0.4,1.5,0c0.4,0.4,0.4,1.1,0,1.5c-1.7,1.7-3.5,3.5-5.1,5.2
			C140.9,145.5,140.7,145.6,140.4,145.6L140.4,145.6z M557,136.3c-0.3,0-0.5-0.1-0.7-0.3c-1.8-1.7-3.6-3.3-5.4-5
			c-0.4-0.4-0.5-1-0.1-1.5c0.4-0.4,1.1-0.5,1.5-0.1c1.8,1.6,3.6,3.3,5.4,5c0.4,0.4,0.4,1.1,0,1.5C557.5,136.2,557.2,136.3,557,136.3
			L557,136.3z M150.8,135.4c-0.3,0-0.6-0.1-0.8-0.3c-0.4-0.4-0.4-1.1,0-1.5c1.8-1.7,3.6-3.3,5.4-5c0.4-0.4,1.1-0.3,1.5,0.1
			c0.4,0.4,0.3,1.1-0.1,1.5c-1.8,1.6-3.6,3.3-5.4,4.9C151.3,135.3,151.1,135.4,150.8,135.4L150.8,135.4z M546,126.5
			c-0.2,0-0.5-0.1-0.7-0.3c-1.8-1.6-3.7-3.2-5.6-4.7c-0.4-0.4-0.5-1-0.2-1.5c0.4-0.4,1-0.5,1.5-0.2c1.9,1.5,3.8,3.1,5.7,4.7
			c0.4,0.4,0.5,1,0.1,1.5C546.6,126.4,546.3,126.5,546,126.5L546,126.5z M161.8,125.6c-0.3,0-0.6-0.1-0.8-0.4
			c-0.4-0.4-0.3-1.1,0.1-1.5c1.9-1.6,3.8-3.2,5.7-4.7c0.5-0.4,1.1-0.3,1.5,0.2c0.4,0.5,0.3,1.1-0.2,1.5c-1.9,1.5-3.8,3.1-5.6,4.7
			C162.3,125.5,162,125.6,161.8,125.6L161.8,125.6z M534.7,117.2c-0.2,0-0.4-0.1-0.6-0.2c-1.9-1.5-3.9-3-5.8-4.4
			c-0.5-0.3-0.6-1-0.2-1.5c0.3-0.5,1-0.6,1.5-0.2c1.9,1.4,3.9,2.9,5.9,4.4c0.5,0.4,0.5,1,0.2,1.5C535.3,117.1,535,117.2,534.7,117.2
			L534.7,117.2z M173.2,116.4c-0.3,0-0.6-0.1-0.8-0.4c-0.4-0.5-0.3-1.1,0.2-1.5c1.9-1.5,3.9-3,5.9-4.4c0.5-0.3,1.1-0.2,1.5,0.2
			c0.3,0.5,0.2,1.1-0.2,1.5c-2,1.4-3.9,2.9-5.8,4.4C173.6,116.3,173.4,116.4,173.2,116.4L173.2,116.4z M522.8,108.5
			c-0.2,0-0.4-0.1-0.6-0.2c-2-1.4-4-2.8-6.1-4.1c-0.5-0.3-0.6-1-0.3-1.5c0.3-0.5,1-0.6,1.5-0.3c2,1.3,4.1,2.7,6.1,4.1
			c0.5,0.3,0.6,1,0.3,1.5C523.5,108.4,523.2,108.5,522.8,108.5L522.8,108.5z M185,107.8c-0.3,0-0.7-0.2-0.9-0.5
			c-0.3-0.5-0.2-1.1,0.3-1.5c2-1.4,4.1-2.8,6.1-4.1c0.5-0.3,1.1-0.2,1.5,0.3c0.3,0.5,0.2,1.1-0.3,1.5c-2,1.3-4.1,2.7-6.1,4.1
			C185.4,107.7,185.2,107.8,185,107.8L185,107.8z M510.6,100.4c-0.2,0-0.4-0.1-0.6-0.2c-2.1-1.3-4.2-2.6-6.3-3.8
			c-0.5-0.3-0.7-0.9-0.4-1.4c0.3-0.5,0.9-0.7,1.4-0.4c2.1,1.2,4.2,2.5,6.3,3.8c0.5,0.3,0.6,1,0.3,1.4
			C511.3,100.2,510.9,100.4,510.6,100.4L510.6,100.4z M197.3,99.7c-0.4,0-0.7-0.2-0.9-0.5c-0.3-0.5-0.2-1.1,0.3-1.4
			c2.1-1.3,4.2-2.6,6.3-3.8c0.5-0.3,1.1-0.1,1.4,0.4c0.3,0.5,0.1,1.1-0.4,1.4c-2.1,1.2-4.2,2.5-6.2,3.8
			C197.7,99.7,197.5,99.7,197.3,99.7L197.3,99.7z M497.9,92.9c-0.2,0-0.3,0-0.5-0.1c-2.1-1.2-4.3-2.4-6.4-3.5
			c-0.5-0.3-0.7-0.9-0.4-1.4c0.3-0.5,0.9-0.7,1.4-0.4c2.2,1.1,4.3,2.3,6.5,3.5c0.5,0.3,0.7,0.9,0.4,1.4
			C498.7,92.7,498.3,92.9,497.9,92.9L497.9,92.9z M209.9,92.3c-0.4,0-0.7-0.2-0.9-0.5c-0.3-0.5-0.1-1.1,0.4-1.4
			c2.1-1.2,4.3-2.4,6.5-3.5c0.5-0.3,1.1-0.1,1.4,0.4c0.3,0.5,0.1,1.1-0.4,1.4c-2.1,1.1-4.3,2.3-6.4,3.5
			C210.2,92.3,210.1,92.3,209.9,92.3L209.9,92.3z M484.9,86.1c-0.2,0-0.3,0-0.5-0.1c-2.2-1.1-4.4-2.2-6.6-3.2
			c-0.5-0.2-0.8-0.9-0.5-1.4c0.2-0.5,0.9-0.8,1.4-0.5c2.2,1,4.4,2.1,6.7,3.2c0.5,0.3,0.7,0.9,0.5,1.4
			C485.7,85.8,485.3,86.1,484.9,86.1L484.9,86.1z M222.9,85.6c-0.4,0-0.8-0.2-0.9-0.6c-0.3-0.5,0-1.1,0.5-1.4
			c2.2-1.1,4.4-2.1,6.6-3.2c0.5-0.2,1.1,0,1.4,0.5c0.2,0.5,0,1.1-0.5,1.4c-2.2,1-4.4,2.1-6.6,3.1C223.2,85.5,223,85.6,222.9,85.6
			L222.9,85.6z M471.6,79.9c-0.1,0-0.3,0-0.4-0.1c-2.2-1-4.5-1.9-6.8-2.8c-0.5-0.2-0.8-0.8-0.6-1.4c0.2-0.5,0.8-0.8,1.4-0.6
			c2.3,0.9,4.5,1.9,6.8,2.9c0.5,0.2,0.8,0.8,0.5,1.4C472.4,79.6,472,79.9,471.6,79.9L471.6,79.9z M236.1,79.4c-0.4,0-0.8-0.2-1-0.6
			c-0.2-0.5,0-1.1,0.5-1.4c2.2-1,4.5-1.9,6.8-2.8c0.5-0.2,1.1,0,1.4,0.6c0.2,0.5,0,1.1-0.6,1.4c-2.2,0.9-4.5,1.8-6.7,2.8
			C236.4,79.4,236.3,79.4,236.1,79.4L236.1,79.4z M458,74.3c-0.1,0-0.2,0-0.4-0.1c-2.3-0.9-4.6-1.7-6.9-2.5
			c-0.5-0.2-0.8-0.8-0.6-1.3c0.2-0.5,0.8-0.8,1.3-0.6c2.3,0.8,4.6,1.7,6.9,2.5c0.5,0.2,0.8,0.8,0.6,1.4
			C458.8,74.1,458.4,74.3,458,74.3L458,74.3z M249.7,74c-0.4,0-0.8-0.3-1-0.7c-0.2-0.5,0.1-1.1,0.6-1.3c2.3-0.9,4.6-1.7,6.9-2.5
			c0.5-0.2,1.1,0.1,1.3,0.6c0.2,0.5-0.1,1.1-0.6,1.3c-2.3,0.8-4.6,1.6-6.9,2.5C250,74,249.9,74,249.7,74L249.7,74z M444.1,69.5
			c-0.1,0-0.2,0-0.3,0c-2.3-0.7-4.7-1.5-7-2.1c-0.6-0.2-0.9-0.7-0.7-1.3c0.2-0.6,0.7-0.9,1.3-0.7c2.3,0.7,4.7,1.4,7,2.2
			c0.6,0.2,0.9,0.8,0.7,1.3C444.9,69.2,444.5,69.5,444.1,69.5L444.1,69.5z M263.6,69.2c-0.4,0-0.9-0.3-1-0.7
			c-0.2-0.6,0.1-1.1,0.7-1.3c2.3-0.7,4.7-1.5,7-2.1c0.6-0.2,1.1,0.2,1.3,0.7c0.2,0.6-0.2,1.1-0.7,1.3c-2.3,0.7-4.7,1.4-7,2.1
			C263.8,69.2,263.7,69.2,263.6,69.2L263.6,69.2z M430,65.3c-0.1,0-0.2,0-0.3,0c-2.3-0.6-4.7-1.2-7.1-1.8c-0.6-0.1-0.9-0.7-0.8-1.3
			c0.1-0.6,0.7-0.9,1.3-0.8c2.4,0.6,4.8,1.2,7.1,1.8c0.6,0.1,0.9,0.7,0.7,1.3C430.9,65,430.5,65.3,430,65.3L430,65.3z M277.7,65.1
			c-0.5,0-0.9-0.3-1-0.8c-0.1-0.6,0.2-1.1,0.7-1.3c2.4-0.6,4.8-1.2,7.1-1.8c0.6-0.1,1.1,0.2,1.3,0.8c0.1,0.6-0.2,1.1-0.8,1.3
			c-2.4,0.6-4.8,1.2-7.1,1.8C277.9,65.1,277.8,65.1,277.7,65.1L277.7,65.1z M415.8,61.9c-0.1,0-0.1,0-0.2,0c-2.4-0.5-4.8-1-7.2-1.4
			c-0.6-0.1-0.9-0.7-0.8-1.2c0.1-0.6,0.6-0.9,1.2-0.8c2.4,0.5,4.8,0.9,7.2,1.5c0.6,0.1,0.9,0.7,0.8,1.2
			C416.7,61.6,416.2,61.9,415.8,61.9L415.8,61.9z M292,61.7c-0.5,0-0.9-0.3-1-0.8c-0.1-0.6,0.2-1.1,0.8-1.2c2.4-0.5,4.8-1,7.2-1.4
			c0.6-0.1,1.1,0.3,1.2,0.8c0.1,0.6-0.3,1.1-0.8,1.2c-2.4,0.4-4.8,0.9-7.2,1.4C292.1,61.7,292,61.7,292,61.7L292,61.7z M401.3,59.2
			c-0.1,0-0.1,0-0.2,0c-2.4-0.4-4.8-0.8-7.2-1.1c-0.6-0.1-1-0.6-0.9-1.2c0.1-0.6,0.6-1,1.2-0.9c2.4,0.3,4.9,0.7,7.3,1.1
			c0.6,0.1,1,0.6,0.9,1.2C402.3,58.8,401.8,59.2,401.3,59.2L401.3,59.2z M306.4,59c-0.5,0-1-0.4-1-0.9c-0.1-0.6,0.3-1.1,0.9-1.2
			c2.4-0.4,4.9-0.7,7.3-1.1c0.6-0.1,1.1,0.3,1.2,0.9c0.1,0.6-0.3,1.1-0.9,1.2c-2.4,0.3-4.8,0.7-7.2,1.1C306.5,59,306.4,59,306.4,59
			L306.4,59z M386.8,57.2c0,0-0.1,0-0.1,0c-2.4-0.3-4.9-0.5-7.3-0.7c-0.6,0-1-0.6-1-1.1c0.1-0.6,0.6-1,1.1-1
			c2.4,0.2,4.9,0.5,7.3,0.7c0.6,0.1,1,0.6,0.9,1.2C387.8,56.8,387.3,57.2,386.8,57.2L386.8,57.2z M320.9,57.1c-0.5,0-1-0.4-1-0.9
			c-0.1-0.6,0.4-1.1,0.9-1.2c2.4-0.3,4.9-0.5,7.3-0.7c0.6,0,1.1,0.4,1.1,1c0,0.6-0.4,1.1-1,1.1c-2.4,0.2-4.9,0.4-7.3,0.7
			C321,57.1,321,57.1,320.9,57.1L320.9,57.1z M372.2,55.9C372.2,55.9,372.1,55.9,372.2,55.9c-2.5-0.2-4.9-0.3-7.4-0.4
			c-0.6,0-1-0.5-1-1.1c0-0.6,0.5-1,1.1-1c2.4,0.1,4.9,0.2,7.3,0.4c0.6,0,1,0.5,1,1.1C373.2,55.5,372.7,55.9,372.2,55.9L372.2,55.9z
			 M335.5,55.9c-0.5,0-1-0.4-1-1c0-0.6,0.4-1.1,1-1.1c2.4-0.1,4.9-0.3,7.4-0.3c0.6,0,1.1,0.4,1.1,1c0,0.6-0.4,1.1-1,1.1
			C340.5,55.6,338,55.7,335.5,55.9C335.6,55.9,335.6,55.9,335.5,55.9L335.5,55.9z M357.5,55.4C357.5,55.4,357.5,55.4,357.5,55.4
			c-2.4,0-4.9,0-7.3,0c0,0,0,0,0,0c-0.6,0-1-0.5-1-1c0-0.6,0.5-1.1,1-1.1c2.5,0,4.9,0,7.4,0c0.6,0,1,0.5,1,1.1
			C358.6,54.9,358.1,55.4,357.5,55.4L357.5,55.4z"/>
	</g>
	<g>
		<circle fill="#BF306F" cx="63.9" cy="350.7" r="55.4"/>
		<g>
			<path opacity="0.2" d="M76.9,332.2c-0.8-0.7-1.8-1.1-2.9-1.1l0,0c-0.6,0-1.1,0.1-1.6,0.3l-11.9-11.9c-0.9-0.9-2.3-1-3.1-0.2
				l-1.4,1.4c-0.8,0.8-0.7,2.2,0.2,3.1c0.2,5.8-1.3,11.6-4.6,16.5c-1.4,2.1-3.1,3.9-4.9,5.4l-0.1-0.1l-9.2,9.2
				c-3.5,3.5-3.5,9.2,0,12.7l3.8,3.8l-0.2,0.2l33.1,33.1c18.8-3.6,34.1-16.8,40.9-34.3L76.9,332.2L76.9,332.2z"/>
			<g>
				<g>
					<g>
						<g>
							<path fill="#0E303F" d="M71.4,372.7c1,0.7,1.3,2.1,0.6,3.1l-3.4,4.9c-0.7,1-2.1,1.3-3.1,0.6l-12.6-8.8
								c-1-0.7-1.3-2.1-0.6-3.1l3.4-4.9c0.7-1,2.1-1.3,3.1-0.6L71.4,372.7z"/>
							<g>
								<path fill="#2C5066" d="M74,331.1c-2.3,0-4.3,1.9-4.2,4.2c0,2.3,1.9,4.2,4.2,4.2h0h0c2.3,0,4.2-1.9,4.2-4.2
									C78.3,333,76.4,331.1,74,331.1L74,331.1L74,331.1z"/>
							</g>
							<path fill="#FFFFFF" d="M46.3,346.1l12.5,12.5l16.7-16.7l-19.3-19.3c0.4,6.3-1,12.5-4.5,17.7
								C50.2,342.6,48.3,344.5,46.3,346.1z"/>
							<path fill="#2C5066" d="M46.7,345.6l-9.2,9.2c-3.5,3.5-3.5,9.2,0,12.7l4.4,4.4c3.5,3.5,9.2,3.5,12.7,0l9.2-9.2L46.7,345.6z"
								/>
							<path fill="#C2D64C" d="M88.7,353.4c-0.8,0.8-2.2,0.7-3.1-0.2l-29.3-29.3c-0.9-0.9-1-2.3-0.2-3.1l1.4-1.4
								c0.8-0.8,2.2-0.7,3.1,0.2l29.3,29.3c0.9,0.9,1,2.3,0.2,3.1L88.7,353.4z"/>
							<path fill="#A6DAE9" d="M86.8,353.2l-15.4-15.4l-16.7,16.7l8.6,8.6c1.6-2,3.5-3.8,5.8-5.4C74.3,354.2,80.5,352.8,86.8,353.2z
								"/>
							<path fill="#0E303F" d="M55.1,354.1l-15.5,15.5l2.3,2.3c3.5,3.5,9.2,3.5,12.7,0l9.2-9.2L55.1,354.1z"/>
							<path fill="#A1B400" d="M89.9,348.8l-14.8-14.8l-4.3,4.3l14.8,14.8c0.9,0.9,2.3,1,3.1,0.2l1.4-1.4
								C90.9,351.1,90.8,349.8,89.9,348.8z"/>
							<path fill="#2C5066" d="M58.1,371.1c-0.7-0.5-1.6-0.3-2,0.4l0,0c-0.5,0.7-0.3,1.6,0.4,2l9.4,6.5c0.7,0.5,1.6,0.3,2-0.4l0,0
								c0.5-0.7,0.3-1.6-0.4-2L58.1,371.1z"/>
						</g>
						<g>
							<g>
								<path fill="#FFFFFF" d="M79.6,330.5c-0.1,0-0.2,0-0.3-0.1c-0.2-0.2-0.2-0.5,0-0.7l12.4-12.4c0.2-0.2,0.5-0.2,0.7,0
									c0.2,0.2,0.2,0.5,0,0.7l-12.4,12.4C79.8,330.4,79.7,330.5,79.6,330.5L79.6,330.5z"/>
							</g>
							<g>
								<g>
									<path fill="#FFFFFF" d="M76.7,328c-0.1,0-0.1,0-0.2,0c-0.2-0.1-0.4-0.4-0.3-0.6l5.6-16.6c0.1-0.2,0.4-0.4,0.6-0.3
										c0.2,0.1,0.4,0.4,0.3,0.6l-5.6,16.6C77.1,327.9,76.9,328,76.7,328L76.7,328z"/>
								</g>
								<g>
									<path fill="#FFFFFF" d="M82,333.4c-0.2,0-0.4-0.1-0.5-0.3c-0.1-0.2,0-0.5,0.3-0.6l16.6-5.6c0.2-0.1,0.5,0,0.6,0.3
										c0.1,0.2,0,0.5-0.3,0.6l-16.6,5.6C82.1,333.4,82.1,333.4,82,333.4L82,333.4z"/>
								</g>
							</g>
						</g>
					</g>
				</g>
			</g>
		</g>
	</g>
	<g>
		<circle fill="#5CA15F" cx="498.1" cy="100" r="55.4"/>
		<g>
			<path opacity="0.2" d="M553,107.1l-24.2-24.2l0,0l-3-3l-7.1-7.1l-3-3l-3.8,3.8l0,0l-40.6,40.6c0.7,0.5,0.7,0.5,0,0l-1.6,14.6
				l-0.1,0.1l26.3,26.3c0.7,0,1.4,0.1,2.1,0.1C526.3,155.4,549.5,134.3,553,107.1z"/>
			<g>
				<path fill="#0E303F" d="M512,73.8l-40.6,40.6c1.8,1.3,4.2,1.3,6,0L515,76.8L512,73.8z"/>
				<path fill="#2C5871" d="M522,83.8l-7.1-7.1l-37.6,37.6l0,0c0,0,0,0,0,0c0,0,0,0,0,0c-1.5,1.9-1.3,4.8,0.5,6.6
					c1.8,1.8,4.6,2,6.6,0.5c0,0,0,0,0,0c0,0,0,0,0,0v0L522,83.8z"/>
				<path fill="#0E303F" d="M484.4,121.5c-1.3,1.7-1.3,4.2,0,6L525,86.8l-3-3L484.4,121.5z"/>
				<path fill="#FFFFFF" d="M484.4,127.4c-1.3-1.8-1.3-4.2,0-6v0c0,0,0,0,0,0c0,0,0,0,0,0c-1.9,1.5-4.8,1.3-6.6-0.5
					c-1.8-1.8-2-4.6-0.5-6.6c0,0,0,0,0,0c0,0,0,0,0,0l0,0c-1.7,1.3-4.2,1.4-6,0l-1.6,14.6L484.4,127.4z"/>
				<path fill="#0E303F" d="M470.5,121.8l-0.8,7.2l7.2-0.8c-0.8-1.3-1.7-2.5-2.8-3.6C473,123.6,471.8,122.6,470.5,121.8z"/>
				<g>
					
						<rect x="513.3" y="70.6" transform="matrix(-0.7073 -0.7069 0.7069 -0.7073 828.2027 489.502)" fill="#A1B400" width="4.2" height="5.4"/>
					
						<rect x="515.5" y="75.6" transform="matrix(-0.7072 -0.7071 0.7071 -0.7072 833.1152 501.71)" fill="#C2D64C" width="10" height="5.4"/>
					
						<rect x="523.4" y="80.6" transform="matrix(-0.7069 -0.7073 0.7073 -0.7069 837.9697 513.9489)" fill="#A1B400" width="4.2" height="5.4"/>
				</g>
			</g>
		</g>
	</g>
	<g>
		<path fill="#791F7A" d="M298,61.2c0-30.6,24.8-55.4,55.4-55.4c30.6,0,55.4,24.8,55.4,55.4s-24.8,55.4-55.4,55.4
			C322.8,116.6,298,91.8,298,61.2z"/>
		<g>
			<path opacity="0.2" d="M378.9,42.3c-0.2-0.3-0.6-0.5-0.9-0.6l-5.6-5.6c-0.1-0.2-0.3-0.5-0.6-0.6l-5.6-3.3
				c-0.8-0.4-1.8-0.2-2.2,0.6l-1.4,2.5l-4.8-4.8c-0.3-0.4-0.8-0.7-1.3-0.7h-3.5h-3c-0.9,0-1.6,0.7-1.6,1.6v3.9
				c-1,0.2-1.9,0.5-2.9,0.8l-3.1-3.1c-0.5-0.6-1.4-0.7-2.1-0.4l-5.6,3.3c-0.8,0.4-1,1.4-0.6,2.2l1.9,3.4c-1,0.9-2,1.9-2.9,3
				l-3.3-1.9c-0.8-0.4-1.8-0.2-2.2,0.6l-3.3,5.6c-0.3,0.6-0.3,1.3,0.2,1.9l0,0l3.5,3.5c-0.3,0.9-0.5,1.8-0.6,2.8h-3.8
				c-0.9,0-1.6,0.7-1.6,1.6v6.5c0,0.5,0.2,1,0.6,1.3l0,0l5,5l-2.2,1.3c-0.8,0.5-1,1.4-0.6,2.2l3.3,5.6c0.1,0.2,0.3,0.3,0.4,0.5l0,0
				l34.9,34.9c22.7-4,40.6-21.8,44.8-44.5L378.9,42.3z"/>
			<g>
				<g>
					<g>
						<path fill="#A1B400" d="M383.4,56.2h-3.9c-0.3-1.4-0.7-2.7-1.1-4l3.2-1.9c0.8-0.5,1-1.4,0.6-2.2l-3.3-5.6
							c-0.5-0.8-1.5-1-2.2-0.6l-3.4,1.9c-0.9-1-1.9-2-3-2.9l1.9-3.3c0.4-0.8,0.2-1.8-0.6-2.2l-5.6-3.3c-0.8-0.4-1.8-0.2-2.2,0.6
							l-1.9,3.4c-1.3-0.4-2.6-0.8-4-1v-3.8c0-0.9-0.7-1.6-1.6-1.6h-6.5c-0.9,0-1.6,0.7-1.6,1.6v3.9c-1.4,0.3-2.7,0.7-4,1.1l-1.9-3.2
							c-0.5-0.8-1.4-1-2.2-0.6l-5.6,3.3c-0.8,0.4-1,1.4-0.6,2.2l1.9,3.4c-1,0.9-2,1.9-2.9,3l-3.3-1.9c-0.8-0.4-1.8-0.2-2.2,0.6
							l-3.3,5.6c-0.4,0.8-0.2,1.8,0.6,2.2l3.4,1.9c-0.4,1.3-0.8,2.6-1,4h-3.8c-0.9,0-1.6,0.7-1.6,1.6v6.5c0,0.9,0.7,1.6,1.6,1.6h3.9
							c0.3,1.4,0.6,2.7,1.1,4l-3.2,1.9c-0.8,0.5-1,1.4-0.6,2.2l3.3,5.6c0.4,0.8,1.4,1,2.2,0.6l3.4-1.9c0.9,1,1.9,2,3,2.9l-1.9,3.3
							c-0.4,0.8-0.2,1.8,0.6,2.2l5.6,3.3c0.8,0.4,1.8,0.2,2.2-0.6l1.9-3.4c1.3,0.4,2.6,0.8,4,1v3.8c0,0.9,0.7,1.6,1.6,1.6l6.5,0
							c0.9,0,1.6-0.7,1.6-1.6v-3.9c1.4-0.3,2.7-0.6,4-1.1l1.9,3.2c0.4,0.8,1.4,1,2.2,0.6l5.6-3.3c0.8-0.4,1-1.4,0.6-2.2l-1.9-3.4
							c1-0.9,2-1.9,2.9-3l3.3,1.9c0.8,0.5,1.8,0.2,2.2-0.6l3.3-5.6c0.4-0.8,0.2-1.8-0.6-2.2l-3.4-2c0.4-1.3,0.8-2.6,1-4h3.8
							c0.9,0,1.6-0.7,1.6-1.6v-6.5C385.1,56.9,384.3,56.2,383.4,56.2z M353.4,74.4c-7.2,0-13-5.8-13-13c0-7.2,5.8-13,13-13
							c7.2,0,13,5.8,13,13C366.4,68.6,360.6,74.4,353.4,74.4z"/>
						<path fill="#C2D64C" d="M352.9,78.3c-9.1-0.3-16.3-7.7-16.3-16.9c0-9.1,7.3-16.6,16.3-16.9V29.8h-3c-0.9,0-1.6,0.7-1.6,1.6
							v3.9c-1.4,0.3-2.7,0.7-4,1.1l-1.9-3.2c-0.5-0.8-1.4-1-2.2-0.6l-5.6,3.3c-0.8,0.4-1,1.4-0.6,2.2l1.9,3.4c-1,0.9-2,1.9-2.9,3
							l-3.3-1.9c-0.8-0.4-1.8-0.2-2.2,0.6l-3.3,5.6c-0.4,0.8-0.2,1.8,0.6,2.2l3.4,1.9c-0.4,1.3-0.8,2.6-1,4h-3.8
							c-0.9,0-1.6,0.7-1.6,1.6v6.5c0,0.9,0.7,1.6,1.6,1.6h3.9c0.3,1.4,0.6,2.7,1.1,4l-3.2,1.9c-0.8,0.5-1,1.4-0.6,2.2l3.3,5.6
							c0.4,0.8,1.4,1,2.2,0.6l3.4-1.9c0.9,1,1.9,2,3,2.9l-1.9,3.3c-0.4,0.8-0.2,1.8,0.6,2.2l5.6,3.3c0.8,0.4,1.8,0.2,2.2-0.6
							l1.9-3.4c1.3,0.4,2.6,0.8,4,1v3.8c0,0.9,0.7,1.6,1.6,1.6l2.3,0V78.3z"/>
						<path fill="#A1B400" d="M353.4,38.4c-12.7,0-23,10.3-23,23c0,12.7,10.3,23,23,23c12.7,0,23-10.3,23-23
							C376.4,48.7,366.1,38.4,353.4,38.4z M353.4,80.3c-10.4,0-18.9-8.5-18.9-18.9c0-10.4,8.5-18.9,18.9-18.9s18.9,8.5,18.9,18.9
							C372.3,71.9,363.9,80.3,353.4,80.3z"/>
						<path fill="#C2D64C" d="M353.4,38.4c-0.2,0-0.4,0-0.6,0v4.1c0.2,0,0.4,0,0.6,0c10.4,0,18.9,8.5,18.9,18.9
							c0,10.4-8.5,18.9-18.9,18.9c-0.2,0-0.4,0-0.6,0v4.1c0.2,0,0.4,0,0.6,0c12.7,0,23-10.3,23-23C376.4,48.7,366.1,38.4,353.4,38.4
							z"/>
					</g>
				</g>
				<g>
					<g>
						<path fill="#1695A4" d="M373.8,63c0-0.2,0-0.4,0-0.6c0-0.3,0-0.6,0-1c0-0.3,0-0.6,0-1c0-0.2,0-0.4,0-0.6c0-0.1,0-0.2,0-0.3
							c-1-10.4-9.7-18.6-20.4-18.6c-10.3,0-18.9,7.7-20.3,17.7c0,0,0,0,0,0.1c0,0.3-0.1,0.5-0.1,0.8c0,0.1,0,0.3,0,0.4
							c0,0.2,0,0.4,0,0.5c0,0.3,0,0.6,0,1c0,0.3,0,0.6,0,1c0,0.2,0,0.4,0,0.5c0,0.1,0,0.3,0,0.4c0,0.3,0.1,0.5,0.1,0.8
							c0,0,0,0.1,0,0.1c1.4,10,9.9,17.7,20.3,17.7c10.6,0,19.4-8.2,20.4-18.6C373.8,63.2,373.8,63.1,373.8,63z"/>
						<path fill="#15B0BF" d="M353.4,41c-10.3,0-18.9,7.7-20.3,17.7c0,0,0,0,0,0.1c0,0.3-0.1,0.5-0.1,0.8c0,0.1,0,0.3,0,0.4
							c0,0.2,0,0.4,0,0.5c0,0.3,0,0.6,0,1c0,0.3,0,0.6,0,1c0,0.2,0,0.4,0,0.5c0,0.1,0,0.3,0,0.4c0,0.3,0.1,0.5,0.1,0.8
							c0,0,0,0.1,0,0.1c1.4,10,9.9,17.7,20.3,17.7"/>
						<g>
							<path fill="#D1ECFB" d="M370.1,69.8c-0.1,0.1-0.1,0.3-0.2,0.4c-0.1,0.1-0.1,0.2-0.2,0.4c-0.1,0.1-0.2,0.3-0.2,0.4
								c-0.1,0.1-0.1,0.2-0.2,0.4c-0.1,0.1-0.2,0.3-0.3,0.4c-0.1,0.1-0.2,0.2-0.2,0.3c-0.1,0.1-0.2,0.3-0.3,0.4
								c-0.1,0.1-0.2,0.2-0.3,0.3c-0.1,0.1-0.2,0.2-0.3,0.4c-0.1,0.1-0.2,0.2-0.3,0.3c-0.1,0.1-0.2,0.2-0.3,0.3
								c-0.1,0.1-0.2,0.2-0.3,0.3c-0.1,0.1-0.2,0.2-0.3,0.3c-0.1,0.1-0.2,0.2-0.3,0.3c-0.1,0.1-0.2,0.2-0.3,0.3
								c-0.1,0.1-0.2,0.2-0.3,0.3c-0.1,0.1-0.2,0.2-0.4,0.3c-0.1,0.1-0.2,0.2-0.3,0.3c-0.1,0.1-0.2,0.2-0.4,0.3
								c-0.1,0.1-0.2,0.2-0.3,0.2c-0.1,0.1-0.3,0.2-0.4,0.3c-0.1,0.1-0.2,0.2-0.3,0.2c-0.1,0.1-0.3,0.2-0.4,0.3
								c-0.1,0.1-0.2,0.1-0.3,0.2c-0.1,0.1-0.3,0.2-0.4,0.2c-0.1,0.1-0.2,0.1-0.4,0.2c-0.1,0.1-0.3,0.2-0.4,0.2
								c-0.1,0.1-0.2,0.1-0.4,0.2c-0.1,0.1-0.3,0.1-0.5,0.2c-0.1,0.1-0.2,0.1-0.4,0.2c-0.2,0.1-0.3,0.1-0.5,0.2
								c-0.1,0-0.2,0.1-0.4,0.1c0,0-0.1,0-0.1,0c2.3-2.3,4-5.7,5.1-9.8h5.7c0,0.1-0.1,0.1-0.1,0.2C370.2,69.5,370.2,69.7,370.1,69.8
								z"/>
							<path fill="#D1ECFB" d="M360.1,44c0.2,0.1,0.3,0.1,0.5,0.2c0.1,0.1,0.2,0.1,0.4,0.2c0.2,0.1,0.3,0.1,0.5,0.2
								c0.1,0.1,0.2,0.1,0.4,0.2c0.1,0.1,0.3,0.1,0.4,0.2c0.1,0.1,0.2,0.1,0.4,0.2c0.1,0.1,0.3,0.2,0.4,0.2c0.1,0.1,0.2,0.1,0.3,0.2
								c0.1,0.1,0.3,0.2,0.4,0.3c0.1,0.1,0.2,0.2,0.3,0.2c0.1,0.1,0.3,0.2,0.4,0.3c0.1,0.1,0.2,0.2,0.3,0.3c0.1,0.1,0.2,0.2,0.4,0.3
								c0.1,0.1,0.2,0.2,0.3,0.3c0.1,0.1,0.2,0.2,0.4,0.3c0.1,0.1,0.2,0.2,0.3,0.3c0.1,0.1,0.2,0.2,0.3,0.3c0.1,0.1,0.2,0.2,0.3,0.3
								c0.1,0.1,0.2,0.2,0.3,0.3c0.1,0.1,0.2,0.2,0.3,0.3c0.1,0.1,0.2,0.2,0.3,0.3c0.1,0.1,0.2,0.2,0.3,0.3c0.1,0.1,0.2,0.2,0.3,0.4
								c0.1,0.1,0.2,0.2,0.3,0.3c0.1,0.1,0.2,0.3,0.3,0.4c0.1,0.1,0.2,0.2,0.2,0.3c0.1,0.1,0.2,0.3,0.3,0.4c0.1,0.1,0.1,0.2,0.2,0.4
								c0.1,0.1,0.2,0.3,0.2,0.4c0.1,0.1,0.1,0.2,0.2,0.4c0.1,0.1,0.1,0.3,0.2,0.4c0.1,0.1,0.1,0.3,0.2,0.4c0,0.1,0.1,0.1,0.1,0.2
								h-5.7c-1-4.1-2.8-7.5-5.1-9.8c0,0,0.1,0,0.1,0C359.9,43.9,360,44,360.1,44z"/>
							<path fill="#D1ECFB" d="M363.8,61.4c0,2.1-0.2,4.1-0.6,6h-9v-12h9C363.6,57.3,363.8,59.3,363.8,61.4z"/>
							<path fill="#D1ECFB" d="M362.9,69.2c-1.5,5.9-4.8,10.2-8.6,10.8V69.2H362.9z"/>
							<path fill="#D1ECFB" d="M354.3,53.6V42.9c3.8,0.6,7,4.8,8.6,10.8H354.3z"/>
							<path fill="#D1ECFB" d="M372.1,62.3c0,0.1,0,0.3,0,0.4c0,0.1,0,0.2,0,0.4c0,0.2,0,0.4-0.1,0.6c0,0,0,0,0,0
								c-0.2,1.3-0.4,2.5-0.9,3.7h-6c0.3-1.9,0.5-3.9,0.5-6c0-2.1-0.2-4.1-0.5-6h6c0.4,1.2,0.7,2.5,0.9,3.7c0,0,0,0,0,0
								c0,0.2,0,0.4,0.1,0.6c0,0.1,0,0.2,0,0.4c0,0.1,0,0.3,0,0.4c0,0.3,0,0.6,0,0.8C372.1,61.7,372.1,62,372.1,62.3z"/>
						</g>
						<g>
							<path fill="#FFFFFF" d="M334.9,63.8c0,0,0-0.1,0-0.1c0-0.2,0-0.4-0.1-0.6c0-0.1,0-0.3,0-0.4c0-0.1,0-0.3,0-0.4
								c0-0.3,0-0.6,0-0.9c0-0.3,0-0.6,0-0.9c0-0.1,0-0.3,0-0.4c0-0.1,0-0.3,0-0.4c0-0.2,0-0.4,0.1-0.6c0,0,0-0.1,0-0.1
								c0.2-1.2,0.4-2.5,0.9-3.7h6c-0.3,1.9-0.5,3.9-0.5,6c0,2.1,0.2,4.1,0.5,6h-6C335.4,66.2,335.1,65,334.9,63.8z"/>
							<path fill="#FFFFFF" d="M343,61.4c0-2.1,0.2-4.1,0.6-6h9v12h-9C343.2,65.6,343,63.5,343,61.4z"/>
							<path fill="#FFFFFF" d="M352.5,42.9v10.8H344C345.5,47.7,348.7,43.4,352.5,42.9z"/>
							<path fill="#FFFFFF" d="M352.5,69.2V80c-3.8-0.6-7-4.8-8.6-10.8H352.5z"/>
							<path fill="#FFFFFF" d="M347.2,43.9c-2.3,2.3-4,5.7-5.1,9.8h-5.7C338.6,49.1,342.4,45.5,347.2,43.9z"/>
							<path fill="#FFFFFF" d="M336.5,69.2h5.7c1,4.1,2.8,7.5,5.1,9.8C342.4,77.3,338.6,73.8,336.5,69.2z"/>
						</g>
					</g>
				</g>
			</g>
		</g>
	</g>
	<g>
		<circle fill="#6D3382" cx="604.1" cy="206" r="55.4"/>
		<g>
			<path opacity="0.2" d="M631.8,184.7L631.8,184.7c-0.3-0.3-0.7-0.5-1.1-0.5h-56.4c-0.8,0-1.5,0.7-1.5,1.5v35.9v4.2
				c0,0.4,0.2,0.8,0.5,1.1l0,0l34.3,34.3c26.9-1.7,48.6-22.6,51.5-49.2L631.8,184.7z"/>
			<g>
				<g>
					<g>
						<path fill="#A6DAE9" d="M595.6,224.5c-0.6,2.6-1.3,5.1-1.9,7.7c5.8,0,11.7,0,17.5,0c-0.6-2.6-1.3-5.1-1.9-7.7
							C604.8,224.5,600.2,224.5,595.6,224.5z"/>
						<path fill="#FFFFFF" d="M612.3,232.1h-19.7c-0.5,0-0.9,0.5-0.9,1.1v0.4h21.5v-0.4C613.3,232.6,612.8,232.1,612.3,232.1z"/>
						<path fill="#FFFFFF" d="M572.8,221.5v4.2c0,0.8,0.7,1.5,1.5,1.5h56.4c0.8,0,1.5-0.7,1.5-1.5v-4.2H572.8z"/>
						<path fill="#0E303F" d="M632.1,221.5v-35.9c0-0.8-0.7-1.5-1.5-1.5h-56.4c-0.8,0-1.5,0.7-1.5,1.5v35.9H632.1z"/>
						<rect x="575.3" y="186.5" fill="#C2D64C" width="54.4" height="32.6"/>
						<polygon fill="#A1B400" points="575.3,219.1 629.7,186.5 629.7,219.1 						"/>
					</g>
				</g>
				<g>
					<g>
						<g>
							<rect x="580.2" y="213.4" fill="#FFFFFF" width="6.1" height="3.2"/>
							<rect x="583.2" y="213.4" fill="#D1ECFB" width="3.1" height="3.2"/>
						</g>
						<g>
							<rect x="589.8" y="208.7" fill="#FFFFFF" width="6.1" height="7.9"/>
							<rect x="592.9" y="208.7" fill="#D1ECFB" width="3.1" height="7.9"/>
						</g>
						<g>
							<rect x="599.5" y="195.1" fill="#FFFFFF" width="6.1" height="21.5"/>
							<rect x="602.6" y="195.1" fill="#D1ECFB" width="3.1" height="21.5"/>
						</g>
						<g>
							<rect x="609.2" y="199.7" fill="#FFFFFF" width="6.1" height="16.9"/>
							<rect x="612.2" y="199.7" fill="#D1ECFB" width="3.1" height="16.9"/>
						</g>
						<g>
							<rect x="618.8" y="189.4" fill="#FFFFFF" width="6.1" height="27.2"/>
							<rect x="621.9" y="189.4" fill="#D1ECFB" width="3.1" height="27.2"/>
						</g>
					</g>
				</g>
			</g>
		</g>
	</g>
	<g>
		<circle fill="#CB7430" cx="102.7" cy="495.4" r="55.4"/>
		<path opacity="0.2" d="M106.9,550.7c25.6-1.9,46.4-21.3,50.5-46.3l-37.1-37.1l-0.1,0.1v-0.2H90.1l-10.8,10.8v10.8v4.3v30.1h0.3
			l-0.1,0.1L106.9,550.7z"/>
		<g>
			<g>
				<g>
					<polygon fill="#FFFFFF" points="79.3,523.2 79.3,493.1 79.3,478.1 90.1,467.3 120.2,467.3 120.2,478.4 120.2,493.1 
						120.2,523.2 					"/>
					<g>
						<polygon fill="#2C5871" points="90.1,478.1 79.3,478.1 90.1,467.3 						"/>
						<polygon fill="#D1ECFB" points="79.3,478.1 90.1,478.1 79.3,488.8 						"/>
					</g>
				</g>
				<g>
					<defs>
						<polygon id="SVGID_1_" points="79.3,523.2 79.3,493.1 79.3,478.1 90.1,467.3 120.2,467.3 120.2,478.4 120.2,493.1 
							120.2,523.2 						"/>
					</defs>
					<clipPath id="SVGID_2_">
						<use xlink:href="#SVGID_1_"  overflow="visible"/>
					</clipPath>
					<g clip-path="url(#SVGID_2_)">
						<path fill="#A6DAE9" d="M128.1,487.4l-6.6-6.6l-2.8-2.8l-26.8,26.8c0,0,0,0,0,0l0,12.3l12.3,0c0,0,0,0,0,0l26.8-26.8
							L128.1,487.4z"/>
					</g>
				</g>
				<g>
					<path fill="#1695A4" d="M117.2,475.7l-26.8,26.8c1.6,1.3,3.7,1.5,5.1,0.5l24.5-24.5L117.2,475.7z"/>
					<path fill="#15B0BF" d="M126.7,485.1l-6.6-6.6L95.5,503h0c0,0,0,0,0,0c0,0,0,0,0,0c-1.1,1.5-0.7,3.9,1,5.6
						c1.7,1.7,4.1,2.1,5.6,1c0,0,0,0,0,0c0,0,0,0,0,0v0L126.7,485.1z"/>
					<path fill="#1695A4" d="M102.1,509.6c-1,1.3-0.8,3.4,0.5,5.1l26.8-26.8l-2.8-2.8L102.1,509.6z"/>
					<path fill="#D1ECFB" d="M102.7,514.7c-1.3-1.6-1.5-3.7-0.5-5.1v0c0,0,0,0,0,0c0,0,0,0,0,0c-1.5,1.1-3.9,0.7-5.6-1
						c-1.7-1.7-2.1-4.1-1-5.6c0,0,0,0,0,0c0,0,0,0,0,0h0c-1.3,1-3.4,0.8-5.1-0.5l0,12.3L102.7,514.7z"/>
					<path fill="#1695A4" d="M90.4,508.7l0,6l6,0c-0.8-1.1-1.7-2.3-2.7-3.3C92.7,510.4,91.6,509.5,90.4,508.7z"/>
					<g>
						
							<rect x="118.1" y="473.5" transform="matrix(-0.7068 -0.7074 0.7074 -0.7068 -131.4029 896.7356)" fill="#0E303F" width="3.9" height="4.1"/>
						
							<rect x="120.1" y="478.3" transform="matrix(-0.7072 -0.707 0.707 -0.7072 -126.4646 908.2539)" fill="#2C5871" width="9.4" height="4.1"/>
						
							<rect x="127.6" y="483" transform="matrix(-0.707 -0.7072 0.7072 -0.707 -121.881 919.5643)" fill="#0E303F" width="3.9" height="4.1"/>
					</g>
				</g>
			</g>
		</g>
	</g>
	<g>
		<circle fill="#BF4531" cx="642.9" cy="350.7" r="55.4"/>
		<path opacity="0.2" d="M668,315.9L668,315.9l-5.1,5l1.2,4.6l-0.8,0.8c-5.8-5.6-13.7-9-22.3-9c-17.8,0-32.2,14.4-32.2,32.2
			c0,10.5,5,19.8,12.8,25.7l0,0l29.8,29.8c26.6-4,46.9-26.9,46.9-54.6c0-1.6-0.1-3.3-0.2-4.9l-29.9-29.9L668,315.9z"/>
		<g>
			<path fill="#174F78" d="M673.3,349.5c0,17.8-14.4,32.2-32.2,32.2c-17.8,0-32.2-14.4-32.2-32.2c0-17.8,14.4-32.2,32.2-32.2
				C658.8,317.2,673.3,331.7,673.3,349.5z"/>
			<path fill="#FFFFFF" d="M664.9,349.5c0,13.2-10.7,23.8-23.8,23.8c-13.2,0-23.8-10.7-23.8-23.8c0-13.2,10.7-23.8,23.8-23.8
				C654.2,325.7,664.9,336.3,664.9,349.5z"/>
			<circle fill="#174F78" cx="641" cy="349.5" r="15.4"/>
			<circle fill="#FFFFFF" cx="641" cy="349.5" r="7"/>
			<path fill="#103754" d="M641,317.2v8.4c13.2,0,23.8,10.7,23.8,23.8c0,13.2-10.7,23.8-23.8,23.8v8.4c17.8,0,32.2-14.4,32.2-32.2
				C673.3,331.7,658.8,317.2,641,317.2z"/>
			<path fill="#FFFFFF" d="M641,342.5c3.9,0,7,3.2,7,7c0,3.9-3.2,7-7,7"/>
			<path fill="#103754" d="M641,334.1v8.4c3.9,0,7,3.2,7,7c0,3.9-3.2,7-7,7v8.4c8.5,0,15.4-6.9,15.4-15.4
				C656.5,341,649.5,334.1,641,334.1z"/>
			<g>
				<path fill="#D1ECFB" d="M648,349.5c0-3.9-3.2-7-7-7v14.1C644.9,356.5,648,353.4,648,349.5z"/>
				<path fill="#D1ECFB" d="M641,325.7v8.4c8.5,0,15.4,6.9,15.4,15.4c0,8.5-6.9,15.4-15.4,15.4v8.4c13.2,0,23.8-10.7,23.8-23.8
					C664.9,336.3,654.2,325.7,641,325.7z"/>
			</g>
			<polygon fill="#1695A4" points="670.1,328.1 675.2,323 669.5,321.5 667.9,315.8 662.9,320.8 664.1,325.5 646.9,342.7 
				644.5,337.8 642.9,343.7 641.3,349.6 647.2,348.1 653.2,346.5 648.3,344 665.5,326.8 			"/>
			<polygon fill="#15B0BF" points="669.5,321.5 667.9,315.8 662.9,320.8 664.1,325.5 646.9,342.7 644.5,337.8 642.9,343.7 
				641.3,349.6 			"/>
		</g>
	</g>
	<g>
		<circle fill="#C2D64C" cx="498.1" cy="601.4" r="55.4"/>
		<g>
			<path opacity="0.2" d="M553.4,605.4l-35.2-35.2v-0.1h-33.6l-12,12v12v4.8v33.5h0.2l24.4,24.4c0.3,0,0.7,0,1,0
				C527.4,656.8,551.3,634.1,553.4,605.4z"/>
			<g>
				<g>
					<polygon fill="#FFFFFF" points="472.6,632.4 472.6,598.9 472.6,582.1 484.6,570.1 518.2,570.1 518.2,582.5 518.2,598.9 
						518.2,632.4 					"/>
					<g>
						<polygon fill="#C2D64C" points="484.6,582.1 472.6,582.1 484.6,570.1 						"/>
						<polygon fill="#D1ECFB" points="472.6,582.1 484.6,582.1 472.6,594.1 						"/>
					</g>
				</g>
				<g>
					<path fill="#2C5871" d="M483.7,619v-7.9c-3.8,0.3-6.9,3.4-6.9,7.4c0,4.1,3.3,7.4,7.4,7.4c3.9,0,7.1-3,7.4-6.9H483.7z"/>
					<path fill="#C2D64C" d="M491.2,617.1c0-3-2.5-5.5-5.5-5.5v5.5H491.2z"/>
				</g>
				<g>
					<path fill="#A6DAE9" d="M487.3,596.2c-0.2,0.5-0.4,0.9-0.7,1.2l2.4,3.3c1.2-1,2.1-2.5,2.4-4.1L487.3,596.2z"/>
					<path fill="#C2D64C" d="M484.8,591.9c1.4,0.3,2.5,1.5,2.6,2.9l4.1,0.5c0,0,0-0.1,0-0.1c0-3.8-2.9-7-6.7-7.3V591.9z"/>
					<path fill="#15B0BF" d="M481.7,592.9c0.5-0.5,1.1-0.9,1.8-1v-4.1c-2.2,0.2-4.1,1.3-5.3,3L481.7,592.9z"/>
					<path fill="#2C5871" d="M485.5,598.2c-0.4,0.2-0.9,0.3-1.3,0.3c-1.8,0-3.3-1.5-3.3-3.3c0-0.4,0.1-0.7,0.2-1.1l-3.6-2.1
						c-0.5,1-0.7,2-0.7,3.1c0,4.1,3.3,7.4,7.4,7.4c1.4,0,2.6-0.4,3.7-1L485.5,598.2z"/>
				</g>
				<g>
					<rect x="495" y="587.8" fill="#15B0BF" width="17.8" height="1.8"/>
					<rect x="495" y="593.5" fill="#A6DAE9" width="17.8" height="1.8"/>
					<rect x="495" y="599.3" fill="#A6DAE9" width="17.8" height="1.8"/>
				</g>
				<g>
					<rect x="495" y="611.1" fill="#15B0BF" width="12.4" height="1.8"/>
					<rect x="495" y="616.8" fill="#A6DAE9" width="17.8" height="1.8"/>
					<rect x="495" y="622.6" fill="#A6DAE9" width="17.8" height="1.8"/>
				</g>
			</g>
		</g>
	</g>
	<g>
		<circle fill="#8EB92A" cx="208.7" cy="100" r="55.4"/>
		<g>
			<path opacity="0.2" d="M232.3,67.9L232.3,67.9L232.3,67.9c-0.4-0.4-1-0.7-1.6-0.7h-21.1c-0.6-0.6-1.4-0.9-2.3-0.9
				c-0.9,0-1.7,0.4-2.3,0.9H184c-1.3,0-2.3,1-2.3,2.3v1.7v58.5v1.7c0,0.7,0.4,1.4,0.9,1.8l21.8,21.8c1.4,0.1,2.8,0.2,4.2,0.2
				c30.6,0,55.4-24.8,55.4-55.4c0-0.1,0-0.2,0-0.3L232.3,67.9C232.3,68,232.3,67.9,232.3,67.9z"/>
			<g>
				<path fill="#0E303F" d="M233,131.6c0,1.3-1,2.3-2.3,2.3H184c-1.3,0-2.3-1-2.3-2.3V71.3c0-1.3,1-2.3,2.3-2.3h46.7
					c1.3,0,2.3,1,2.3,2.3V131.6z"/>
				<path fill="#2C5871" d="M233,129.8c0,1.3-1,2.3-2.3,2.3H184c-1.3,0-2.3-1-2.3-2.3V69.6c0-1.3,1-2.3,2.3-2.3h46.7
					c1.3,0,2.3,1,2.3,2.3V129.8z"/>
				<rect x="185.8" y="71.4" fill="#FFFFFF" width="43" height="56.5"/>
				<rect x="185.8" y="126.1" fill="#D1ECFB" width="43" height="1.8"/>
				<path fill="#8FC4D7" d="M217.3,74.4v-2.3c0-0.8-0.6-1.4-1.4-1.4h-17.2c-0.8,0-1.4,0.6-1.4,1.4v2.3H217.3z"/>
				<path fill="#A6DAE9" d="M217.3,73.4v-2.3c0-0.8-0.6-1.4-1.4-1.4h-17.2c-0.8,0-1.4,0.6-1.4,1.4v2.3H217.3z"/>
				<circle fill="#A6DAE9" cx="207.3" cy="69.6" r="3.2"/>
				<path fill="#2C5871" d="M208.7,69.6c0,0.8-0.6,1.4-1.4,1.4c-0.8,0-1.4-0.6-1.4-1.4s0.6-1.4,1.4-1.4
					C208.1,68.2,208.7,68.8,208.7,69.6z"/>
				<g>
					<rect x="196.2" y="86.5" fill="#A6DAE9" width="26.8" height="1.4"/>
					<rect x="196.2" y="92.3" fill="#A6DAE9" width="26.8" height="1.4"/>
					<rect x="196.2" y="98.1" fill="#A6DAE9" width="26.8" height="1.4"/>
					<rect x="196.2" y="103.9" fill="#A6DAE9" width="26.8" height="1.4"/>
				</g>
				<g>
					<path fill="#A1B400" d="M191.3,88.9c-0.2,0-0.3-0.1-0.5-0.2l-1.1-1.1c-0.2-0.3-0.2-0.7,0-0.9c0.3-0.2,0.7-0.2,0.9,0l0.6,0.6
						l1.9-2.3c0.2-0.3,0.6-0.3,0.9-0.1c0.3,0.2,0.3,0.6,0.1,0.9l-2.3,2.8C191.6,88.8,191.5,88.9,191.3,88.9
						C191.3,88.9,191.3,88.9,191.3,88.9L191.3,88.9z"/>
				</g>
				<g>
					<path fill="#A1B400" d="M191.3,94.5c-0.2,0-0.3-0.1-0.5-0.2l-1.1-1.1c-0.2-0.3-0.2-0.7,0-0.9c0.3-0.2,0.7-0.2,0.9,0l0.6,0.6
						l1.9-2.3c0.2-0.3,0.6-0.3,0.9-0.1s0.3,0.6,0.1,0.9l-2.3,2.8C191.6,94.4,191.5,94.5,191.3,94.5
						C191.3,94.5,191.3,94.5,191.3,94.5L191.3,94.5z"/>
				</g>
				<g>
					<path fill="#A1B400" d="M191.3,100c-0.2,0-0.3-0.1-0.5-0.2l-1.1-1.1c-0.2-0.3-0.2-0.7,0-0.9c0.3-0.2,0.7-0.2,0.9,0l0.6,0.6
						l1.9-2.3c0.2-0.3,0.6-0.3,0.9-0.1c0.3,0.2,0.3,0.6,0.1,0.9l-2.3,2.8C191.6,99.9,191.5,100,191.3,100
						C191.3,100,191.3,100,191.3,100L191.3,100z"/>
				</g>
				<g>
					<path fill="#15B0BF" d="M208.5,120.4C208.5,120.4,208.5,120.4,208.5,120.4c-0.4-0.1-0.6-0.5-0.7-0.9c-0.3-1.1-0.1-2.3,0.5-3.3
						c-0.1-0.3-0.2-0.7-0.4-1c-0.1-0.2,0-0.4,0.1-0.5c0.2-0.1,0.4,0,0.5,0.1c0.1,0.2,0.2,0.4,0.3,0.7c0.7-0.7,1.5-1,2.4-1
						c1.2,0,2.3,1.1,2.9,2.1c0,0,0,0.1,0.1,0.1c1.1-0.7,2.6-1.3,3.4-1.2c1.1,0.1,1.2,1.1,1.2,1.8c0.3-0.4,0.4-0.7,0.5-0.9
						c0.3-0.8,0.5-0.7,2.3-0.4l0.4,0.1c0.2,0,0.3,0.2,0.3,0.4c0,0.2-0.2,0.3-0.4,0.3l-0.4-0.1c-0.8-0.1-1.3-0.3-1.5-0.2
						c0,0,0,0.1,0,0.1c-0.1,0.3-0.2,0.7-0.6,1.2c-0.3,0.4-0.6,0.7-0.9,0.5c-0.3-0.1-0.3-0.5-0.3-0.9c0-0.8-0.1-1.3-0.5-1.3
						c-0.7-0.1-2,0.5-3,1.1c0.3,0.7,0.4,1.3,0.1,1.7c-0.1,0.2-0.4,0.4-1.1,0.2c-0.9-0.2-0.8-0.9-0.8-1c0.1-0.4,0.4-0.8,0.8-1.1
						c0-0.1-0.1-0.1-0.1-0.2c-0.5-0.8-1.4-1.7-2.3-1.7c-0.9,0-1.6,0.4-2.2,1.1c0.4,1.6,0.3,3.3-0.1,3.8
						C208.8,120.4,208.7,120.4,208.5,120.4L208.5,120.4z M208.5,117.4c-0.2,0.6-0.2,1.3,0,2c0,0,0,0,0,0.1
						C208.6,119,208.7,118.2,208.5,117.4L208.5,117.4z M214,117.8c-0.3,0.2-0.4,0.5-0.5,0.6c0,0,0,0.1,0.3,0.2c0.2,0.1,0.3,0,0.3,0
						C214.2,118.6,214.2,118.3,214,117.8L214,117.8z"/>
				</g>
			</g>
		</g>
	</g>
	<g>
		<circle fill="#5065AA" cx="208.7" cy="601.4" r="55.4"/>
		<g>
			<path opacity="0.2" d="M229.3,582.6L229.3,582.6l-7.8-7.8H186v6.3h-5.4V623v3.2c0,0.9,0.5,1.6,1.2,2.1l28.5,28.5
				c25-0.7,45.9-17.9,52-41.2L229.3,582.6z"/>
			<g>
				<path fill="#FFFFFF" d="M186,623.2v-7v-23.5v-17.8h35.5l17.3,17.3v24.1v7c0,3-2.4,5.4-5.4,5.4h-20.4h-29.1H183
					C186.1,627.9,185.9,626,186,623.2z"/>
				<polygon fill="#15B0BF" points="221.4,592.1 238.7,592.1 221.4,574.9 				"/>
				<polygon fill="#D1ECFB" points="238.7,592.1 221.4,592.1 238.7,609.4 				"/>
				<path fill="#15B0BF" d="M186,625.6v-4v-13.4v-27.1h-5.4V623v3.2c0,1.3,1.1,2.4,2.4,2.4C184.6,628.6,186,627.2,186,625.6z"/>
				<rect x="191.1" y="605.5" fill="#A6DAE9" width="18.2" height="1.6"/>
				<rect x="191.1" y="594.9" fill="#A6DAE9" width="18.2" height="7.6"/>
				<rect x="191.1" y="578.4" fill="#A6DAE9" width="27.4" height="0.7"/>
				<rect x="191.1" y="591.5" fill="#A6DAE9" width="27.4" height="0.7"/>
				<rect x="191.1" y="610.3" fill="#A6DAE9" width="18.2" height="1.6"/>
				<rect x="191.1" y="615.1" fill="#A6DAE9" width="18.2" height="1.6"/>
				<rect x="191.1" y="619.9" fill="#A6DAE9" width="18.2" height="1.6"/>
				<rect x="213.3" y="605.5" fill="#A6DAE9" width="18.2" height="1.6"/>
				<rect x="213.3" y="610.3" fill="#A6DAE9" width="18.2" height="1.6"/>
				<rect x="213.3" y="615.1" fill="#A6DAE9" width="18.2" height="1.6"/>
				<rect x="213.3" y="619.9" fill="#A6DAE9" width="18.2" height="1.6"/>
				<g>
					<path fill="#15B0BF" d="M197.1,589.8h-1.6l-2.6-5.4l0,0v5.4h-1.7v-8.5h1.7l2.6,5.4l0,0v-5.4h1.6V589.8z"/>
					<path fill="#15B0BF" d="M202.9,586.1h-2.9v2.4h3.4v1.3h-5v-8.5h5v1.3h-3.3v2.1h2.9V586.1z"/>
					<path fill="#15B0BF" d="M210,586.8L210,586.8l0.9-5.4h1.6l-1.6,8.5h-1.5l-1.2-5.2h0l-1.2,5.2h-1.5l-1.6-8.5h1.6l0.9,5.4h0
						l1.2-5.4h1.2L210,586.8z"/>
					<path fill="#15B0BF" d="M217.1,587.6c0-0.3-0.1-0.6-0.3-0.8c-0.2-0.2-0.5-0.4-0.9-0.6c-0.9-0.3-1.5-0.7-2-1
						c-0.4-0.4-0.7-0.9-0.7-1.6c0-0.7,0.3-1.3,0.8-1.7c0.5-0.4,1.2-0.7,2-0.7c0.8,0,1.5,0.2,2,0.7c0.5,0.5,0.8,1.1,0.7,1.8l0,0h-1.6
						c0-0.4-0.1-0.7-0.3-0.9c-0.2-0.2-0.5-0.4-0.8-0.4c-0.3,0-0.6,0.1-0.8,0.3c-0.2,0.2-0.3,0.5-0.3,0.8c0,0.3,0.1,0.5,0.3,0.7
						c0.2,0.2,0.6,0.4,1.1,0.6c0.8,0.3,1.4,0.6,1.8,1c0.4,0.4,0.6,1,0.6,1.7c0,0.7-0.2,1.3-0.7,1.7c-0.5,0.4-1.1,0.6-2,0.6
						c-0.8,0-1.5-0.2-2.1-0.7c-0.6-0.5-0.9-1.2-0.9-2l0,0h1.6c0,0.5,0.1,0.9,0.3,1.1c0.2,0.2,0.6,0.3,1,0.3c0.3,0,0.6-0.1,0.8-0.3
						C217,588.2,217.1,587.9,217.1,587.6z"/>
				</g>
			</g>
		</g>
	</g>
	<g>
		<circle fill="#FFE0D1" cx="604.1" cy="495.4" r="55.4"/>
		<g>
			<path opacity="0.2" d="M658.3,506.8l-33.5-33.5l0,0c-5.3-5.4-12.7-8.8-20.9-8.8c-16.1,0-29.2,13.1-29.2,29.2
				c0,7.2,2.6,13.8,7,18.9l-6.8,12.8l-0.2,0.2l24.9,24.9c1.5,0.1,3,0.2,4.5,0.2C630.7,550.8,653,532,658.3,506.8z"/>
			<g>
				<g>
					<path fill="#FEC00F" d="M603.9,464.6c-16.1,0-29.2,13.1-29.2,29.2c0,7.2,2.6,13.8,7,18.9l-6.8,12.9l12.4-7.9
						c4.7,3.3,10.5,5.3,16.7,5.3c16.1,0,29.2-13.1,29.2-29.2C633.1,477.7,620,464.6,603.9,464.6z"/>
					<path opacity="0.2" d="M603.9,464.6c-0.1,0-0.2,0-0.3,0v58.5c0.1,0,0.2,0,0.3,0c16.1,0,29.2-13.1,29.2-29.2
						C633.1,477.7,620,464.6,603.9,464.6z"/>
					<g>
						<path fill="#FFFFFF" d="M601.3,514v-4.7c-3.3-0.1-6.5-1.1-8.4-2.1l1.5-5.8c2.1,1.1,5,2.2,8.2,2.2c2.9,0,4.8-1.1,4.8-3.1
							c0-1.9-1.6-3.1-5.3-4.3c-5.3-1.8-8.9-4.3-8.9-9c0-4.4,3.1-7.8,8.4-8.8v-4.7h4.8v4.4c3.3,0.1,5.5,0.8,7.2,1.6l-1.5,5.6
							c-1.2-0.6-3.6-1.7-7.1-1.7c-3.2,0-4.3,1.4-4.3,2.8c0,1.6,1.7,2.7,6,4.2c5.9,2.1,8.2,4.8,8.2,9.3c0,4.4-3.1,8.2-8.8,9.1v5.1
							H601.3z"/>
					</g>
					<g>
						<path fill="#D1ECFB" d="M606.7,490.5c-1.3-0.5-2.3-0.9-3.1-1.3v7.5c2.6,1.1,3.8,2.2,3.8,3.7c0,1.7-1.5,2.8-3.8,3V514h2.6v-5.1
							c5.7-0.9,8.8-4.7,8.8-9.1C614.9,495.3,612.6,492.6,606.7,490.5z"/>
						<path fill="#D1ECFB" d="M603.6,473.7v10c0.4-0.1,0.9-0.1,1.4-0.1c3.6,0,5.9,1.1,7.1,1.7l1.5-5.6c-1.7-0.8-4-1.5-7.2-1.6v-4.4
							H603.6z"/>
					</g>
				</g>
			</g>
		</g>
	</g>
	<g>
		<path fill="#198D31" d="M408.8,640.2c0,30.6-24.8,55.4-55.4,55.4c-30.6,0-55.4-24.8-55.4-55.4c0-30.6,24.8-55.4,55.4-55.4
			C384,584.8,408.8,609.6,408.8,640.2z"/>
		<g>
			<g>
				<path opacity="0.2" d="M408.8,642.2l-22.7-22.7c-0.3-0.5-0.8-0.8-1.4-0.8h-61.9c-0.9,0-1.6,0.8-1.6,1.8v40.8
					c0,0.3,0.1,0.5,0.2,0.8h-6.2c0,0.1,0,0.2,0,0.3v0.8c0,0.3,0.1,0.7,0.3,0.9l0,0c0.1,0.1,0.2,0.2,0.3,0.4c0,0,0.1,0.1,0.1,0.1
					c0.1,0.1,0.2,0.2,0.3,0.2c0,0,0.1,0.1,0.1,0.1c0.1,0,0.1,0.1,0.2,0.1l30.2,30.2c2.2,0.3,4.5,0.4,6.8,0.4
					C383.3,695.6,407.7,671.8,408.8,642.2z"/>
				<g>
					<path fill="#0E303F" d="M384.7,618.7h-61.9c-0.9,0-1.6,0.8-1.6,1.8v40.8c0,1,0.7,1.8,1.6,1.8h61.9c0.9,0,1.6-0.8,1.6-1.8v-40.8
						C386.3,619.4,385.6,618.7,384.7,618.7z"/>
					<rect x="324.4" y="622.1" fill="#2C5871" width="58.6" height="37.4"/>
					<path fill="#FFFFFF" d="M392.3,662h-77.2c0,0.1,0,0.2,0,0.3v0.8c0,1.3,1.6,2.4,3.5,2.4h70.2c1.9,0,3.5-1.1,3.5-2.4v-0.8
						C392.3,662.2,392.3,662.1,392.3,662z"/>
					<path fill="#8FC4D7" d="M315.4,664c0.5,0.9,1.8,1.5,3.2,1.5h70.2c1.5,0,2.7-0.6,3.2-1.5H315.4z"/>
					<path fill="#D1ECFB" d="M348.1,662v0.3c0,0.3,0.3,0.5,0.7,0.5h9.9c0.4,0,0.7-0.2,0.7-0.5V662H348.1z"/>
				</g>
			</g>
			<g>
				<path fill="#D1ECFB" d="M347.8,646.5c-2.1,1.3-5.1-1.6-3.8-3.8c2.4-3.6,3.9-6,6.2-9.7c2.7,2.2,5.1,4.6,7.3,7.3
					C353.7,642.6,351.4,644.1,347.8,646.5z"/>
				<path fill="#A1B400" d="M376.5,618.6c4.3-4.9,0.3-8.9-4.6-4.6c-8.2,7.3-13.4,11.8-21.6,19c2.4,2.4,4.8,4.8,7.1,7.1
					C364.7,632,369.2,626.8,376.5,618.6z"/>
				
					<rect x="348" y="636.4" transform="matrix(0.7071 0.7071 -0.7071 0.7071 554.0613 -63.2131)" fill="#1695A4" width="10.7" height="1.6"/>
				<path fill="#A1B400" d="M338.6,645.9c-0.3,1.8-0.2,6.3-3.2,6.8c0,0,6.1,1.4,9.9-0.6c0.9-0.5,1.6-0.9,2.3-1.7
					c1.9-2.2,1.6-5.5-0.6-7.4c-2.2-1.9-5.5-1.6-7.4,0.6C339.1,644.2,338.7,645,338.6,645.9z"/>
				<path fill="#FFFFFF" d="M347.1,643l5.4-5.4l-3.2-3.2c-1.6,2.7-2.9,4.7-4.7,7.4C345.6,641.9,346.4,642.3,347.1,643
					C347.1,642.9,347.1,642.9,347.1,643z"/>
				<path fill="#C2D64C" d="M353.7,636.4l23.8-23.8c-1.2-0.9-3.3-0.7-5.5,1.4c-8.2,7.3-13.4,11.8-21.6,19L353.7,636.4z"/>
				<polygon fill="#15B0BF" points="353.7,636.4 350.3,633.1 350.1,632.8 349,634 349.4,634.4 352.6,637.5 				"/>
				<path fill="#C2D64C" d="M341.2,647.8c1.6-5.3,5.9-4.8,5.9-4.8c0,0,0,0-0.1-0.1c-0.7-0.6-1.5-1-2.4-1.2c-1.8-0.4-3.7,0.2-5,1.7
					c-0.6,0.7-1,1.5-1.2,2.4c-0.3,1.8-0.2,6.3-3.2,6.8C335.4,652.6,339.7,653.1,341.2,647.8z"/>
			</g>
		</g>
	</g>
	<g>
		<circle fill="#F7F200" cx="102.7" cy="206" r="55.4"/>
		<path opacity="0.2" d="M129.6,254.4c9.5-5.3,17.3-13.3,22.3-23.1l-53.5-53.6l-17.7,4.7l0,0l-0.2,0.1l-4.8,17.9l12.5,12.5l-0.1,0.1
			L129.6,254.4z"/>
		<path fill="#0E303F" d="M75.8,200.4l4.8-17.9l17.9-4.8l38.8,38.8l-22.7,22.7L75.8,200.4z M92,188.6c-1.5-1.5-3.9-1.5-5.3,0
			c-1.5,1.5-1.5,3.9,0,5.3c1.5,1.5,3.9,1.5,5.3,0C93.5,192.5,93.5,190.1,92,188.6z"/>
		<path fill="none" d="M115.8,225.1c0.6,0.6,1.1,1,1.4,1.1l2.4-2.4l-1.7-1.7l1.3-1.3l-3.1-3.1c0,0-0.1,0.1-0.1,0.1
			C113.6,220.1,113.7,223,115.8,225.1z"/>
		<polygon fill="none" points="107.8,211.4 108.5,210.2 106.5,208.2 105.3,208.9 		"/>
		<path fill="#2C5871" d="M109.5,208.3c0.5-0.9,1.1-1.9,1.6-2.8l0,0c-0.8,0.5-1.9,1.2-2.7,1.7l-1.9,1.1l2,2L109.5,208.3z"/>
		<path fill="#2C5871" d="M137.2,216.5l-38.8-38.8l-17.7,4.7l6,6c1.5-1.3,3.8-1.3,5.2,0.1c1.4,1.4,1.5,3.7,0.1,5.2l5.3,5.3l3.4-3.4
			l-3-3l2.1-2.1l8.7,8.7l-2.1,2.1l-3.1-3.1l-3.4,3.4l4.2,4.2l7.3-3.9l3.4,3.4l-3.8,7.3l2.4,2.4c3.7-3.5,8.5-2.9,12.1,0.8
			c1.5,1.5,2.3,2.9,2.6,3.7l-2.6,1.5c-0.4-0.9-0.9-1.9-2.1-3.1c-2.1-2.1-4.9-2.5-7.3-0.2l3.1,3.1l0.7-0.7l4.2,4.2l-0.7,0.7l2.7,2.7
			L137.2,216.5z"/>
		
			<rect x="94" y="199.2" transform="matrix(-0.707 -0.7072 0.7072 -0.707 19.8293 414.801)" fill="#A6DAE9" width="3.6" height="8.1"/>
		<polygon fill="#FFFFFF" points="106.5,201.4 108.7,199.2 100,190.5 97.8,192.7 100.9,195.7 97.4,199.1 100,201.7 103.4,198.3 		
			"/>
		<polygon fill="#A6DAE9" points="107.8,211.4 105.3,208.9 106.5,208.2 104.2,205.9 96.7,209.9 99.3,212.5 103,210.4 106.3,213.7 
			104.3,217.4 107,220.2 111,212.7 108.5,210.2 		"/>
		<path fill="#FFFFFF" d="M111.5,202l-7.3,3.9l2.3,2.3l1.9-1.1c0.8-0.5,1.9-1.2,2.7-1.7l0,0c-0.5,0.8-1.1,1.9-1.6,2.8l-1,1.9
			l2.5,2.5l3.8-7.3L111.5,202z"/>
		<path fill="#A6DAE9" d="M117.8,222l1.7,1.7l-2.4,2.4c-0.3-0.1-0.8-0.5-1.4-1.1c-2.1-2.1-2.2-4.9,0.2-7.3c0,0,0.1-0.1,0.1-0.1
			l-2.7-2.7c-0.1,0.1-0.2,0.1-0.2,0.2c-1.7,1.6-2.6,3.7-2.5,5.7c0,2,1,4.1,3.1,6.1c1.5,1.5,3.4,2.6,4.4,3.1l5.2-5.2l-4.2-4.2
			L117.8,222z"/>
		<path fill="#FFFFFF" d="M123.3,217.9c1.2,1.2,1.8,2.2,2.1,3.1l2.6-1.5c-0.3-0.8-1.1-2.2-2.6-3.7c-3.6-3.6-8.4-4.3-12.1-0.8
			l2.7,2.7C118.4,215.4,121.2,215.8,123.3,217.9z"/>
		
			<rect x="121" y="219.5" transform="matrix(0.7069 -0.7073 0.7073 0.7069 -121.7641 151.199)" fill="#FFFFFF" width="1" height="6"/>
	</g>
</g>
</svg>
