<?xml version="1.0" encoding="utf-8"?>
<!-- Generator: Adobe Illustrator 17.1.0, SVG Export Plug-In . SVG Version: 6.00 Build 0)  -->
<!DOCTYPE svg PUBLIC "-//W3C//DTD SVG 1.1//EN" "http://www.w3.org/Graphics/SVG/1.1/DTD/svg11.dtd">
<svg version="1.1" id="Layer_1" xmlns="http://www.w3.org/2000/svg" xmlns:xlink="http://www.w3.org/1999/xlink" x="0px" y="0px"
	 viewBox="0 0 793.4 622" enable-background="new 0 0 793.4 622" xml:space="preserve">
<g>
	<circle fill="#BF306F" cx="84" cy="327.2" r="55.4"/>
	<g>
		<path opacity="0.2" d="M97,308.7c-0.8-0.7-1.8-1.1-2.9-1.1l0,0c-0.6,0-1.1,0.1-1.6,0.3L80.6,296c-0.9-0.9-2.3-1-3.1-0.2l-1.4,1.4
			c-0.8,0.8-0.7,2.2,0.2,3.1c0.2,5.8-1.3,11.6-4.6,16.5c-1.4,2.1-3.1,3.9-4.9,5.4l-0.1-0.1l-9.2,9.2c-3.5,3.5-3.5,9.2,0,12.7
			l3.8,3.8l-0.2,0.2l33.1,33.1c18.8-3.6,34.1-16.8,40.9-34.3L97,308.7L97,308.7z"/>
		<g>
			<g>
				<g>
					<g>
						<path fill="#0E303F" d="M91.5,349.1c1,0.7,1.3,2.1,0.6,3.1l-3.4,4.9c-0.7,1-2.1,1.3-3.1,0.6l-12.6-8.8c-1-0.7-1.3-2.1-0.6-3.1
							l3.4-4.9c0.7-1,2.1-1.3,3.1-0.6L91.5,349.1z"/>
						<g>
							<path fill="#2C5066" d="M94.1,307.6c-2.3,0-4.3,1.9-4.2,4.2c0,2.3,1.9,4.2,4.2,4.2h0h0c2.3,0,4.2-1.9,4.2-4.2
								C98.4,309.5,96.5,307.6,94.1,307.6L94.1,307.6L94.1,307.6z"/>
						</g>
						<path fill="#FFFFFF" d="M66.4,322.5L78.9,335l16.7-16.7L76.3,299c0.4,6.3-1,12.5-4.5,17.7C70.2,319,68.4,320.9,66.4,322.5z"/>
						<path fill="#2C5066" d="M66.7,322.1l-9.2,9.2c-3.5,3.5-3.5,9.2,0,12.7l4.4,4.4c3.5,3.5,9.2,3.5,12.7,0l9.2-9.2L66.7,322.1z"/>
						<path fill="#C2D64C" d="M108.7,329.8c-0.8,0.8-2.2,0.7-3.1-0.2l-29.3-29.3c-0.9-0.9-1-2.3-0.2-3.1l1.4-1.4
							c0.8-0.8,2.2-0.7,3.1,0.2l29.3,29.3c0.9,0.9,1,2.3,0.2,3.1L108.7,329.8z"/>
						<path fill="#A6DAE9" d="M106.9,329.6l-15.4-15.4l-16.7,16.7l8.6,8.6c1.6-2,3.5-3.8,5.8-5.4
							C94.4,330.7,100.6,329.2,106.9,329.6z"/>
						<path fill="#0E303F" d="M75.2,330.6l-15.5,15.5l2.3,2.3c3.5,3.5,9.2,3.5,12.7,0l9.2-9.2L75.2,330.6z"/>
						<path fill="#A1B400" d="M110,325.3l-14.8-14.8l-4.3,4.3l14.8,14.8c0.9,0.9,2.3,1,3.1,0.2l1.4-1.4
							C111,327.6,110.9,326.2,110,325.3z"/>
						<path fill="#2C5066" d="M78.2,347.6c-0.7-0.5-1.6-0.3-2,0.4l0,0c-0.5,0.7-0.3,1.6,0.4,2l9.4,6.5c0.7,0.5,1.6,0.3,2-0.4l0,0
							c0.5-0.7,0.3-1.6-0.4-2L78.2,347.6z"/>
					</g>
					<g>
						<g>
							<path fill="#FFFFFF" d="M99.7,306.9c-0.1,0-0.2,0-0.3-0.1c-0.2-0.2-0.2-0.5,0-0.7l12.4-12.4c0.2-0.2,0.5-0.2,0.7,0
								c0.2,0.2,0.2,0.5,0,0.7L100,306.8C99.9,306.9,99.8,306.9,99.7,306.9L99.7,306.9z"/>
						</g>
						<g>
							<g>
								<path fill="#FFFFFF" d="M96.8,304.5c-0.1,0-0.1,0-0.2,0c-0.2-0.1-0.4-0.4-0.3-0.6l5.6-16.6c0.1-0.2,0.4-0.4,0.6-0.3
									c0.2,0.1,0.4,0.4,0.3,0.6l-5.6,16.6C97.1,304.4,97,304.5,96.8,304.5L96.8,304.5z"/>
							</g>
							<g>
								<path fill="#FFFFFF" d="M102.1,309.8c-0.2,0-0.4-0.1-0.5-0.3c-0.1-0.2,0-0.5,0.3-0.6l16.6-5.6c0.3-0.1,0.5,0,0.6,0.3
									c0.1,0.2,0,0.5-0.3,0.6l-16.6,5.6C102.2,309.8,102.1,309.8,102.1,309.8L102.1,309.8z"/>
							</g>
						</g>
					</g>
				</g>
			</g>
		</g>
	</g>
</g>
<g>
	<circle fill="#5CA15F" cx="194.2" cy="479.3" r="55.4"/>
	<g>
		<path opacity="0.2" d="M249.1,486.4l-24.2-24.2l0,0l-3-3l-7.1-7.1l-3-3l-3.8,3.8l0,0l-40.6,40.6c0.7,0.5,0.7,0.5,0,0l-1.6,14.6
			l-0.1,0.1l26.3,26.3c0.7,0,1.4,0.1,2.1,0.1C222.3,534.7,245.6,513.6,249.1,486.4z"/>
		<g>
			<path fill="#0E303F" d="M208,453.1l-40.6,40.6c1.8,1.3,4.2,1.3,6,0l37.6-37.6L208,453.1z"/>
			<path fill="#2C5871" d="M218.1,463.1l-7.1-7.1l-37.6,37.6l0,0c0,0,0,0,0,0c0,0,0,0,0,0c-1.5,1.9-1.3,4.8,0.5,6.6
				c1.8,1.8,4.6,2,6.6,0.5c0,0,0,0,0,0c0,0,0,0,0,0v0L218.1,463.1z"/>
			<path fill="#0E303F" d="M180.4,500.8c-1.3,1.7-1.3,4.2,0,6l40.6-40.6l-3-3L180.4,500.8z"/>
			<path fill="#FFFFFF" d="M180.4,506.7c-1.3-1.8-1.3-4.2,0-6v0c0,0,0,0,0,0c0,0,0,0,0,0c-1.9,1.5-4.8,1.3-6.6-0.5
				c-1.8-1.8-2-4.6-0.5-6.6c0,0,0,0,0,0c0,0,0,0,0,0l0,0c-1.7,1.3-4.2,1.4-6,0l-1.6,14.6L180.4,506.7z"/>
			<path fill="#0E303F" d="M166.6,501.2l-0.8,7.2l7.2-0.8c-0.8-1.3-1.7-2.5-2.8-3.6C169.1,502.9,167.9,501.9,166.6,501.2z"/>
			<g>
				
					<rect x="209.4" y="449.9" transform="matrix(-0.7073 -0.7069 0.7069 -0.7073 41.1226 922.2639)" fill="#A1B400" width="4.2" height="5.4"/>
				
					<rect x="211.5" y="454.9" transform="matrix(-0.7072 -0.7071 0.7071 -0.7072 46.0317 934.3441)" fill="#C2D64C" width="10" height="5.4"/>
				
					<rect x="219.4" y="459.9" transform="matrix(-0.7069 -0.7073 0.7073 -0.7069 50.8625 946.3965)" fill="#A1B400" width="4.2" height="5.4"/>
			</g>
		</g>
	</g>
</g>
<g>
	<path fill="#791F7A" d="M535.6,217.1c0-30.6,24.8-55.4,55.4-55.4c30.6,0,55.4,24.8,55.4,55.4s-24.8,55.4-55.4,55.4
		C560.4,272.5,535.6,247.7,535.6,217.1z"/>
	<g>
		<path opacity="0.2" d="M616.5,198.2c-0.2-0.3-0.6-0.5-0.9-0.6l-5.6-5.6c-0.1-0.2-0.3-0.5-0.6-0.6l-5.6-3.3
			c-0.8-0.4-1.8-0.2-2.2,0.6l-1.4,2.5l-4.8-4.8c-0.3-0.4-0.8-0.7-1.3-0.7h-3.5h-3c-0.9,0-1.6,0.7-1.6,1.6v3.9
			c-1,0.2-1.9,0.5-2.9,0.8l-3.1-3.1c-0.5-0.6-1.4-0.7-2.1-0.4l-5.6,3.3c-0.8,0.4-1,1.4-0.6,2.2l1.9,3.4c-1,0.9-2,1.9-2.9,3l-3.3-1.9
			c-0.8-0.4-1.8-0.2-2.2,0.6l-3.3,5.6c-0.3,0.6-0.3,1.3,0.2,1.9l0,0l3.5,3.5c-0.3,0.9-0.5,1.8-0.6,2.8H561c-0.9,0-1.6,0.7-1.6,1.6
			v6.5c0,0.5,0.2,1,0.6,1.3l0,0l5,5l-2.2,1.3c-0.8,0.5-1,1.4-0.6,2.2l3.3,5.6c0.1,0.2,0.3,0.3,0.4,0.5l0,0l34.9,34.9
			c22.7-4,40.6-21.8,44.8-44.5L616.5,198.2z"/>
		<g>
			<g>
				<g>
					<path fill="#A1B400" d="M621.1,212.1h-3.9c-0.3-1.4-0.7-2.7-1.1-4l3.2-1.9c0.8-0.5,1-1.4,0.6-2.2l-3.3-5.6
						c-0.5-0.8-1.5-1-2.2-0.6l-3.4,1.9c-0.9-1-1.9-2-3-2.9l1.9-3.3c0.4-0.8,0.2-1.8-0.6-2.2l-5.6-3.3c-0.8-0.4-1.8-0.2-2.2,0.6
						l-1.9,3.4c-1.3-0.4-2.6-0.8-4-1v-3.8c0-0.9-0.7-1.6-1.6-1.6h-6.5c-0.9,0-1.6,0.7-1.6,1.6v3.9c-1.4,0.3-2.7,0.7-4,1.1L580,189
						c-0.5-0.8-1.4-1-2.2-0.6l-5.6,3.3c-0.8,0.4-1,1.4-0.6,2.2l1.9,3.4c-1,0.9-2,1.9-2.9,3l-3.3-1.9c-0.8-0.4-1.8-0.2-2.2,0.6
						l-3.3,5.6c-0.4,0.8-0.2,1.8,0.6,2.2l3.4,1.9c-0.4,1.3-0.8,2.6-1,4H561c-0.9,0-1.6,0.7-1.6,1.6v6.5c0,0.9,0.7,1.6,1.6,1.6h3.9
						c0.3,1.4,0.6,2.7,1.1,4l-3.2,1.9c-0.8,0.5-1,1.4-0.6,2.2l3.3,5.6c0.4,0.8,1.4,1,2.2,0.6l3.4-1.9c0.9,1,1.9,2,3,2.9l-1.9,3.3
						c-0.4,0.8-0.2,1.8,0.6,2.2l5.6,3.3c0.8,0.4,1.8,0.2,2.2-0.6l1.9-3.4c1.3,0.4,2.6,0.8,4,1v3.8c0,0.9,0.7,1.6,1.6,1.6l6.5,0
						c0.9,0,1.6-0.7,1.6-1.6v-3.9c1.4-0.3,2.7-0.6,4-1.1l1.9,3.2c0.4,0.8,1.4,1,2.2,0.6l5.6-3.3c0.8-0.4,1-1.4,0.6-2.2l-1.9-3.4
						c1-0.9,2-1.9,2.9-3l3.3,1.9c0.8,0.5,1.8,0.2,2.2-0.6l3.3-5.6c0.4-0.8,0.2-1.8-0.6-2.2l-3.4-2c0.4-1.3,0.8-2.6,1-4h3.8
						c0.9,0,1.6-0.7,1.6-1.6v-6.5C622.7,212.8,622,212.1,621.1,212.1z M591,230.3c-7.2,0-13-5.8-13-13c0-7.2,5.8-13,13-13
						c7.2,0,13,5.8,13,13C604,224.5,598.2,230.3,591,230.3z"/>
					<path fill="#C2D64C" d="M590.5,234.2c-9.1-0.3-16.3-7.7-16.3-16.9c0-9.1,7.3-16.6,16.3-16.9v-14.8h-3c-0.9,0-1.6,0.7-1.6,1.6
						v3.9c-1.4,0.3-2.7,0.7-4,1.1L580,189c-0.5-0.8-1.4-1-2.2-0.6l-5.6,3.3c-0.8,0.4-1,1.4-0.6,2.2l1.9,3.4c-1,0.9-2,1.9-2.9,3
						l-3.3-1.9c-0.8-0.4-1.8-0.2-2.2,0.6l-3.3,5.6c-0.4,0.8-0.2,1.8,0.6,2.2l3.4,1.9c-0.4,1.3-0.8,2.6-1,4H561
						c-0.9,0-1.6,0.7-1.6,1.6v6.5c0,0.9,0.7,1.6,1.6,1.6h3.9c0.3,1.4,0.6,2.7,1.1,4l-3.2,1.9c-0.8,0.5-1,1.4-0.6,2.2l3.3,5.6
						c0.4,0.8,1.4,1,2.2,0.6l3.4-1.9c0.9,1,1.9,2,3,2.9l-1.9,3.3c-0.4,0.8-0.2,1.8,0.6,2.2l5.6,3.3c0.8,0.4,1.8,0.2,2.2-0.6l1.9-3.4
						c1.3,0.4,2.6,0.8,4,1v3.8c0,0.9,0.7,1.6,1.6,1.6l2.3,0V234.2z"/>
					<path fill="#A1B400" d="M591,194.3c-12.7,0-23,10.3-23,23c0,12.7,10.3,23,23,23c12.7,0,23-10.3,23-23
						C614.1,204.6,603.8,194.3,591,194.3z M591,236.2c-10.4,0-18.9-8.5-18.9-18.9c0-10.4,8.5-18.9,18.9-18.9s18.9,8.5,18.9,18.9
						C609.9,227.7,601.5,236.2,591,236.2z"/>
					<path fill="#C2D64C" d="M591,194.3c-0.2,0-0.4,0-0.6,0v4.1c0.2,0,0.4,0,0.6,0c10.4,0,18.9,8.5,18.9,18.9
						c0,10.4-8.5,18.9-18.9,18.9c-0.2,0-0.4,0-0.6,0v4.1c0.2,0,0.4,0,0.6,0c12.7,0,23-10.3,23-23C614.1,204.6,603.8,194.3,591,194.3
						z"/>
				</g>
			</g>
			<g>
				<g>
					<path fill="#1695A4" d="M611.4,218.9c0-0.2,0-0.4,0-0.6c0-0.3,0-0.6,0-1c0-0.3,0-0.6,0-1c0-0.2,0-0.4,0-0.6c0-0.1,0-0.2,0-0.3
						c-1-10.4-9.7-18.6-20.4-18.6c-10.3,0-18.9,7.7-20.3,17.7c0,0,0,0,0,0.1c0,0.3-0.1,0.5-0.1,0.8c0,0.1,0,0.3,0,0.4
						c0,0.2,0,0.4,0,0.5c0,0.3,0,0.6,0,1c0,0.3,0,0.6,0,1c0,0.2,0,0.4,0,0.5c0,0.1,0,0.3,0,0.4c0,0.3,0.1,0.5,0.1,0.8
						c0,0,0,0.1,0,0.1c1.4,10,9.9,17.7,20.3,17.7c10.6,0,19.4-8.2,20.4-18.6C611.4,219.1,611.4,219,611.4,218.9z"/>
					<path fill="#15B0BF" d="M591,196.9c-10.3,0-18.9,7.7-20.3,17.7c0,0,0,0,0,0.1c0,0.3-0.1,0.5-0.1,0.8c0,0.1,0,0.3,0,0.4
						c0,0.2,0,0.4,0,0.5c0,0.3,0,0.6,0,1c0,0.3,0,0.6,0,1c0,0.2,0,0.4,0,0.5c0,0.1,0,0.3,0,0.4c0,0.3,0.1,0.5,0.1,0.8
						c0,0,0,0.1,0,0.1c1.4,10,9.9,17.7,20.3,17.7"/>
					<g>
						<path fill="#D1ECFB" d="M607.7,225.7c-0.1,0.1-0.1,0.3-0.2,0.4c-0.1,0.1-0.1,0.2-0.2,0.4c-0.1,0.1-0.2,0.3-0.2,0.4
							c-0.1,0.1-0.1,0.2-0.2,0.4c-0.1,0.1-0.2,0.3-0.3,0.4c-0.1,0.1-0.2,0.2-0.2,0.3c-0.1,0.1-0.2,0.3-0.3,0.4
							c-0.1,0.1-0.2,0.2-0.3,0.3c-0.1,0.1-0.2,0.2-0.3,0.4c-0.1,0.1-0.2,0.2-0.3,0.3c-0.1,0.1-0.2,0.2-0.3,0.3
							c-0.1,0.1-0.2,0.2-0.3,0.3c-0.1,0.1-0.2,0.2-0.3,0.3c-0.1,0.1-0.2,0.2-0.3,0.3c-0.1,0.1-0.2,0.2-0.3,0.3
							c-0.1,0.1-0.2,0.2-0.3,0.3c-0.1,0.1-0.2,0.2-0.4,0.3c-0.1,0.1-0.2,0.2-0.3,0.3c-0.1,0.1-0.2,0.2-0.4,0.3
							c-0.1,0.1-0.2,0.2-0.3,0.2c-0.1,0.1-0.3,0.2-0.4,0.3c-0.1,0.1-0.2,0.2-0.3,0.2c-0.1,0.1-0.3,0.2-0.4,0.3
							c-0.1,0.1-0.2,0.1-0.3,0.2c-0.1,0.1-0.3,0.2-0.4,0.2c-0.1,0.1-0.2,0.1-0.4,0.2c-0.1,0.1-0.3,0.2-0.4,0.2
							c-0.1,0.1-0.2,0.1-0.4,0.2c-0.1,0.1-0.3,0.1-0.5,0.2c-0.1,0.1-0.2,0.1-0.4,0.2c-0.2,0.1-0.3,0.1-0.5,0.2
							c-0.1,0-0.2,0.1-0.4,0.1c0,0-0.1,0-0.1,0c2.3-2.3,4-5.7,5.1-9.8h5.7c0,0.1-0.1,0.1-0.1,0.2
							C607.8,225.4,607.8,225.5,607.7,225.7z"/>
						<path fill="#D1ECFB" d="M597.7,199.9c0.2,0.1,0.3,0.1,0.5,0.2c0.1,0.1,0.2,0.1,0.4,0.2c0.2,0.1,0.3,0.1,0.5,0.2
							c0.1,0.1,0.2,0.1,0.4,0.2c0.1,0.1,0.3,0.1,0.4,0.2c0.1,0.1,0.2,0.1,0.4,0.2c0.1,0.1,0.3,0.2,0.4,0.2c0.1,0.1,0.2,0.1,0.3,0.2
							c0.1,0.1,0.3,0.2,0.4,0.3c0.1,0.1,0.2,0.2,0.3,0.2c0.1,0.1,0.3,0.2,0.4,0.3c0.1,0.1,0.2,0.2,0.3,0.3c0.1,0.1,0.2,0.2,0.4,0.3
							c0.1,0.1,0.2,0.2,0.3,0.3c0.1,0.1,0.2,0.2,0.4,0.3c0.1,0.1,0.2,0.2,0.3,0.3c0.1,0.1,0.2,0.2,0.3,0.3c0.1,0.1,0.2,0.2,0.3,0.3
							c0.1,0.1,0.2,0.2,0.3,0.3c0.1,0.1,0.2,0.2,0.3,0.3c0.1,0.1,0.2,0.2,0.3,0.3c0.1,0.1,0.2,0.2,0.3,0.3c0.1,0.1,0.2,0.2,0.3,0.4
							c0.1,0.1,0.2,0.2,0.3,0.3c0.1,0.1,0.2,0.3,0.3,0.4c0.1,0.1,0.2,0.2,0.2,0.3c0.1,0.1,0.2,0.3,0.3,0.4c0.1,0.1,0.1,0.2,0.2,0.4
							c0.1,0.1,0.2,0.3,0.2,0.4c0.1,0.1,0.1,0.2,0.2,0.4c0.1,0.1,0.1,0.3,0.2,0.4c0.1,0.1,0.1,0.3,0.2,0.4c0,0.1,0.1,0.1,0.1,0.2
							h-5.7c-1-4.1-2.8-7.5-5.1-9.8c0,0,0.1,0,0.1,0C597.5,199.8,597.6,199.8,597.7,199.9z"/>
						<path fill="#D1ECFB" d="M601.5,217.3c0,2.1-0.2,4.1-0.6,6h-9v-12h9C601.3,213.2,601.5,215.2,601.5,217.3z"/>
						<path fill="#D1ECFB" d="M600.5,225.1c-1.5,5.9-4.8,10.2-8.6,10.8v-10.8H600.5z"/>
						<path fill="#D1ECFB" d="M591.9,209.5v-10.8c3.8,0.6,7,4.8,8.6,10.8H591.9z"/>
						<path fill="#D1ECFB" d="M609.7,218.2c0,0.1,0,0.3,0,0.4c0,0.1,0,0.2,0,0.4c0,0.2,0,0.4-0.1,0.6c0,0,0,0,0,0
							c-0.2,1.3-0.4,2.5-0.9,3.7h-6c0.3-1.9,0.5-3.9,0.5-6c0-2.1-0.2-4.1-0.5-6h6c0.4,1.2,0.7,2.5,0.9,3.7c0,0,0,0,0,0
							c0,0.2,0,0.4,0.1,0.6c0,0.1,0,0.2,0,0.4c0,0.1,0,0.3,0,0.4c0,0.3,0,0.6,0,0.8C609.7,217.6,609.7,217.9,609.7,218.2z"/>
					</g>
					<g>
						<path fill="#FFFFFF" d="M572.5,219.6c0,0,0-0.1,0-0.1c0-0.2,0-0.4-0.1-0.6c0-0.1,0-0.3,0-0.4c0-0.1,0-0.3,0-0.4
							c0-0.3,0-0.6,0-0.9c0-0.3,0-0.6,0-0.9c0-0.1,0-0.3,0-0.4c0-0.1,0-0.3,0-0.4c0-0.2,0-0.4,0.1-0.6c0,0,0-0.1,0-0.1
							c0.2-1.2,0.4-2.5,0.9-3.7h6c-0.3,1.9-0.5,3.9-0.5,6c0,2.1,0.2,4.1,0.5,6h-6C573,222.1,572.7,220.9,572.5,219.6z"/>
						<path fill="#FFFFFF" d="M580.6,217.3c0-2.1,0.2-4.1,0.6-6h9v12h-9C580.8,221.4,580.6,219.4,580.6,217.3z"/>
						<path fill="#FFFFFF" d="M590.1,198.7v10.8h-8.6C583.1,203.6,586.3,199.3,590.1,198.7z"/>
						<path fill="#FFFFFF" d="M590.1,225.1v10.8c-3.8-0.6-7-4.8-8.6-10.8H590.1z"/>
						<path fill="#FFFFFF" d="M584.8,199.7c-2.3,2.3-4,5.7-5.1,9.8h-5.7C576.2,205,580.1,201.4,584.8,199.7z"/>
						<path fill="#FFFFFF" d="M574.1,225.1h5.7c1,4.1,2.8,7.5,5.1,9.8C580.1,233.2,576.2,229.6,574.1,225.1z"/>
					</g>
				</g>
			</g>
		</g>
	</g>
</g>
<g>
	<circle fill="#6D3382" cx="326.5" cy="391.9" r="55.4"/>
	<g>
		<path opacity="0.2" d="M354.1,370.6L354.1,370.6c-0.3-0.3-0.7-0.5-1.1-0.5h-56.4c-0.8,0-1.5,0.7-1.5,1.5v35.9v4.2
			c0,0.4,0.2,0.8,0.5,1.1l0,0l34.3,34.3c26.9-1.7,48.6-22.6,51.5-49.2L354.1,370.6z"/>
		<g>
			<g>
				<g>
					<path fill="#A6DAE9" d="M318,410.5c-0.6,2.6-1.3,5.1-1.9,7.7c5.8,0,11.7,0,17.5,0c-0.6-2.6-1.3-5.1-1.9-7.7
						C327.2,410.5,322.6,410.5,318,410.5z"/>
					<path fill="#FFFFFF" d="M334.7,418H315c-0.5,0-0.9,0.5-0.9,1.1v0.4h21.5v-0.4C335.6,418.5,335.2,418,334.7,418z"/>
					<path fill="#FFFFFF" d="M295.2,407.5v4.2c0,0.8,0.7,1.5,1.5,1.5H353c0.8,0,1.5-0.7,1.5-1.5v-4.2H295.2z"/>
					<path fill="#0E303F" d="M354.5,407.5v-35.9c0-0.8-0.7-1.5-1.5-1.5h-56.4c-0.8,0-1.5,0.7-1.5,1.5v35.9H354.5z"/>
					<rect x="297.6" y="372.5" fill="#C2D64C" width="54.4" height="32.6"/>
					<polygon fill="#A1B400" points="297.6,405 352.1,372.5 352.1,405 					"/>
				</g>
			</g>
			<g>
				<g>
					<g>
						<rect x="302.6" y="399.4" fill="#FFFFFF" width="6.1" height="3.2"/>
						<rect x="305.6" y="399.4" fill="#D1ECFB" width="3.1" height="3.2"/>
					</g>
					<g>
						<rect x="312.2" y="394.7" fill="#FFFFFF" width="6.1" height="7.9"/>
						<rect x="315.3" y="394.7" fill="#D1ECFB" width="3.1" height="7.9"/>
					</g>
					<g>
						<rect x="321.9" y="381.1" fill="#FFFFFF" width="6.1" height="21.5"/>
						<rect x="324.9" y="381.1" fill="#D1ECFB" width="3.1" height="21.5"/>
					</g>
					<g>
						<rect x="331.6" y="385.7" fill="#FFFFFF" width="6.1" height="16.9"/>
						<rect x="334.6" y="385.7" fill="#D1ECFB" width="3.1" height="16.9"/>
					</g>
					<g>
						<rect x="341.2" y="375.4" fill="#FFFFFF" width="6.1" height="27.2"/>
						<rect x="344.3" y="375.4" fill="#D1ECFB" width="3.1" height="27.2"/>
					</g>
				</g>
			</g>
		</g>
	</g>
</g>
<g>
	<circle fill="#D69919" cx="61.9" cy="566.7" r="55.4"/>
	<path opacity="0.2" d="M66.1,622c25.6-1.9,46.4-21.3,50.5-46.3l-37.1-37.1l-0.1,0.1v-0.2H49.3l-10.8,10.8v10.8v4.3v30.1h0.3
		l-0.1,0.1L66.1,622z"/>
	<g>
		<g>
			<g>
				<polygon fill="#FFFFFF" points="38.5,594.5 38.5,564.4 38.5,549.4 49.3,538.6 79.4,538.6 79.4,549.7 79.4,564.4 79.4,594.5 				
					"/>
				<g>
					<polygon fill="#2C5871" points="49.3,549.4 38.5,549.4 49.3,538.6 					"/>
					<polygon fill="#D1ECFB" points="38.5,549.4 49.3,549.4 38.5,560.2 					"/>
				</g>
			</g>
			<g>
				<defs>
					<polygon id="SVGID_1_" points="38.5,594.5 38.5,564.4 38.5,549.4 49.3,538.6 79.4,538.6 79.4,549.7 79.4,564.4 79.4,594.5 
											"/>
				</defs>
				<clipPath id="SVGID_2_">
					<use xlink:href="#SVGID_1_"  overflow="visible"/>
				</clipPath>
				<g clip-path="url(#SVGID_2_)">
					<path fill="#A6DAE9" d="M87.3,558.7l-6.6-6.6l-2.8-2.8l-26.8,26.8c0,0,0,0,0,0l0,12.3l12.3,0c0,0,0,0,0,0l26.8-26.8L87.3,558.7
						z"/>
				</g>
			</g>
			<g>
				<path fill="#1695A4" d="M76.4,547l-26.8,26.8c1.6,1.3,3.7,1.5,5.1,0.5l24.5-24.5L76.4,547z"/>
				<path fill="#15B0BF" d="M85.8,556.4l-6.6-6.6l-24.5,24.5h0c0,0,0,0,0,0c0,0,0,0,0,0c-1.1,1.5-0.7,3.9,1,5.6
					c1.7,1.7,4.1,2.1,5.6,1c0,0,0,0,0,0c0,0,0,0,0,0v0L85.8,556.4z"/>
				<path fill="#1695A4" d="M61.3,580.9c-1,1.3-0.8,3.4,0.5,5.1l26.8-26.8l-2.8-2.8L61.3,580.9z"/>
				<path fill="#D1ECFB" d="M61.9,586c-1.3-1.6-1.5-3.7-0.5-5.1v0c0,0,0,0,0,0c0,0,0,0,0,0c-1.5,1.1-3.9,0.7-5.6-1
					c-1.7-1.7-2.1-4.1-1-5.6c0,0,0,0,0,0c0,0,0,0,0,0h0c-1.3,1-3.4,0.8-5.1-0.5l0,12.3L61.9,586z"/>
				<path fill="#1695A4" d="M49.6,580l0,6l6,0c-0.8-1.1-1.7-2.3-2.7-3.3C51.9,581.7,50.8,580.8,49.6,580z"/>
				<g>
					
						<rect x="77.3" y="544.9" transform="matrix(-0.7069 -0.7073 0.7073 -0.7069 -251.5021 989.5854)" fill="#0E303F" width="3.9" height="4.1"/>
					
						<rect x="79.3" y="549.6" transform="matrix(-0.7072 -0.707 0.707 -0.7072 -246.5715 1001.1312)" fill="#2C5871" width="9.4" height="4.1"/>
					
						<rect x="86.8" y="554.3" transform="matrix(-0.707 -0.7072 0.7072 -0.707 -241.9995 1012.4136)" fill="#0E303F" width="3.9" height="4.1"/>
				</g>
			</g>
		</g>
	</g>
</g>
<g>
	<circle fill="#BF4531" cx="458.7" cy="304.5" r="55.4"/>
	<path opacity="0.2" d="M483.9,269.7L483.9,269.7l-5.1,5l1.2,4.6l-0.8,0.8c-5.8-5.6-13.7-9-22.3-9c-17.8,0-32.2,14.4-32.2,32.2
		c0,10.5,5,19.8,12.8,25.7l0,0l29.8,29.8c26.6-4,46.9-26.9,46.9-54.6c0-1.6-0.1-3.3-0.2-4.9L484,269.5L483.9,269.7z"/>
	<g>
		<path fill="#174F78" d="M489.1,303.3c0,17.8-14.4,32.2-32.2,32.2c-17.8,0-32.2-14.4-32.2-32.2c0-17.8,14.4-32.2,32.2-32.2
			C474.7,271.1,489.1,285.5,489.1,303.3z"/>
		<circle fill="#FFFFFF" cx="456.9" cy="303.3" r="23.8"/>
		<circle fill="#174F78" cx="456.9" cy="303.3" r="15.4"/>
		<circle fill="#FFFFFF" cx="456.9" cy="303.3" r="7"/>
		<path fill="#103754" d="M456.9,271.1v8.4c13.2,0,23.8,10.7,23.8,23.8c0,13.2-10.7,23.8-23.8,23.8v8.4c17.8,0,32.2-14.4,32.2-32.2
			C489.1,285.5,474.7,271.1,456.9,271.1z"/>
		<path fill="#FFFFFF" d="M456.9,296.3c3.9,0,7,3.2,7,7c0,3.9-3.2,7-7,7"/>
		<path fill="#103754" d="M456.9,287.9v8.4c3.9,0,7,3.2,7,7c0,3.9-3.2,7-7,7v8.4c8.5,0,15.4-6.9,15.4-15.4
			C472.3,294.8,465.4,287.9,456.9,287.9z"/>
		<g>
			<path fill="#D1ECFB" d="M463.9,303.3c0-3.9-3.2-7-7-7v14.1C460.8,310.3,463.9,307.2,463.9,303.3z"/>
			<path fill="#D1ECFB" d="M456.9,279.5v8.4c8.5,0,15.4,6.9,15.4,15.4c0,8.5-6.9,15.4-15.4,15.4v8.4c13.2,0,23.8-10.7,23.8-23.8
				C480.7,290.1,470.1,279.5,456.9,279.5z"/>
		</g>
		<polygon fill="#1695A4" points="486,281.9 491.1,276.8 485.4,275.3 483.8,269.6 478.8,274.6 480,279.3 462.8,296.5 460.4,291.6 
			458.8,297.5 457.2,303.5 463.1,301.9 469,300.3 464.2,297.8 481.4,280.6 		"/>
		<polygon fill="#15B0BF" points="485.4,275.3 483.8,269.6 478.8,274.6 480,279.3 462.8,296.5 460.4,291.6 458.8,297.5 457.2,303.5 
					"/>
	</g>
</g>
<g>
	<circle fill="#C2D64C" cx="424.6" cy="489.9" r="55.4"/>
	<g>
		<path opacity="0.2" d="M479.9,493.9l-35.2-35.2v-0.1h-33.6l-12,12v12v4.8v33.5h0.2l24.4,24.4c0.3,0,0.7,0,1,0
			C453.9,545.3,477.8,522.6,479.9,493.9z"/>
		<g>
			<g>
				<polygon fill="#FFFFFF" points="399.1,520.9 399.1,487.4 399.1,470.6 411.1,458.6 444.7,458.6 444.7,471 444.7,487.4 
					444.7,520.9 				"/>
				<g>
					<polygon fill="#C2D64C" points="411.1,470.6 399.1,470.6 411.1,458.6 					"/>
					<polygon fill="#D1ECFB" points="399.1,470.6 411.1,470.6 399.1,482.6 					"/>
				</g>
			</g>
			<g>
				<path fill="#2C5871" d="M410.2,507.5v-7.9c-3.8,0.3-6.9,3.4-6.9,7.4c0,4.1,3.3,7.4,7.4,7.4c3.9,0,7.1-3,7.4-6.9H410.2z"/>
				<path fill="#C2D64C" d="M417.7,505.6c0-3-2.5-5.5-5.5-5.5v5.5H417.7z"/>
			</g>
			<g>
				<path fill="#A6DAE9" d="M413.8,484.7c-0.2,0.5-0.4,0.9-0.7,1.2l2.4,3.3c1.2-1,2.1-2.5,2.4-4.1L413.8,484.7z"/>
				<path fill="#C2D64C" d="M411.3,480.4c1.4,0.3,2.5,1.5,2.6,2.9l4.1,0.5c0,0,0-0.1,0-0.1c0-3.8-2.9-7-6.7-7.3V480.4z"/>
				<path fill="#15B0BF" d="M408.2,481.4c0.5-0.5,1.1-0.9,1.8-1v-4.1c-2.2,0.2-4.1,1.3-5.3,3L408.2,481.4z"/>
				<path fill="#2C5871" d="M412,486.6c-0.4,0.2-0.9,0.3-1.3,0.3c-1.8,0-3.3-1.5-3.3-3.3c0-0.4,0.1-0.7,0.2-1.1l-3.6-2.1
					c-0.5,1-0.7,2-0.7,3.1c0,4.1,3.3,7.4,7.4,7.4c1.4,0,2.6-0.4,3.7-1L412,486.6z"/>
			</g>
			<g>
				<rect x="421.5" y="476.3" fill="#15B0BF" width="17.8" height="1.8"/>
				<rect x="421.5" y="482" fill="#A6DAE9" width="17.8" height="1.8"/>
				<rect x="421.5" y="487.8" fill="#A6DAE9" width="17.8" height="1.8"/>
			</g>
			<g>
				<rect x="421.5" y="499.6" fill="#15B0BF" width="12.4" height="1.8"/>
				<rect x="421.5" y="505.3" fill="#A6DAE9" width="17.8" height="1.8"/>
				<rect x="421.5" y="511.1" fill="#A6DAE9" width="17.8" height="1.8"/>
			</g>
		</g>
	</g>
</g>
<g>
	<circle fill="#8EB92A" cx="329.3" cy="254.3" r="55.4"/>
	<g>
		<path opacity="0.2" d="M352.9,222.2L352.9,222.2L352.9,222.2c-0.4-0.4-1-0.7-1.6-0.7h-21.1c-0.6-0.6-1.4-0.9-2.3-0.9
			c-0.9,0-1.7,0.4-2.3,0.9h-21.1c-1.3,0-2.3,1-2.3,2.3v1.7v58.5v1.7c0,0.7,0.4,1.4,0.9,1.8l21.8,21.8c1.4,0.1,2.8,0.2,4.2,0.2
			c30.6,0,55.4-24.8,55.4-55.4c0-0.1,0-0.2,0-0.3L352.9,222.2C353,222.3,352.9,222.2,352.9,222.2z"/>
		<g>
			<path fill="#0E303F" d="M353.6,285.8c0,1.3-1,2.3-2.3,2.3h-46.7c-1.3,0-2.3-1-2.3-2.3v-60.2c0-1.3,1-2.3,2.3-2.3h46.7
				c1.3,0,2.3,1,2.3,2.3V285.8z"/>
			<path fill="#2C5871" d="M353.6,284.1c0,1.3-1,2.3-2.3,2.3h-46.7c-1.3,0-2.3-1-2.3-2.3v-60.2c0-1.3,1-2.3,2.3-2.3h46.7
				c1.3,0,2.3,1,2.3,2.3V284.1z"/>
			<rect x="306.5" y="225.7" fill="#FFFFFF" width="43" height="56.5"/>
			<rect x="306.5" y="280.4" fill="#D1ECFB" width="43" height="1.8"/>
			<path fill="#8FC4D7" d="M338,228.7v-2.3c0-0.8-0.6-1.4-1.4-1.4h-17.2c-0.8,0-1.4,0.6-1.4,1.4v2.3H338z"/>
			<path fill="#A6DAE9" d="M338,227.7v-2.3c0-0.8-0.6-1.4-1.4-1.4h-17.2c-0.8,0-1.4,0.6-1.4,1.4v2.3H338z"/>
			<circle fill="#A6DAE9" cx="328" cy="223.9" r="3.2"/>
			<path fill="#2C5871" d="M329.4,223.9c0,0.8-0.6,1.4-1.4,1.4c-0.8,0-1.4-0.6-1.4-1.4c0-0.8,0.6-1.4,1.4-1.4
				C328.7,222.5,329.4,223.1,329.4,223.9z"/>
			<g>
				<rect x="316.9" y="240.8" fill="#A6DAE9" width="26.8" height="1.4"/>
				<rect x="316.9" y="246.6" fill="#A6DAE9" width="26.8" height="1.4"/>
				<rect x="316.9" y="252.4" fill="#A6DAE9" width="26.8" height="1.4"/>
				<rect x="316.9" y="258.2" fill="#A6DAE9" width="26.8" height="1.4"/>
			</g>
			<g>
				<path fill="#A1B400" d="M311.9,243.2c-0.2,0-0.3-0.1-0.5-0.2l-1.1-1.1c-0.2-0.3-0.2-0.7,0-0.9c0.3-0.2,0.7-0.2,0.9,0l0.6,0.6
					l1.9-2.3c0.2-0.3,0.6-0.3,0.9-0.1c0.3,0.2,0.3,0.6,0.1,0.9l-2.3,2.8C312.3,243.1,312.1,243.2,311.9,243.2
					C311.9,243.2,311.9,243.2,311.9,243.2L311.9,243.2z"/>
			</g>
			<g>
				<path fill="#A1B400" d="M311.9,248.8c-0.2,0-0.3-0.1-0.5-0.2l-1.1-1.1c-0.2-0.3-0.2-0.7,0-0.9c0.3-0.2,0.7-0.2,0.9,0l0.6,0.6
					l1.9-2.3c0.2-0.3,0.6-0.3,0.9-0.1c0.3,0.2,0.3,0.6,0.1,0.9l-2.3,2.8C312.3,248.7,312.1,248.8,311.9,248.8
					C311.9,248.8,311.9,248.8,311.9,248.8L311.9,248.8z"/>
			</g>
			<g>
				<path fill="#A1B400" d="M311.9,254.3c-0.2,0-0.3-0.1-0.5-0.2l-1.1-1.1c-0.2-0.3-0.2-0.7,0-0.9c0.3-0.2,0.7-0.2,0.9,0l0.6,0.6
					l1.9-2.3c0.2-0.3,0.6-0.3,0.9-0.1c0.3,0.2,0.3,0.6,0.1,0.9l-2.3,2.8C312.3,254.2,312.1,254.3,311.9,254.3
					C311.9,254.3,311.9,254.3,311.9,254.3L311.9,254.3z"/>
			</g>
			<g>
				<path fill="#15B0BF" d="M329.2,274.7C329.1,274.7,329.1,274.7,329.2,274.7c-0.4-0.1-0.6-0.5-0.7-0.9c-0.3-1.1-0.1-2.3,0.5-3.3
					c-0.1-0.3-0.2-0.7-0.4-1c-0.1-0.2,0-0.4,0.1-0.5c0.2-0.1,0.4,0,0.5,0.1c0.1,0.2,0.2,0.4,0.3,0.7c0.7-0.7,1.5-1,2.4-1
					c1.2,0,2.3,1.1,2.9,2.1c0,0,0,0.1,0.1,0.1c1.1-0.7,2.6-1.3,3.4-1.2c1.1,0.1,1.2,1.1,1.2,1.8c0.3-0.4,0.4-0.7,0.5-0.9
					c0.3-0.8,0.5-0.7,2.3-0.4l0.4,0.1c0.2,0,0.3,0.2,0.3,0.4c0,0.2-0.2,0.3-0.4,0.3l-0.4-0.1c-0.8-0.1-1.3-0.3-1.5-0.2
					c0,0,0,0.1,0,0.1c-0.1,0.3-0.2,0.7-0.6,1.2c-0.3,0.4-0.6,0.7-0.9,0.5c-0.3-0.1-0.3-0.5-0.3-0.9c0-0.8-0.1-1.3-0.5-1.3
					c-0.7-0.1-2,0.5-3,1.1c0.3,0.7,0.4,1.3,0.1,1.7c-0.1,0.2-0.4,0.4-1.1,0.2c-0.9-0.2-0.8-0.9-0.8-1c0.1-0.4,0.4-0.8,0.8-1.1
					c0-0.1-0.1-0.1-0.1-0.2c-0.5-0.8-1.4-1.7-2.3-1.7c-0.9,0-1.6,0.4-2.2,1.1c0.4,1.6,0.3,3.3-0.1,3.8
					C329.5,274.7,329.3,274.7,329.2,274.7L329.2,274.7z M329.2,271.7c-0.2,0.6-0.2,1.3,0,2c0,0,0,0,0,0.1
					C329.3,273.3,329.3,272.5,329.2,271.7L329.2,271.7z M334.6,272.1c-0.3,0.2-0.4,0.5-0.5,0.6c0,0,0,0.1,0.3,0.2
					c0.2,0.1,0.3,0,0.3,0C334.8,272.9,334.8,272.6,334.6,272.1L334.6,272.1z"/>
			</g>
		</g>
	</g>
</g>
<g>
	<circle fill="#F7F200" cx="194.2" cy="244.3" r="55.4"/>
	<g>
		<path opacity="0.2" d="M221.1,292.7c9.5-5.3,17.3-13.3,22.3-23.1L189.9,216l-17.7,4.7l0,0l-0.2,0.1l-4.8,17.9l12.5,12.5l-0.1,0.1
			L221.1,292.7z"/>
		<g>
			<path fill="#0E303F" d="M167.2,238.7l4.8-17.9l17.9-4.8l38.8,38.8L206,277.5L167.2,238.7z M183.5,226.9c-1.5-1.5-3.9-1.5-5.3,0
				c-1.5,1.5-1.5,3.9,0,5.3c1.5,1.5,3.9,1.5,5.3,0C185,230.8,185,228.4,183.5,226.9z"/>
			<path fill="#2C5871" d="M183.6,232.1c1.3-1.5,1.3-3.8-0.1-5.2c-1.4-1.4-3.7-1.5-5.2-0.1l-6-6l17.7-4.7l38.8,38.8L217.5,266
				L183.6,232.1z"/>
			<g>
				<path fill="#A6DAE9" d="M184.7,240.5c0.2,0.8,0.9,1.8,1.5,2.5c1.1,1.1,2.2,1.1,3,0.3c0.9-0.9,0.8-1.8,0.4-3.5
					c-0.6-2.6,0-4.5,1.1-5.6c1.9-1.9,4.8-2.3,7.3,0.3c0.8,0.8,1.3,1.8,1.5,2.3l-2.4,1.6c-0.1-0.6-0.4-1.3-1.1-1.9
					c-1-1-2.1-0.9-2.7-0.2c-0.7,0.7-0.7,1.5-0.2,3.5c0.6,2.6,0,4.4-1.3,5.6c-2.2,2.2-5.3,2-7.6-0.3c-1-1-1.6-2.1-1.8-2.8
					L184.7,240.5z"/>
				<path fill="#A6DAE9" d="M200,250l-2.7-2.7l-3.3,3.3l3.1,3.1l-2,2l-5.4-5.4l12.1-12.1l5.2,5.2l-2,2l-2.9-2.9l-2.8,2.8l2.7,2.7
					L200,250z"/>
				<path fill="#A6DAE9" d="M210,258.2c-4.5,4.5-8,4.8-10.3,2.5c-2.7-2.7-0.9-6.7,2.4-10c3.3-3.3,7.4-4.8,10.1-2.1
					C215.2,251.4,212.8,255.4,210,258.2z M204.5,253.1c-2.7,2.7-3.6,4.7-2.7,5.6c1,1,3.2-0.4,5.6-2.9c2.1-2.1,3.7-4.3,2.6-5.4
					C209.2,249.5,207.1,250.5,204.5,253.1z"/>
			</g>
			<g>
				<path fill="#FFFFFF" d="M196,236.4c0.7,0.7,1,1.4,1.1,1.9l2.4-1.6c-0.1-0.6-0.7-1.5-1.5-2.3c-2.5-2.5-5.4-2.2-7.3-0.3
					c-0.8,0.8-1.4,2.1-1.3,3.8l3.9,3.9c0-0.6,0-1.3-0.2-2.1c-0.5-2.1-0.5-2.8,0.2-3.5C193.9,235.5,195,235.4,196,236.4z"/>
				<polygon fill="#FFFFFF" points="201.9,248.1 199.2,245.3 202,242.6 204.9,245.5 206.9,243.4 201.7,238.2 195.7,244.2 
					200.7,249.3 				"/>
				<path fill="#FFFFFF" d="M202.1,250.6C202.1,250.6,202.1,250.6,202.1,250.6l2.4,2.4c2.6-2.6,4.6-3.6,5.6-2.7
					c1.1,1.1-0.5,3.3-2.6,5.4c0,0-0.1,0.1-0.1,0.1l2.4,2.4c0.1-0.1,0.1-0.1,0.2-0.2c2.8-2.8,5.1-6.8,2.2-9.7
					C209.6,245.8,205.4,247.3,202.1,250.6z"/>
			</g>
		</g>
	</g>
</g>
<g>
	<circle fill="#5065AA" cx="723.3" cy="129.7" r="55.4"/>
	<g>
		<path opacity="0.2" d="M743.9,110.9L743.9,110.9l-7.8-7.8h-35.5v6.3h-5.4v41.9v3.2c0,0.9,0.5,1.6,1.2,2.1l28.5,28.5
			c25-0.7,45.9-17.9,52-41.2L743.9,110.9z"/>
		<g>
			<path fill="#FFFFFF" d="M700.6,151.5v-7V121v-17.8h35.5l17.3,17.3v24.1v7c0,3-2.4,5.4-5.4,5.4h-20.4h-29.1h-0.7
				C700.8,156.2,700.6,154.3,700.6,151.5z"/>
			<polygon fill="#15B0BF" points="736.1,120.4 753.4,120.4 736.1,103.2 			"/>
			<polygon fill="#D1ECFB" points="753.4,120.5 736.1,120.5 753.4,137.7 			"/>
			<path fill="#15B0BF" d="M700.6,153.9v-4v-13.4v-27.1h-5.4v41.9v3.2c0,1.3,1.1,2.4,2.4,2.4C699.3,156.9,700.6,155.5,700.6,153.9z"
				/>
			<rect x="705.8" y="133.8" fill="#A6DAE9" width="18.2" height="1.6"/>
			<rect x="705.8" y="123.2" fill="#A6DAE9" width="18.2" height="7.6"/>
			<rect x="705.8" y="106.7" fill="#A6DAE9" width="27.4" height="0.7"/>
			<rect x="705.8" y="119.8" fill="#A6DAE9" width="27.4" height="0.7"/>
			<rect x="705.8" y="138.6" fill="#A6DAE9" width="18.2" height="1.6"/>
			<rect x="705.8" y="143.4" fill="#A6DAE9" width="18.2" height="1.6"/>
			<rect x="705.8" y="148.2" fill="#A6DAE9" width="18.2" height="1.6"/>
			<rect x="727.9" y="133.8" fill="#A6DAE9" width="18.2" height="1.6"/>
			<rect x="727.9" y="138.6" fill="#A6DAE9" width="18.2" height="1.6"/>
			<rect x="727.9" y="143.4" fill="#A6DAE9" width="18.2" height="1.6"/>
			<rect x="727.9" y="148.2" fill="#A6DAE9" width="18.2" height="1.6"/>
			<g>
				<path fill="#15B0BF" d="M711.7,118.1h-1.6l-2.6-5.4l0,0v5.4h-1.7v-8.5h1.7l2.6,5.4l0,0v-5.4h1.6V118.1z"/>
				<path fill="#15B0BF" d="M717.6,114.4h-2.9v2.4h3.4v1.3h-5v-8.5h5v1.3h-3.3v2.1h2.9V114.4z"/>
				<path fill="#15B0BF" d="M724.6,115.1L724.6,115.1l0.9-5.4h1.6l-1.6,8.5H724l-1.2-5.2h0l-1.2,5.2H720l-1.6-8.5h1.6l0.9,5.4h0
					l1.2-5.4h1.2L724.6,115.1z"/>
				<path fill="#15B0BF" d="M731.7,115.9c0-0.3-0.1-0.6-0.3-0.8c-0.2-0.2-0.5-0.4-0.9-0.6c-0.9-0.3-1.5-0.7-2-1
					c-0.4-0.4-0.7-0.9-0.7-1.6c0-0.7,0.3-1.3,0.8-1.7c0.5-0.4,1.2-0.7,2-0.7c0.8,0,1.5,0.2,2,0.7c0.5,0.5,0.8,1.1,0.7,1.8l0,0h-1.6
					c0-0.4-0.1-0.7-0.3-0.9c-0.2-0.2-0.5-0.4-0.8-0.4c-0.3,0-0.6,0.1-0.8,0.3c-0.2,0.2-0.3,0.5-0.3,0.8c0,0.3,0.1,0.5,0.3,0.7
					c0.2,0.2,0.6,0.4,1.1,0.6c0.8,0.3,1.4,0.6,1.8,1c0.4,0.4,0.6,1,0.6,1.7c0,0.7-0.2,1.3-0.7,1.7c-0.5,0.4-1.1,0.6-2,0.6
					c-0.8,0-1.5-0.2-2.1-0.7c-0.6-0.5-0.9-1.2-0.9-2l0,0h1.6c0,0.5,0.1,0.9,0.3,1.1c0.2,0.2,0.6,0.3,1,0.3c0.3,0,0.6-0.1,0.8-0.3
					C731.6,116.5,731.7,116.2,731.7,115.9z"/>
			</g>
		</g>
	</g>
</g>
<g>
	<path fill="#198D31" d="M629.5,64.4c0,30.6-24.8,55.4-55.4,55.4c-30.6,0-55.4-24.8-55.4-55.4c0-30.6,24.8-55.4,55.4-55.4
		C604.7,9,629.5,33.8,629.5,64.4z"/>
	<g>
		<g>
			<path opacity="0.2" d="M629.5,66.4l-22.7-22.7c-0.3-0.5-0.8-0.8-1.4-0.8h-61.9c-0.9,0-1.6,0.8-1.6,1.8v40.8
				c0,0.3,0.1,0.5,0.2,0.8h-6.2c0,0.1,0,0.2,0,0.3v0.8c0,0.3,0.1,0.7,0.3,0.9l0,0c0.1,0.1,0.2,0.2,0.3,0.4c0,0,0.1,0.1,0.1,0.1
				c0.1,0.1,0.2,0.2,0.3,0.2c0,0,0.1,0.1,0.1,0.1c0.1,0,0.1,0.1,0.2,0.1l30.2,30.2c2.2,0.3,4.5,0.4,6.8,0.4
				C604,119.8,628.4,96.1,629.5,66.4z"/>
			<g>
				<path fill="#0E303F" d="M605.4,42.9h-61.9c-0.9,0-1.6,0.8-1.6,1.8v40.8c0,1,0.7,1.8,1.6,1.8h61.9c0.9,0,1.6-0.8,1.6-1.8V44.7
					C607,43.7,606.3,42.9,605.4,42.9z"/>
				<rect x="545.1" y="46.3" fill="#2C5871" width="58.6" height="37.4"/>
				<path fill="#FFFFFF" d="M613,86.2h-77.2c0,0.1,0,0.2,0,0.3v0.8c0,1.3,1.6,2.4,3.5,2.4h70.2c1.9,0,3.5-1.1,3.5-2.4v-0.8
					C613,86.4,613,86.3,613,86.2z"/>
				<path fill="#8FC4D7" d="M536.1,88.2c0.5,0.9,1.8,1.5,3.2,1.5h70.2c1.5,0,2.7-0.6,3.2-1.5H536.1z"/>
				<path fill="#D1ECFB" d="M568.8,86.2v0.3c0,0.3,0.3,0.5,0.7,0.5h9.9c0.4,0,0.7-0.2,0.7-0.5v-0.3H568.8z"/>
			</g>
		</g>
		<g>
			<path fill="#D1ECFB" d="M568.5,70.8c-2.1,1.3-5.1-1.6-3.8-3.8c2.4-3.6,3.9-6,6.2-9.7c2.7,2.2,5.1,4.6,7.3,7.3
				C574.4,66.9,572.1,68.3,568.5,70.8z"/>
			<path fill="#A1B400" d="M597.2,42.9c4.3-4.9,0.3-8.9-4.6-4.6c-8.2,7.3-13.4,11.8-21.6,19c2.4,2.4,4.8,4.8,7.1,7.1
				C585.4,56.2,589.9,51,597.2,42.9z"/>
			
				<rect x="568.7" y="60.7" transform="matrix(0.7071 0.7071 -0.7071 0.7071 211.5827 -387.9056)" fill="#1695A4" width="10.7" height="1.6"/>
			<path fill="#A1B400" d="M559.3,70.1c-0.3,1.8-0.2,6.3-3.2,6.8c0,0,6.1,1.4,9.9-0.6c0.9-0.5,1.6-0.9,2.3-1.7
				c1.9-2.2,1.6-5.5-0.6-7.4c-2.2-1.9-5.5-1.6-7.4,0.6C559.8,68.4,559.4,69.2,559.3,70.1z"/>
			<path fill="#FFFFFF" d="M567.8,67.2l5.4-5.4l-3.2-3.2c-1.6,2.7-2.9,4.7-4.7,7.4C566.3,66.2,567.1,66.5,567.8,67.2
				C567.8,67.2,567.8,67.2,567.8,67.2z"/>
			<path fill="#C2D64C" d="M574.4,60.7l23.8-23.8c-1.2-0.9-3.3-0.7-5.5,1.4c-8.2,7.3-13.4,11.8-21.6,19L574.4,60.7z"/>
			<polygon fill="#15B0BF" points="574.4,60.7 571,57.3 570.8,57.1 569.7,58.2 570.1,58.6 573.3,61.8 			"/>
			<path fill="#C2D64C" d="M561.9,72.1c1.6-5.3,5.9-4.8,5.9-4.8c0,0,0,0-0.1-0.1c-0.7-0.6-1.5-1-2.4-1.2c-1.8-0.4-3.7,0.2-5,1.7
				c-0.6,0.7-1,1.5-1.2,2.4c-0.3,1.8-0.2,6.3-3.2,6.8C556.1,76.8,560.4,77.3,561.9,72.1z"/>
		</g>
	</g>
</g>
</svg>
