<?xml version="1.0" encoding="utf-8"?>
<!-- Generator: Adobe Illustrator 17.1.0, SVG Export Plug-In . SVG Version: 6.00 Build 0)  -->
<!DOCTYPE svg PUBLIC "-//W3C//DTD SVG 1.1//EN" "http://www.w3.org/Graphics/SVG/1.1/DTD/svg11.dtd">
<svg version="1.1" id="Layer_1" xmlns="http://www.w3.org/2000/svg" xmlns:xlink="http://www.w3.org/1999/xlink" x="0px" y="0px"
	 viewBox="0 0 204 295.8" enable-background="new 0 0 204 295.8" xml:space="preserve">
<g>
	<path fill="#85BEB2" d="M81.8,221.9c-0.5-0.6-0.9-1.3-1.4-1.9C80.9,220.7,81.3,221.3,81.8,221.9z"/>
	<path fill="#85BEB2" d="M44.9,166.6c-1-1.7-2-3.4-2.9-5.1C42.9,163.2,43.9,164.9,44.9,166.6z"/>
	<path fill="#85BEB2" d="M85.7,227.3c0.2,0.3,0.5,0.6,0.7,0.9c-0.1-0.2-0.3-0.3-0.4-0.5C85.9,227.5,85.8,227.4,85.7,227.3z"/>
	<path fill="#85BEB2" d="M77.9,216.5c0.5,0.7,1,1.4,1.5,2.1c0,0,0,0,0,0C78.9,217.9,78.4,217.2,77.9,216.5z"/>
	<path fill="#85BEB2" d="M83,223.6c0.4,0.5,0.8,1,1.1,1.5c-0.3-0.4-0.6-0.8-0.8-1.1C83.2,223.9,83.1,223.7,83,223.6z"/>
	<path fill="#85BEB2" d="M70.6,206.3c0.8,1.1,1.6,2.2,2.3,3.3h0C72.2,208.6,71.4,207.5,70.6,206.3z"/>
	<path fill="#E7D857" d="M70.5,206.2C62,194,53,180.4,44.9,166.7C53,180.4,62,194,70.5,206.2z"/>
	<path fill="#85BEB2" d="M88.3,230.7c0.1,0.1,0.2,0.3,0.3,0.4c0-0.1-0.1-0.1-0.1-0.2C88.4,230.8,88.4,230.8,88.3,230.7z"/>
	<path fill="#85BEB2" d="M77.1,215.5C77.2,215.6,77.2,215.6,77.1,215.5C77.2,215.6,77.2,215.6,77.1,215.5
		C77.2,215.6,77.1,215.5,77.1,215.5z"/>
	<path fill="#85BEB2" d="M74.1,211.3c0-0.1-0.1-0.1-0.1-0.2c0.9,1.2,1.7,2.4,2.5,3.5c0-0.1-0.1-0.1-0.1-0.2
		C75.6,213.4,74.9,212.4,74.1,211.3z"/>
	<path fill="#85BEB2" d="M73,209.8c0.2,0.2,0.3,0.5,0.5,0.7c0,0,0,0,0,0C73.3,210.2,73.2,210,73,209.8z"/>
	<path fill="#85BEB2" d="M133.9,209.8c-1.4,2-2.8,3.9-4.1,5.7C131.2,213.7,132.6,211.8,133.9,209.8z"/>
	<path fill="#85BEB2" d="M129.1,216.5c-0.5,0.7-1,1.4-1.6,2.1C128.1,218,128.6,217.3,129.1,216.5z"/>
	<path fill="#85BEB2" d="M124.1,223.4c-0.4,0.6-0.9,1.2-1.3,1.7C123.3,224.6,123.7,224,124.1,223.4z"/>
	<path fill="#85BEB2" d="M126.6,220c-0.5,0.7-1,1.3-1.4,1.9C125.6,221.3,126.1,220.7,126.6,220z"/>
	<path fill="#85BEB2" d="M121.7,226.7c-0.4,0.5-0.8,1-1.1,1.5C120.9,227.7,121.3,227.2,121.7,226.7z"/>
	<path fill="#85BEB2" d="M118.4,231.1c0.3-0.4,0.6-0.8,0.9-1.2C119,230.3,118.7,230.7,118.4,231.1z"/>
	<path fill="#F2F2E0" d="M79.4,218.6C79.4,218.6,79.4,218.6,79.4,218.6c0.2,0.3,0.4,0.5,0.6,0.8C79.8,219.1,79.6,218.9,79.4,218.6z"
		/>
	<path fill="#F2F2E0" d="M87.6,229.8c0.2,0.3,0.4,0.6,0.7,0.9c0.1,0.1,0.1,0.1,0.2,0.2C88.2,230.5,87.9,230.2,87.6,229.8z"/>
	<path fill="#F2F2E0" d="M82.6,223c0.1,0.2,0.3,0.4,0.4,0.6c0.1,0.1,0.2,0.3,0.3,0.4C83.1,223.7,82.8,223.3,82.6,223z"/>
	<path fill="#F2F2E0" d="M73.5,210.4C73.5,210.5,73.5,210.5,73.5,210.4c0.2,0.3,0.3,0.5,0.5,0.7c0,0.1,0.1,0.1,0.1,0.2
		C73.9,211,73.7,210.7,73.5,210.4z"/>
	<path fill="#85BE6D" d="M84.4,107.4c0.3-26.6,4.4-56.1,12.5-83.3c-3.6,1-7.2,2.2-10.7,3.6c-26.8,14-45.2,42-45.2,74.3
		c0,27.2,29,73.8,52.8,107.6h2.6C94.8,202.8,83.8,159.7,84.4,107.4z"/>
	<path fill="#F2F2E0" d="M76.4,214.5c0,0.1,0.1,0.1,0.1,0.2c0.2,0.3,0.4,0.6,0.6,0.9c0,0,0,0,0,0C76.9,215.2,76.6,214.8,76.4,214.5z
		"/>
	<path fill="#F2F2E0" d="M85.1,226.4c0.2,0.3,0.4,0.5,0.6,0.8c0.1,0.1,0.2,0.3,0.3,0.4C85.7,227.3,85.4,226.9,85.1,226.4z"/>
	<path fill="#E7D857" d="M73.4,209.7c-10.4-14.8-21.8-32-31.4-48.9c0,0.3-0.1,0.5-0.1,0.8l0,0c0,0,0,0,0,0c1,1.7,1.9,3.4,2.9,5.1
		c0,0,0,0.1,0,0.1c8,13.7,17.1,27.3,25.6,39.5c0,0.1,0.1,0.1,0.1,0.2c0.8,1.1,1.6,2.2,2.3,3.3H73.4z"/>
	<path fill="#85BE6D" d="M110.3,21.7c5.3,15.1,29.5,93.8-0.3,187.9h5.4c23.9-33.8,53.2-80.8,53.2-108.2
		C168.6,64.1,144.1,32.5,110.3,21.7z"/>
	<path fill="#E7D857" d="M73.4,209.7h20.4C69.9,175.9,40.9,129.3,40.9,102c0-32.3,18.3-60.4,45.2-74.3c3.5-1.4,7.1-2.6,10.7-3.6
		c-8,27.2-12.2,56.7-12.5,83.3c-0.6,52.3,10.4,95.4,12,102.2H110c29.8-94.1,5.6-172.8,0.3-187.9c33.8,10.8,58.3,42.4,58.3,79.8
		c0,27.4-29.3,74.3-53.2,108.2H134c23.9-33.8,53.2-80.8,53.2-108.2c0-46.3-37.5-83.8-83.8-83.8c-1.6,0-3.1,0.1-4.7,0.1
		c0,0-0.1,0-0.1,0c-44,2.5-79,39-79,83.6c0,15.6,9.6,37.7,22.2,60c0-0.3,0.1-0.5,0.1-0.8C51.6,177.7,63,194.9,73.4,209.7z"/>
	<path fill="#CA5627" d="M120.6,228.2c0.4-0.5,0.7-1,1.1-1.5c0.4-0.5,0.8-1,1.1-1.5c0.4-0.6,0.9-1.1,1.3-1.7c0.3-0.5,0.7-1,1.1-1.4
		c0.5-0.6,0.9-1.3,1.4-1.9c0.3-0.4,0.7-0.9,1-1.3c0.5-0.7,1-1.4,1.6-2.1c0.2-0.3,0.5-0.7,0.7-1c1.3-1.9,2.7-3.8,4.1-5.7
		c0,0,0.1-0.1,0.1-0.1l0,0h-18.7H110H96.4h-2.6H73.4h-0.5h0l0,0c0,0,0.1,0.1,0.1,0.1c0.2,0.2,0.3,0.4,0.5,0.6
		c0.2,0.3,0.4,0.6,0.6,0.8c0.8,1.1,1.5,2.1,2.3,3.2c0.3,0.4,0.5,0.7,0.8,1.1c0,0,0,0,0,0.1c0.2,0.3,0.4,0.6,0.7,0.9
		c0.5,0.7,1,1.4,1.5,2.1c0.2,0.3,0.4,0.5,0.6,0.8c0.1,0.2,0.3,0.4,0.4,0.6c0.5,0.7,0.9,1.3,1.4,1.9c0.3,0.3,0.5,0.7,0.8,1
		c0.3,0.3,0.5,0.7,0.7,1c0.3,0.4,0.6,0.8,0.8,1.1c0.3,0.4,0.7,0.9,1,1.3c0.3,0.4,0.6,0.8,0.9,1.2c0.1,0.2,0.3,0.4,0.4,0.5
		c0.4,0.5,0.8,1.1,1.2,1.6c0.3,0.4,0.6,0.7,0.8,1.1c0,0.1,0.1,0.1,0.1,0.2c0.7,0.9,1.4,1.9,2.1,2.7V275H91h1.7h21.6h2v-14.6v-26.5
		h0.1c0.7-0.9,1.4-1.8,2.1-2.7c0.3-0.4,0.6-0.8,0.9-1.2C119.7,229.3,120.1,228.8,120.6,228.2z M114.2,260.4H92.7v-26v-0.6h4.9h1.3
		h15.3V260.4z"/>
</g>
</svg>
