<?xml version="1.0" encoding="utf-8"?>
<!-- Generator: Adobe Illustrator 17.1.0, SVG Export Plug-In . SVG Version: 6.00 Build 0)  -->
<!DOCTYPE svg PUBLIC "-//W3C//DTD SVG 1.1//EN" "http://www.w3.org/Graphics/SVG/1.1/DTD/svg11.dtd">
<svg version="1.1" id="Слой_1" xmlns="http://www.w3.org/2000/svg" xmlns:xlink="http://www.w3.org/1999/xlink" x="0px" y="0px"
	 viewBox="0 0 134.4 111.8" enable-background="new 0 0 134.4 111.8" xml:space="preserve">
<path fill="#E84920" d="M49.8,108.8c-10,0-19.6-1.8-28.5-5.2c3.7-9.5,5.5-19.7,5.4-30.4c0-3.9-2.4-8-5.9-8c-1.2,0-2.5,0.5-3.7,1.5
	c-1.1,0.9-4.1,2.7-7.1,2.7c-5.8,0-7.2-7.1-7.2-13.1c-0.1-5.7,0.9-9.6,3-11.7c1.1-1.1,2.5-1.6,4.1-1.6c2.9,0,5.8,1.7,7,2.5
	c1.2,1,2.4,1.4,3.6,1.4c1.2,0,2.4-0.5,3.3-1.5c1.5-1.5,2.5-4.2,2.4-6.7C26.1,28.1,24,17.9,20.1,8.5c9.2-3.8,19.1-5.8,29.5-5.9h0
	c2.6,0,5.1,1.2,5.9,2.7c0.5,1,0.2,2.1-0.8,3.4c-2,2.5-4.2,7.7-2.2,11.7c1.8,3.7,6.5,5.6,14,5.6l0.6,0c7.8-0.1,12.6-2.1,14.4-5.9
	C83.3,16,81,10.9,79,8.4C78,7.2,77.7,6,78.1,5c0.7-1.6,3.3-2.8,5.8-2.9c0.4,0,0.7,0,1.1,0c10,0,19.6,1.8,28.5,5.2
	c-3.7,9.5-5.5,19.7-5.4,30.4c0,3.9,2.4,8,5.9,8c1.2,0,2.5-0.5,3.7-1.5c1.1-0.9,4.1-2.7,7.1-2.7c5.8,0,7.2,7.1,7.2,13.1
	c0.1,5.7-0.9,9.6-3,11.7c-1.1,1.1-2.5,1.6-4.1,1.6c-2.9,0-5.8-1.7-6.9-2.5c-1.2-1-2.4-1.4-3.6-1.4c-1.2,0-2.4,0.5-3.3,1.5
	c-1.5,1.5-2.5,4.2-2.4,6.7c0.1,10.7,2.2,20.8,6.1,30.2c-9.2,3.8-19.1,5.8-29.5,5.9c0,0,0,0,0,0c-2.6,0-5.1-1.2-5.9-2.7
	c-0.5-1-0.2-2.1,0.8-3.4c2-2.5,4.2-7.7,2.2-11.7c-1.8-3.7-6.5-5.6-14-5.6l-0.6,0C60,85,55.1,87,53.4,90.8c-1.9,4.1,0.4,9.2,2.5,11.7
	c1,1.2,1.3,2.4,0.8,3.4c-0.7,1.6-3.3,2.8-5.8,2.9C50.5,108.8,50.2,108.8,49.8,108.8z"/>
</svg>
