<?xml version="1.0" encoding="utf-8"?>
<!-- Generator: Adobe Illustrator 17.1.0, SVG Export Plug-In . SVG Version: 6.00 Build 0)  -->
<!DOCTYPE svg PUBLIC "-//W3C//DTD SVG 1.1//EN" "http://www.w3.org/Graphics/SVG/1.1/DTD/svg11.dtd">
<svg version="1.1" id="Layer_1" xmlns="http://www.w3.org/2000/svg" xmlns:xlink="http://www.w3.org/1999/xlink" x="0px" y="0px"
	 viewBox="0 0 2008 1374.8" enable-background="new 0 0 2008 1374.8" xml:space="preserve">
<g>
	<path fill="#ffffff" d="M223.1,1122.5c-60.8,0-113.8-22.6-157.4-67.1C22.1,1011,0,957.1,0,895.3c0-62.4,22.1-116.2,65.8-159.8
		c43.6-43.6,97.4-65.8,159.8-65.8c65.2,0,118.7,22.1,158.8,65.6c3.9,3.9,7,7.7,9.1,11.3l3.1,5.1l-1.9,5.7c-1.6,4.7-5,8.6-10.5,11.9
		l-5.1,3l-5.6-1.9c-3-1-6.1-2.7-9.5-5.3l-0.7-0.5l-0.6-0.6c-39.5-39.5-84.3-58.6-137-58.6c-53.3,0-97.3,18.1-134.6,55.3
		c-37.2,37.2-55.3,81.3-55.3,134.6c0,53.4,18,97.7,55,135.5c37,37.7,80.8,56.1,134.1,56.1c25.4,0,51.3-5.7,76.9-17l0.2-0.1
		c22.8-9.6,43.5-24.1,61.3-43l1-1l9.4-6.3h3.9c10.5,0,17.8,7.7,17.8,18.7c0,7.8-4.4,15.5-27.9,34
		C324.8,1105.6,276.2,1122.5,223.1,1122.5z"/>
	<path fill="#ffffff" d="M467.6,1112.7c-11,0-18.7-7.7-18.7-18.7V558.6c0-11.5,7.7-19.5,18.7-19.5c8.6,0,17.8,6.1,17.8,19.5V1094
		C485.5,1105,478.1,1112.7,467.6,1112.7z"/>
	<path fill="#ffffff" d="M752.3,1122.5c-61.9,0-115.5-22.4-159.4-66.6c-43.9-44.2-66.2-98.2-66.2-160.6
		c0-62.4,22.3-116.2,66.2-159.8c43.9-43.6,97.8-65.7,160.2-65.7c60.1,0,113.3,21.8,158,64.8c44.9,43.1,67.6,95.6,67.6,155.9
		c0,10.5-7,21.1-22.8,21.1H618.5c-11,0-18.7-7.3-18.7-17.8c0-10.5,7.7-17.8,18.7-17.8h323.8c-4.2-45.8-22.9-84.2-56.9-117
		c-37.3-36-80.5-53.5-132.3-53.5c-52.8,0-96.8,18.2-134.6,55.8c-37.8,37.5-56.1,81.4-56.1,134.1c0,52.8,18.4,97,56.2,135
		c37.8,38,81.5,56.5,133.7,56.5c45.4,0,87.7-15.6,125.7-46.4l0.4-0.3c3.3-2.5,6.4-4.2,9.4-5.2l1-0.3l1-0.2c1.2-0.2,2.3-0.3,3.4-0.3
		c9.6,0,16.5,7.2,16.5,17.1c0,8.1-5.7,14.8-23.4,27.7C847.1,1107.8,802,1122.5,752.3,1122.5z"/>
	<path fill="#ffffff" d="M1154.7,1115.9c-8,0-14.7-4.6-17.7-12.2c-52.3-133.4-92.1-235.1-118.3-302.3
		c-40.3-103.3-40.3-103.3-40.3-106.5c0-9.9,7.5-17,17.8-17c7.5,0,13.8,4.5,16.9,12.1l141.2,359.6l141.6-360.7l0.8-1.1
		c2.3-3.5,5.7-6.4,9.9-8.5l2.7-1.4h3.1c10.3,0,17.8,7.2,17.8,17c0,3.2,0,3.2-40.1,106.5c-25.9,66.6-65.4,168.3-117.6,302.2l-0.4,1
		l-0.6,0.9C1166.1,1114.6,1158.7,1115.9,1154.7,1115.9z"/>
	<path fill="#ffffff" d="M1561.2,1122.5c-61.9,0-115.5-22.4-159.4-66.6c-43.9-44.2-66.2-98.2-66.2-160.6
		c0-62.4,22.3-116.2,66.2-159.8c43.9-43.6,97.8-65.7,160.2-65.7c60.1,0,113.3,21.8,158,64.8c44.9,43.1,67.6,95.6,67.6,155.9
		c0,10.5-7,21.1-22.8,21.1h-337.5c-11,0-18.7-7.3-18.7-17.8c0-10.5,7.7-17.8,18.7-17.8h323.8c-4.2-45.8-22.8-84.2-56.8-117
		c-37.3-36-80.5-53.5-132.3-53.5c-52.8,0-96.8,18.2-134.6,55.8c-37.8,37.5-56.1,81.4-56.1,134.1c0,52.8,18.4,97,56.2,135
		c37.8,38,81.5,56.5,133.7,56.5c45.4,0,87.7-15.6,125.7-46.4l0.4-0.3c3.3-2.5,6.4-4.2,9.4-5.2l1-0.3l1-0.2c1.2-0.2,2.3-0.3,3.4-0.3
		c9.6,0,16.5,7.2,16.5,17.1c0,8.1-5.7,14.8-23.4,27.7C1656,1107.8,1610.9,1122.5,1561.2,1122.5z"/>
	<path fill="#ffffff" d="M1844.8,1112.7c-10.5,0-17.8-7.7-17.8-18.7V698.2c0-13.4,9.2-19.5,17.8-19.5c8.6,0,17.8,6.1,17.8,19.5
		c0,25.6-0.1,47.7-0.2,66.4c18.9-30,45.9-53.6,81-70.6c20.1-9.7,35.6-14.4,47.5-14.4c9.9,0,17,7.5,17,17.8c0,4.4-1.8,14.9-18.3,18.3
		c-28.8,7.1-53,19.8-72,37.8c-21.3,19.8-36.7,44.1-45.8,72.5c-6.2,20.6-9.3,51.1-9.3,90.6V1094
		C1862.7,1105,1855.3,1112.7,1844.8,1112.7z"/>
	<g>
		<g>
			<path fill="#ffffff" d="M1281.8,1367v-12.4c3.9,3.4,8.6,6,14.1,8c5.5,1.9,10.3,2.9,14.4,2.9c18,0,27-7.4,27-22.1
				c0-5.1-2-9.4-5.9-13c-4-3.6-10.4-7.3-19.3-11.1c-11-4.8-18.7-9.7-23.1-14.9c-4.4-5.1-6.7-11.3-6.7-18.7c0-9.3,3.6-16.9,10.7-22.7
				c7.1-5.8,15.9-8.6,26.4-8.6c9.9,0,18.3,2,25.3,6.1v11.7c-8.5-5.5-17.3-8.3-26.5-8.3c-7.6,0-13.6,2-18.3,5.9c-4.6,3.9-7,9-7,15.3
				c0,5.5,1.5,9.9,4.4,13.3c2.9,3.4,9.3,7.3,19.3,11.7c12,5.4,20.2,10.4,24.7,15c4.5,4.6,6.7,10.7,6.7,18.3
				c0,9.1-3.4,16.7-10.3,22.6c-6.8,5.9-16.3,8.9-28.3,8.9C1298.4,1374.8,1289.2,1372.2,1281.8,1367z"/>
			<path fill="#ffffff" d="M1422.9,1374.8c-16.7,0-30-5.5-39.7-16.5c-9.8-11-14.6-25.4-14.6-43c0-19.1,5.1-34,15.3-44.7
				c10.2-10.8,23.6-16.1,40.3-16.1c16.4,0,29.3,5.3,38.8,16c9.5,10.7,14.2,25.5,14.2,44.4c0,17.9-4.8,32.3-14.5,43.4
				C1453,1369.3,1439.7,1374.8,1422.9,1374.8z M1423.7,1263.8c-13.5,0-24.3,4.6-32.3,13.7c-8,9.1-12.1,21.8-12.1,38
				c0,15,3.9,27.1,11.8,36.2c7.8,9.1,18.6,13.7,32.2,13.7c13.8,0,24.5-4.5,32-13.5c7.5-9,11.2-21.4,11.2-37.3
				c0-16.4-3.7-28.9-11.2-37.7C1447.8,1268.2,1437.3,1263.8,1423.7,1263.8z"/>
			<path fill="#ffffff" d="M1505.6,1372v-170h10.3v170H1505.6z"/>
			<path fill="#ffffff" d="M1628.5,1372v-20.8h-0.5c-8,15.8-20.3,23.7-37,23.7c-27.1,0-40.7-17.1-40.7-51.2v-66.4h10.4v63.8
				c0,15.5,2.6,26.8,7.7,33.9c5.1,7,13.2,10.5,24.2,10.5c10.7,0,19.3-3.9,26-11.8c6.6-7.8,9.9-18.3,9.9-31.4v-65h10.3V1372H1628.5z"
				/>
			<path fill="#ffffff" d="M1721,1370.4c-5.4,2.5-10.4,3.8-15.1,3.8c-17,0-25.5-10.2-25.5-30.5v-77.1h-20.6v-9.4h20.6v-29.8
				c1.6-0.6,3.4-1.2,5.2-1.8c1.8-0.5,3.5-1.1,5.2-1.7v33.3h30.3v9.4h-30.3v75.8c0,7.9,1.3,13.7,3.8,17.2c2.5,3.5,6.7,5.3,12.7,5.3
				c4.3,0,8.9-1.4,13.8-4.1V1370.4z"/>
			<path fill="#ffffff" d="M1743.8,1372v-114.8h10.3V1372H1743.8z"/>
			<path fill="#ffffff" d="M1836.9,1374.8c-16.7,0-30-5.5-39.7-16.5c-9.8-11-14.6-25.4-14.6-43c0-19.1,5.1-34,15.3-44.7
				c10.2-10.8,23.6-16.1,40.3-16.1c16.4,0,29.3,5.3,38.8,16c9.5,10.7,14.2,25.5,14.2,44.4c0,17.9-4.8,32.3-14.5,43.4
				C1867,1369.3,1853.8,1374.8,1836.9,1374.8z M1837.7,1263.8c-13.5,0-24.3,4.6-32.3,13.7c-8,9.1-12.1,21.8-12.1,38
				c0,15,3.9,27.1,11.8,36.2c7.8,9.1,18.6,13.7,32.2,13.7c13.8,0,24.5-4.5,32-13.5c7.5-9,11.2-21.4,11.2-37.3
				c0-16.4-3.7-28.9-11.2-37.7C1861.9,1268.2,1851.3,1263.8,1837.7,1263.8z"/>
			<path fill="#ffffff" d="M1997.7,1372v-66.8c0-27.6-9.9-41.4-29.8-41.4c-11.1,0-20.1,4.1-27.2,12.2c-7.1,8.1-10.7,18.1-10.7,30.1
				v65.9h-10.3v-114.8h10.3v20.9h0.4c8.4-15.8,21.5-23.7,39.2-23.7c12.4,0,21.9,4.1,28.5,12.4c6.6,8.3,9.9,20,9.9,35.4v69.8H1997.7z
				"/>
		</g>
		<polygon fill="#ffffff" points="1748.7,1202 1754.8,1219.6 1773.4,1220 1758.6,1231.2 1764,1249 1748.7,1238.4 1733.4,1249 
			1738.8,1231.2 1724,1220 1742.6,1219.6 		"/>
	</g>
	<g>
		<path fill="#ffffff" d="M1354.8,257.4c11.1-0.5,14,6.1,17.2,15.2c1.3,3.8,3.8,8.9,3,5c-1.7-9-2.8-20.2-10.3-23.7
			c2.1-1.2,24.1-16.5,31.5-23.1c9.6-8.6,21.2-20.2,14.3-37.5c-1.5-3.7-4.1-8.6-1.7,0c2.7,9.5-1.6,17-7.5,23.7
			c2.3-4.6,3.4-13.4,3-19.3c-1.1-17-1.5-8.6-1.3-4.6c1.7,27.2-17.7,51-51.8,63.5C1348.4,257.6,1352.6,257.5,1354.8,257.4z"/>
		<path fill="#ffffff" d="M1341.9,279.5c6,9.7,19.2,16.9,23.6,27.5c1.5,3.7,2.7,3.5,1.1-0.3c-3.6-8.8-9.5-16.2-14.9-23.9
			c-6.7-9.5-10.5-18.8-13.7-29.9c-6.5-22.6-15.8-52.5-8.6-75.6c1.2-3.9-1-0.3-2.2,3.6c-6.8,22-2.8,45.3,3,67
			C1333,259,1335.9,269.8,1341.9,279.5z"/>
		<path fill="#ffffff" d="M1089.9,393.7c10.3-6.4,12.4-15.6,22.2-35.1c2.5-5,17.1-7.5,21.8-4c3.3,2.4,3.8,1.2,0.3-0.9
			c-5.9-3.5-23.2,1.4-23.9,0.9c-2.2-1.6,1-5.2,1.3-7.8c1.2-9.9-0.4-20-1.1-29.9c-0.6-8.3-6.1-27.8,1.3-33.7c3.2-2.5,2.8-2.9-0.4-0.4
			c-6.2,4.9-7.1,15.2-7.5,22.5c-0.6,10.4,1.2,20.9,1.7,31.2c0.8,18-2.8,44.1-16.3,56.4C1086.2,395.7,1086.4,395.8,1089.9,393.7z"/>
		<path fill="#ffffff" d="M1747.2,236.8c0.5,0.6,0.9,1.3,1.4,1.9c2.3,4.3,5.5,8.2,9,10.9c4,3.2,9,3.8,14,3.3c3.1-0.3,6.2-1,9.3-1.1
			c4.6-0.2,8.3,2.9,11.7,5.6c3.2,2.5,7.6-2,4.4-4.5c-2.4-1.8-4.8-4-7.6-5.4c-0.4-0.6-0.9-1.2-1.8-1.4c-6.1-1.9-11.1-4.8-17.7-4.8
			c-4.3,0-8.6,1.4-12.4-1.5c-1-0.8-1.9-1.8-2.7-2.9c-2.1-3.5-3.7-7.6-3.4-11.7c0.3-4.1-6-4-6.3,0c-0.2,3,0.4,6.2,1.4,9.2
			C1746.5,235.2,1746.6,236,1747.2,236.8z"/>
		<path fill="#ffffff" d="M1702.3,323.6c7.3-2.1,5.9-8.9,9.9-13.4c9.9-11.2,32.4,9.5,33.2,25.1c0.7,14.2-14.7,27.1-21.7,38.1
			c-2.2,3.4-1.5,3.9,0.6,0.5c9-14.1,32.1-26.9,26.1-45.6c-5.1-15.8-30.6-27.5-37.8-22.4c-1.8,1.3-3.4-10.4-5-13.8
			c-1.7-3.7-2.3-3.3-0.6,0.3c1.3,2.9,5.7,24.1-5,30.7C1698.7,325.1,1698.4,324.7,1702.3,323.6z"/>
		<path fill="#ffffff" d="M1846.1,329.4c1.9-4,4-7.8,5.3-12c2-6.3,0.9-13.4,0-19.7c-1.6-11-5.8-22.7-17.3-26.2
			c0.3-1.2,0.6-2.4,0.8-3.7c1.1-6.6,0.2-14.1-2.4-20.2c-5.3-12.5-18.9-16.2-25.9-27c-0.3-0.5-0.7-0.9-1.2-1.1
			c-1.2-5.3-3.6-9.9-6.6-14.4c-6.8-10.2-15.3-19.2-24.3-27.4c-9.3-8.4-20.4-14.8-29.2-23.7c-1.6-1.6-18.7-20-26.1-24.9
			c-5.3-3.6-11.2-6.3-16.6-9.7c-5.6-3.5-10.8-7.8-15.8-12.1c-9-7.7-17.7-15.9-27.6-22.5c-16.6-11.2-41.6-19-61.8-13.8
			c-5.6-3-9.9-7.7-14.6-11.9c-4.4-4-9.3-6.7-14.9-8.8c-13.2-5-28.6-6.1-42.5-7.8c-5.9-0.7-13.5-1.2-19.2,1.2
			c-7.1,3.1-13,8.2-20.9,4.3c-5.9-2.9-11.4-5.8-17.9-7.4c-7.3-1.8-15-1.5-22.4-0.9c-6.7,0.6-21.6,2.1-22.3,2.4
			c-6.4,0.5-12.8,0.1-19.3,1.1c-13.4,2-25.9,8.5-38.7,12.9c-12.5,4.2-25.9,4.1-38.1,9.4c-5.2,2.2-10.5,5.1-13.9,9.7
			c-2.7,3.7-5.8,12-7.6,11.7c-20.5-3.6-39.3,5.7-57.6,14.3c-14.7,6.9-26.2,12.9-31.5,33.5c-0.4,1.4-5.9,2.1-7.4,2.4
			c-9.7,1.7-15,6-21,13.6c-6.8,8.7-12.9,17.3-20.8,25.2c-7.9,8-16.5,15.3-23.7,24.1c-7.5,9.2-15.7,17.6-23.6,26.5
			c-6.5,7.4-12.6,16-16.3,25.1c-1.5,3.7-0.7,8.1-2.8,11.3c-7.3,10.9-21.1,14.6-26.1,27.1c-6.8,16.9-1.3,43.3-3.1,55.6
			c-1.4,9.5-14.6,11.7-18,21c-5.1,14,6.8,42.2,7.8,42.6c-3.5,15.7-3,30.9,12.2,37.7c0.1,0.1,0.1,0.2,0.1,0.3c7.4,13,21,14,33.5,16.3
			c9,1.7-6.5,16.5-8.7,25.6c-2.7,11,0.4,22.5,3.8,33c1.6,5.2,3.3,10.3,4.5,15.6c1.1,4.7,1,6.5,3.2,8.1c2.6,12.8,4,25.9,7.7,38.5
			c2.6,8.7,4.2,20.2,10.6,27c8.3,8.8,20.9,11,28.8,20.3c6.2,7.4,11.5,15.5,18.5,22.1c16.6,15.7,43.4,18.1,65,15.3
			c21.6-2.7,34.6-11.8,61.9-19.5c1.9-0.5-3,2.7-4.4,4.1c-14.5,14.6-19.3,34.4-22.9,54c-0.7,4,3.1-3.5,3.9-7.5
			c2.2-11.4,6.6-13.7,11.4-24.3c5-10.9,13.1-19.7,22.7-26.8c12.7-9.4,24.2-18.9,36.8-27.6c1.3-0.9,3.5-3.1,5.9-3.3
			c12.8-1,32.3,10.8,33.4,13.6c4.7,12.6-11,21.4-18.9,29.3c-10.1,10.2-10.5,16.1-18.9,27.8c-2.4,3.3-5.8,11.6-3.5,8.3
			c9.8-13.7,22.1-25.4,33.4-38c16.6-18.5,9.9-22.2,13.9-26.4c2.8-2.8,18.7,1.2,27.8-3c24.1-11.1,30.9-41.2,54.6-51.8
			c3.5-1.6,16.2,6.2,21.6,9.8c22.9,15.5,49.7,53.8,81.5,36.6c4.4-2.4,6.8-6.8,8.4-11.3c2.6-7.1,4.4-13,10.2-18.2
			c10.5-9.4,26.1-12.3,38.6-18.3c11.7-5.6,20.8-14.3,26.6-24.8c0.1-0.1,0.2-0.3,0.3-0.4c0.7-1.2,1.3-2.5,1.8-3.8
			c2.3-5.1,3.9-10.5,4.8-16.1c0.5-0.5,0.9-1.2,0.8-2.2c-0.1-5,1.3-9.7,0.6-14.3c-0.3-2.2,10.5-0.2,15.2,0.8c5.7,1.2,11.3,3,17.1,3.7
			c16.1,2.1,31.1-2.7,46.3-7.1c26.3-7.6,55.5-10,68.8-37.6c3-6.2,5.4-12.5,8.6-18.6c3.5-6.6,6.8-12.9,8.1-20.3
			c3-17.2,9.7-33.3,13.4-50.3c2.1-10,2.1-20.4,1.8-30.6C1851.8,347.3,1852.1,335,1846.1,329.4z M1845.8,303.7
			c0.8,6.9-0.4,12.4-3.2,18.7c-0.9,2-1.5,3.9-2.8,5.9c-0.7,1.1-0.8-2.4-1.1-3.6c-1-4.3-0.5-8.9-1.2-13.3c-1.1-6.7-4-11.7-8.1-17
			c-0.3-0.4-0.6-0.8-1-1.2c0.4-1,0.3-2.2-0.5-3.3c-2.7-3.4,2.2-9.3,3.8-12.2c0.1-0.1,0.1-0.2,0.2-0.3
			C1843.1,280.7,1844.7,293.8,1845.8,303.7z M1766.7,179.5c9.5,8,18.1,17,25.4,27.1c3.7,5.1,6.2,10.2,7.5,16.5
			c0.9,4.4,1.3,8.8,2,13.1c-0.3,0.2-0.6,0.5-0.9,0.9c-3.8-1.3-7.3-3-10.5-4.8c-0.3-0.9-0.9-1.7-2.1-2c-0.7-0.2-1.4-0.5-2.1-0.7
			c-14.5-10.3-23.3-26.3-33.2-42.3c-4.8-7.8-10.5-15.3-17.6-21.2c0-0.1-0.1-0.1-0.1-0.2c-2.4-3.1-0.7-8.5,3.9-7.9
			C1742.4,158.3,1758.1,172.2,1766.7,179.5z M1695,143.8c-16.5-10.4-37.7-32.3-45.5-36.8c-10.7-6.2,22.9,9.6,33.8,15.4
			c9.2,4.8,17.1,10.3,25.4,16.4c6.2,4.5,9,1.9,20.6,10c0,0,0,0,0,0c15.1,10.5-7,10.4-15.1,5.6C1714.2,154.3,1700.9,147.5,1695,143.8
			z M1528.2,83c0.6-3.4,10-10.9,10.8-11.4c6.3-3.6,8.7,1.1,22.5-0.3c19.4-2-21.5,17.2-30.4,15.8C1529.4,86.8,1527.9,84.6,1528.2,83z
			 M1659.4,92.7c7.7,5.4,10.8,7.4,21.8,18.2c3.4,3.4-8.7-3.9-13.1-5.8c-12.6-5.5-24.7-11.2-36.7-17.8c-25.2-13.9-41.8-6.9-32.8-9.9
			C1618.4,70.7,1643,81.2,1659.4,92.7z M1250.9,106.6c15.8-7.5,47.4-21.7,51.7-13.7c2.6,4.8-7.5,4.2-15.1,9.5
			c-7.1,4.9-1.1,2.1,2.2,0.7c19.6-8.4,45.1-7.4,64.1-1.6c7.7,2.4,0.6-4.9-42.9-8.3c-4.7-0.4,4.8-11.7,8.2-15.5
			c4.3-5,11.8-7.3,17.9-9.1c5.9-1.7,11.9-2.4,17.9-3.4c6.6-1.1,13-3.4,19.3-5.8c11.8-4.5,23.5-9.7,36.2-10.7c4.1-0.3,8.5-2,12.3-0.5
			c6.9,2.8,10.4,10.7,14.4,17.1c2.1,3.3,3.8,7.3,3,11.3c-1,4.7-7.3,7.3-11,9.5c-6.7,3.9-11.1,8.8-10.9,16.9
			c0.1,4.3,3.5,5.8,3.7,11.6c0.1,2.7-16.1-9.6-20.2-17c-2-3.6-2.9-3.2-0.9,0.4c4,7.2,6,9.8,12.8,14.9c4.4,3.3,23.5,18.2,24.8,19.4
			c4,3.5,13.2,7.4,9.1,9.9c-3,1.8-11.4,3.7-15.8,9.9c-2.3,3.3-2.4,3.2,0.5,0.3c5.9-5.9,14.9-5.4,23.5-4.7c7.8,0.7,14.8,3,22.6,2.3
			c2.6,6.7,6.1,13.2,9.3,19.5c4.1,8.2,7.2,16.7,10.7,25.1c3.3,8.1,8,15.6,11.8,23.5c7.8,16.4,12.3,36.1,14.3,54.1
			c0.8,7.6,0.5,17.5-8.6,19.6c-5.5,1.2-20.4,2.9-23.9-2.1c-2.3-3.3-3.1-2.9-0.8,0.5c2.4,3.4,6.7,6,11.5,7.4c0.4,0.5,0.9,0.9,1.8,1.1
			c7.4,1.2,7.3,12,8.7,17.9c-1.2,3.7,5.6,4.6,5.7,8.2c0.1,4.1,0.7,3.9,0.6-0.2c0-1.4-1-3.6-0.7-4.8c1.1-4,2.7-7.3,5.7-10.2
			c3.5-3.4,7.6-4.4,9.6-9.1c2.4-5.5,3.5-11.5,5.6-17.2c2.6-6.9,6.5-13.3,11.1-19c9.1-11.2,21.5-16.3,32.8-24.6
			c4.3-3.1,4.1-10.3,5.9-15.2c2.2-5.7-0.5-14.8,3.4-19.7c2.5-3.1,2-3.5-0.5-0.3c-3.5,4.3-3.8,9.7-4.4,15c-0.4,3-1.1,5.5-2.2,7.8
			c-4,6.2-12.6,8.5-18.8,12c-7.7,4.4-13.2,12-21.6,15.3c-6.4,2.5-13-5.8-16.1-10.1c-3.8-5.3-6.6-11.4-8.5-17.6
			c-0.2-0.8-3.2-7.1-4.4-9.8c-4.8-11.1-11.2-21.3-15.5-32.7c-3.3-8.6-7.3-16.7-11.4-24.9c-4.6-9.2-14.9-19-14.2-29.5
			c0.3-4-0.4-4.1-0.7-0.1c-0.3,4.2,0.2,8.3,1.1,12.3c-5.1,1.1-11.7-1.7-16.3-3.3c-8.1-2.7-13.2-8.2-19.7-13.4c-2-1.6-9.2-4.1-11-5.9
			c-6.6-6.2-8.8-15.6-2.5-23.5c5-6.3,14-7.5,18.5-14.7c7-11.1-13.6-21.1-13.9-33.7c-0.1-3.3,13.6-1.8,20.5-2
			c7.1-0.3,13.9,1,20.7,3.1c21.3,6.4,17.8,9.1,17.5,9.8c-4.4,8.1-27.3-1.3-34.7,10.5c-2.2,3.5-2,5.1,0.1,1.6
			c3.9-6.3,14.5-5.9,20.9-6.1c19.8-0.8,27.7,3.9,30.7,5.3c3.7,1.6,7.6,1.9,3.9,0.2c-5.1-2.2-16.2-9-14.9-14.4c0.4-1.8,3.6-1.3,5.3-2
			c3.3-1.5,6.2-3.5,9.8-4.4c4-1,8.3-0.7,12.4-0.4c13.4,0.9,28.1,3.2,40.9,7.1c8.7,2.6,28.1,18.2,20.8,14.1
			c-30.1-16.7-34,4.5-49.1-3.2c-3.1-1.6-10.2-10-22-8.3c-4,0.6-3.9,1.1,0.1,0.8c3-0.2,13.2,2.6,13.1,10.1c-0.1,3.2-4.7,6.7-7.3,8
			c0,0-0.1,0.1-0.1,0.1c-2.3-0.8-18.4-6.5-22.8-3.6c-3.4,2.2,0.5-0.7,4.5,0c2.6,0.4,17.6,5.1,17.8,9.8c0,2.6,1.3,5.5,2.2,7.8
			c0.5,1.3,3.2,4.5,1.7,4.1c-3-0.6-3.7-0.9-5.6-1.2c-10.5-1.4-20.1,2.8-29.7,6.5c-10.1,4-31.1,11.8-40.6,3.3c-3-2.7-0.9,0.4,2.1,3.1
			c16.7,14.9,39.5-2.1,57.1-6.2c13.2-3.1,25.4,4.1,35.2,12.1c10.4,8.4,21.3,17.5,30,27.6c2.7,3.1,7.1-1.4,4.4-4.5
			c-8.4-9.7-18.8-18.1-28.6-26.5c-3.6-3.1-11.5-7.6-13.8-11.7c-1.8-3.3,2.5-5.1,5.8-7.5c3.5-2.5,8.7-3.1,12.8-4
			c4-0.9,8-2.8,12.1-2.6c0.3,0,25.3,0,37.2,2.6c12.9,2.9,24.3,10.1,34.9,17.8c21,15.1,38.3,34.7,60.6,48
			c4.4,2.6,28.6,13.7,33.6,17.7c10.1,8,16.6,19.7,23,30.5c3,5.2,6.2,10.1,9.6,14.8c-2.9-1.5-5.9-2.9-9-4.2c-0.4-0.2-0.9-0.3-1.2-0.2
			c-1.2-1-2.3-1.9-3.4-2.9c-3-2.7-7.4,1.7-4.4,4.4c10.8,9.9,24.1,17.9,38,22.7c5.3,3.6,11.1,6.5,17.8,8.6c0.4,0.1,0.7,0.1,1.1,0.1
			c2.6,8.7,0.1,19.7-2.4,27.8c-3.4,11.1-11.8,26.6-23.6,25.8c-6-0.4-20.3-16.9-30.1-22.8c-2.7-1.6-20.3-8.6-37.6-14l0,0
			c-4.3-1.7-7.9-3.9-9.5-8.4c-1.5-4.2-4.1-25.7-4.7-31.5c-0.4-4-1.3-3.8-0.9,0.2c0.5,5.4,1.5,18.4,1.5,19.5
			c-0.3,9.8-7.1,19.1-13.5,25.8c-6,6.2-11.9,12.3-16.3,19.5c-3.1,5.1-5.6,10.6-6.9,16.5c-1.3,6-0.1,21.9-0.1,22.3c0,4.1,1,3.8,1-0.3
			c0.1-11.6,2.3-23.5,8.8-33.2c7.2-10.8,25.2-15.8,37.6-18.1c13.5-2.5,27.5,1.2,39.1,8.2c8.5,5.1,27.5,18.4,29.6,24
			c3.3,8.9-3.2,15.6-2.9,25.1c0.3,10.3-3.6,20.2-4.5,30.5c-0.1,0.7-5.3,22.8-9.6,30.9c-2.5,4.7-6.3,8.6-10.6,11.5
			c-3.7,2.5-8.7,5.9-13.1,4.6c-2.1-0.6-3-3.2-4.9-4.6c-11.2-8.5-25.4-7.7-38.4-4.2c-16.4,2.4-45.5,15.5-48.5,10.1
			c-0.3-0.6-0.6-1.3-0.7-2.1c-0.5-4.1,3.6-8.7,6.1-11.5c6.8-7.7,16.4-11.4,25.1-16.2c4.9-2.7,9.3-6.3,14.2-9.1
			c4.9-2.8,10.2-4.8,15.5-6.7c1.1-0.4,1.7-1.2,2-2.1c6.8-3,14.2-7.4,17-14.4c1.5-3.2,2.3-6.8,2.3-11c0-4.1-0.1-4.1-0.7-0.1
			c-2.5,17.3-13.9,16-19.6,18.9c-9,4.5-19.1,6.8-28.8,9.6c-1.7,0.5-3.4,0.9-5.1,1.4c-12.8,3.7-24.4,11.3-34.2,20.2
			c-4.9,4.5-28.8,29.5-27.4-37.1c0.3-14.8,4.7-29,11.1-42.1c5.9-11.9,13.7-22.6,17.6-35.4c3.8-12.7,3.1-26.1,2-39.1
			c-0.7-8.7-3-19,0.6-27.3c4.7-10.9,20.4-11.2,30.4-11.6c11.1-0.5,25.1,0.4,32.2,10.3c4,5.5,6.3,12.9,9.1,19
			c3,6.6,12,22.8,12.6,24.3c1.5,3.7,2.2,3.4,0.7-0.4c-2.7-6.7-10.2-19.4-6.9-26.6c3.6-7.8,11.4-10.4,17.2-15.4
			c2.5-2.1,5.4-3.5,2.8-6.2c-3.1-3.2-2.1,5.4-7.6,8.1c-20.3,9.8-16.5-12.7-22.7-16c-7.2-3.8-14.3-7.7-21.6-11.4
			c-13.8-7.1-29.6-18.9-30-34.8c0-2.4-1.1-6.2-1.1-8.5c0-4.1-0.7-3.6-0.7,0.5c0,1.8,0,3.8,0.1,5.7c0,0.3-0.1,0.5-0.1,0.8
			c0,0.6,0.1,1.3,0.1,1.9c0,7.9-0.6,16.1-5.7,22.2c-5.6,6.7-17.1,14.3-26.1,11.4c-7.1-2.2-8.3-13.4-8.9-19.5c-0.6-6-0.4-12-0.4-18
			c0.4-4.1,0.3-8.1-1.2-12c-1.4-3.8-1.8-3.6-0.4,0.2c0.6,1.7,4.7,14.6-10.6,32.9c-3.8,4.5-13.8,2.6-18.6,1.6
			c-6.7-1.3-12.3-5-16.5-10.2c-0.3-0.4-3.8-3.5-5.6-4.5c-3.6-1.9-4.6-1.8-1,0.1c9.1,4.8,5.4,24.9-1.3,30.9c-5.9,5.3-12.5,8.5-15,17
			c-0.7,2.6,2.1-3.4,2.9-4.2c10.3-9.3,26.3-5.8,39.6-4.7c14.9,1.2,27.6,11.5,35.4,23.7c7.5,11.8,14.1,28.7,10.3,42.6
			c-3.9,14.4-16.9,25.3-23.4,38.5c-7,14.2-10.8,30.1-13.2,45.7c-0.9,6-1.4,11.8-1.4,17.9c0,4.6,0.6,18.9-7.4,17.5
			c-4.5-0.8-6.2-9.5-6.9-13.1c-1.6-7.2-0.3-14.7,1-21.8c1.5-7.8-1.8-15.5-1-23.4c0.6-6.4,1.5-11.1,0.2-17c0-2.4-2.7-6.4-0.7-7.1
			c5.1-1.9,9.7-4,12-6.4c2.7-3,2.2-3.3-0.6-0.3c-2.1,2.2-14.8,7.3-25.2,0.2c-3.3-2.3-2-0.8,1,1.9c1.5,1.3,7.3,3.9,8.8,5
			c3.8,2.8,0.8,14.4,0.6,16.8c-0.9,8.4-1.7,16.6-5.1,24.4c-2.9,6.5-6,13.5-9.7,19.6c-5.1,8.5-15,7.2-23.5,6.4c0,0-0.1,0-0.1,0
			c-8.8-2.7-16.9-7.6-25.9-10c-7.5-1.9-36-12.4-36.3-12.6c-8.9-4.1-10.9-13.7-12.3-22.5c-1.9-11.7-3.1-22.9-0.5-34.6
			c1.3-6.1,3.5-12,5.5-17.8c2.2-6.2,3.8-12.8,6.4-18.8c4.9-11.4-3.1-17.8-9.2-26.6c-7.2-10.4-12.9-20.3-22.6-28.6
			c-9.4-8.1-19.7-15.1-29.6-22.5c-3.1-2.4-17.3-14.8-20.1-17.5c-3.6-6.1,2.6-21.7,10.4-16.1c3.3,2.4,5.1,3.5,2.8,0.5
			c-3.9-5-9.8-6.2-14-4.4c-0.4,0.2-0.9,0.2-1.3,0.4c-3.6,2.2-4,9.7-8.1,9.3c-7.2-0.7-14.1-17.9-11.6-27.1c14-51.4,64.2-30,62.3-31.8
			c-3.8-3.7-11.7-4.5-14.9-6.1c-4.5-2.3-0.6-5.9,0.5-9c0.7-2,1.7-5.2,1-7.6c-1.1-0.9-2.4,15.9-25.8,18.8
			c-10.3,1.3-21.8,4.1-31.8,1.9c-22.1-4.9,4.3,2.5,5.5,2.7c7.3,1.4,7.6,11.7,5.1,19.4c0,0.1-4.2,8.4-7.9,10.2
			c-0.3,0.1-45.7,8.6-66.1,17.5c-11.3,4.9-16,17.8-26.2,24.7c-3.3,2.2-8.1,1.5-12,0.4c-7.4-2.1-11.9-9.4-19.2-12.7
			c-5.4-2.4-10.9,0.6-13.1-4.6C1220.7,120.7,1238.5,112.5,1250.9,106.6z M1709.3,486.6c-13.2,6.8-29.2,17.6-40.3,7.7
			c-5-4.5-4.6-12.6-5-19.6c-0.5-8.3,2.7-14.5,11.9-10.6c8.1,3.5,14.3,10.8,21.7,15.5c5.1,3.2,16-1.6,17.2,4.4
			C1715.3,486,1711.2,485.7,1709.3,486.6z M1355.4,396c9.8-3.6,22.7-13.9,29.2-20.5c7.1-7-1.5-26.4-5.2-6.7
			c-3.8,20.2-37.4,33.3-58.7,32.7c-10.8-0.3-21-5.2-28.6-12.6c-3.9-3.8-6.3-8.7-9.5-13c-2.9-3.9-6.4-7.4-9.7-10.9
			c-6.9-7.2-10.9-14.9-15.5-23.6c-2.7-5.2-8.6-7.4-10.9-12.4c-19.5-40.9,5.4-91,37.4-80.7c4.7,1.5,5.4,4.5,6.9,7.4
			c3,5.5,4.8,12,8,17.5c3.5,6.1,5.6,13.1,10.7,18.3c2.9,2.9,3.3,1.6,0.4-1.2c-5.8-5.8-15.5-38.2-20.1-44.4c-1.5-2-3.1-3.6-4.9-5
			c-16.1-20.7-8.2-52.6,8.6-70.1c17.8-18.6,42.1-14.8,46.3-0.9c1.9,6.2,6.2,12.4,7.9,18.6c1.4,5.4,1,11.1,3.5,16.2
			c2.4,4.8,13,9.5,16.5,13.6c2.6,3.1,0.3-2.5-2.3-5.6c-4.4-5.2-8.7-9.2-10.1-16.1c-1.4-7.2-2.5-13-5.7-19.7
			c-2.6-5.4-4.4-11.2-7.8-16.2c-2.7-4-8.7-3.1-10.7-7.1c-1.5-3,1.1-7,1.2-9.5c0.2-4.1-1.7-7.3-1.9-3.3c-0.1,2.3-0.2,10.9-5.5,10.1
			c-9.5-0.9-19.1-0.2-28,3.2c-3.7,1.4-6.7,3.7-10.1,5.6c-4.4,2.6-12.6,3.5,1.2-15.1c4.1-5.5,11.6-8,17.6-10.9
			c17.5-8.6,49.7-20.1,55.3-17.4c7.2,3.5,5.3,14.9,10.5,21.1c1.5,1.8,5.7,3.2,4.7,5.3c-0.2,0.4-2.6,4.4-23.1,2.5
			c-4-0.4-2.3,0.3,1.7,1c13.8,2.3,26.9,0.3,42.1,16.3c9.3,9.9,21.7,16.3,32.4,24.6c5.1,3.9,10.1,8,14.5,12.7
			c5,5.4,8.6,12.1,12.6,18.3c3.4,5.2,8.8,9.9,11,15.7c1.3,3.4-1.1,7.3-2.4,10.4c-1.3,3.3-2.1,6.8-3.2,10.2
			c-3.1,9.4-6.6,18.5-8.4,28.2c-0.2,0.3-0.4,0.6-0.5,1c-2.1,7.2-3.3,14.7-5.4,21.9c-5.9,20.9-29.8,12.6-28.4-5.4
			c0.6-7.7,3.1-21.4,9.8-26.8c3.3-2.7,9.9-5,6.7-5.4c-23.3,7.8-14.8,37.9-28.5,53.5c-3.8,4.3-11.4,6.6-16.8,6.8
			c-10.4,0.2-21.6-0.3-32.1-0.1c-8.9,0.1-15.3-1.3-24.3-5.3c-8.1-3.6-18.8-14.1-20.7-21.9c-0.9-3.9-1.5,0.5-0.5,4.5
			c1.8,7.7,15.1,13.1,12.3,20.5c-1.8,4.8-35-4.5-47-13.5c-3.2-2.4-2,0.5,1.2,2.9c9.6,7.2,45.4,14.3,42.6,16.8
			c-7.5,6.6-4.6,10.9-5.9,18.6c-0.5,3,3.8,14.2,3.5,10.6c-0.6-7.2-10.7-26.3,24.6-29.6c4.5-0.4,9.1-0.6,13.5-0.7
			c14.8-0.1,29.3,1.9,44,3.1c15.2,1.2,30.4,0.2,45.5,2.2c14.4,2,27.3,8.7,40.6,14.1c13.7,5.6,28.7,6.4,42,13.5
			c4.8,2.6,9.2,5.8,13.1,9.7c4.7,4.8,4.2,9.1,3.7,15.3c-1.6,21.3-7.1,36.4-8.6,39c-2.3,4.2-7.9,2-11,0.3
			c-16.1-8.5-26.9-24.4-28.4-25.8c-11.2-10.8-27-12.8-41.8-13.2C1450.7,388.6,1329,405.5,1355.4,396z M1208.6,236.2
			c-0.4-7.9,4-13,5-23.3c0.2-2,5,4.9,13.9,10.8c11.9,8,29.7,12.3,27.4,19.9c-2.6,8.8-10.1,21.1-16.1,16
			C1234.8,256.2,1209.1,245.4,1208.6,236.2z M1664.5,441.8c0,0-0.1,0-0.1-0.1C1664.4,441.8,1664.5,441.8,1664.5,441.8
			C1664.5,441.8,1664.5,441.8,1664.5,441.8z M1093.1,319.4c0.2,9.5-13.6,26.8-15.7,17.8c-13.4-56.6,14-57.1,17-53.8
			c3.1,3.5-4.9,8-5,12.7C1089.3,304.1,1093,311.4,1093.1,319.4z M1074.8,377.3c1.4-5.6,0-3.9-1.1,0c-1.6,6-5.6,27.5-9.2,20
			c-4.3-8.7-7.8-18.8-4.9-29.1c2.9-10.3,14.4-16.6,22.4-22.6c7.5-5.6,14.7-12.1,16.9-21.5c1.4-6.2-0.3-12.6-1.8-18.6
			c-1.4-5.1-2-9.9,0.4-14.8c5.4-10.7,8.1-25.3,10.8-34c2.9-9.5,9.7-18.4,16.1-25.8c6.7-7.9,14.3-15,20.8-23.1
			c6.6-8.3,14-15.4,21.6-22.8c6.9-6.7,13.9-13.6,19.6-21.4c6.3-8.6,11.3-16.4,21.6-20.8c9.8-4.1,20.6-2.1,30,2.1
			c5.3,2.4,12.2,4,14,9.2c2.1,6.2-20,3.3-29.2,7.6c-8.3,3.9-12.4,11.8-21.2,14.5c-1.6,0.5-6.8,0.2-8.1-1c-2.6-2.4,1.7-6.8,2.6-10.2
			c1.1-3.9,0.1-6.4-1-2.4c-1.4,5-5.7,11.8-9,15.8c-2.5,3-6.8,3.8-10.1,6.1c-7.1,5.1-13.3,11.6-19.6,17.7
			c-6.5,6.1-12.9,12.2-18.3,19.3c-5,6.6-9.3,14.1-12.3,21.8c-2.7,7,0.8,26.2-3,41.2c-2.1,9.6,1.1,22.4,5.8,30.9
			c6,10.8,2.2,0.3,0.6-3.3c-3.7-8.5-4.8-12.3-4.1-18.8c3.1-30.1,23-51.1,14.1-44.8c-1.6,1.1-4.7,7.7-5.9,6.3
			c-7.9-9.2,10.4-27.2,21.6-37.7c11.7-11,36.5-34.1,36.7-34.3c2.6-2.5,6.7-2.6,10.3-3.7c6.6-2,12.7-5.8,18.7-9.2
			c19.9-11.2,36.4-3.9,42,1.7c6.9,6.8,13.9,15.7,9.6,23.6c-10,18.5-1.9,33.7-5.1,36.2c-1.9,1.5-5.6-0.4-7.9-1
			c-4.8-1.1-9.5-4.5-13.5-5.9c-12.8-4.2-28.2-11-32.1-28.6c-0.6-3.8-1.8-7.4-3.8-10.4c-2.2-3.4-3.2-3.6-0.9-0.2
			c7.8,11.6-3.4,39.4-8.1,46.8c-5.7,8.9-13,16.2-19.9,24c-6.2,7.1-12,14.7-17.2,22.6c-2.8,4.3-6.2,14.5-5.4,21.8
			c-14.7-24.3-2.9-37.2,3.8-49.8c8.4-15.9,17.1-31.5,29.9-44.3c3.4-3.4,8.3-7.5,2.5-3.2c-16.4,12.1-30,29.1-39.3,47.2
			c-21.3,41.5,14.4,68.3,12.1,64.9c-10.6-15.6-3-21.8,2.1-28.4c4.5-5.8,9.3-11.2,14.2-16.7c7.9-8.9,13-20.9,21.9-28.1
			c3.3-2.7,12.3,9.5,18.7,13.2c3.8,2.2,7.6,5.3,11.5,7.5c7.4,4.1,1.2,26.7,1.5,34.4c0.2,5.2,0.4,10.4,1,15.5
			c0.5,4.2,5.2,13.1,2.1,12.5c-0.2,0-16-0.8-21.5,4.6c-7.2,7.1-10.4,27.5-10.7,27.7c-2.5,2.3-6.7,4.4-9.7,2.8
			c-35.7-19.3,8.8-62.7,4.9-90.5c-0.6-4-1.7-4.6-1.2-0.6c1.2,8.2-6.4,20-9.4,27.4c-3.7,9.1-8.1,17.9-11.2,27.3
			c-1.2,3.6,0.6,8.8-2.4,10.5c-10.1,5.8-13.7-7.3-28.5,12.7c-15.5,21.1-8.1,21.1-11.2,31.9c-3,10.5-0.8,14.5-11.5,26.7
			c-8.9,10.1-22.9,7.1-33.6,13.2c-7.1,4.1-16.8,15.8-19.7,20.7c-1.9,3.2-8.6-3.1-9.1-17.6C1064.9,410.8,1070.6,393.8,1074.8,377.3z
			 M1099.7,423.5c9.6-4.9,21.6-12.1,31.8-9.6c5.6,1.4,2.7,11.8,4.7,17.5c6.1,17.7,25.7,25.5,19.5,24.3c-18.8-3.8-22.8,2.3-35,2.5
			C1107.7,458.4,1054,446.7,1099.7,423.5z M1357.3,601.8C1357.3,601.8,1357.3,601.8,1357.3,601.8
			C1357.3,601.8,1357.3,601.8,1357.3,601.8C1357.3,601.8,1357.3,601.8,1357.3,601.8z M1363.3,591.2c-10.9,7.6-23.6-1.6-34.2-9.4
			c-11.5-8.4-27.2-13.9-33.3-26.8c-4.2-8.9-4-32.3,2.6-29.2c0.5,0.2,65.3,19.4,66.3,19.4c0.8,0,2.7,1.5,4.8,1.6
			c1.9,0.1,3.8-0.2,5.7-0.7c2.6-0.6,2.8,4.8,3.2,6.6c1.2,6.2-2.2,12.5-4.9,17.9C1370.1,577.4,1369.6,586.8,1363.3,591.2z
			 M1490.5,574.9c0.3,0.2,0.5,0.4,0.8,0.5C1491,575.2,1490.7,575.1,1490.5,574.9C1490.5,574.9,1490.5,574.9,1490.5,574.9z
			 M1342.2,522c-4-0.9-2,0.5,2,1.4c4.7,1.1,11.4-0.3,14.6,3.3c1.9,2.1,1.7,4.8-0.1,6.9c-0.5,0.5-1.4,0-2.1,0
			c-0.3-0.2-0.5-0.3-0.9-0.4c-17.5-5.5-38.2-5.6-52.1-17.5c-1.4-1.2-3.3-3.4-2.3-4.9c3.7-5.7,14.1-0.1,19.9-3.1
			c27.9-14.1,79.3,11.7,58.7,10.9C1355.2,517.6,1353.3,524.6,1342.2,522z M1272.3,507.6c0.6,0.2,1.2,0.4,1.8,0.6
			c2.7,1.8,6.2,2.7,7.9,5.5c2.5,4.1,1.8,12.2,1.8,17.2c0,3.9,2.3,14.5-0.4,11.7c-9.4-9.6-12.3-11.1-19.5-15.3
			c-13.5-7.9-29-11-44-15.1c-9.8-2.7-19.3-6.3-29.2-8.7c-9.9-2.4-19.9-4.6-29.8-7.2c-10-2.7-20-5.7-29.2-10.5
			c-6.7-3.5-13.8-8.5-14.9-16.5c-0.1-1-0.1-2.6,0.2-3.7c1.6-6.3,42.1-7.5,52.1-3.9C1181,466.1,1267.3,505.7,1272.3,507.6z
			 M1246.1,661.7c-22.5,4.6-51.1,2.4-68.2-14.5c-6.1-6.1-10.9-13.5-16.4-20.1c-7.1-8.6-17.7-11.1-26.2-17.8
			c-7.5-5.9-9.2-18-11.7-26.7c-3.1-11.2-8.9-29.4-4.7-31.3c5-2.2,21.1-1.3,31.9,3.3c5.4,2.3,10.5,5.7,15.9,8.2
			c5.6,2.6,11.3,4.9,17,7.2c12.5,5.2,24.4,10.8,37.6,14.2c22.7,5.9,46.4,4.6,69.6,3.3c4-0.2-1.7-1.2-5.8-1
			c-14.5,0.8-45.7,2.3-64.8-5c-15.8-6.1-49.9-22.7-64.5-31.4c-12.8-7.6-30.9-1.9-40-13.1c-8.4-10.4-10.5-21.6-11.8-34.9
			c-0.8-8,1.2-15.3,4.9-22.3c0.9-1.7,3-5.6,4-4c10.3,17.2,24.8,20.2,37.9,24.3c20.2,6.2,41,10.1,61.2,16.4
			c16.5,5.2,33.4,7.9,48.8,16.2c10.4,5.7,34,29.9,35.8,31.6c10,9.4,35.2,26.4,35.8,27.2c3.4,4.3-1,12.9-1.3,18.2
			c-0.3,5.9,5.7,9.6,5.7,15.4c0,7.1-11,9.6-17.6,12.2C1318.9,637.4,1271.2,656.6,1246.1,661.7z M1345.3,617.5
			c-0.4,0.3-3.1,3.4-3.6,3.4c-7.6,0.8-10-15.1-3.5-19.3c2.4-1.5,5.7,0.1,8.4,0.9c2.7,0.9,6.6,1.7,7.3,4.5
			C1355.2,612.5,1349.5,613.6,1345.3,617.5z M1386.3,623.5c-10.4-3.1-22.6-7.8-29-6.9c-3.1,0.5,0.5-4.2,1.8-5.9
			c6-8.3,10.7-17.5,15-26.8c4.2-9.2,10.5-18.2,10.9-28.5c0.4-11.9-7.7-13.4-3.4-12.7c6,0.9,11.6,2.8,17.4,5.4
			c16.6,7.2,31.9,15.7,49.5,20.4c7.8,2,27.3,6.1,25.1,7.3c-11.4,5.7-21.2,15.4-30.4,24.3C1432.9,610,1430.5,636.7,1386.3,623.5z
			 M1634.7,571.1c-12.5,6.2-25,10.6-36.3,19.2c-1.3,1-3.8,1.3-5.3,1.8c0,0,0,0,0,0c-11.2-0.5-26.9-20.6-16.7-25.3
			c40.8-18.7,52-19.5,48.3-55c-0.6-6,2.1-8.1,2.9-14.2c1.4-10.3-2.8-18.3-10.9-24.4c-4.3-3.3-8.8-6.3-12.6-10.2
			c-4.3-4.6-12.2-14.4-14.3-20.1c-4.5-11.9-6.5-21.8-5.2-34.4c0.4-4-1.2-4.3-1.6-0.3c-1.1,10.9,0.8,22.1,3.7,32.6
			c2.8,10.3,7.3,21.3,15.1,28.8c6.6,6.4,16.8,10,19.4,19.7c3.5,12.8-4.8,27.9-12.2,36.7c-2.6,3.1-1.5,4.6,1.1,1.5
			c2.3-2.7,4.3-6.7,6.9-8.3c6.5-4,7.7,11.8,3,18.9c-5.3,8-15.5,12.9-24,16.6c-10.4,4.6-21.6,7.7-32.8,9.7
			c-7.6,1.3-30.2,3.2-36.6-14.4c-5.4-14.9,0.7-39,4.5-53.1c2.9-10.9,1.7-8.7-1.3-0.4c-4,11.4-0.6,16.6-12,19.7
			c-8.1,2.2-19.2,0.2-24.3-6.5c-2.4-3.2-4.1-1.8-1.6,1.4c6.6,8.6,16.9,12.9,27.3,9.6c-2.1,9.2-2.8,18.7-0.3,27.2
			c4.5,15.5,15.7,20.8,24.3,34.5c4.2,6.7,5.5,8.9,4.4,5c-1.5-5.4-8.1-11-5.3-15.7c3.2-5.3,16-6.7,22.8-1.1c9.8,8,2.4,14.1,24.9,24.8
			c1.4,0.7,1.4,4.1,0.8,5.5c-2.5,5.9-7.5,14.2-13.3,18c-13.6,9-29.6,0.1-41.6-9.1c-0.2-0.4-0.4-0.8-0.8-1.1
			c-12.6-11.8-23.5-25.5-37.2-36.1c-6.6-5-13.4-8.5-21.2-11.3c-8.5-3.1-15.4,0.3-32.4-24.2c-2.3-3.3,4.2,10.8,7.3,13.4
			c12.8,10.9,8.1,10.9,4.9,9.5c-19.2-8.3-23-7.9-33.9-13.4c-14.9-7.6-31.2-8.9-45-17.4c-1.5-0.9-3.7-3.1-3.1-4.2
			c3.9-7.8,23.2-0.3,34.8-0.7c12.7-0.4,25.4-2.4,38.1-2.9c9.3-0.4,15.6,6.5,23.6,9.8c3.8,1.6,3.5,1.1,0.1-1
			c-3.4-2.1-8.5-11.5-8.7-11.9c-11-25.9,14.9-20.4,20.1-17.2c3.4,2.2,5.3,1.2,2.4-1.7c-8.1-8.1-20.8-8.3-29.8-1.3
			c-6.1,4.8-2.3,8.8-5.8,14c-2.7,4-9,3.4-13.7,3.8c-7.2,0.6-14.3,1.3-21.5,1.8c-8.5,0.5-17.8,4.1-25.5,0.5c-0.1,0-0.1-0.1-0.1-0.2
			c-14.6-16.5-37.6-18.9-58.3-17.7c-11.8,0.7-23.4,3.2-35.2,4.3c-5.9,0.6-11.5-0.1-17.1-1.8c-4.5-3-8.7-5.1-13.9-7.3
			c-0.9-0.4-4.7-1.5-3.6-3.1c22.8-32.8,11-37.2,17.8-38c0.7-0.1,48.4-7.6,69.6-17c9.2-4,18.1-8.6,27.8-11.2
			c20.6-5.4,27.2,2,27.6,2.6c4.5,6.8,5.7,16.5,9.9,23.1c2.2,3.4,2.3,3.4,0.4-0.2c-3.2-6.1-6.4-19.4-5-23.4c1-3,3.8-12.9,12.1-13.2
			c4.1-0.1,2.2-0.6-1.9-0.5c-6.5,0.2-9.6,10.8-14.5,7.7c-3.2-2-4.9-2.9-8-3.7c-1.6-0.4-3.1-0.6-4.8-0.7c-8.5-1.5-17.9-0.3-26,1.1
			c-12.1,2.1-23.2,8-34.4,12.7c-12,5.1-24.5,9.1-37.2,12.2c-5.5,1.3-13.6,3.4-20.9,3.2c-3.7-0.8-7.3-2-10.8-3.8
			c-0.9-0.4-1.7-0.9-2.6-1.4c-0.1-0.1-0.3-0.2-0.4-0.2c-6.6-4-12.3-9.4-17.6-15c-11.4-12-24.3-22.5-36.3-34
			c-2.9-2.8-3.4-2.1-0.5,0.7c16.9,16.3,30.5,41.5,51.2,53.8c1.2,1.2,3.8,2.1,4.9,3.4c1.8,2.2,2.3,7.8,1.4,14.2
			c-0.9,6-4.8,19.5-9.9,23.6c-1,0.8-2.2,0.6-4.6-0.4c-21.7-8.6-20.7-8.3-32.5-13.7c-12.2-5.6-24.2-10.9-36.8-15.7
			c-12.3-4.8-25.5-10.4-32.9-21.9c-15.5-23.8-7.8-56.8,14.8-69c1.9-1,8-5.4,6-4.9c-3.7,0.9-21.6,13.3-21.7,11.4
			c-0.5-10.7,5.1-15.4,8.8-20.8c4.9-7.1,15.5-18,24.7-11.8c0.1,0.1,6.2,15.4,13.9,22.8c3.1,3-14.2,19.6-14.5,31.4
			c-0.5,15.9-1.3,34.5,6.5,48.9c1.9,3.6,2.8,3.4,0.8-0.1c-7-12.9-1.4-32.9-1.1-47.1c0.3-13.3,6.3-27.4,19.7-32.5
			c7-2.6,13,0.8,17.5,6c4.7,5.4,9,11,14,16.2c9.4,9.8,21.4,19.4,35.7,19.1c4.1-0.1,3.9-1.2-0.1-1.1c-17.6,0.3-31.1-21.8-41.3-34.1
			c-4.4-5.4-12.3-6-15.1-12.6c-3.7-8.4,3.1-18.6,10-25.3c8.9-8.8,22.2,1.7,26.9,9.6c4.5,7.5,7.5,15.2,13.3,22
			c3.4,4,7.3,7.7,10.8,11.6c3.5,3.9,5.7,8.6,8.9,12.6c10.9,13.6,29.2,21.1,46.6,18c4.5-0.8,8.9-2.3,13-4.3c0.3,0.1,39,0.9,57.9-1.8
			c12.8-1.8,49-6,53-6.2c40.3-1.9,45.8,20.4,47.4,23.7c1.5,3,6.5,9.2,3.1,9.2c-9,0.2-11.6-1.2-18.1-0.6
			c-19.3,1.8-37.3,12.6-51.8,24.8c-3.1,2.6-6.1,7.1-10,10.2c-10.3,8.1-41.1,12.9-40.9-6c0-4.1-0.9-4-1,0c-0.1,8.1,3.1,9,6.6,12.8
			c0.4,0.4,1.7,4.4,3.5,5.3c9.3,4.4,24.3-9.1,28.2,0.5c4.2,10.2,7.2,16.4,11.3,23.5c2,3.5,2.7,2.9,0.6-0.7c-0.7-1.3-6-12.6-6.1-12.8
			c-2.3-6.7-3.4-12.3,1-18.3c3.9-5.2,10.4-7.6,14.3-12.7c0.9-0.7,1.8-1.3,2.6-1.9c15.2-11.2,32-19.1,51.2-18.8
			c22,0.4,41.8,12.6,57.7,27c8,7.3,15.2,15.5,21.8,23.9c5.3,6.8,11.1,14.4,18.4,19.2c3.4,2.2,4,1.1,0.6-1.1
			c-8.8-5.8-12.7-20.4-19.3-28.4c-7.7-9.3-16.5-16.1-26-23.6c-2.3-1.9-7.1-4.2-7-7.2c0-4.3,5-6,5.5-10.8c0.3-2.6,0.1-5.3,0-8
			c2.1-30.8,25.4-34.2,26-34.2c14.2-1.8,25.3,10.7,33.2,20.9c9.1,11.8,16.8,25,24.3,37.7c9.6,16.2,20.3,32.7,26.6,50.5
			c5.3,14.9,9.2,34.2,1.1,48.8c-0.3,0.5-0.4,1-0.4,1.5C1653.5,559,1644.6,566.1,1634.7,571.1z M1740.3,509
			c-13.9,4.3-28.4,6-42.7,2.5c-7.3-1.8-18.4,1.5-25-3.3c-1.8-1.3,0-3.6-1.1-5.7c-3.3-6.1,10-0.4,15-1.1c16,0,29.2-6,43.9-11.8
			c8.9-3.5,18.6-5,27.9-7.2c7.1-1.6,13.8-4.2,20.7-6.3c3.6-0.7,7.2-1.4,10.8-2.1c9.4-1.8,22.5-2.8,27.3-8.5c2.4-2.8-2.9,6.7-4.7,10
			C1798.9,500.3,1764.4,501.5,1740.3,509z M1842,392.4c-1.9,7.3-4.4,14.5-6.5,21.7c-0.4,1.4-0.3,2.6-1.2,4.2
			c-0.2,0.4-0.3-0.9-0.7-1.2c-0.4-1.7-0.8-3.4-1.2-5.2c-1.9-9.4-6.3-20.4-6.3-30c0-4.1-0.5-4-0.5,0c0,8.9-1.4,15.9,0.1,26.6
			c0.3,2.6,3,9.7,1.2,7.8c-4.1-4.2-11,15-17.7,20.3c-3.2,2.5-1.2,1.9,1.9-0.6c5-3.9,10.8-16.3,17.3-13.7c9.8,4-6.9,34.9-7.6,35.4
			c-9.2,7.9-69.1,17.6-62.8,15.9c6.2-1.7,24.2-17.5,37.8-21.8c3.9-1.2,3.6-1.8-0.3-0.6c-9.7,3.1-18.8,7.6-28,11.9
			c-9.7,4.6-19.7,7.9-30,10.7c-9.2,2.5-19.2,4.6-28.7,3.1c-2.9-0.4-5.7-1.5-8.2-3c-0.2-0.3-0.4-0.6-0.8-0.9
			c-2.8-2.4-7.5-6.8-5.4-9.8c1.4-1.9,4.4-3.1,6.7-2.1c0.3,0.1,0.1,0.7,0.1,1c1.9,12.4,16.9,11.8,25.6,8.3c3.7-1.5,3.5-2.3-0.3-0.8
			c-6.2,2.5-17-0.7-19.2-9.1c-1.9-7.1-0.8-24.3,5.3-28.3c3.4-2.2,2.7-2.7-0.7-0.4c-6.8,4.5-5.6,14.9-10.9,21.4
			c-0.4,0.5-0.9,1.9-1.3,2.5c-4.4,6-9.6-1.3-13.1-5.1c-2.9-3.2-5.6-7-9.6-8.8c-3-2-6.6-3.4-9.6-5.1c-19.4-11.3,7-25.5,17.6-28
			c19.4-4.6,22.5-9.4,31.7-6.6c15.9,5,26.3,35.4,25.8,42.8c-0.3,4.1,0.4,4.2,0.7,0.1c0.6-8.4-7.7-32-5.8-31.6c4,1,7.6-1.8,10.7-3.6
			c4.2-2.5,7.7-5.5,10.8-9.3c7-8.5,8-19.1,11.8-29c0.9-2.5,1.9-4.9,3-7.3c1.2-2.1,8.1-14.7,8.8-18.1c0.5-1.5,0-3.5,0.9-5.2
			c0.2-0.4,1.1,1.1,1.5,1.4c0.9,0.6,1.8,1.2,2.7,1.6c0.1,0.1,0.1,0.1,0.2,0.1c5.2,2.6,13.6-2.5,16.5,2.4c2.7,4.6-2.3,9.4,4.1,12.4
			c3.6,1.8,3.9,1.2,0.2-0.5c-3.6-1.7,2.6-21.1,14.8-25.5c3.8-1.4,3.6-1.5-0.3-0.7c-1,0.2-4.3,0.9-11.3,7.4c-2.3,2.2-6,0.4-9.7,0.1
			c-5.1-0.4-10.1,0.1-12.1-0.8c-2.8-1.4-5.2-2.1-4.9-7.5c0.7-9.5-6.7-18.7-2-26.8c5.9-10,19.8-16,24.9-26c6-11.7,9.9-28.8,0.7-39.8
			c-0.6-2.6-1.1-5.3-1.5-8c7.8,7.1,17.6,11.9,20.9,23.2c2.6,9.1,0.4,17.2-4.1,25.1c-1.1,1.8-1.9,3.7-2.4,5.4
			c-2.2-3.4-3.4-7.1-1.9-10.6c1.6-3.7-3.8-6.9-5.4-3.2c-4.3,10.1,2.9,18.4,9,25.9c5.3,6.3,8.2,11.9,8.7,20.3
			c0.2,3.3,0.4,6.5,0.9,9.7c0.8,4.8,3.3,8,0.9,13c-2.5,5.1-6,9.4-8,14.8c-1.5,4.2-2.9,8.4-4.7,12.5c-3.8,8.9-13.4,24.2-20.7,15.8
			c-3.2-3.7-0.4-9.9,2.4-13.9c2.3-3.4,1.4-3.5-0.9-0.1c-7.6,11.2-3.9,22.9-9.2,34.9c-2.8,6.3-9.5,9.7-13.3,15.3
			c-4.4,6.5-4.9,14-4.9,21.7c0,4.1,0.8,4.1,0.8,0c0-8.3,6.3-15.3,12.3-21.5c4.2-4.4,8.7-8.1,11.2-13.8c2.2-5-2-12.4,2-16
			c1.6-1.4,4.1,0.3,5.9,0.1c0.5,0.1,1,0.2,1.6-0.1c12.5-5,35-53.3,35.2-52.4c1,3.8,1.1,4.4,1.4,6.3c0.9,5.3,1,10.9,1.1,16.3
			C1846,370.6,1844.9,381.3,1842,392.4z"/>
	</g>
</g>
</svg>
