<?xml version="1.0" encoding="utf-8"?>
<!-- Generator: Adobe Illustrator 17.1.0, SVG Export Plug-In . SVG Version: 6.00 Build 0)  -->
<!DOCTYPE svg PUBLIC "-//W3C//DTD SVG 1.1//EN" "http://www.w3.org/Graphics/SVG/1.1/DTD/svg11.dtd">
<svg version="1.1" id="Layer_1" xmlns="http://www.w3.org/2000/svg" xmlns:xlink="http://www.w3.org/1999/xlink" x="0px" y="0px"
	 viewBox="0 0 401.3 155.8" enable-background="new 0 0 401.3 155.8" xml:space="preserve">
<g>
	
		<linearGradient id="SVGID_1_" gradientUnits="userSpaceOnUse" x1="383.0338" y1="-8.2899" x2="331.0312" y2="128.2167" gradientTransform="matrix(0.9868 -0.1617 0.1617 0.9868 -12.4079 33.5339)">
		<stop  offset="0" style="stop-color:#F05523"/>
		<stop  offset="0.6025" style="stop-color:#AC361C"/>
		<stop  offset="1" style="stop-color:#7D2117"/>
	</linearGradient>
	<path fill="url(#SVGID_1_)" d="M373.2,83.4c-0.1,1.8-1.6,3.2-3.4,3.1L310,83.2c-1.8-0.1-3.2-1.6-3.1-3.4l32.4-66.7
		c1.2-2.8,4.2-4.3,7.5-4.4L374,8.3c1.8,0.1,3.2,1.6,3.1,3.4L373.2,83.4z"/>
	<g>
		
			<linearGradient id="SVGID_2_" gradientUnits="userSpaceOnUse" x1="370.2224" y1="27.1878" x2="342.8878" y2="106.1921" gradientTransform="matrix(0.9868 -0.1617 0.1617 0.9868 -12.4079 33.5339)">
			<stop  offset="0" style="stop-color:#F56B4F"/>
			<stop  offset="0.5782" style="stop-color:#B1412F"/>
			<stop  offset="1" style="stop-color:#7D2117"/>
		</linearGradient>
		<path fill="url(#SVGID_2_)" d="M328.3,53.7L344.1,19c0.7-1.7,2.4-2.7,4.5-2.8l20.7-0.5c0.5,0,0.9,0.5,0.9,1.2c0,0,0,0,0,0.1
			l-2,36.9l2.9,0l2-36.8l0,0c0,0,0,0,0-0.1c0-2.1-1.5-4-3.7-4.1h-0.1l-20.9,0.5c-2.9,0.1-5.8,1.6-7,4.5l-16.3,35.8L328.3,53.7z"/>
	</g>
	
		<linearGradient id="SVGID_3_" gradientUnits="userSpaceOnUse" x1="143.3985" y1="96.5848" x2="143.3985" y2="157.3279" gradientTransform="matrix(1 8.600000e-003 -8.600000e-003 1 46.7745 -40.1935)">
		<stop  offset="0" style="stop-color:#DBDBDB"/>
		<stop  offset="0.2037" style="stop-color:#D5D5D5"/>
		<stop  offset="0.479" style="stop-color:#C4C4C4"/>
		<stop  offset="0.7936" style="stop-color:#A8A8A8"/>
		<stop  offset="1" style="stop-color:#919191"/>
	</linearGradient>
	<path fill="url(#SVGID_3_)" d="M378.1,85.7c-0.1,10.6-87.3,63.9-180.9,63.1c0,0-30.4-0.3-53.5-0.5C15,147.2-0.1,113.1,0,96.9l0,0
		c0.1-11.1,19.5-28.3,36.9-31.5c3.4-0.6,10.4-13.2,17.2-13.5C71,51.1,102.6,48.1,136,59c60.1-0.3,134.7,7.5,218.1,12
		c12.5,0.7,24.1,3.4,24,10.8L378.1,85.7z"/>
	
		<linearGradient id="SVGID_4_" gradientUnits="userSpaceOnUse" x1="-40.3797" y1="109.2698" x2="-12.9" y2="140.1241" gradientTransform="matrix(1 8.600000e-003 -8.600000e-003 1 46.7745 -40.1935)">
		<stop  offset="0" style="stop-color:#FFFFFF"/>
		<stop  offset="1" style="stop-color:#B3B3B3"/>
	</linearGradient>
	<path fill="url(#SVGID_4_)" d="M37.5,125.9c-3-1.1-5.8-2.3-8.3-3.5c-18.9-9.1-22-19.3-22-25.7c-0.1-3.9,4.3-9.9,11-15
		c5.8-4.4,13.2-8.3,20.4-10l0-3c-7.9,1.8-15.9,5.9-22.2,10.7c-7,5.4-12,11.5-12.2,17.2c-0.1,7.5,4.1,19,23.7,28.3
		c2.8,1.3,6,2.7,9.5,3.9L37.5,125.9z"/>
	
		<linearGradient id="SVGID_5_" gradientUnits="userSpaceOnUse" x1="164.3016" y1="95.0469" x2="164.3016" y2="116.2554" gradientTransform="matrix(1 8.600000e-003 -8.600000e-003 1 46.7745 -40.1935)">
		<stop  offset="0" style="stop-color:#FFFFFF"/>
		<stop  offset="1" style="stop-color:#D4D4D4"/>
	</linearGradient>
	<path fill="url(#SVGID_5_)" d="M51.8,62.8c2.2-1.9,4.5-3.3,6.4-3.3c7-0.3,16.4-0.9,27.4-0.8c15,0.1,33,1.6,51.5,6.9l0.2,0.1l0.2,0
		c3.2,0,6.5,0,9.9,0c56.4,0.5,125.2,6.8,201.5,10.5c6,0.3,11.7,1,15.8,2.4c2,0.7,3.6,1.5,4.6,2.5c0.6,0.6,1,1.2,1.2,1.8l3,0
		c-0.3-1.6-1.1-2.9-2.3-4c-4.4-3.9-13.1-5.1-22.3-5.6c-76.3-3.7-145.1-10-201.6-10.5c-3.3,0-6.5,0-9.7,0c-18.8-5.4-36.9-6.9-52.1-7
		c-11.1-0.1-20.7,0.5-27.6,0.8c-4.1,0.2-7.5,3.3-10.5,6.1c-0.4,0.3-0.7,0.7-1.1,1l4.2,0C51.1,63.4,51.4,63.1,51.8,62.8z"/>
	
		<linearGradient id="SVGID_6_" gradientUnits="userSpaceOnUse" x1="174.4597" y1="63.1652" x2="156.4573" y2="144.5098" gradientTransform="matrix(0.9868 -0.1617 0.1617 0.9868 -12.4079 33.5339)">
		<stop  offset="0" style="stop-color:#F05523"/>
		<stop  offset="0.6025" style="stop-color:#AC361C"/>
		<stop  offset="1" style="stop-color:#7D2117"/>
	</linearGradient>
	<path fill="url(#SVGID_6_)" d="M9.1,117.7c14.3,14.8,49.8,29.8,134.6,30.6c23.1,0.2,53.5,0.5,53.5,0.5
		c47.9,0.4,94.2-13.4,127.9-28.3L9.1,117.7z"/>
	
		<linearGradient id="SVGID_7_" gradientUnits="userSpaceOnUse" x1="5.9569" y1="63.0609" x2="5.9569" y2="114.1196" gradientTransform="matrix(1 8.600000e-003 -8.600000e-003 1 46.7745 -40.1935)">
		<stop  offset="0" style="stop-color:#85A5AF"/>
		<stop  offset="0.1555" style="stop-color:#7F9FA9"/>
		<stop  offset="0.3655" style="stop-color:#6F8E98"/>
		<stop  offset="0.6066" style="stop-color:#55717D"/>
		<stop  offset="0.869" style="stop-color:#314A57"/>
		<stop  offset="1" style="stop-color:#1C3441"/>
	</linearGradient>
	<path fill="url(#SVGID_7_)" d="M48.9,64.3c-0.6,0-10.6,0.5-9.8-0.3c2.5-2.3,6-7,9.7-9.8c0.9-0.7,3.9-0.4,5.7-0.2
		C71.3,56.1,65.9,63.3,48.9,64.3z"/>
	
		<linearGradient id="SVGID_8_" gradientUnits="userSpaceOnUse" x1="311.0665" y1="118.0236" x2="311.0665" y2="127.0225" gradientTransform="matrix(1 8.600000e-003 -8.600000e-003 1 46.7745 -40.1935)">
		<stop  offset="0" style="stop-color:#DBDBDB"/>
		<stop  offset="0.1775" style="stop-color:#D5D5D5"/>
		<stop  offset="0.4174" style="stop-color:#C4C4C4"/>
		<stop  offset="0.6928" style="stop-color:#A8A8A8"/>
		<stop  offset="0.9927" style="stop-color:#818181"/>
		<stop  offset="1" style="stop-color:#808080"/>
	</linearGradient>
	<path fill="url(#SVGID_8_)" d="M401.3,84.3c0,4.3-34.4,7.5-58.9,7.3c-24.4-0.2-32.2-3.6-29.6-8c2.2-3.8,5.3-5.1,29.7-4.9
		C366.9,78.8,401.3,80,401.3,84.3z"/>
	<g>
		
			<linearGradient id="SVGID_9_" gradientUnits="userSpaceOnUse" x1="311.2469" y1="118.4236" x2="311.2469" y2="120.9557" gradientTransform="matrix(1 8.600000e-003 -8.600000e-003 1 46.7745 -40.1935)">
			<stop  offset="0" style="stop-color:#FFFFFF"/>
			<stop  offset="1" style="stop-color:#D4D4D4"/>
		</linearGradient>
		<path fill="url(#SVGID_9_)" d="M318.4,83.7c0.8-0.5,1.9-0.9,4.3-1.2c3.6-0.5,9.8-0.6,20.9-0.5l0.2,0c11.1,0.1,24.6,0.3,35.2,0.9
			c5.3,0.3,9.9,0.6,13.1,1.1c0.8,0.1,1.6,0.2,2.2,0.4l4,0c-0.1-0.5-0.5-0.8-0.7-1c-1.3-0.8-3.7-1.2-7.3-1.6
			c-10.7-1.2-30.8-1.6-46.5-1.8c-11.2-0.1-17.5,0.1-21.3,0.5c-3.8,0.4-5.4,1.4-6.6,2.8c-0.1,0.1-0.2,0.2-0.2,0.3L318.4,83.7z"/>
	</g>
	
		<linearGradient id="SVGID_10_" gradientUnits="userSpaceOnUse" x1="135.6834" y1="142.2939" x2="135.6834" y2="170.2558" gradientTransform="matrix(1 8.600000e-003 -8.600000e-003 1 46.7745 -40.1935)">
		<stop  offset="0" style="stop-color:#DBDBDB"/>
		<stop  offset="0.1387" style="stop-color:#D5D5D5"/>
		<stop  offset="0.3262" style="stop-color:#C4C4C4"/>
		<stop  offset="0.5417" style="stop-color:#A8A8A8"/>
		<stop  offset="0.7759" style="stop-color:#818181"/>
		<stop  offset="1" style="stop-color:#545454"/>
	</linearGradient>
	<path fill="url(#SVGID_10_)" d="M261.6,117.9c-0.1,7.7-61.8,13.5-106.3,13.1c-44.5-0.4-54.8-6.7-54.7-14.5
		c0.1-7.7,10.5-13.9,55-13.5C200,103.4,261.7,110.2,261.6,117.9z"/>
	<g>
		
			<linearGradient id="SVGID_11_" gradientUnits="userSpaceOnUse" x1="134.6259" y1="144.7023" x2="134.6259" y2="154.1864" gradientTransform="matrix(1 8.600000e-003 -8.600000e-003 1 46.7745 -40.1935)">
			<stop  offset="0" style="stop-color:#FFFFFF"/>
			<stop  offset="1" style="stop-color:#D4D4D4"/>
		</linearGradient>
		<path fill="url(#SVGID_11_)" d="M108.8,115.5c0.2-0.4,0.6-0.9,1.3-1.4c1.9-1.4,6.1-2.9,13.6-3.8c7.5-0.9,18.2-1.5,33.3-1.3
			c20.1,0.2,44.2,1.4,63.2,3.3c9.5,0.9,17.7,2,23.5,3.2c1.9,0.4,3.6,0.8,4.9,1.2l5.9,0.1c-0.2-0.4-0.6-0.8-0.9-1
			c-1.1-0.8-2.7-1.4-4.9-2c-15-4.1-58.5-7.3-91.7-7.6c-20.2-0.2-32.8,0.8-40.4,2.5c-3.8,0.9-6.4,1.9-8.2,3.2c-1.4,1-2.3,2.3-2.6,3.7
			L108.8,115.5z"/>
	</g>
	
		<linearGradient id="SVGID_12_" gradientUnits="userSpaceOnUse" x1="73.3325" y1="159.1677" x2="73.3325" y2="188.0952" gradientTransform="matrix(1 8.600000e-003 -8.600000e-003 1 46.7745 -40.1935)">
		<stop  offset="0" style="stop-color:#F05523"/>
		<stop  offset="0.6025" style="stop-color:#AC361C"/>
		<stop  offset="1" style="stop-color:#7D2117"/>
	</linearGradient>
	<path fill="url(#SVGID_12_)" d="M142.6,148.1c0,3.8-26.1,7.8-29.9,7.8l-11.5-0.1c-3.8,0-6.9-3.1-6.8-6.9l0.2-17.8
		c0-3.8,3.1-6.9,6.9-6.8l11.5,0.1c3.8,0,29.8,4.5,29.8,8.3L142.6,148.1z"/>
	
		<linearGradient id="SVGID_13_" gradientUnits="userSpaceOnUse" x1="55.896" y1="165.9179" x2="55.896" y2="197.7375" gradientTransform="matrix(1 8.600000e-003 -8.600000e-003 1 46.7745 -40.1935)">
		<stop  offset="0" style="stop-color:#F05523"/>
		<stop  offset="0.6025" style="stop-color:#AC361C"/>
		<stop  offset="1" style="stop-color:#7D2117"/>
	</linearGradient>
	<path fill="url(#SVGID_13_)" d="M106.6,125.6l-4.6,0c-3.4,0-6.2,2.8-6.3,6.2L95.7,148c0,3.5,2.7,6.3,6.1,6.3l4.6,0L106.6,125.6z"/>
	
		<linearGradient id="SVGID_14_" gradientUnits="userSpaceOnUse" x1="29.7791" y1="93.8517" x2="29.7791" y2="105.5817" gradientTransform="matrix(1 8.600000e-003 -8.600000e-003 1 46.7745 -40.1935)">
		<stop  offset="0" style="stop-color:#85A5AF"/>
		<stop  offset="0.1555" style="stop-color:#7F9FA9"/>
		<stop  offset="0.3655" style="stop-color:#6F8E98"/>
		<stop  offset="0.6066" style="stop-color:#55717D"/>
		<stop  offset="0.869" style="stop-color:#314A57"/>
		<stop  offset="1" style="stop-color:#1C3441"/>
	</linearGradient>
	<path fill="url(#SVGID_14_)" d="M78.6,63.7c0,0.9-0.8,1.7-1.7,1.7l-2.4,0c-0.9,0-1.7-0.8-1.7-1.7l0-2.8c0-0.9,0.8-1.7,1.7-1.7
		l2.4,0c0.9,0,1.7,0.8,1.7,1.7L78.6,63.7z"/>
	
		<linearGradient id="SVGID_15_" gradientUnits="userSpaceOnUse" x1="42.6887" y1="93.6862" x2="42.6887" y2="105.4231" gradientTransform="matrix(1 8.600000e-003 -8.600000e-003 1 46.7745 -40.1935)">
		<stop  offset="0" style="stop-color:#85A5AF"/>
		<stop  offset="0.1555" style="stop-color:#7F9FA9"/>
		<stop  offset="0.3655" style="stop-color:#6F8E98"/>
		<stop  offset="0.6066" style="stop-color:#55717D"/>
		<stop  offset="0.869" style="stop-color:#314A57"/>
		<stop  offset="1" style="stop-color:#1C3441"/>
	</linearGradient>
	<path fill="url(#SVGID_15_)" d="M91.5,63.6c0,0.9-0.8,1.7-1.7,1.7l-2.4,0c-0.9,0-1.7-0.8-1.7-1.7l0-2.7c0-0.9,0.8-1.7,1.7-1.7
		l2.4,0c0.9,0,1.7,0.8,1.7,1.7L91.5,63.6z"/>
	
		<linearGradient id="SVGID_16_" gradientUnits="userSpaceOnUse" x1="55.5989" y1="93.6887" x2="55.5989" y2="105.4225" gradientTransform="matrix(1 8.600000e-003 -8.600000e-003 1 46.7745 -40.1935)">
		<stop  offset="0" style="stop-color:#85A5AF"/>
		<stop  offset="0.1555" style="stop-color:#7F9FA9"/>
		<stop  offset="0.3655" style="stop-color:#6F8E98"/>
		<stop  offset="0.6066" style="stop-color:#55717D"/>
		<stop  offset="0.869" style="stop-color:#314A57"/>
		<stop  offset="1" style="stop-color:#1C3441"/>
	</linearGradient>
	<path fill="url(#SVGID_16_)" d="M104.4,63.7c0,0.9-0.8,1.7-1.7,1.7l-2.4,0c-0.9,0-1.7-0.8-1.7-1.7l0-2.7c0-0.9,0.8-1.7,1.7-1.7
		l2.4,0c0.9,0,1.7,0.8,1.7,1.7L104.4,63.7z"/>
	
		<linearGradient id="SVGID_17_" gradientUnits="userSpaceOnUse" x1="68.5093" y1="93.6868" x2="68.5093" y2="105.4209" gradientTransform="matrix(1 8.600000e-003 -8.600000e-003 1 46.7745 -40.1935)">
		<stop  offset="0" style="stop-color:#85A5AF"/>
		<stop  offset="0.1555" style="stop-color:#7F9FA9"/>
		<stop  offset="0.3655" style="stop-color:#6F8E98"/>
		<stop  offset="0.6066" style="stop-color:#55717D"/>
		<stop  offset="0.869" style="stop-color:#314A57"/>
		<stop  offset="1" style="stop-color:#1C3441"/>
	</linearGradient>
	<path fill="url(#SVGID_17_)" d="M117.3,63.8c0,0.9-0.8,1.7-1.7,1.7l-2.4,0c-0.9,0-1.7-0.8-1.7-1.7l0-2.7c0-0.9,0.8-1.7,1.7-1.7
		l2.4,0c0.9,0,1.7,0.8,1.7,1.7L117.3,63.8z"/>
	
		<linearGradient id="SVGID_18_" gradientUnits="userSpaceOnUse" x1="-2.0411" y1="120.384" x2="-2.0411" y2="132.1131" gradientTransform="matrix(1 8.600000e-003 -8.600000e-003 1 46.7745 -40.1935)">
		<stop  offset="0" style="stop-color:#85A5AF"/>
		<stop  offset="0.1555" style="stop-color:#7F9FA9"/>
		<stop  offset="0.3655" style="stop-color:#6F8E98"/>
		<stop  offset="0.6066" style="stop-color:#55717D"/>
		<stop  offset="0.869" style="stop-color:#314A57"/>
		<stop  offset="1" style="stop-color:#1C3441"/>
	</linearGradient>
	<path fill="url(#SVGID_18_)" d="M46.5,89.9c0,0.9-0.8,1.7-1.7,1.7l-2.4,0c-0.9,0-1.7-0.8-1.7-1.7l0-2.8c0-0.9,0.8-1.7,1.7-1.7
		l2.4,0c0.9,0,1.7,0.8,1.7,1.7L46.5,89.9z"/>
	
		<linearGradient id="SVGID_19_" gradientUnits="userSpaceOnUse" x1="11.2677" y1="120.3804" x2="11.2677" y2="132.1153" gradientTransform="matrix(1 8.600000e-003 -8.600000e-003 1 46.7745 -40.1935)">
		<stop  offset="0" style="stop-color:#85A5AF"/>
		<stop  offset="0.1555" style="stop-color:#7F9FA9"/>
		<stop  offset="0.3655" style="stop-color:#6F8E98"/>
		<stop  offset="0.6066" style="stop-color:#55717D"/>
		<stop  offset="0.869" style="stop-color:#314A57"/>
		<stop  offset="1" style="stop-color:#1C3441"/>
	</linearGradient>
	<path fill="url(#SVGID_19_)" d="M59.8,90c0,0.9-0.8,1.7-1.7,1.7l-2.4,0c-0.9,0-1.7-0.8-1.7-1.7l0-2.7c0-0.9,0.8-1.7,1.7-1.7l2.4,0
		c0.9,0,1.7,0.8,1.7,1.7L59.8,90z"/>
	
		<linearGradient id="SVGID_20_" gradientUnits="userSpaceOnUse" x1="24.576" y1="120.3789" x2="24.576" y2="132.1135" gradientTransform="matrix(1 8.600000e-003 -8.600000e-003 1 46.7745 -40.1935)">
		<stop  offset="0" style="stop-color:#85A5AF"/>
		<stop  offset="0.1555" style="stop-color:#7F9FA9"/>
		<stop  offset="0.3655" style="stop-color:#6F8E98"/>
		<stop  offset="0.6066" style="stop-color:#55717D"/>
		<stop  offset="0.869" style="stop-color:#314A57"/>
		<stop  offset="1" style="stop-color:#1C3441"/>
	</linearGradient>
	<path fill="url(#SVGID_20_)" d="M73.1,90.2c0,0.9-0.8,1.7-1.7,1.7l-2.4,0c-0.9,0-1.7-0.8-1.7-1.7l0-2.7c0-0.9,0.8-1.7,1.7-1.7
		l2.4,0c0.9,0,1.7,0.8,1.7,1.7L73.1,90.2z"/>
	
		<linearGradient id="SVGID_21_" gradientUnits="userSpaceOnUse" x1="37.8843" y1="120.3795" x2="37.8843" y2="132.1144" gradientTransform="matrix(1 8.600000e-003 -8.600000e-003 1 46.7745 -40.1935)">
		<stop  offset="0" style="stop-color:#85A5AF"/>
		<stop  offset="0.1555" style="stop-color:#7F9FA9"/>
		<stop  offset="0.3655" style="stop-color:#6F8E98"/>
		<stop  offset="0.6066" style="stop-color:#55717D"/>
		<stop  offset="0.869" style="stop-color:#314A57"/>
		<stop  offset="1" style="stop-color:#1C3441"/>
	</linearGradient>
	<path fill="url(#SVGID_21_)" d="M86.4,90.3c0,0.9-0.8,1.7-1.7,1.7l-2.4,0c-0.9,0-1.7-0.8-1.7-1.7l0-2.8c0-0.9,0.8-1.7,1.7-1.7
		l2.4,0c0.9,0,1.7,0.8,1.7,1.7L86.4,90.3z"/>
	
		<linearGradient id="SVGID_22_" gradientUnits="userSpaceOnUse" x1="51.193" y1="120.3817" x2="51.193" y2="132.1134" gradientTransform="matrix(1 8.600000e-003 -8.600000e-003 1 46.7745 -40.1935)">
		<stop  offset="0" style="stop-color:#85A5AF"/>
		<stop  offset="0.1555" style="stop-color:#7F9FA9"/>
		<stop  offset="0.3655" style="stop-color:#6F8E98"/>
		<stop  offset="0.6066" style="stop-color:#55717D"/>
		<stop  offset="0.869" style="stop-color:#314A57"/>
		<stop  offset="1" style="stop-color:#1C3441"/>
	</linearGradient>
	<path fill="url(#SVGID_22_)" d="M99.7,90.4c0,0.9-0.8,1.7-1.7,1.7l-2.4,0c-0.9,0-1.7-0.8-1.7-1.7l0-2.8c0-0.9,0.8-1.7,1.7-1.7
		l2.4,0c0.9,0,1.7,0.8,1.7,1.7L99.7,90.4z"/>
	
		<linearGradient id="SVGID_23_" gradientUnits="userSpaceOnUse" x1="64.5013" y1="120.3811" x2="64.5013" y2="132.1133" gradientTransform="matrix(1 8.600000e-003 -8.600000e-003 1 46.7745 -40.1935)">
		<stop  offset="0" style="stop-color:#85A5AF"/>
		<stop  offset="0.1555" style="stop-color:#7F9FA9"/>
		<stop  offset="0.3655" style="stop-color:#6F8E98"/>
		<stop  offset="0.6066" style="stop-color:#55717D"/>
		<stop  offset="0.869" style="stop-color:#314A57"/>
		<stop  offset="1" style="stop-color:#1C3441"/>
	</linearGradient>
	<path fill="url(#SVGID_23_)" d="M113,90.5c0,0.9-0.8,1.7-1.7,1.7l-2.4,0c-0.9,0-1.7-0.8-1.7-1.7l0-2.7c0-0.9,0.8-1.7,1.7-1.7l2.4,0
		c0.9,0,1.7,0.8,1.7,1.7L113,90.5z"/>
	
		<linearGradient id="SVGID_24_" gradientUnits="userSpaceOnUse" x1="77.81" y1="120.3812" x2="77.81" y2="132.1116" gradientTransform="matrix(1 8.600000e-003 -8.600000e-003 1 46.7745 -40.1935)">
		<stop  offset="0" style="stop-color:#85A5AF"/>
		<stop  offset="0.1555" style="stop-color:#7F9FA9"/>
		<stop  offset="0.3655" style="stop-color:#6F8E98"/>
		<stop  offset="0.6066" style="stop-color:#55717D"/>
		<stop  offset="0.869" style="stop-color:#314A57"/>
		<stop  offset="1" style="stop-color:#1C3441"/>
	</linearGradient>
	<path fill="url(#SVGID_24_)" d="M126.4,90.6c0,0.9-0.8,1.7-1.7,1.7l-2.4,0c-0.9,0-1.7-0.8-1.7-1.7l0-2.8c0-0.9,0.8-1.7,1.7-1.7
		l2.4,0c0.9,0,1.7,0.8,1.7,1.7L126.4,90.6z"/>
	
		<linearGradient id="SVGID_25_" gradientUnits="userSpaceOnUse" x1="91.118" y1="120.3805" x2="91.118" y2="132.1113" gradientTransform="matrix(1 8.600000e-003 -8.600000e-003 1 46.7745 -40.1935)">
		<stop  offset="0" style="stop-color:#85A5AF"/>
		<stop  offset="0.1555" style="stop-color:#7F9FA9"/>
		<stop  offset="0.3655" style="stop-color:#6F8E98"/>
		<stop  offset="0.6066" style="stop-color:#55717D"/>
		<stop  offset="0.869" style="stop-color:#314A57"/>
		<stop  offset="1" style="stop-color:#1C3441"/>
	</linearGradient>
	<path fill="url(#SVGID_25_)" d="M139.7,90.7c0,0.9-0.8,1.7-1.7,1.7l-2.4,0c-0.9,0-1.7-0.8-1.7-1.7l0-2.8c0-0.9,0.8-1.7,1.7-1.7
		l2.4,0c0.9,0,1.7,0.8,1.7,1.7L139.7,90.7z"/>
	
		<linearGradient id="SVGID_26_" gradientUnits="userSpaceOnUse" x1="104.4267" y1="120.38" x2="104.4267" y2="132.1129" gradientTransform="matrix(1 8.600000e-003 -8.600000e-003 1 46.7745 -40.1935)">
		<stop  offset="0" style="stop-color:#85A5AF"/>
		<stop  offset="0.1555" style="stop-color:#7F9FA9"/>
		<stop  offset="0.3655" style="stop-color:#6F8E98"/>
		<stop  offset="0.6066" style="stop-color:#55717D"/>
		<stop  offset="0.869" style="stop-color:#314A57"/>
		<stop  offset="1" style="stop-color:#1C3441"/>
	</linearGradient>
	<path fill="url(#SVGID_26_)" d="M153,90.8c0,0.9-0.8,1.7-1.7,1.7l-2.4,0c-0.9,0-1.7-0.8-1.7-1.7l0-2.7c0-0.9,0.8-1.7,1.7-1.7l2.4,0
		c0.9,0,1.7,0.8,1.7,1.7L153,90.8z"/>
	
		<linearGradient id="SVGID_27_" gradientUnits="userSpaceOnUse" x1="146.3404" y1="120.378" x2="146.3404" y2="132.112" gradientTransform="matrix(1 8.600000e-003 -8.600000e-003 1 46.7745 -40.1935)">
		<stop  offset="0" style="stop-color:#85A5AF"/>
		<stop  offset="0.1555" style="stop-color:#7F9FA9"/>
		<stop  offset="0.3655" style="stop-color:#6F8E98"/>
		<stop  offset="0.6066" style="stop-color:#55717D"/>
		<stop  offset="0.869" style="stop-color:#314A57"/>
		<stop  offset="1" style="stop-color:#1C3441"/>
	</linearGradient>
	<path fill="url(#SVGID_27_)" d="M194.9,91.2c0,0.9-0.8,1.7-1.7,1.7l-2.4,0c-0.9,0-1.7-0.8-1.7-1.7l0-2.8c0-0.9,0.8-1.7,1.7-1.7
		l2.4,0c0.9,0,1.7,0.8,1.7,1.7L194.9,91.2z"/>
	
		<linearGradient id="SVGID_28_" gradientUnits="userSpaceOnUse" x1="159.6494" y1="120.3794" x2="159.6494" y2="132.1104" gradientTransform="matrix(1 8.600000e-003 -8.600000e-003 1 46.7745 -40.1935)">
		<stop  offset="0" style="stop-color:#85A5AF"/>
		<stop  offset="0.1555" style="stop-color:#7F9FA9"/>
		<stop  offset="0.3655" style="stop-color:#6F8E98"/>
		<stop  offset="0.6066" style="stop-color:#55717D"/>
		<stop  offset="0.869" style="stop-color:#314A57"/>
		<stop  offset="1" style="stop-color:#1C3441"/>
	</linearGradient>
	<path fill="url(#SVGID_28_)" d="M208.2,91.3c0,0.9-0.8,1.7-1.7,1.7l-2.4,0c-0.9,0-1.7-0.8-1.7-1.7l0-2.8c0-0.9,0.8-1.7,1.7-1.7
		l2.4,0c0.9,0,1.7,0.8,1.7,1.7L208.2,91.3z"/>
	
		<linearGradient id="SVGID_29_" gradientUnits="userSpaceOnUse" x1="172.9587" y1="120.3783" x2="172.9587" y2="132.1119" gradientTransform="matrix(1 8.600000e-003 -8.600000e-003 1 46.7745 -40.1935)">
		<stop  offset="0" style="stop-color:#85A5AF"/>
		<stop  offset="0.1555" style="stop-color:#7F9FA9"/>
		<stop  offset="0.3655" style="stop-color:#6F8E98"/>
		<stop  offset="0.6066" style="stop-color:#55717D"/>
		<stop  offset="0.869" style="stop-color:#314A57"/>
		<stop  offset="1" style="stop-color:#1C3441"/>
	</linearGradient>
	<path fill="url(#SVGID_29_)" d="M221.5,91.4c0,0.9-0.8,1.7-1.7,1.7l-2.4,0c-0.9,0-1.7-0.8-1.7-1.7l0-2.7c0-0.9,0.8-1.7,1.7-1.7
		l2.4,0c0.9,0,1.7,0.8,1.7,1.7L221.5,91.4z"/>
	
		<linearGradient id="SVGID_30_" gradientUnits="userSpaceOnUse" x1="186.2664" y1="120.3754" x2="186.2664" y2="132.1123" gradientTransform="matrix(1 8.600000e-003 -8.600000e-003 1 46.7745 -40.1935)">
		<stop  offset="0" style="stop-color:#85A5AF"/>
		<stop  offset="0.1555" style="stop-color:#7F9FA9"/>
		<stop  offset="0.3655" style="stop-color:#6F8E98"/>
		<stop  offset="0.6066" style="stop-color:#55717D"/>
		<stop  offset="0.869" style="stop-color:#314A57"/>
		<stop  offset="1" style="stop-color:#1C3441"/>
	</linearGradient>
	<path fill="url(#SVGID_30_)" d="M234.8,91.5c0,0.9-0.8,1.7-1.7,1.7l-2.4,0c-0.9,0-1.7-0.8-1.7-1.7l0-2.7c0-0.9,0.8-1.7,1.7-1.7
		l2.4,0c0.9,0,1.7,0.8,1.7,1.7L234.8,91.5z"/>
	
		<linearGradient id="SVGID_31_" gradientUnits="userSpaceOnUse" x1="199.5747" y1="120.3773" x2="199.5747" y2="132.1093" gradientTransform="matrix(1 8.600000e-003 -8.600000e-003 1 46.7745 -40.1935)">
		<stop  offset="0" style="stop-color:#85A5AF"/>
		<stop  offset="0.1555" style="stop-color:#7F9FA9"/>
		<stop  offset="0.3655" style="stop-color:#6F8E98"/>
		<stop  offset="0.6066" style="stop-color:#55717D"/>
		<stop  offset="0.869" style="stop-color:#314A57"/>
		<stop  offset="1" style="stop-color:#1C3441"/>
	</linearGradient>
	<path fill="url(#SVGID_31_)" d="M248.1,91.7c0,0.9-0.8,1.7-1.7,1.7l-2.4,0c-0.9,0-1.7-0.8-1.7-1.7l0-2.8c0-0.9,0.8-1.7,1.7-1.7
		l2.4,0c0.9,0,1.7,0.8,1.7,1.7L248.1,91.7z"/>
	
		<linearGradient id="SVGID_32_" gradientUnits="userSpaceOnUse" x1="212.8833" y1="120.3793" x2="212.8833" y2="132.11" gradientTransform="matrix(1 8.600000e-003 -8.600000e-003 1 46.7745 -40.1935)">
		<stop  offset="0" style="stop-color:#85A5AF"/>
		<stop  offset="0.1555" style="stop-color:#7F9FA9"/>
		<stop  offset="0.3655" style="stop-color:#6F8E98"/>
		<stop  offset="0.6066" style="stop-color:#55717D"/>
		<stop  offset="0.869" style="stop-color:#314A57"/>
		<stop  offset="1" style="stop-color:#1C3441"/>
	</linearGradient>
	<path fill="url(#SVGID_32_)" d="M261.4,91.8c0,0.9-0.8,1.7-1.7,1.7l-2.4,0c-0.9,0-1.7-0.8-1.7-1.7l0-2.7c0-0.9,0.8-1.7,1.7-1.7
		l2.4,0c0.9,0,1.7,0.8,1.7,1.7L261.4,91.8z"/>
	
		<linearGradient id="SVGID_33_" gradientUnits="userSpaceOnUse" x1="226.1921" y1="120.3748" x2="226.1921" y2="132.1107" gradientTransform="matrix(1 8.600000e-003 -8.600000e-003 1 46.7745 -40.1935)">
		<stop  offset="0" style="stop-color:#85A5AF"/>
		<stop  offset="0.1555" style="stop-color:#7F9FA9"/>
		<stop  offset="0.3655" style="stop-color:#6F8E98"/>
		<stop  offset="0.6066" style="stop-color:#55717D"/>
		<stop  offset="0.869" style="stop-color:#314A57"/>
		<stop  offset="1" style="stop-color:#1C3441"/>
	</linearGradient>
	<path fill="url(#SVGID_33_)" d="M274.7,91.9c0,0.9-0.8,1.7-1.7,1.7l-2.4,0c-0.9,0-1.7-0.8-1.7-1.7l0-2.8c0-0.9,0.8-1.7,1.7-1.7
		l2.4,0c0.9,0,1.7,0.8,1.7,1.7L274.7,91.9z"/>
	
		<linearGradient id="SVGID_34_" gradientUnits="userSpaceOnUse" x1="239.5001" y1="120.3728" x2="239.5001" y2="132.1102" gradientTransform="matrix(1 8.600000e-003 -8.600000e-003 1 46.7745 -40.1935)">
		<stop  offset="0" style="stop-color:#85A5AF"/>
		<stop  offset="0.1555" style="stop-color:#7F9FA9"/>
		<stop  offset="0.3655" style="stop-color:#6F8E98"/>
		<stop  offset="0.6066" style="stop-color:#55717D"/>
		<stop  offset="0.869" style="stop-color:#314A57"/>
		<stop  offset="1" style="stop-color:#1C3441"/>
	</linearGradient>
	<path fill="url(#SVGID_34_)" d="M288,92c0,0.9-0.8,1.7-1.7,1.7l-2.4,0c-0.9,0-1.7-0.8-1.7-1.7l0-2.8c0-0.9,0.8-1.7,1.7-1.7l2.4,0
		c0.9,0,1.7,0.8,1.7,1.7L288,92z"/>
	<g>
		
			<linearGradient id="SVGID_35_" gradientUnits="userSpaceOnUse" x1="29.6186" y1="85.815" x2="29.6186" y2="89.511" gradientTransform="matrix(1 8.600000e-003 -8.600000e-003 1 46.7745 -40.1935)">
			<stop  offset="0" style="stop-color:#DBDBDB"/>
			<stop  offset="0.2037" style="stop-color:#D5D5D5"/>
			<stop  offset="0.479" style="stop-color:#C4C4C4"/>
			<stop  offset="0.7936" style="stop-color:#A8A8A8"/>
			<stop  offset="1" style="stop-color:#919191"/>
		</linearGradient>
		<path fill="url(#SVGID_35_)" d="M68.8,73L69,57.9c0-1.6,1.3-2.8,2.9-2.8l0,0l7.5,0.1c1.6,0,2.8,1.3,2.8,2.9l0,0L82,73.1
			c0,1.6-1.3,2.8-2.9,2.8l0,0l-7.5-0.1C70.1,75.8,68.8,74.5,68.8,73L68.8,73z M69.9,57.9L69.8,73c0,1,0.8,1.9,1.9,1.9l0,0l7.5,0.1
			c1,0,1.9-0.8,1.9-1.9l0,0L81.2,58c0-1-0.8-1.9-1.9-1.9l0,0L71.8,56C70.8,56,69.9,56.8,69.9,57.9L69.9,57.9z"/>
	</g>
	<g>
		
			<linearGradient id="SVGID_36_" gradientUnits="userSpaceOnUse" x1="11.2579" y1="109.8755" x2="11.2579" y2="113.5712" gradientTransform="matrix(1 8.600000e-003 -8.600000e-003 1 46.7745 -40.1935)">
			<stop  offset="0" style="stop-color:#DBDBDB"/>
			<stop  offset="0.1634" style="stop-color:#D5D5D5"/>
			<stop  offset="0.3841" style="stop-color:#C4C4C4"/>
			<stop  offset="0.6377" style="stop-color:#A8A8A8"/>
			<stop  offset="0.9137" style="stop-color:#818181"/>
			<stop  offset="1" style="stop-color:#737373"/>
		</linearGradient>
		<path fill="url(#SVGID_36_)" d="M50.3,96.9l0.1-15.1c0-1.6,1.3-2.8,2.9-2.8l0,0l7.5,0.1c1.6,0,2.8,1.3,2.8,2.9l0,0L63.4,97
			c0,1.6-1.3,2.8-2.9,2.8l0,0l-7.5-0.1C51.5,99.7,50.3,98.4,50.3,96.9L50.3,96.9z M51.4,81.8l-0.1,15.1c0,1,0.8,1.9,1.9,1.9l0,0
			l7.5,0.1c1,0,1.9-0.8,1.9-1.9l0,0l0.1-15.1c0-1-0.8-1.9-1.9-1.9l0,0l-7.5-0.1C52.2,79.9,51.4,80.7,51.4,81.8L51.4,81.8z"/>
	</g>
	<g>
		
			<linearGradient id="SVGID_37_" gradientUnits="userSpaceOnUse" x1="225.8405" y1="110.9505" x2="225.8405" y2="114.647" gradientTransform="matrix(1 8.600000e-003 -8.600000e-003 1 46.7745 -40.1935)">
			<stop  offset="0" style="stop-color:#DBDBDB"/>
			<stop  offset="0.1634" style="stop-color:#D5D5D5"/>
			<stop  offset="0.3841" style="stop-color:#C4C4C4"/>
			<stop  offset="0.6377" style="stop-color:#A8A8A8"/>
			<stop  offset="0.9137" style="stop-color:#818181"/>
			<stop  offset="1" style="stop-color:#737373"/>
		</linearGradient>
		<path fill="url(#SVGID_37_)" d="M264.8,99.8l0.1-15.1c0-1.6,1.3-2.8,2.9-2.8l0,0l7.5,0.1c1.6,0,2.8,1.3,2.8,2.9l0,0L278,99.9
			c0,1.6-1.3,2.8-2.9,2.8l0,0l-7.5-0.1C266.1,102.7,264.8,101.4,264.8,99.8L264.8,99.8z M265.9,84.7l-0.1,15.1c0,1,0.8,1.9,1.9,1.9
			l0,0l7.5,0.1c1,0,1.9-0.8,1.9-1.9l0,0l0.1-15.1c0-1-0.8-1.9-1.9-1.9l0,0l-7.5-0.1C266.8,82.8,265.9,83.7,265.9,84.7L265.9,84.7z"
			/>
	</g>
	
		<linearGradient id="SVGID_38_" gradientUnits="userSpaceOnUse" x1="-18.6525" y1="49.2715" x2="56.681" y2="126.6051" gradientTransform="matrix(0.9868 -0.1617 0.1617 0.9868 -12.4079 33.5339)">
		<stop  offset="0" style="stop-color:#F56B4F"/>
		<stop  offset="0.5782" style="stop-color:#B1412F"/>
		<stop  offset="1" style="stop-color:#7D2117"/>
	</linearGradient>
	<path fill="url(#SVGID_38_)" d="M21.1,117.8l-5,0c3.1,2.5,7.1,4.9,11.9,7.3c2.8,1.3,6,2.7,9.5,3.9l0-3.1c-3-1.1-5.8-2.3-8.3-3.5
		C26.1,120.9,23.4,119.3,21.1,117.8z"/>
</g>
</svg>
