<?xml version="1.0" encoding="utf-8"?>
<!-- Generator: Adobe Illustrator 17.1.0, SVG Export Plug-In . SVG Version: 6.00 Build 0)  -->
<!DOCTYPE svg PUBLIC "-//W3C//DTD SVG 1.1//EN" "http://www.w3.org/Graphics/SVG/1.1/DTD/svg11.dtd">
<svg version="1.1" id="Layer_2" xmlns="http://www.w3.org/2000/svg" xmlns:xlink="http://www.w3.org/1999/xlink" x="0px" y="0px"
	 viewBox="0 0 166.7 60.5" enable-background="new 0 0 166.7 60.5" xml:space="preserve">
<path fill="#C72937" d="M159.5,32.5c0,0-4.5-12.3-40.6-11.8c0,0-15.5-14.4-27.5-15.8c-12-1.3-41.9,0-41.9,0s-12.6,1.3-23,12.3H8.1
	v15H3.3v13.1l12.3,8.8h6.9h0.8c-0.4-1.2-0.6-2.4-0.6-3.7c0-7.1,5.7-12.8,12.8-12.8s12.8,5.7,12.8,12.8c0,1.3-0.2,2.6-0.6,3.7h77
	c-0.4-1.2-0.6-2.4-0.6-3.7c0-7.1,5.7-12.8,12.8-12.8s12.8,5.7,12.8,12.8c0,1.3-0.2,2.6-0.6,3.7h2.7h5.1
	C157.1,54.1,165.1,46.9,159.5,32.5z"/>
<path fill="#14363A" d="M147.2,50.4c0,5.6-4.5,10.1-10.2,10.1c-5.6,0-10.1-4.5-10.1-10.1c0-5.6,4.5-10.1,10.1-10.1
	C142.7,40.2,147.2,44.8,147.2,50.4z"/>
<path fill="#3F3932" d="M38.2,25.6h73.4c0,0-1.8-9.3-21.1-16.3H53.8C53.8,9.3,41.6,14.9,38.2,25.6z"/>
<rect x="71.4" y="8.2" fill="#C72937" width="5.3" height="18.2"/>
<circle fill="#14363A" cx="35.6" cy="50.4" r="10.1"/>
</svg>
