<?xml version="1.0" encoding="utf-8"?>
<!-- Generator: Adobe Illustrator 17.1.0, SVG Export Plug-In . SVG Version: 6.00 Build 0)  -->
<!DOCTYPE svg PUBLIC "-//W3C//DTD SVG 1.1//EN" "http://www.w3.org/Graphics/SVG/1.1/DTD/svg11.dtd">
<svg version="1.1" id="Layer_1" xmlns="http://www.w3.org/2000/svg" xmlns:xlink="http://www.w3.org/1999/xlink" x="0px" y="0px"
	 viewBox="0 0 114.1 170.8" enable-background="new 0 0 114.1 170.8" xml:space="preserve">
<g>
	<path fill="#6F8622" d="M90.1,66.5c5.8,28.7-9.4,52.1-34.9,42.7C43,104.9,32.2,94.7,26,85.7c-6.3-9.4-8.1-17.7-5.7-25.2
		c2.5-7.5,8.2-14.6,14.4-22.3c6.3-7.4,13.2-15.4,20.4-18C69.1,14.2,84.4,37.7,90.1,66.5z"/>
	<path fill="#53641A" d="M80.9,65.1c4.7,23.2-7.6,42.1-28.2,34.5c-9.9-3.5-18.6-11.6-23.6-19C24,73,22.6,66.3,24.6,60.3
		c2-6.1,6.6-11.8,11.7-18c5.1-6,10.6-12.5,16.5-14.6C63.9,22.9,76.3,41.9,80.9,65.1z"/>
	<g>
		<g>
			<path fill="#873A16" d="M57.9,143.2c0,0-2.8-73.2-2.8-73.8c0-0.6-0.7-0.9-1.2-2.2c-2.9,12.2-1.3,67.8-0.7,87.1h4.1L57.9,143.2z"
				/>
			<path fill="#BF952A" d="M67.9,84.6c-0.7-0.6-0.5-0.6-1.4,0.4c-0.9,1-11.3,27-12.9,69.2h5.3C59.2,141.2,60.8,92.1,67.9,84.6z"/>
			<path fill="#A55518" d="M66.8,84.6c-0.7-0.6-0.5-0.6-1.4,0.4c-0.9,1-11.3,27-12.9,69.2h5.3C58,141.2,59.7,92.1,66.8,84.6z"/>
		</g>
	</g>
</g>
</svg>
