<?xml version="1.0" encoding="utf-8"?>
<!-- Generator: Adobe Illustrator 17.1.0, SVG Export Plug-In . SVG Version: 6.00 Build 0)  -->
<!DOCTYPE svg PUBLIC "-//W3C//DTD SVG 1.1//EN" "http://www.w3.org/Graphics/SVG/1.1/DTD/svg11.dtd">
<svg version="1.1" id="Layer_1" xmlns="http://www.w3.org/2000/svg" xmlns:xlink="http://www.w3.org/1999/xlink" x="0px" y="0px"
	 viewBox="0 0 216.5 190.5" enable-background="new 0 0 216.5 190.5" xml:space="preserve">
<path fill="#16274e" d="M201,52.3l-3.2-0.3L48,36l-2.4-0.2l-3.1-15.4c0.5-3-1.2-6-4.2-7L14,6C11.1,5,8,6.6,7,9.4
	c-1,2.9,0.6,6,3.4,6.9l22.7,8.4l20.6,102.8h3l0,0H57l0.1,0.3h2.5h18.8c-1.7,0.7-3.2,1.6-4.5,2.6l-34.6,28.2
	c-4.9,0.7-8.8,4.2-10.1,8.9l-0.4,0.4H29c-0.2,1-0.4,2-0.4,3c0,6.9,5.6,12.5,12.5,12.5c6.9,0,12.5-5.6,12.5-12.5
	c0-1.9-0.5-3.8-1.3-5.4l23.2-15.3c3.1-2,7.9-3.3,12.6-3.3c2.4,0,4.7,0.3,6.5,1l53.9,19.1c-0.4,1.2-0.6,2.5-0.6,3.9
	c0,6.9,5.6,12.5,12.5,12.5c6.9,0,12.5-5.6,12.5-12.5c0-6.9-5.6-12.5-12.5-12.5c-0.5,0-1,0-1.5,0.1L95.7,128c0,0-0.1,0-0.1-0.1h85
	h2.1l1.2-4.5l19-67.1l1-3.8L201,52.3z M124.7,97.5l0.2-20.3l28.3,2L151,98.5L124.7,97.5z M150.2,104.9l-1.7,15h-24l0.1-15.9
	L150.2,104.9z M124.9,70.8l0.2-18.8l31,3.5l-2.2,17.3L124.9,70.8z M156.7,105.1l23.5,0.8l-3.8,13.9H155L156.7,105.1z M157.4,98.7
	l2.2-19l27.2,1.9l-4.8,17.9L157.4,98.7z M160.3,73.3l2.2-17.2l31.1,3.5l-5.1,15.7L160.3,73.3z M91.8,96.4l-2.1-21.6l28.7,2
	l-0.2,20.5L91.8,96.4z M118.2,103.8l-0.1,16.1H94.1l-1.6-17L118.2,103.8z M89.1,68.3l-2-20.3l31.6,3.5l-0.2,18.9L89.1,68.3z
	 M52.6,65.8l-4.5-21.9l32.4,3.6l2.1,20.4L52.6,65.8z M83.2,74.4l2.1,21.8l-26.7-0.9l-4.7-22.9L83.2,74.4z M85.9,102.6l1.7,17.2h-24
	l-3.7-18.1L85.9,102.6z M42.5,35.5l-2.3-11.3c0,0,0,0,0,0L42.5,35.5L42.5,35.5z"/>
</svg>
