<?xml version="1.0" encoding="utf-8"?>
<!-- Generator: Adobe Illustrator 17.1.0, SVG Export Plug-In . SVG Version: 6.00 Build 0)  -->
<!DOCTYPE svg PUBLIC "-//W3C//DTD SVG 1.1//EN" "http://www.w3.org/Graphics/SVG/1.1/DTD/svg11.dtd">
<svg version="1.1" id="Layer_1" xmlns="http://www.w3.org/2000/svg" xmlns:xlink="http://www.w3.org/1999/xlink" x="0px" y="0px"
	 viewBox="0 0 248.1 248.1" enable-background="new 0 0 248.1 248.1" xml:space="preserve">
<g>
	<path fill="#C25D20" d="M195.7,144c-4,0-7.3,1.3-9.9,4c-2.6,2.7-4.2,6.5-4.8,11.5h27.3c-0.2-4.9-1.3-8.7-3.5-11.4
		C202.5,145.4,199.5,144,195.7,144z"/>
	<path fill="#C25D20" d="M123.1,144c-5,0-9,1.7-12,5.1c-3,3.4-4.5,8.1-4.5,14.1c0,5.6,1.5,10,4.4,13.4c2.9,3.4,6.9,5.1,11.9,5.1
		c5.1,0,9.1-1.7,11.8-5c2.8-3.3,4.2-7.9,4.2-13.8c0-6.1-1.4-10.7-4.1-14C132,145.6,128.1,144,123.1,144z"/>
	<g>
		<path fill="#C25D20" d="M201.1,103.7c0-4.7-1.4-8.4-4.1-11.1c-2.7-2.7-6.5-4-11.4-4h-5.4v31.2h5.5c4.8,0,8.6-1.4,11.3-4.3
			C199.7,112.6,201.1,108.7,201.1,103.7z"/>
		<path fill="#C25D20" d="M56.9,99.5c1.5-1.4,2.2-3.1,2.2-5.2c0-4.3-2.6-6.5-7.7-6.5h-5v13.7h4.8C53.6,101.6,55.5,100.9,56.9,99.5z"
			/>
		<path fill="#C25D20" d="M138.7,88.3h-0.3c-0.1,1.4-0.4,2.9-0.9,4.3l-5.4,16.7h12.6l-5.3-16.6C139.1,91.5,138.9,90.1,138.7,88.3z"
			/>
		<path fill="#C25D20" d="M124,0C55.5,0,0,55.5,0,124c0,68.5,55.5,124,124,124c68.5,0,124-55.5,124-124C248.1,55.5,192.5,0,124,0z
			 M169.1,79.5h17.4c17.5,0,26.2,8,26.2,24c0,7.7-2.4,13.8-7.2,18.4c-4.8,4.6-11.1,6.9-19.1,6.9h-17.4V79.5z M81.2,79.5h28.4v9H92.3
			v11h16.1v9H92.3v11.3h18.4v9H81.2V79.5z M35.3,79.5h17.6c12,0,17.9,4.5,17.9,13.4c0,1.7-0.3,3.3-0.8,4.8c-0.5,1.5-1.3,2.8-2.2,3.9
			c-1,1.2-2.1,2.2-3.5,3c-1.4,0.8-2.9,1.5-4.5,2v0.1c0.7,0.2,1.4,0.6,2.1,1.1c0.7,0.5,1.4,1.1,2,1.8c0.6,0.7,1.3,1.4,1.8,2.2
			c0.6,0.8,1.1,1.6,1.6,2.3l9.3,14.6H63.9l-7.7-12.7c-0.6-1-1.1-1.8-1.6-2.6c-0.5-0.8-1.1-1.4-1.6-1.9c-0.5-0.5-1.1-0.9-1.7-1.2
			c-0.6-0.3-1.2-0.4-1.9-0.4h-3v18.9H35.3V79.5z M93,184.1h-3.8v-25.6c0-5.3-0.8-9.1-2.5-11.3c-1.7-2.2-4.3-3.2-8-3.2
			c-3.4,0-6.2,1.4-8.7,4.3c-2.4,2.9-3.7,6.5-3.7,10.8v24.9h-3.8v-25.9c0-9.5-3.6-14.2-10.8-14.2c-3.5,0-6.3,1.4-8.6,4.3
			c-2.3,2.9-3.4,6.6-3.4,11.2v24.5h-3.8v-42.5h3.8v7.1h0.2c3-5.4,7.3-8.1,13-8.1c3.1,0,5.8,0.9,8,2.7c2.2,1.8,3.7,4.1,4.5,7
			c1.3-3.1,3.2-5.5,5.7-7.2c2.5-1.7,5.2-2.6,8.1-2.6c9.3,0,14,5.8,14,17.3V184.1z M137.5,179c-3.6,4.1-8.5,6.1-14.7,6.1
			c-6.2,0-11.1-2-14.7-6.1c-3.6-4.1-5.4-9.4-5.4-15.9c0-7.1,1.9-12.6,5.7-16.6c3.8-4,8.8-6,14.9-6c6.1,0,10.9,2,14.4,5.9
			c3.5,4,5.3,9.4,5.3,16.4C142.9,169.5,141.1,174.9,137.5,179z M147.4,117.8h-17.5l-3.5,11h-12l17.9-49.2h13.2l17.5,49.2h-12.1
			L147.4,117.8z M173.5,145.6c-1.3-0.9-2.8-1.4-4.5-1.4c-3.4,0-6.2,1.7-8.4,5.2c-2.3,3.5-3.4,8.4-3.4,14.7v20h-3.7v-42.5h3.7v9.4
			h0.2c1-3.2,2.5-5.8,4.6-7.6c2.1-1.8,4.5-2.7,7.3-2.7c1.6,0,3,0.2,4.2,0.7V145.6z M212.2,163h-31.5c0,5.8,1.3,10.4,4,13.7
			c2.7,3.3,6.4,4.9,11.1,4.9c4.8,0,9.4-1.8,14-5.3v4.1c-4.4,3.1-9.3,4.7-14.7,4.7c-5.5,0-9.9-2-13.3-5.9c-3.4-3.9-5.1-9.5-5.1-16.7
			c0-6.2,1.8-11.4,5.3-15.7c3.5-4.3,8.1-6.4,13.8-6.4c5.3,0,9.3,1.9,12.2,5.6c2.8,3.7,4.2,8.8,4.2,15.2V163z"/>
	</g>
</g>
</svg>
