<?xml version="1.0" encoding="utf-8"?>
<!-- Generator: Adobe Illustrator 17.1.0, SVG Export Plug-In . SVG Version: 6.00 Build 0)  -->
<!DOCTYPE svg PUBLIC "-//W3C//DTD SVG 1.1//EN" "http://www.w3.org/Graphics/SVG/1.1/DTD/svg11.dtd">
<svg version="1.1" id="Layer_1" xmlns="http://www.w3.org/2000/svg" xmlns:xlink="http://www.w3.org/1999/xlink" x="0px" y="0px"
	 viewBox="0 0 84 52" enable-background="new 0 0 84 52" xml:space="preserve">
<g>
	<path fill-rule="evenodd" clip-rule="evenodd" fill="#F1EEE5" d="M73.1,27.4c0.9,0.5,1.7,1.1,2.5,2c0.4,0.3,0.8,0.6,1,1
		c0.4,0.5,0.7,1.1,0.9,1.7c0.6,1.2,0.9,2.4,0.9,3.8c0,2-0.6,3.8-1.8,5.5c-0.3,0.3-0.6,0.6-1,1c-0.8,0.9-1.6,1.5-2.5,1.9
		c-1,0.5-2.2,0.8-3.5,0.9c-0.1,0-0.2,0-0.4,0H15.5c-0.4,0-0.8,0-1.2-0.1c-1.2-0.2-2.4-0.5-3.4-1.1c-0.8-0.5-1.6-1.1-2.4-1.8
		c-0.4-0.4-0.7-0.9-1.1-1.3c-1.3-1.7-1.9-3.7-1.9-6c0-1.7,0.3-3.2,0.9-4.6c0.3-0.6,0.6-1.1,1-1.5c0.3-0.5,0.6-0.9,1.1-1.3
		c0.8-0.7,1.6-1.3,2.4-1.8c0.9-0.5,1.8-0.8,2.8-1c0.2-0.1,0.5-0.1,0.7-0.2c0.3,0,0.5,0,0.7,0c0.2-3.1,1.1-6,2.8-8.5v-0.2
		c0.8-1.1,1.7-2.3,2.9-3.4c0.2-0.2,0.5-0.5,0.7-0.7c1.1-0.9,2.2-1.8,3.4-2.5c1.2-0.6,2.4-1.1,3.5-1.5c1.1-0.3,2.3-0.6,3.5-0.8
		c0.8,0,1.6,0,2.5,0c0.3,0,0.6,0,0.9,0c1.2,0,2.4,0.2,3.5,0.5C39.8,7.6,40.9,8,42,8.5c1.2,0.6,2.3,1.3,3.5,2.1
		c0.7,0.5,1.4,1.2,2.1,1.9c0.5,0.5,0.9,0.9,1.4,1.4c1.6,2,2.8,4.1,3.4,6.4c0.2,0.5,0.3,1.2,0.5,1.9c0,0.3,0,0.6,0.1,1
		c0.1,0,0.1,0,0.1-0.1c0.9-0.7,1.8-1.2,2.6-1.6c0.9-0.2,1.9-0.4,2.9-0.4c0.2,0,0.4,0,0.7,0c1.2,0.1,2.4,0.4,3.6,1.1
		c0.5,0.3,1,0.8,1.5,1.3c0.8,0.8,1.5,1.8,1.9,2.9c0,0.1,0,0.3,0.1,0.5c0,0.1,0,0.2,0.1,0.4c0,0,0.1,0,0.1,0c0.8-0.3,1.6-0.5,2.5-0.5
		c0.2,0,0.3,0,0.5,0.1C70.9,26.7,72.1,26.9,73.1,27.4z"/>
</g>
</svg>
