<?xml version="1.0" encoding="utf-8"?>
<!-- Generator: Adobe Illustrator 17.1.0, SVG Export Plug-In . SVG Version: 6.00 Build 0)  -->
<!DOCTYPE svg PUBLIC "-//W3C//DTD SVG 1.1//EN" "http://www.w3.org/Graphics/SVG/1.1/DTD/svg11.dtd">
<svg version="1.1" id="Layer_8" xmlns="http://www.w3.org/2000/svg" xmlns:xlink="http://www.w3.org/1999/xlink" x="0px" y="0px"
	 viewBox="0 0 74 73.3" enable-background="new 0 0 74 73.3" xml:space="preserve">
<g>
	<path fill="#FEA000" d="M18.9,49.4c-6.4-10.1-3.3-23.5,6.8-29.9c10.1-6.4,23.5-3.3,29.9,6.8c6.4,10.1,3.3,23.5-6.8,29.9
		C38.7,62.6,25.3,59.6,18.9,49.4z"/>
	<g>
		<path fill="#FEA000" d="M59,10.4l-8.3,6.2c1.3,0.8,2.5,1.8,3.7,2.8L59,10.4z"/>
		<path fill="#FEA000" d="M15.1,49.8l-6.4,7.4l8.8-3.7c-0.5-0.7-1.1-1.4-1.6-2.2C15.6,50.8,15.4,50.3,15.1,49.8z"/>
		<path fill="#FEA000" d="M2.4,41.9l10.2,0.8c-0.3-1.5-0.5-3.1-0.5-4.6L2.4,41.9z"/>
		<path fill="#FEA000" d="M21.3,67.9l5.7-7c-1.3-0.6-2.5-1.2-3.6-2L21.3,67.9z"/>
		<path fill="#FEA000" d="M37.5,71.5l1.8-8.5c-1.3,0.1-2.7,0.1-4,0L37.5,71.5z"/>
		<path fill="#FEA000" d="M44.2,13.7L44.1,3.1l-4.6,9.7C41.1,13,42.7,13.3,44.2,13.7z"/>
		<path fill="#FEA000" d="M4,25.4l9,5.7c0.4-1.6,1-3.1,1.8-4.6L4,25.4z"/>
		<path fill="#FEA000" d="M47.8,60.8l5.8,6.3l-2.4-8.2c-0.2,0.1-0.3,0.2-0.5,0.3C49.7,59.8,48.7,60.3,47.8,60.8z"/>
		<path fill="#FEA000" d="M68.7,23.8l-9.6,1.5c0.7,1.3,1.4,2.6,1.8,4L68.7,23.8z"/>
		<path fill="#FEA000" d="M13.1,11.5l5.5,9.5c1.1-1.2,2.3-2.4,3.7-3.4L13.1,11.5z"/>
		<path fill="#FEA000" d="M27.5,3.5l0.4,11c1.6-0.6,3.2-1.1,4.8-1.4L27.5,3.5z"/>
		<path fill="#FEA000" d="M65.6,55.8l-6-6.3c-0.6,1.2-1.3,2.3-2.1,3.3L65.6,55.8z"/>
		<path fill="#FEA000" d="M71.1,40.2l-8.7-2.9c0,1.4,0,2.8-0.2,4.1L71.1,40.2z"/>
	</g>
</g>
</svg>
